M48
; DRILL file {KiCad (5.1.4)-1} date 16.06.2020 14:32:07
; FORMAT={-:-/ absolute / metric / decimal}
; #@! TF.CreationDate,2020-06-16T14:32:07+02:00
; #@! TF.GenerationSoftware,Kicad,Pcbnew,(5.1.4)-1
; #@! TF.FileFunction,Plated,1,2,PTH
FMAT,2
METRIC
T1C0.400
T2C0.500
T3C0.600
T4C0.700
T5C1.000
T6C1.016
T7C1.300
T8C3.200
T9C4.300
%
G90
G05
T1
X69.731Y-66.487
X69.782Y-64.912
X71.178Y-63.16
X71.458Y-70.907
X71.864Y-77.054
X72.83Y-70.907
X74.201Y-72.075
X75.827Y-78.273
X76.055Y-73.726
X76.843Y-59.274
X76.843Y-62.068
X77.605Y-76.19
X77.63Y-74.336
X79.281Y-64.912
X79.281Y-72.126
X80.831Y-91.201
X80.907Y-106.01
X81.008Y-70.856
X81.72Y-73.244
X82.507Y-63.617
X83.193Y-72.634
X83.447Y-80.0
X83.498Y-85.486
X83.65Y-102.86
X84.006Y-88.89
X84.818Y-76.19
X85.022Y-116.576
X85.276Y-92.598
X85.276Y-107.432
X85.987Y-94.427
X86.901Y-127.854
X87.765Y-118.608
X88.832Y-123.383
X92.286Y-77.663
X92.286Y-94.021
X92.438Y-123.383
X93.048Y-76.698
X93.099Y-94.681
X93.251Y-121.097
X94.216Y-111.75
X94.47Y-85.893
X95.385Y-129.682
X95.69Y-103.063
X95.994Y-71.008
X96.502Y-90.516
X96.553Y-110.378
X96.858Y-117.795
X96.96Y-96.713
X97.874Y-96.256
X98.484Y-68.672
X98.871Y-95.437
X98.871Y-97.037
X99.779Y-80.0
X99.957Y-107.127
X100.16Y-113.274
X100.312Y-92.04
X100.77Y-102.352
X101.328Y-108.143
X101.887Y-83.962
X101.938Y-89.601
X101.989Y-116.017
X102.141Y-71.008
X102.497Y-123.028
X102.497Y-125.872
X102.732Y-96.237
X102.77Y-97.837
X103.259Y-113.02
X103.786Y-111.363
X104.021Y-128.26
X104.072Y-98.847
X104.783Y-85.029
X104.834Y-94.224
X104.935Y-90.516
X104.986Y-88.077
X104.986Y-89.093
X105.189Y-97.628
X105.24Y-119.573
X105.596Y-109.616
X105.799Y-87.315
X106.205Y-94.224
X107.202Y-98.637
X107.475Y-105.705
X108.847Y-85.029
X108.948Y-91.176
X109.304Y-116.373
X109.507Y-121.758
X109.558Y-92.598
X110.32Y-102.555
X111.844Y-82.438
X112.809Y-85.029
X112.962Y-101.234
X113.292Y-122.139
X113.419Y-98.491
X113.724Y-93.665
X113.774Y-88.941
X115.959Y-129.276
X116.721Y-128.006
X120.277Y-90.109
X121.699Y-106.619
X121.75Y-111.75
X122.512Y-84.521
X124.9Y-86.147
X127.592Y-98.542
T2
X120.6Y-134.0
X121.303Y-132.303
X121.303Y-135.697
X123.0Y-131.6
X123.0Y-136.4
X124.697Y-132.303
X124.697Y-135.697
X125.4Y-134.0
X86.33Y-72.0
X87.033Y-70.303
X87.033Y-73.697
X88.73Y-69.6
X88.73Y-74.4
X90.427Y-70.303
X90.427Y-73.697
X91.13Y-72.0
X70.6Y-134.0
X71.303Y-132.303
X71.303Y-135.697
X73.0Y-131.6
X73.0Y-136.4
X74.697Y-132.303
X74.697Y-135.697
X75.4Y-134.0
X120.6Y-72.0
X121.303Y-70.303
X121.303Y-73.697
X123.0Y-69.6
X123.0Y-74.4
X124.697Y-70.303
X124.697Y-73.697
X125.4Y-72.0
T3
X98.195Y-135.034
X99.14Y-132.754
X99.14Y-137.314
X101.42Y-131.809
X101.42Y-138.259
X103.7Y-132.754
X103.7Y-137.314
X104.645Y-135.034
X88.045Y-135.034
X88.99Y-132.754
X88.99Y-137.314
X91.27Y-131.809
X91.27Y-138.259
X93.55Y-132.754
X93.55Y-137.314
X94.495Y-135.034
T4
X122.715Y-91.227
X122.715Y-96.307
T5
X105.367Y-65.141
X107.907Y-65.141
X110.447Y-65.141
X112.987Y-65.141
X78.062Y-80.203
X78.062Y-82.743
X78.062Y-85.283
X127.541Y-80.356
X127.541Y-82.896
X127.541Y-85.436
X127.541Y-87.976
X127.541Y-90.516
X127.541Y-93.056
X127.541Y-95.596
X90.0Y-80.0
X90.0Y-82.54
X90.0Y-85.08
X90.0Y-87.62
X90.0Y-90.16
X90.0Y-92.7
X90.0Y-95.24
X90.0Y-97.78
X90.0Y-100.32
X90.0Y-102.86
X90.0Y-105.4
X90.0Y-107.94
X90.0Y-110.48
X90.0Y-113.02
X90.0Y-115.56
X115.4Y-80.0
X115.4Y-82.54
X115.4Y-85.08
X115.4Y-87.62
X115.4Y-90.16
X115.4Y-92.7
X115.4Y-95.24
X115.4Y-97.78
X115.4Y-100.32
X115.4Y-102.86
X115.4Y-105.4
X115.4Y-107.94
X115.4Y-110.48
X115.4Y-113.02
X115.4Y-115.56
X117.94Y-80.0
X117.94Y-82.54
X117.94Y-85.08
X117.94Y-87.62
X117.94Y-90.16
X117.94Y-92.7
X117.94Y-95.24
X117.94Y-97.78
X117.94Y-100.32
X117.94Y-102.86
X117.94Y-105.4
X117.94Y-107.94
X117.94Y-110.48
X117.94Y-113.02
X117.94Y-115.56
X87.46Y-80.0
X87.46Y-82.54
X87.46Y-85.08
X87.46Y-87.62
X87.46Y-90.16
X87.46Y-92.7
X87.46Y-95.24
X87.46Y-97.78
X87.46Y-100.32
X87.46Y-102.86
X87.46Y-105.4
X87.46Y-107.94
X87.46Y-110.48
X87.46Y-113.02
X87.46Y-115.56
X127.592Y-101.438
X127.592Y-103.978
X127.592Y-106.518
X127.592Y-109.058
X127.592Y-111.598
X127.592Y-114.138
X127.592Y-116.678
X127.592Y-119.218
X127.592Y-121.758
X127.592Y-124.298
X92.159Y-65.141
X94.699Y-65.141
X97.239Y-65.141
X99.779Y-65.141
T6
X111.463Y-129.276
X111.463Y-131.816
X111.463Y-134.356
X114.003Y-129.276
X114.003Y-131.816
X114.003Y-134.356
T7
X125.458Y-58.084
X125.458Y-63.084
X70.442Y-80.182
X70.442Y-85.182
X70.442Y-91.633
X70.442Y-96.633
X70.442Y-101.633
X69.31Y-59.274
X74.31Y-59.274
X79.31Y-59.274
X84.31Y-59.274
X94.267Y-141.214
X99.267Y-141.214
X70.442Y-107.839
X70.442Y-112.839
X70.442Y-117.839
T8
X123.0Y-134.0
X88.73Y-72.0
X73.0Y-134.0
X123.0Y-72.0
T9
X101.42Y-135.034
X91.27Y-135.034
T0
M30
