G04 #@! TF.GenerationSoftware,KiCad,Pcbnew,(5.1.4)-1*
G04 #@! TF.CreationDate,2020-06-10T13:05:05+02:00*
G04 #@! TF.ProjectId,NodeMCU_WeatherStation,4e6f6465-4d43-4555-9f57-656174686572,rev?*
G04 #@! TF.SameCoordinates,Original*
G04 #@! TF.FileFunction,Paste,Top*
G04 #@! TF.FilePolarity,Positive*
%FSLAX46Y46*%
G04 Gerber Fmt 4.6, Leading zero omitted, Abs format (unit mm)*
G04 Created by KiCad (PCBNEW (5.1.4)-1) date 2020-06-10 13:05:05*
%MOMM*%
%LPD*%
G04 APERTURE LIST*
%ADD10C,0.100000*%
%ADD11C,2.500000*%
%ADD12C,0.875000*%
%ADD13C,0.600000*%
%ADD14R,1.400000X2.200000*%
%ADD15R,0.550000X1.600000*%
%ADD16R,1.600000X0.550000*%
%ADD17R,0.350000X0.500000*%
G04 APERTURE END LIST*
D10*
G36*
X86478104Y-122998004D02*
G01*
X86502373Y-123001604D01*
X86526171Y-123007565D01*
X86549271Y-123015830D01*
X86571449Y-123026320D01*
X86592493Y-123038933D01*
X86612198Y-123053547D01*
X86630377Y-123070023D01*
X86646853Y-123088202D01*
X86661467Y-123107907D01*
X86674080Y-123128951D01*
X86684570Y-123151129D01*
X86692835Y-123174229D01*
X86698796Y-123198027D01*
X86702396Y-123222296D01*
X86703600Y-123246800D01*
X86703600Y-125246800D01*
X86702396Y-125271304D01*
X86698796Y-125295573D01*
X86692835Y-125319371D01*
X86684570Y-125342471D01*
X86674080Y-125364649D01*
X86661467Y-125385693D01*
X86646853Y-125405398D01*
X86630377Y-125423577D01*
X86612198Y-125440053D01*
X86592493Y-125454667D01*
X86571449Y-125467280D01*
X86549271Y-125477770D01*
X86526171Y-125486035D01*
X86502373Y-125491996D01*
X86478104Y-125495596D01*
X86453600Y-125496800D01*
X82953600Y-125496800D01*
X82929096Y-125495596D01*
X82904827Y-125491996D01*
X82881029Y-125486035D01*
X82857929Y-125477770D01*
X82835751Y-125467280D01*
X82814707Y-125454667D01*
X82795002Y-125440053D01*
X82776823Y-125423577D01*
X82760347Y-125405398D01*
X82745733Y-125385693D01*
X82733120Y-125364649D01*
X82722630Y-125342471D01*
X82714365Y-125319371D01*
X82708404Y-125295573D01*
X82704804Y-125271304D01*
X82703600Y-125246800D01*
X82703600Y-123246800D01*
X82704804Y-123222296D01*
X82708404Y-123198027D01*
X82714365Y-123174229D01*
X82722630Y-123151129D01*
X82733120Y-123128951D01*
X82745733Y-123107907D01*
X82760347Y-123088202D01*
X82776823Y-123070023D01*
X82795002Y-123053547D01*
X82814707Y-123038933D01*
X82835751Y-123026320D01*
X82857929Y-123015830D01*
X82881029Y-123007565D01*
X82904827Y-123001604D01*
X82929096Y-122998004D01*
X82953600Y-122996800D01*
X86453600Y-122996800D01*
X86478104Y-122998004D01*
X86478104Y-122998004D01*
G37*
D11*
X84703600Y-124246800D03*
D10*
G36*
X78478104Y-122998004D02*
G01*
X78502373Y-123001604D01*
X78526171Y-123007565D01*
X78549271Y-123015830D01*
X78571449Y-123026320D01*
X78592493Y-123038933D01*
X78612198Y-123053547D01*
X78630377Y-123070023D01*
X78646853Y-123088202D01*
X78661467Y-123107907D01*
X78674080Y-123128951D01*
X78684570Y-123151129D01*
X78692835Y-123174229D01*
X78698796Y-123198027D01*
X78702396Y-123222296D01*
X78703600Y-123246800D01*
X78703600Y-125246800D01*
X78702396Y-125271304D01*
X78698796Y-125295573D01*
X78692835Y-125319371D01*
X78684570Y-125342471D01*
X78674080Y-125364649D01*
X78661467Y-125385693D01*
X78646853Y-125405398D01*
X78630377Y-125423577D01*
X78612198Y-125440053D01*
X78592493Y-125454667D01*
X78571449Y-125467280D01*
X78549271Y-125477770D01*
X78526171Y-125486035D01*
X78502373Y-125491996D01*
X78478104Y-125495596D01*
X78453600Y-125496800D01*
X74953600Y-125496800D01*
X74929096Y-125495596D01*
X74904827Y-125491996D01*
X74881029Y-125486035D01*
X74857929Y-125477770D01*
X74835751Y-125467280D01*
X74814707Y-125454667D01*
X74795002Y-125440053D01*
X74776823Y-125423577D01*
X74760347Y-125405398D01*
X74745733Y-125385693D01*
X74733120Y-125364649D01*
X74722630Y-125342471D01*
X74714365Y-125319371D01*
X74708404Y-125295573D01*
X74704804Y-125271304D01*
X74703600Y-125246800D01*
X74703600Y-123246800D01*
X74704804Y-123222296D01*
X74708404Y-123198027D01*
X74714365Y-123174229D01*
X74722630Y-123151129D01*
X74733120Y-123128951D01*
X74745733Y-123107907D01*
X74760347Y-123088202D01*
X74776823Y-123070023D01*
X74795002Y-123053547D01*
X74814707Y-123038933D01*
X74835751Y-123026320D01*
X74857929Y-123015830D01*
X74881029Y-123007565D01*
X74904827Y-123001604D01*
X74929096Y-122998004D01*
X74953600Y-122996800D01*
X78453600Y-122996800D01*
X78478104Y-122998004D01*
X78478104Y-122998004D01*
G37*
D11*
X76703600Y-124246800D03*
D10*
G36*
X122992891Y-87259653D02*
G01*
X123014126Y-87262803D01*
X123034950Y-87268019D01*
X123055162Y-87275251D01*
X123074568Y-87284430D01*
X123092981Y-87295466D01*
X123110224Y-87308254D01*
X123126130Y-87322670D01*
X123140546Y-87338576D01*
X123153334Y-87355819D01*
X123164370Y-87374232D01*
X123173549Y-87393638D01*
X123180781Y-87413850D01*
X123185997Y-87434674D01*
X123189147Y-87455909D01*
X123190200Y-87477350D01*
X123190200Y-87914850D01*
X123189147Y-87936291D01*
X123185997Y-87957526D01*
X123180781Y-87978350D01*
X123173549Y-87998562D01*
X123164370Y-88017968D01*
X123153334Y-88036381D01*
X123140546Y-88053624D01*
X123126130Y-88069530D01*
X123110224Y-88083946D01*
X123092981Y-88096734D01*
X123074568Y-88107770D01*
X123055162Y-88116949D01*
X123034950Y-88124181D01*
X123014126Y-88129397D01*
X122992891Y-88132547D01*
X122971450Y-88133600D01*
X122458950Y-88133600D01*
X122437509Y-88132547D01*
X122416274Y-88129397D01*
X122395450Y-88124181D01*
X122375238Y-88116949D01*
X122355832Y-88107770D01*
X122337419Y-88096734D01*
X122320176Y-88083946D01*
X122304270Y-88069530D01*
X122289854Y-88053624D01*
X122277066Y-88036381D01*
X122266030Y-88017968D01*
X122256851Y-87998562D01*
X122249619Y-87978350D01*
X122244403Y-87957526D01*
X122241253Y-87936291D01*
X122240200Y-87914850D01*
X122240200Y-87477350D01*
X122241253Y-87455909D01*
X122244403Y-87434674D01*
X122249619Y-87413850D01*
X122256851Y-87393638D01*
X122266030Y-87374232D01*
X122277066Y-87355819D01*
X122289854Y-87338576D01*
X122304270Y-87322670D01*
X122320176Y-87308254D01*
X122337419Y-87295466D01*
X122355832Y-87284430D01*
X122375238Y-87275251D01*
X122395450Y-87268019D01*
X122416274Y-87262803D01*
X122437509Y-87259653D01*
X122458950Y-87258600D01*
X122971450Y-87258600D01*
X122992891Y-87259653D01*
X122992891Y-87259653D01*
G37*
D12*
X122715200Y-87696100D03*
D10*
G36*
X122992891Y-88834653D02*
G01*
X123014126Y-88837803D01*
X123034950Y-88843019D01*
X123055162Y-88850251D01*
X123074568Y-88859430D01*
X123092981Y-88870466D01*
X123110224Y-88883254D01*
X123126130Y-88897670D01*
X123140546Y-88913576D01*
X123153334Y-88930819D01*
X123164370Y-88949232D01*
X123173549Y-88968638D01*
X123180781Y-88988850D01*
X123185997Y-89009674D01*
X123189147Y-89030909D01*
X123190200Y-89052350D01*
X123190200Y-89489850D01*
X123189147Y-89511291D01*
X123185997Y-89532526D01*
X123180781Y-89553350D01*
X123173549Y-89573562D01*
X123164370Y-89592968D01*
X123153334Y-89611381D01*
X123140546Y-89628624D01*
X123126130Y-89644530D01*
X123110224Y-89658946D01*
X123092981Y-89671734D01*
X123074568Y-89682770D01*
X123055162Y-89691949D01*
X123034950Y-89699181D01*
X123014126Y-89704397D01*
X122992891Y-89707547D01*
X122971450Y-89708600D01*
X122458950Y-89708600D01*
X122437509Y-89707547D01*
X122416274Y-89704397D01*
X122395450Y-89699181D01*
X122375238Y-89691949D01*
X122355832Y-89682770D01*
X122337419Y-89671734D01*
X122320176Y-89658946D01*
X122304270Y-89644530D01*
X122289854Y-89628624D01*
X122277066Y-89611381D01*
X122266030Y-89592968D01*
X122256851Y-89573562D01*
X122249619Y-89553350D01*
X122244403Y-89532526D01*
X122241253Y-89511291D01*
X122240200Y-89489850D01*
X122240200Y-89052350D01*
X122241253Y-89030909D01*
X122244403Y-89009674D01*
X122249619Y-88988850D01*
X122256851Y-88968638D01*
X122266030Y-88949232D01*
X122277066Y-88930819D01*
X122289854Y-88913576D01*
X122304270Y-88897670D01*
X122320176Y-88883254D01*
X122337419Y-88870466D01*
X122355832Y-88859430D01*
X122375238Y-88850251D01*
X122395450Y-88843019D01*
X122416274Y-88837803D01*
X122437509Y-88834653D01*
X122458950Y-88833600D01*
X122971450Y-88833600D01*
X122992891Y-88834653D01*
X122992891Y-88834653D01*
G37*
D12*
X122715200Y-89271100D03*
D10*
G36*
X107194091Y-126528053D02*
G01*
X107215326Y-126531203D01*
X107236150Y-126536419D01*
X107256362Y-126543651D01*
X107275768Y-126552830D01*
X107294181Y-126563866D01*
X107311424Y-126576654D01*
X107327330Y-126591070D01*
X107341746Y-126606976D01*
X107354534Y-126624219D01*
X107365570Y-126642632D01*
X107374749Y-126662038D01*
X107381981Y-126682250D01*
X107387197Y-126703074D01*
X107390347Y-126724309D01*
X107391400Y-126745750D01*
X107391400Y-127183250D01*
X107390347Y-127204691D01*
X107387197Y-127225926D01*
X107381981Y-127246750D01*
X107374749Y-127266962D01*
X107365570Y-127286368D01*
X107354534Y-127304781D01*
X107341746Y-127322024D01*
X107327330Y-127337930D01*
X107311424Y-127352346D01*
X107294181Y-127365134D01*
X107275768Y-127376170D01*
X107256362Y-127385349D01*
X107236150Y-127392581D01*
X107215326Y-127397797D01*
X107194091Y-127400947D01*
X107172650Y-127402000D01*
X106660150Y-127402000D01*
X106638709Y-127400947D01*
X106617474Y-127397797D01*
X106596650Y-127392581D01*
X106576438Y-127385349D01*
X106557032Y-127376170D01*
X106538619Y-127365134D01*
X106521376Y-127352346D01*
X106505470Y-127337930D01*
X106491054Y-127322024D01*
X106478266Y-127304781D01*
X106467230Y-127286368D01*
X106458051Y-127266962D01*
X106450819Y-127246750D01*
X106445603Y-127225926D01*
X106442453Y-127204691D01*
X106441400Y-127183250D01*
X106441400Y-126745750D01*
X106442453Y-126724309D01*
X106445603Y-126703074D01*
X106450819Y-126682250D01*
X106458051Y-126662038D01*
X106467230Y-126642632D01*
X106478266Y-126624219D01*
X106491054Y-126606976D01*
X106505470Y-126591070D01*
X106521376Y-126576654D01*
X106538619Y-126563866D01*
X106557032Y-126552830D01*
X106576438Y-126543651D01*
X106596650Y-126536419D01*
X106617474Y-126531203D01*
X106638709Y-126528053D01*
X106660150Y-126527000D01*
X107172650Y-126527000D01*
X107194091Y-126528053D01*
X107194091Y-126528053D01*
G37*
D12*
X106916400Y-126964500D03*
D10*
G36*
X107194091Y-128103053D02*
G01*
X107215326Y-128106203D01*
X107236150Y-128111419D01*
X107256362Y-128118651D01*
X107275768Y-128127830D01*
X107294181Y-128138866D01*
X107311424Y-128151654D01*
X107327330Y-128166070D01*
X107341746Y-128181976D01*
X107354534Y-128199219D01*
X107365570Y-128217632D01*
X107374749Y-128237038D01*
X107381981Y-128257250D01*
X107387197Y-128278074D01*
X107390347Y-128299309D01*
X107391400Y-128320750D01*
X107391400Y-128758250D01*
X107390347Y-128779691D01*
X107387197Y-128800926D01*
X107381981Y-128821750D01*
X107374749Y-128841962D01*
X107365570Y-128861368D01*
X107354534Y-128879781D01*
X107341746Y-128897024D01*
X107327330Y-128912930D01*
X107311424Y-128927346D01*
X107294181Y-128940134D01*
X107275768Y-128951170D01*
X107256362Y-128960349D01*
X107236150Y-128967581D01*
X107215326Y-128972797D01*
X107194091Y-128975947D01*
X107172650Y-128977000D01*
X106660150Y-128977000D01*
X106638709Y-128975947D01*
X106617474Y-128972797D01*
X106596650Y-128967581D01*
X106576438Y-128960349D01*
X106557032Y-128951170D01*
X106538619Y-128940134D01*
X106521376Y-128927346D01*
X106505470Y-128912930D01*
X106491054Y-128897024D01*
X106478266Y-128879781D01*
X106467230Y-128861368D01*
X106458051Y-128841962D01*
X106450819Y-128821750D01*
X106445603Y-128800926D01*
X106442453Y-128779691D01*
X106441400Y-128758250D01*
X106441400Y-128320750D01*
X106442453Y-128299309D01*
X106445603Y-128278074D01*
X106450819Y-128257250D01*
X106458051Y-128237038D01*
X106467230Y-128217632D01*
X106478266Y-128199219D01*
X106491054Y-128181976D01*
X106505470Y-128166070D01*
X106521376Y-128151654D01*
X106538619Y-128138866D01*
X106557032Y-128127830D01*
X106576438Y-128118651D01*
X106596650Y-128111419D01*
X106617474Y-128106203D01*
X106638709Y-128103053D01*
X106660150Y-128102000D01*
X107172650Y-128102000D01*
X107194091Y-128103053D01*
X107194091Y-128103053D01*
G37*
D12*
X106916400Y-128539500D03*
D10*
G36*
X105568491Y-126528053D02*
G01*
X105589726Y-126531203D01*
X105610550Y-126536419D01*
X105630762Y-126543651D01*
X105650168Y-126552830D01*
X105668581Y-126563866D01*
X105685824Y-126576654D01*
X105701730Y-126591070D01*
X105716146Y-126606976D01*
X105728934Y-126624219D01*
X105739970Y-126642632D01*
X105749149Y-126662038D01*
X105756381Y-126682250D01*
X105761597Y-126703074D01*
X105764747Y-126724309D01*
X105765800Y-126745750D01*
X105765800Y-127183250D01*
X105764747Y-127204691D01*
X105761597Y-127225926D01*
X105756381Y-127246750D01*
X105749149Y-127266962D01*
X105739970Y-127286368D01*
X105728934Y-127304781D01*
X105716146Y-127322024D01*
X105701730Y-127337930D01*
X105685824Y-127352346D01*
X105668581Y-127365134D01*
X105650168Y-127376170D01*
X105630762Y-127385349D01*
X105610550Y-127392581D01*
X105589726Y-127397797D01*
X105568491Y-127400947D01*
X105547050Y-127402000D01*
X105034550Y-127402000D01*
X105013109Y-127400947D01*
X104991874Y-127397797D01*
X104971050Y-127392581D01*
X104950838Y-127385349D01*
X104931432Y-127376170D01*
X104913019Y-127365134D01*
X104895776Y-127352346D01*
X104879870Y-127337930D01*
X104865454Y-127322024D01*
X104852666Y-127304781D01*
X104841630Y-127286368D01*
X104832451Y-127266962D01*
X104825219Y-127246750D01*
X104820003Y-127225926D01*
X104816853Y-127204691D01*
X104815800Y-127183250D01*
X104815800Y-126745750D01*
X104816853Y-126724309D01*
X104820003Y-126703074D01*
X104825219Y-126682250D01*
X104832451Y-126662038D01*
X104841630Y-126642632D01*
X104852666Y-126624219D01*
X104865454Y-126606976D01*
X104879870Y-126591070D01*
X104895776Y-126576654D01*
X104913019Y-126563866D01*
X104931432Y-126552830D01*
X104950838Y-126543651D01*
X104971050Y-126536419D01*
X104991874Y-126531203D01*
X105013109Y-126528053D01*
X105034550Y-126527000D01*
X105547050Y-126527000D01*
X105568491Y-126528053D01*
X105568491Y-126528053D01*
G37*
D12*
X105290800Y-126964500D03*
D10*
G36*
X105568491Y-128103053D02*
G01*
X105589726Y-128106203D01*
X105610550Y-128111419D01*
X105630762Y-128118651D01*
X105650168Y-128127830D01*
X105668581Y-128138866D01*
X105685824Y-128151654D01*
X105701730Y-128166070D01*
X105716146Y-128181976D01*
X105728934Y-128199219D01*
X105739970Y-128217632D01*
X105749149Y-128237038D01*
X105756381Y-128257250D01*
X105761597Y-128278074D01*
X105764747Y-128299309D01*
X105765800Y-128320750D01*
X105765800Y-128758250D01*
X105764747Y-128779691D01*
X105761597Y-128800926D01*
X105756381Y-128821750D01*
X105749149Y-128841962D01*
X105739970Y-128861368D01*
X105728934Y-128879781D01*
X105716146Y-128897024D01*
X105701730Y-128912930D01*
X105685824Y-128927346D01*
X105668581Y-128940134D01*
X105650168Y-128951170D01*
X105630762Y-128960349D01*
X105610550Y-128967581D01*
X105589726Y-128972797D01*
X105568491Y-128975947D01*
X105547050Y-128977000D01*
X105034550Y-128977000D01*
X105013109Y-128975947D01*
X104991874Y-128972797D01*
X104971050Y-128967581D01*
X104950838Y-128960349D01*
X104931432Y-128951170D01*
X104913019Y-128940134D01*
X104895776Y-128927346D01*
X104879870Y-128912930D01*
X104865454Y-128897024D01*
X104852666Y-128879781D01*
X104841630Y-128861368D01*
X104832451Y-128841962D01*
X104825219Y-128821750D01*
X104820003Y-128800926D01*
X104816853Y-128779691D01*
X104815800Y-128758250D01*
X104815800Y-128320750D01*
X104816853Y-128299309D01*
X104820003Y-128278074D01*
X104825219Y-128257250D01*
X104832451Y-128237038D01*
X104841630Y-128217632D01*
X104852666Y-128199219D01*
X104865454Y-128181976D01*
X104879870Y-128166070D01*
X104895776Y-128151654D01*
X104913019Y-128138866D01*
X104931432Y-128127830D01*
X104950838Y-128118651D01*
X104971050Y-128111419D01*
X104991874Y-128106203D01*
X105013109Y-128103053D01*
X105034550Y-128102000D01*
X105547050Y-128102000D01*
X105568491Y-128103053D01*
X105568491Y-128103053D01*
G37*
D12*
X105290800Y-128539500D03*
D10*
G36*
X107194891Y-125055053D02*
G01*
X107216126Y-125058203D01*
X107236950Y-125063419D01*
X107257162Y-125070651D01*
X107276568Y-125079830D01*
X107294981Y-125090866D01*
X107312224Y-125103654D01*
X107328130Y-125118070D01*
X107342546Y-125133976D01*
X107355334Y-125151219D01*
X107366370Y-125169632D01*
X107375549Y-125189038D01*
X107382781Y-125209250D01*
X107387997Y-125230074D01*
X107391147Y-125251309D01*
X107392200Y-125272750D01*
X107392200Y-125710250D01*
X107391147Y-125731691D01*
X107387997Y-125752926D01*
X107382781Y-125773750D01*
X107375549Y-125793962D01*
X107366370Y-125813368D01*
X107355334Y-125831781D01*
X107342546Y-125849024D01*
X107328130Y-125864930D01*
X107312224Y-125879346D01*
X107294981Y-125892134D01*
X107276568Y-125903170D01*
X107257162Y-125912349D01*
X107236950Y-125919581D01*
X107216126Y-125924797D01*
X107194891Y-125927947D01*
X107173450Y-125929000D01*
X106660950Y-125929000D01*
X106639509Y-125927947D01*
X106618274Y-125924797D01*
X106597450Y-125919581D01*
X106577238Y-125912349D01*
X106557832Y-125903170D01*
X106539419Y-125892134D01*
X106522176Y-125879346D01*
X106506270Y-125864930D01*
X106491854Y-125849024D01*
X106479066Y-125831781D01*
X106468030Y-125813368D01*
X106458851Y-125793962D01*
X106451619Y-125773750D01*
X106446403Y-125752926D01*
X106443253Y-125731691D01*
X106442200Y-125710250D01*
X106442200Y-125272750D01*
X106443253Y-125251309D01*
X106446403Y-125230074D01*
X106451619Y-125209250D01*
X106458851Y-125189038D01*
X106468030Y-125169632D01*
X106479066Y-125151219D01*
X106491854Y-125133976D01*
X106506270Y-125118070D01*
X106522176Y-125103654D01*
X106539419Y-125090866D01*
X106557832Y-125079830D01*
X106577238Y-125070651D01*
X106597450Y-125063419D01*
X106618274Y-125058203D01*
X106639509Y-125055053D01*
X106660950Y-125054000D01*
X107173450Y-125054000D01*
X107194891Y-125055053D01*
X107194891Y-125055053D01*
G37*
D12*
X106917200Y-125491500D03*
D10*
G36*
X107194891Y-123480053D02*
G01*
X107216126Y-123483203D01*
X107236950Y-123488419D01*
X107257162Y-123495651D01*
X107276568Y-123504830D01*
X107294981Y-123515866D01*
X107312224Y-123528654D01*
X107328130Y-123543070D01*
X107342546Y-123558976D01*
X107355334Y-123576219D01*
X107366370Y-123594632D01*
X107375549Y-123614038D01*
X107382781Y-123634250D01*
X107387997Y-123655074D01*
X107391147Y-123676309D01*
X107392200Y-123697750D01*
X107392200Y-124135250D01*
X107391147Y-124156691D01*
X107387997Y-124177926D01*
X107382781Y-124198750D01*
X107375549Y-124218962D01*
X107366370Y-124238368D01*
X107355334Y-124256781D01*
X107342546Y-124274024D01*
X107328130Y-124289930D01*
X107312224Y-124304346D01*
X107294981Y-124317134D01*
X107276568Y-124328170D01*
X107257162Y-124337349D01*
X107236950Y-124344581D01*
X107216126Y-124349797D01*
X107194891Y-124352947D01*
X107173450Y-124354000D01*
X106660950Y-124354000D01*
X106639509Y-124352947D01*
X106618274Y-124349797D01*
X106597450Y-124344581D01*
X106577238Y-124337349D01*
X106557832Y-124328170D01*
X106539419Y-124317134D01*
X106522176Y-124304346D01*
X106506270Y-124289930D01*
X106491854Y-124274024D01*
X106479066Y-124256781D01*
X106468030Y-124238368D01*
X106458851Y-124218962D01*
X106451619Y-124198750D01*
X106446403Y-124177926D01*
X106443253Y-124156691D01*
X106442200Y-124135250D01*
X106442200Y-123697750D01*
X106443253Y-123676309D01*
X106446403Y-123655074D01*
X106451619Y-123634250D01*
X106458851Y-123614038D01*
X106468030Y-123594632D01*
X106479066Y-123576219D01*
X106491854Y-123558976D01*
X106506270Y-123543070D01*
X106522176Y-123528654D01*
X106539419Y-123515866D01*
X106557832Y-123504830D01*
X106577238Y-123495651D01*
X106597450Y-123488419D01*
X106618274Y-123483203D01*
X106639509Y-123480053D01*
X106660950Y-123479000D01*
X107173450Y-123479000D01*
X107194891Y-123480053D01*
X107194891Y-123480053D01*
G37*
D12*
X106917200Y-123916500D03*
D10*
G36*
X105568491Y-125055053D02*
G01*
X105589726Y-125058203D01*
X105610550Y-125063419D01*
X105630762Y-125070651D01*
X105650168Y-125079830D01*
X105668581Y-125090866D01*
X105685824Y-125103654D01*
X105701730Y-125118070D01*
X105716146Y-125133976D01*
X105728934Y-125151219D01*
X105739970Y-125169632D01*
X105749149Y-125189038D01*
X105756381Y-125209250D01*
X105761597Y-125230074D01*
X105764747Y-125251309D01*
X105765800Y-125272750D01*
X105765800Y-125710250D01*
X105764747Y-125731691D01*
X105761597Y-125752926D01*
X105756381Y-125773750D01*
X105749149Y-125793962D01*
X105739970Y-125813368D01*
X105728934Y-125831781D01*
X105716146Y-125849024D01*
X105701730Y-125864930D01*
X105685824Y-125879346D01*
X105668581Y-125892134D01*
X105650168Y-125903170D01*
X105630762Y-125912349D01*
X105610550Y-125919581D01*
X105589726Y-125924797D01*
X105568491Y-125927947D01*
X105547050Y-125929000D01*
X105034550Y-125929000D01*
X105013109Y-125927947D01*
X104991874Y-125924797D01*
X104971050Y-125919581D01*
X104950838Y-125912349D01*
X104931432Y-125903170D01*
X104913019Y-125892134D01*
X104895776Y-125879346D01*
X104879870Y-125864930D01*
X104865454Y-125849024D01*
X104852666Y-125831781D01*
X104841630Y-125813368D01*
X104832451Y-125793962D01*
X104825219Y-125773750D01*
X104820003Y-125752926D01*
X104816853Y-125731691D01*
X104815800Y-125710250D01*
X104815800Y-125272750D01*
X104816853Y-125251309D01*
X104820003Y-125230074D01*
X104825219Y-125209250D01*
X104832451Y-125189038D01*
X104841630Y-125169632D01*
X104852666Y-125151219D01*
X104865454Y-125133976D01*
X104879870Y-125118070D01*
X104895776Y-125103654D01*
X104913019Y-125090866D01*
X104931432Y-125079830D01*
X104950838Y-125070651D01*
X104971050Y-125063419D01*
X104991874Y-125058203D01*
X105013109Y-125055053D01*
X105034550Y-125054000D01*
X105547050Y-125054000D01*
X105568491Y-125055053D01*
X105568491Y-125055053D01*
G37*
D12*
X105290800Y-125491500D03*
D10*
G36*
X105568491Y-123480053D02*
G01*
X105589726Y-123483203D01*
X105610550Y-123488419D01*
X105630762Y-123495651D01*
X105650168Y-123504830D01*
X105668581Y-123515866D01*
X105685824Y-123528654D01*
X105701730Y-123543070D01*
X105716146Y-123558976D01*
X105728934Y-123576219D01*
X105739970Y-123594632D01*
X105749149Y-123614038D01*
X105756381Y-123634250D01*
X105761597Y-123655074D01*
X105764747Y-123676309D01*
X105765800Y-123697750D01*
X105765800Y-124135250D01*
X105764747Y-124156691D01*
X105761597Y-124177926D01*
X105756381Y-124198750D01*
X105749149Y-124218962D01*
X105739970Y-124238368D01*
X105728934Y-124256781D01*
X105716146Y-124274024D01*
X105701730Y-124289930D01*
X105685824Y-124304346D01*
X105668581Y-124317134D01*
X105650168Y-124328170D01*
X105630762Y-124337349D01*
X105610550Y-124344581D01*
X105589726Y-124349797D01*
X105568491Y-124352947D01*
X105547050Y-124354000D01*
X105034550Y-124354000D01*
X105013109Y-124352947D01*
X104991874Y-124349797D01*
X104971050Y-124344581D01*
X104950838Y-124337349D01*
X104931432Y-124328170D01*
X104913019Y-124317134D01*
X104895776Y-124304346D01*
X104879870Y-124289930D01*
X104865454Y-124274024D01*
X104852666Y-124256781D01*
X104841630Y-124238368D01*
X104832451Y-124218962D01*
X104825219Y-124198750D01*
X104820003Y-124177926D01*
X104816853Y-124156691D01*
X104815800Y-124135250D01*
X104815800Y-123697750D01*
X104816853Y-123676309D01*
X104820003Y-123655074D01*
X104825219Y-123634250D01*
X104832451Y-123614038D01*
X104841630Y-123594632D01*
X104852666Y-123576219D01*
X104865454Y-123558976D01*
X104879870Y-123543070D01*
X104895776Y-123528654D01*
X104913019Y-123515866D01*
X104931432Y-123504830D01*
X104950838Y-123495651D01*
X104971050Y-123488419D01*
X104991874Y-123483203D01*
X105013109Y-123480053D01*
X105034550Y-123479000D01*
X105547050Y-123479000D01*
X105568491Y-123480053D01*
X105568491Y-123480053D01*
G37*
D12*
X105290800Y-123916500D03*
D10*
G36*
X112426491Y-95032053D02*
G01*
X112447726Y-95035203D01*
X112468550Y-95040419D01*
X112488762Y-95047651D01*
X112508168Y-95056830D01*
X112526581Y-95067866D01*
X112543824Y-95080654D01*
X112559730Y-95095070D01*
X112574146Y-95110976D01*
X112586934Y-95128219D01*
X112597970Y-95146632D01*
X112607149Y-95166038D01*
X112614381Y-95186250D01*
X112619597Y-95207074D01*
X112622747Y-95228309D01*
X112623800Y-95249750D01*
X112623800Y-95687250D01*
X112622747Y-95708691D01*
X112619597Y-95729926D01*
X112614381Y-95750750D01*
X112607149Y-95770962D01*
X112597970Y-95790368D01*
X112586934Y-95808781D01*
X112574146Y-95826024D01*
X112559730Y-95841930D01*
X112543824Y-95856346D01*
X112526581Y-95869134D01*
X112508168Y-95880170D01*
X112488762Y-95889349D01*
X112468550Y-95896581D01*
X112447726Y-95901797D01*
X112426491Y-95904947D01*
X112405050Y-95906000D01*
X111892550Y-95906000D01*
X111871109Y-95904947D01*
X111849874Y-95901797D01*
X111829050Y-95896581D01*
X111808838Y-95889349D01*
X111789432Y-95880170D01*
X111771019Y-95869134D01*
X111753776Y-95856346D01*
X111737870Y-95841930D01*
X111723454Y-95826024D01*
X111710666Y-95808781D01*
X111699630Y-95790368D01*
X111690451Y-95770962D01*
X111683219Y-95750750D01*
X111678003Y-95729926D01*
X111674853Y-95708691D01*
X111673800Y-95687250D01*
X111673800Y-95249750D01*
X111674853Y-95228309D01*
X111678003Y-95207074D01*
X111683219Y-95186250D01*
X111690451Y-95166038D01*
X111699630Y-95146632D01*
X111710666Y-95128219D01*
X111723454Y-95110976D01*
X111737870Y-95095070D01*
X111753776Y-95080654D01*
X111771019Y-95067866D01*
X111789432Y-95056830D01*
X111808838Y-95047651D01*
X111829050Y-95040419D01*
X111849874Y-95035203D01*
X111871109Y-95032053D01*
X111892550Y-95031000D01*
X112405050Y-95031000D01*
X112426491Y-95032053D01*
X112426491Y-95032053D01*
G37*
D12*
X112148800Y-95468500D03*
D10*
G36*
X112426491Y-96607053D02*
G01*
X112447726Y-96610203D01*
X112468550Y-96615419D01*
X112488762Y-96622651D01*
X112508168Y-96631830D01*
X112526581Y-96642866D01*
X112543824Y-96655654D01*
X112559730Y-96670070D01*
X112574146Y-96685976D01*
X112586934Y-96703219D01*
X112597970Y-96721632D01*
X112607149Y-96741038D01*
X112614381Y-96761250D01*
X112619597Y-96782074D01*
X112622747Y-96803309D01*
X112623800Y-96824750D01*
X112623800Y-97262250D01*
X112622747Y-97283691D01*
X112619597Y-97304926D01*
X112614381Y-97325750D01*
X112607149Y-97345962D01*
X112597970Y-97365368D01*
X112586934Y-97383781D01*
X112574146Y-97401024D01*
X112559730Y-97416930D01*
X112543824Y-97431346D01*
X112526581Y-97444134D01*
X112508168Y-97455170D01*
X112488762Y-97464349D01*
X112468550Y-97471581D01*
X112447726Y-97476797D01*
X112426491Y-97479947D01*
X112405050Y-97481000D01*
X111892550Y-97481000D01*
X111871109Y-97479947D01*
X111849874Y-97476797D01*
X111829050Y-97471581D01*
X111808838Y-97464349D01*
X111789432Y-97455170D01*
X111771019Y-97444134D01*
X111753776Y-97431346D01*
X111737870Y-97416930D01*
X111723454Y-97401024D01*
X111710666Y-97383781D01*
X111699630Y-97365368D01*
X111690451Y-97345962D01*
X111683219Y-97325750D01*
X111678003Y-97304926D01*
X111674853Y-97283691D01*
X111673800Y-97262250D01*
X111673800Y-96824750D01*
X111674853Y-96803309D01*
X111678003Y-96782074D01*
X111683219Y-96761250D01*
X111690451Y-96741038D01*
X111699630Y-96721632D01*
X111710666Y-96703219D01*
X111723454Y-96685976D01*
X111737870Y-96670070D01*
X111753776Y-96655654D01*
X111771019Y-96642866D01*
X111789432Y-96631830D01*
X111808838Y-96622651D01*
X111829050Y-96615419D01*
X111849874Y-96610203D01*
X111871109Y-96607053D01*
X111892550Y-96606000D01*
X112405050Y-96606000D01*
X112426491Y-96607053D01*
X112426491Y-96607053D01*
G37*
D12*
X112148800Y-97043500D03*
D10*
G36*
X81070891Y-106958053D02*
G01*
X81092126Y-106961203D01*
X81112950Y-106966419D01*
X81133162Y-106973651D01*
X81152568Y-106982830D01*
X81170981Y-106993866D01*
X81188224Y-107006654D01*
X81204130Y-107021070D01*
X81218546Y-107036976D01*
X81231334Y-107054219D01*
X81242370Y-107072632D01*
X81251549Y-107092038D01*
X81258781Y-107112250D01*
X81263997Y-107133074D01*
X81267147Y-107154309D01*
X81268200Y-107175750D01*
X81268200Y-107688250D01*
X81267147Y-107709691D01*
X81263997Y-107730926D01*
X81258781Y-107751750D01*
X81251549Y-107771962D01*
X81242370Y-107791368D01*
X81231334Y-107809781D01*
X81218546Y-107827024D01*
X81204130Y-107842930D01*
X81188224Y-107857346D01*
X81170981Y-107870134D01*
X81152568Y-107881170D01*
X81133162Y-107890349D01*
X81112950Y-107897581D01*
X81092126Y-107902797D01*
X81070891Y-107905947D01*
X81049450Y-107907000D01*
X80611950Y-107907000D01*
X80590509Y-107905947D01*
X80569274Y-107902797D01*
X80548450Y-107897581D01*
X80528238Y-107890349D01*
X80508832Y-107881170D01*
X80490419Y-107870134D01*
X80473176Y-107857346D01*
X80457270Y-107842930D01*
X80442854Y-107827024D01*
X80430066Y-107809781D01*
X80419030Y-107791368D01*
X80409851Y-107771962D01*
X80402619Y-107751750D01*
X80397403Y-107730926D01*
X80394253Y-107709691D01*
X80393200Y-107688250D01*
X80393200Y-107175750D01*
X80394253Y-107154309D01*
X80397403Y-107133074D01*
X80402619Y-107112250D01*
X80409851Y-107092038D01*
X80419030Y-107072632D01*
X80430066Y-107054219D01*
X80442854Y-107036976D01*
X80457270Y-107021070D01*
X80473176Y-107006654D01*
X80490419Y-106993866D01*
X80508832Y-106982830D01*
X80528238Y-106973651D01*
X80548450Y-106966419D01*
X80569274Y-106961203D01*
X80590509Y-106958053D01*
X80611950Y-106957000D01*
X81049450Y-106957000D01*
X81070891Y-106958053D01*
X81070891Y-106958053D01*
G37*
D12*
X80830700Y-107432000D03*
D10*
G36*
X79495891Y-106958053D02*
G01*
X79517126Y-106961203D01*
X79537950Y-106966419D01*
X79558162Y-106973651D01*
X79577568Y-106982830D01*
X79595981Y-106993866D01*
X79613224Y-107006654D01*
X79629130Y-107021070D01*
X79643546Y-107036976D01*
X79656334Y-107054219D01*
X79667370Y-107072632D01*
X79676549Y-107092038D01*
X79683781Y-107112250D01*
X79688997Y-107133074D01*
X79692147Y-107154309D01*
X79693200Y-107175750D01*
X79693200Y-107688250D01*
X79692147Y-107709691D01*
X79688997Y-107730926D01*
X79683781Y-107751750D01*
X79676549Y-107771962D01*
X79667370Y-107791368D01*
X79656334Y-107809781D01*
X79643546Y-107827024D01*
X79629130Y-107842930D01*
X79613224Y-107857346D01*
X79595981Y-107870134D01*
X79577568Y-107881170D01*
X79558162Y-107890349D01*
X79537950Y-107897581D01*
X79517126Y-107902797D01*
X79495891Y-107905947D01*
X79474450Y-107907000D01*
X79036950Y-107907000D01*
X79015509Y-107905947D01*
X78994274Y-107902797D01*
X78973450Y-107897581D01*
X78953238Y-107890349D01*
X78933832Y-107881170D01*
X78915419Y-107870134D01*
X78898176Y-107857346D01*
X78882270Y-107842930D01*
X78867854Y-107827024D01*
X78855066Y-107809781D01*
X78844030Y-107791368D01*
X78834851Y-107771962D01*
X78827619Y-107751750D01*
X78822403Y-107730926D01*
X78819253Y-107709691D01*
X78818200Y-107688250D01*
X78818200Y-107175750D01*
X78819253Y-107154309D01*
X78822403Y-107133074D01*
X78827619Y-107112250D01*
X78834851Y-107092038D01*
X78844030Y-107072632D01*
X78855066Y-107054219D01*
X78867854Y-107036976D01*
X78882270Y-107021070D01*
X78898176Y-107006654D01*
X78915419Y-106993866D01*
X78933832Y-106982830D01*
X78953238Y-106973651D01*
X78973450Y-106966419D01*
X78994274Y-106961203D01*
X79015509Y-106958053D01*
X79036950Y-106957000D01*
X79474450Y-106957000D01*
X79495891Y-106958053D01*
X79495891Y-106958053D01*
G37*
D12*
X79255700Y-107432000D03*
D10*
G36*
X82264591Y-116102053D02*
G01*
X82285826Y-116105203D01*
X82306650Y-116110419D01*
X82326862Y-116117651D01*
X82346268Y-116126830D01*
X82364681Y-116137866D01*
X82381924Y-116150654D01*
X82397830Y-116165070D01*
X82412246Y-116180976D01*
X82425034Y-116198219D01*
X82436070Y-116216632D01*
X82445249Y-116236038D01*
X82452481Y-116256250D01*
X82457697Y-116277074D01*
X82460847Y-116298309D01*
X82461900Y-116319750D01*
X82461900Y-116832250D01*
X82460847Y-116853691D01*
X82457697Y-116874926D01*
X82452481Y-116895750D01*
X82445249Y-116915962D01*
X82436070Y-116935368D01*
X82425034Y-116953781D01*
X82412246Y-116971024D01*
X82397830Y-116986930D01*
X82381924Y-117001346D01*
X82364681Y-117014134D01*
X82346268Y-117025170D01*
X82326862Y-117034349D01*
X82306650Y-117041581D01*
X82285826Y-117046797D01*
X82264591Y-117049947D01*
X82243150Y-117051000D01*
X81805650Y-117051000D01*
X81784209Y-117049947D01*
X81762974Y-117046797D01*
X81742150Y-117041581D01*
X81721938Y-117034349D01*
X81702532Y-117025170D01*
X81684119Y-117014134D01*
X81666876Y-117001346D01*
X81650970Y-116986930D01*
X81636554Y-116971024D01*
X81623766Y-116953781D01*
X81612730Y-116935368D01*
X81603551Y-116915962D01*
X81596319Y-116895750D01*
X81591103Y-116874926D01*
X81587953Y-116853691D01*
X81586900Y-116832250D01*
X81586900Y-116319750D01*
X81587953Y-116298309D01*
X81591103Y-116277074D01*
X81596319Y-116256250D01*
X81603551Y-116236038D01*
X81612730Y-116216632D01*
X81623766Y-116198219D01*
X81636554Y-116180976D01*
X81650970Y-116165070D01*
X81666876Y-116150654D01*
X81684119Y-116137866D01*
X81702532Y-116126830D01*
X81721938Y-116117651D01*
X81742150Y-116110419D01*
X81762974Y-116105203D01*
X81784209Y-116102053D01*
X81805650Y-116101000D01*
X82243150Y-116101000D01*
X82264591Y-116102053D01*
X82264591Y-116102053D01*
G37*
D12*
X82024400Y-116576000D03*
D10*
G36*
X83839591Y-116102053D02*
G01*
X83860826Y-116105203D01*
X83881650Y-116110419D01*
X83901862Y-116117651D01*
X83921268Y-116126830D01*
X83939681Y-116137866D01*
X83956924Y-116150654D01*
X83972830Y-116165070D01*
X83987246Y-116180976D01*
X84000034Y-116198219D01*
X84011070Y-116216632D01*
X84020249Y-116236038D01*
X84027481Y-116256250D01*
X84032697Y-116277074D01*
X84035847Y-116298309D01*
X84036900Y-116319750D01*
X84036900Y-116832250D01*
X84035847Y-116853691D01*
X84032697Y-116874926D01*
X84027481Y-116895750D01*
X84020249Y-116915962D01*
X84011070Y-116935368D01*
X84000034Y-116953781D01*
X83987246Y-116971024D01*
X83972830Y-116986930D01*
X83956924Y-117001346D01*
X83939681Y-117014134D01*
X83921268Y-117025170D01*
X83901862Y-117034349D01*
X83881650Y-117041581D01*
X83860826Y-117046797D01*
X83839591Y-117049947D01*
X83818150Y-117051000D01*
X83380650Y-117051000D01*
X83359209Y-117049947D01*
X83337974Y-117046797D01*
X83317150Y-117041581D01*
X83296938Y-117034349D01*
X83277532Y-117025170D01*
X83259119Y-117014134D01*
X83241876Y-117001346D01*
X83225970Y-116986930D01*
X83211554Y-116971024D01*
X83198766Y-116953781D01*
X83187730Y-116935368D01*
X83178551Y-116915962D01*
X83171319Y-116895750D01*
X83166103Y-116874926D01*
X83162953Y-116853691D01*
X83161900Y-116832250D01*
X83161900Y-116319750D01*
X83162953Y-116298309D01*
X83166103Y-116277074D01*
X83171319Y-116256250D01*
X83178551Y-116236038D01*
X83187730Y-116216632D01*
X83198766Y-116198219D01*
X83211554Y-116180976D01*
X83225970Y-116165070D01*
X83241876Y-116150654D01*
X83259119Y-116137866D01*
X83277532Y-116126830D01*
X83296938Y-116117651D01*
X83317150Y-116110419D01*
X83337974Y-116105203D01*
X83359209Y-116102053D01*
X83380650Y-116101000D01*
X83818150Y-116101000D01*
X83839591Y-116102053D01*
X83839591Y-116102053D01*
G37*
D12*
X83599400Y-116576000D03*
D10*
G36*
X81121691Y-92124453D02*
G01*
X81142926Y-92127603D01*
X81163750Y-92132819D01*
X81183962Y-92140051D01*
X81203368Y-92149230D01*
X81221781Y-92160266D01*
X81239024Y-92173054D01*
X81254930Y-92187470D01*
X81269346Y-92203376D01*
X81282134Y-92220619D01*
X81293170Y-92239032D01*
X81302349Y-92258438D01*
X81309581Y-92278650D01*
X81314797Y-92299474D01*
X81317947Y-92320709D01*
X81319000Y-92342150D01*
X81319000Y-92854650D01*
X81317947Y-92876091D01*
X81314797Y-92897326D01*
X81309581Y-92918150D01*
X81302349Y-92938362D01*
X81293170Y-92957768D01*
X81282134Y-92976181D01*
X81269346Y-92993424D01*
X81254930Y-93009330D01*
X81239024Y-93023746D01*
X81221781Y-93036534D01*
X81203368Y-93047570D01*
X81183962Y-93056749D01*
X81163750Y-93063981D01*
X81142926Y-93069197D01*
X81121691Y-93072347D01*
X81100250Y-93073400D01*
X80662750Y-93073400D01*
X80641309Y-93072347D01*
X80620074Y-93069197D01*
X80599250Y-93063981D01*
X80579038Y-93056749D01*
X80559632Y-93047570D01*
X80541219Y-93036534D01*
X80523976Y-93023746D01*
X80508070Y-93009330D01*
X80493654Y-92993424D01*
X80480866Y-92976181D01*
X80469830Y-92957768D01*
X80460651Y-92938362D01*
X80453419Y-92918150D01*
X80448203Y-92897326D01*
X80445053Y-92876091D01*
X80444000Y-92854650D01*
X80444000Y-92342150D01*
X80445053Y-92320709D01*
X80448203Y-92299474D01*
X80453419Y-92278650D01*
X80460651Y-92258438D01*
X80469830Y-92239032D01*
X80480866Y-92220619D01*
X80493654Y-92203376D01*
X80508070Y-92187470D01*
X80523976Y-92173054D01*
X80541219Y-92160266D01*
X80559632Y-92149230D01*
X80579038Y-92140051D01*
X80599250Y-92132819D01*
X80620074Y-92127603D01*
X80641309Y-92124453D01*
X80662750Y-92123400D01*
X81100250Y-92123400D01*
X81121691Y-92124453D01*
X81121691Y-92124453D01*
G37*
D12*
X80881500Y-92598400D03*
D10*
G36*
X79546691Y-92124453D02*
G01*
X79567926Y-92127603D01*
X79588750Y-92132819D01*
X79608962Y-92140051D01*
X79628368Y-92149230D01*
X79646781Y-92160266D01*
X79664024Y-92173054D01*
X79679930Y-92187470D01*
X79694346Y-92203376D01*
X79707134Y-92220619D01*
X79718170Y-92239032D01*
X79727349Y-92258438D01*
X79734581Y-92278650D01*
X79739797Y-92299474D01*
X79742947Y-92320709D01*
X79744000Y-92342150D01*
X79744000Y-92854650D01*
X79742947Y-92876091D01*
X79739797Y-92897326D01*
X79734581Y-92918150D01*
X79727349Y-92938362D01*
X79718170Y-92957768D01*
X79707134Y-92976181D01*
X79694346Y-92993424D01*
X79679930Y-93009330D01*
X79664024Y-93023746D01*
X79646781Y-93036534D01*
X79628368Y-93047570D01*
X79608962Y-93056749D01*
X79588750Y-93063981D01*
X79567926Y-93069197D01*
X79546691Y-93072347D01*
X79525250Y-93073400D01*
X79087750Y-93073400D01*
X79066309Y-93072347D01*
X79045074Y-93069197D01*
X79024250Y-93063981D01*
X79004038Y-93056749D01*
X78984632Y-93047570D01*
X78966219Y-93036534D01*
X78948976Y-93023746D01*
X78933070Y-93009330D01*
X78918654Y-92993424D01*
X78905866Y-92976181D01*
X78894830Y-92957768D01*
X78885651Y-92938362D01*
X78878419Y-92918150D01*
X78873203Y-92897326D01*
X78870053Y-92876091D01*
X78869000Y-92854650D01*
X78869000Y-92342150D01*
X78870053Y-92320709D01*
X78873203Y-92299474D01*
X78878419Y-92278650D01*
X78885651Y-92258438D01*
X78894830Y-92239032D01*
X78905866Y-92220619D01*
X78918654Y-92203376D01*
X78933070Y-92187470D01*
X78948976Y-92173054D01*
X78966219Y-92160266D01*
X78984632Y-92149230D01*
X79004038Y-92140051D01*
X79024250Y-92132819D01*
X79045074Y-92127603D01*
X79066309Y-92124453D01*
X79087750Y-92123400D01*
X79525250Y-92123400D01*
X79546691Y-92124453D01*
X79546691Y-92124453D01*
G37*
D12*
X79306500Y-92598400D03*
D10*
G36*
X82289891Y-101268453D02*
G01*
X82311126Y-101271603D01*
X82331950Y-101276819D01*
X82352162Y-101284051D01*
X82371568Y-101293230D01*
X82389981Y-101304266D01*
X82407224Y-101317054D01*
X82423130Y-101331470D01*
X82437546Y-101347376D01*
X82450334Y-101364619D01*
X82461370Y-101383032D01*
X82470549Y-101402438D01*
X82477781Y-101422650D01*
X82482997Y-101443474D01*
X82486147Y-101464709D01*
X82487200Y-101486150D01*
X82487200Y-101998650D01*
X82486147Y-102020091D01*
X82482997Y-102041326D01*
X82477781Y-102062150D01*
X82470549Y-102082362D01*
X82461370Y-102101768D01*
X82450334Y-102120181D01*
X82437546Y-102137424D01*
X82423130Y-102153330D01*
X82407224Y-102167746D01*
X82389981Y-102180534D01*
X82371568Y-102191570D01*
X82352162Y-102200749D01*
X82331950Y-102207981D01*
X82311126Y-102213197D01*
X82289891Y-102216347D01*
X82268450Y-102217400D01*
X81830950Y-102217400D01*
X81809509Y-102216347D01*
X81788274Y-102213197D01*
X81767450Y-102207981D01*
X81747238Y-102200749D01*
X81727832Y-102191570D01*
X81709419Y-102180534D01*
X81692176Y-102167746D01*
X81676270Y-102153330D01*
X81661854Y-102137424D01*
X81649066Y-102120181D01*
X81638030Y-102101768D01*
X81628851Y-102082362D01*
X81621619Y-102062150D01*
X81616403Y-102041326D01*
X81613253Y-102020091D01*
X81612200Y-101998650D01*
X81612200Y-101486150D01*
X81613253Y-101464709D01*
X81616403Y-101443474D01*
X81621619Y-101422650D01*
X81628851Y-101402438D01*
X81638030Y-101383032D01*
X81649066Y-101364619D01*
X81661854Y-101347376D01*
X81676270Y-101331470D01*
X81692176Y-101317054D01*
X81709419Y-101304266D01*
X81727832Y-101293230D01*
X81747238Y-101284051D01*
X81767450Y-101276819D01*
X81788274Y-101271603D01*
X81809509Y-101268453D01*
X81830950Y-101267400D01*
X82268450Y-101267400D01*
X82289891Y-101268453D01*
X82289891Y-101268453D01*
G37*
D12*
X82049700Y-101742400D03*
D10*
G36*
X83864891Y-101268453D02*
G01*
X83886126Y-101271603D01*
X83906950Y-101276819D01*
X83927162Y-101284051D01*
X83946568Y-101293230D01*
X83964981Y-101304266D01*
X83982224Y-101317054D01*
X83998130Y-101331470D01*
X84012546Y-101347376D01*
X84025334Y-101364619D01*
X84036370Y-101383032D01*
X84045549Y-101402438D01*
X84052781Y-101422650D01*
X84057997Y-101443474D01*
X84061147Y-101464709D01*
X84062200Y-101486150D01*
X84062200Y-101998650D01*
X84061147Y-102020091D01*
X84057997Y-102041326D01*
X84052781Y-102062150D01*
X84045549Y-102082362D01*
X84036370Y-102101768D01*
X84025334Y-102120181D01*
X84012546Y-102137424D01*
X83998130Y-102153330D01*
X83982224Y-102167746D01*
X83964981Y-102180534D01*
X83946568Y-102191570D01*
X83927162Y-102200749D01*
X83906950Y-102207981D01*
X83886126Y-102213197D01*
X83864891Y-102216347D01*
X83843450Y-102217400D01*
X83405950Y-102217400D01*
X83384509Y-102216347D01*
X83363274Y-102213197D01*
X83342450Y-102207981D01*
X83322238Y-102200749D01*
X83302832Y-102191570D01*
X83284419Y-102180534D01*
X83267176Y-102167746D01*
X83251270Y-102153330D01*
X83236854Y-102137424D01*
X83224066Y-102120181D01*
X83213030Y-102101768D01*
X83203851Y-102082362D01*
X83196619Y-102062150D01*
X83191403Y-102041326D01*
X83188253Y-102020091D01*
X83187200Y-101998650D01*
X83187200Y-101486150D01*
X83188253Y-101464709D01*
X83191403Y-101443474D01*
X83196619Y-101422650D01*
X83203851Y-101402438D01*
X83213030Y-101383032D01*
X83224066Y-101364619D01*
X83236854Y-101347376D01*
X83251270Y-101331470D01*
X83267176Y-101317054D01*
X83284419Y-101304266D01*
X83302832Y-101293230D01*
X83322238Y-101284051D01*
X83342450Y-101276819D01*
X83363274Y-101271603D01*
X83384509Y-101268453D01*
X83405950Y-101267400D01*
X83843450Y-101267400D01*
X83864891Y-101268453D01*
X83864891Y-101268453D01*
G37*
D12*
X83624700Y-101742400D03*
D10*
G36*
X83738503Y-113504722D02*
G01*
X83753064Y-113506882D01*
X83767343Y-113510459D01*
X83781203Y-113515418D01*
X83794510Y-113521712D01*
X83807136Y-113529280D01*
X83818959Y-113538048D01*
X83829866Y-113547934D01*
X83839752Y-113558841D01*
X83848520Y-113570664D01*
X83856088Y-113583290D01*
X83862382Y-113596597D01*
X83867341Y-113610457D01*
X83870918Y-113624736D01*
X83873078Y-113639297D01*
X83873800Y-113654000D01*
X83873800Y-115304000D01*
X83873078Y-115318703D01*
X83870918Y-115333264D01*
X83867341Y-115347543D01*
X83862382Y-115361403D01*
X83856088Y-115374710D01*
X83848520Y-115387336D01*
X83839752Y-115399159D01*
X83829866Y-115410066D01*
X83818959Y-115419952D01*
X83807136Y-115428720D01*
X83794510Y-115436288D01*
X83781203Y-115442582D01*
X83767343Y-115447541D01*
X83753064Y-115451118D01*
X83738503Y-115453278D01*
X83723800Y-115454000D01*
X83423800Y-115454000D01*
X83409097Y-115453278D01*
X83394536Y-115451118D01*
X83380257Y-115447541D01*
X83366397Y-115442582D01*
X83353090Y-115436288D01*
X83340464Y-115428720D01*
X83328641Y-115419952D01*
X83317734Y-115410066D01*
X83307848Y-115399159D01*
X83299080Y-115387336D01*
X83291512Y-115374710D01*
X83285218Y-115361403D01*
X83280259Y-115347543D01*
X83276682Y-115333264D01*
X83274522Y-115318703D01*
X83273800Y-115304000D01*
X83273800Y-113654000D01*
X83274522Y-113639297D01*
X83276682Y-113624736D01*
X83280259Y-113610457D01*
X83285218Y-113596597D01*
X83291512Y-113583290D01*
X83299080Y-113570664D01*
X83307848Y-113558841D01*
X83317734Y-113547934D01*
X83328641Y-113538048D01*
X83340464Y-113529280D01*
X83353090Y-113521712D01*
X83366397Y-113515418D01*
X83380257Y-113510459D01*
X83394536Y-113506882D01*
X83409097Y-113504722D01*
X83423800Y-113504000D01*
X83723800Y-113504000D01*
X83738503Y-113504722D01*
X83738503Y-113504722D01*
G37*
D13*
X83573800Y-114479000D03*
D10*
G36*
X82468503Y-113504722D02*
G01*
X82483064Y-113506882D01*
X82497343Y-113510459D01*
X82511203Y-113515418D01*
X82524510Y-113521712D01*
X82537136Y-113529280D01*
X82548959Y-113538048D01*
X82559866Y-113547934D01*
X82569752Y-113558841D01*
X82578520Y-113570664D01*
X82586088Y-113583290D01*
X82592382Y-113596597D01*
X82597341Y-113610457D01*
X82600918Y-113624736D01*
X82603078Y-113639297D01*
X82603800Y-113654000D01*
X82603800Y-115304000D01*
X82603078Y-115318703D01*
X82600918Y-115333264D01*
X82597341Y-115347543D01*
X82592382Y-115361403D01*
X82586088Y-115374710D01*
X82578520Y-115387336D01*
X82569752Y-115399159D01*
X82559866Y-115410066D01*
X82548959Y-115419952D01*
X82537136Y-115428720D01*
X82524510Y-115436288D01*
X82511203Y-115442582D01*
X82497343Y-115447541D01*
X82483064Y-115451118D01*
X82468503Y-115453278D01*
X82453800Y-115454000D01*
X82153800Y-115454000D01*
X82139097Y-115453278D01*
X82124536Y-115451118D01*
X82110257Y-115447541D01*
X82096397Y-115442582D01*
X82083090Y-115436288D01*
X82070464Y-115428720D01*
X82058641Y-115419952D01*
X82047734Y-115410066D01*
X82037848Y-115399159D01*
X82029080Y-115387336D01*
X82021512Y-115374710D01*
X82015218Y-115361403D01*
X82010259Y-115347543D01*
X82006682Y-115333264D01*
X82004522Y-115318703D01*
X82003800Y-115304000D01*
X82003800Y-113654000D01*
X82004522Y-113639297D01*
X82006682Y-113624736D01*
X82010259Y-113610457D01*
X82015218Y-113596597D01*
X82021512Y-113583290D01*
X82029080Y-113570664D01*
X82037848Y-113558841D01*
X82047734Y-113547934D01*
X82058641Y-113538048D01*
X82070464Y-113529280D01*
X82083090Y-113521712D01*
X82096397Y-113515418D01*
X82110257Y-113510459D01*
X82124536Y-113506882D01*
X82139097Y-113504722D01*
X82153800Y-113504000D01*
X82453800Y-113504000D01*
X82468503Y-113504722D01*
X82468503Y-113504722D01*
G37*
D13*
X82303800Y-114479000D03*
D10*
G36*
X81198503Y-113504722D02*
G01*
X81213064Y-113506882D01*
X81227343Y-113510459D01*
X81241203Y-113515418D01*
X81254510Y-113521712D01*
X81267136Y-113529280D01*
X81278959Y-113538048D01*
X81289866Y-113547934D01*
X81299752Y-113558841D01*
X81308520Y-113570664D01*
X81316088Y-113583290D01*
X81322382Y-113596597D01*
X81327341Y-113610457D01*
X81330918Y-113624736D01*
X81333078Y-113639297D01*
X81333800Y-113654000D01*
X81333800Y-115304000D01*
X81333078Y-115318703D01*
X81330918Y-115333264D01*
X81327341Y-115347543D01*
X81322382Y-115361403D01*
X81316088Y-115374710D01*
X81308520Y-115387336D01*
X81299752Y-115399159D01*
X81289866Y-115410066D01*
X81278959Y-115419952D01*
X81267136Y-115428720D01*
X81254510Y-115436288D01*
X81241203Y-115442582D01*
X81227343Y-115447541D01*
X81213064Y-115451118D01*
X81198503Y-115453278D01*
X81183800Y-115454000D01*
X80883800Y-115454000D01*
X80869097Y-115453278D01*
X80854536Y-115451118D01*
X80840257Y-115447541D01*
X80826397Y-115442582D01*
X80813090Y-115436288D01*
X80800464Y-115428720D01*
X80788641Y-115419952D01*
X80777734Y-115410066D01*
X80767848Y-115399159D01*
X80759080Y-115387336D01*
X80751512Y-115374710D01*
X80745218Y-115361403D01*
X80740259Y-115347543D01*
X80736682Y-115333264D01*
X80734522Y-115318703D01*
X80733800Y-115304000D01*
X80733800Y-113654000D01*
X80734522Y-113639297D01*
X80736682Y-113624736D01*
X80740259Y-113610457D01*
X80745218Y-113596597D01*
X80751512Y-113583290D01*
X80759080Y-113570664D01*
X80767848Y-113558841D01*
X80777734Y-113547934D01*
X80788641Y-113538048D01*
X80800464Y-113529280D01*
X80813090Y-113521712D01*
X80826397Y-113515418D01*
X80840257Y-113510459D01*
X80854536Y-113506882D01*
X80869097Y-113504722D01*
X80883800Y-113504000D01*
X81183800Y-113504000D01*
X81198503Y-113504722D01*
X81198503Y-113504722D01*
G37*
D13*
X81033800Y-114479000D03*
D10*
G36*
X79928503Y-113504722D02*
G01*
X79943064Y-113506882D01*
X79957343Y-113510459D01*
X79971203Y-113515418D01*
X79984510Y-113521712D01*
X79997136Y-113529280D01*
X80008959Y-113538048D01*
X80019866Y-113547934D01*
X80029752Y-113558841D01*
X80038520Y-113570664D01*
X80046088Y-113583290D01*
X80052382Y-113596597D01*
X80057341Y-113610457D01*
X80060918Y-113624736D01*
X80063078Y-113639297D01*
X80063800Y-113654000D01*
X80063800Y-115304000D01*
X80063078Y-115318703D01*
X80060918Y-115333264D01*
X80057341Y-115347543D01*
X80052382Y-115361403D01*
X80046088Y-115374710D01*
X80038520Y-115387336D01*
X80029752Y-115399159D01*
X80019866Y-115410066D01*
X80008959Y-115419952D01*
X79997136Y-115428720D01*
X79984510Y-115436288D01*
X79971203Y-115442582D01*
X79957343Y-115447541D01*
X79943064Y-115451118D01*
X79928503Y-115453278D01*
X79913800Y-115454000D01*
X79613800Y-115454000D01*
X79599097Y-115453278D01*
X79584536Y-115451118D01*
X79570257Y-115447541D01*
X79556397Y-115442582D01*
X79543090Y-115436288D01*
X79530464Y-115428720D01*
X79518641Y-115419952D01*
X79507734Y-115410066D01*
X79497848Y-115399159D01*
X79489080Y-115387336D01*
X79481512Y-115374710D01*
X79475218Y-115361403D01*
X79470259Y-115347543D01*
X79466682Y-115333264D01*
X79464522Y-115318703D01*
X79463800Y-115304000D01*
X79463800Y-113654000D01*
X79464522Y-113639297D01*
X79466682Y-113624736D01*
X79470259Y-113610457D01*
X79475218Y-113596597D01*
X79481512Y-113583290D01*
X79489080Y-113570664D01*
X79497848Y-113558841D01*
X79507734Y-113547934D01*
X79518641Y-113538048D01*
X79530464Y-113529280D01*
X79543090Y-113521712D01*
X79556397Y-113515418D01*
X79570257Y-113510459D01*
X79584536Y-113506882D01*
X79599097Y-113504722D01*
X79613800Y-113504000D01*
X79913800Y-113504000D01*
X79928503Y-113504722D01*
X79928503Y-113504722D01*
G37*
D13*
X79763800Y-114479000D03*
D10*
G36*
X79928503Y-108554722D02*
G01*
X79943064Y-108556882D01*
X79957343Y-108560459D01*
X79971203Y-108565418D01*
X79984510Y-108571712D01*
X79997136Y-108579280D01*
X80008959Y-108588048D01*
X80019866Y-108597934D01*
X80029752Y-108608841D01*
X80038520Y-108620664D01*
X80046088Y-108633290D01*
X80052382Y-108646597D01*
X80057341Y-108660457D01*
X80060918Y-108674736D01*
X80063078Y-108689297D01*
X80063800Y-108704000D01*
X80063800Y-110354000D01*
X80063078Y-110368703D01*
X80060918Y-110383264D01*
X80057341Y-110397543D01*
X80052382Y-110411403D01*
X80046088Y-110424710D01*
X80038520Y-110437336D01*
X80029752Y-110449159D01*
X80019866Y-110460066D01*
X80008959Y-110469952D01*
X79997136Y-110478720D01*
X79984510Y-110486288D01*
X79971203Y-110492582D01*
X79957343Y-110497541D01*
X79943064Y-110501118D01*
X79928503Y-110503278D01*
X79913800Y-110504000D01*
X79613800Y-110504000D01*
X79599097Y-110503278D01*
X79584536Y-110501118D01*
X79570257Y-110497541D01*
X79556397Y-110492582D01*
X79543090Y-110486288D01*
X79530464Y-110478720D01*
X79518641Y-110469952D01*
X79507734Y-110460066D01*
X79497848Y-110449159D01*
X79489080Y-110437336D01*
X79481512Y-110424710D01*
X79475218Y-110411403D01*
X79470259Y-110397543D01*
X79466682Y-110383264D01*
X79464522Y-110368703D01*
X79463800Y-110354000D01*
X79463800Y-108704000D01*
X79464522Y-108689297D01*
X79466682Y-108674736D01*
X79470259Y-108660457D01*
X79475218Y-108646597D01*
X79481512Y-108633290D01*
X79489080Y-108620664D01*
X79497848Y-108608841D01*
X79507734Y-108597934D01*
X79518641Y-108588048D01*
X79530464Y-108579280D01*
X79543090Y-108571712D01*
X79556397Y-108565418D01*
X79570257Y-108560459D01*
X79584536Y-108556882D01*
X79599097Y-108554722D01*
X79613800Y-108554000D01*
X79913800Y-108554000D01*
X79928503Y-108554722D01*
X79928503Y-108554722D01*
G37*
D13*
X79763800Y-109529000D03*
D10*
G36*
X81198503Y-108554722D02*
G01*
X81213064Y-108556882D01*
X81227343Y-108560459D01*
X81241203Y-108565418D01*
X81254510Y-108571712D01*
X81267136Y-108579280D01*
X81278959Y-108588048D01*
X81289866Y-108597934D01*
X81299752Y-108608841D01*
X81308520Y-108620664D01*
X81316088Y-108633290D01*
X81322382Y-108646597D01*
X81327341Y-108660457D01*
X81330918Y-108674736D01*
X81333078Y-108689297D01*
X81333800Y-108704000D01*
X81333800Y-110354000D01*
X81333078Y-110368703D01*
X81330918Y-110383264D01*
X81327341Y-110397543D01*
X81322382Y-110411403D01*
X81316088Y-110424710D01*
X81308520Y-110437336D01*
X81299752Y-110449159D01*
X81289866Y-110460066D01*
X81278959Y-110469952D01*
X81267136Y-110478720D01*
X81254510Y-110486288D01*
X81241203Y-110492582D01*
X81227343Y-110497541D01*
X81213064Y-110501118D01*
X81198503Y-110503278D01*
X81183800Y-110504000D01*
X80883800Y-110504000D01*
X80869097Y-110503278D01*
X80854536Y-110501118D01*
X80840257Y-110497541D01*
X80826397Y-110492582D01*
X80813090Y-110486288D01*
X80800464Y-110478720D01*
X80788641Y-110469952D01*
X80777734Y-110460066D01*
X80767848Y-110449159D01*
X80759080Y-110437336D01*
X80751512Y-110424710D01*
X80745218Y-110411403D01*
X80740259Y-110397543D01*
X80736682Y-110383264D01*
X80734522Y-110368703D01*
X80733800Y-110354000D01*
X80733800Y-108704000D01*
X80734522Y-108689297D01*
X80736682Y-108674736D01*
X80740259Y-108660457D01*
X80745218Y-108646597D01*
X80751512Y-108633290D01*
X80759080Y-108620664D01*
X80767848Y-108608841D01*
X80777734Y-108597934D01*
X80788641Y-108588048D01*
X80800464Y-108579280D01*
X80813090Y-108571712D01*
X80826397Y-108565418D01*
X80840257Y-108560459D01*
X80854536Y-108556882D01*
X80869097Y-108554722D01*
X80883800Y-108554000D01*
X81183800Y-108554000D01*
X81198503Y-108554722D01*
X81198503Y-108554722D01*
G37*
D13*
X81033800Y-109529000D03*
D10*
G36*
X82468503Y-108554722D02*
G01*
X82483064Y-108556882D01*
X82497343Y-108560459D01*
X82511203Y-108565418D01*
X82524510Y-108571712D01*
X82537136Y-108579280D01*
X82548959Y-108588048D01*
X82559866Y-108597934D01*
X82569752Y-108608841D01*
X82578520Y-108620664D01*
X82586088Y-108633290D01*
X82592382Y-108646597D01*
X82597341Y-108660457D01*
X82600918Y-108674736D01*
X82603078Y-108689297D01*
X82603800Y-108704000D01*
X82603800Y-110354000D01*
X82603078Y-110368703D01*
X82600918Y-110383264D01*
X82597341Y-110397543D01*
X82592382Y-110411403D01*
X82586088Y-110424710D01*
X82578520Y-110437336D01*
X82569752Y-110449159D01*
X82559866Y-110460066D01*
X82548959Y-110469952D01*
X82537136Y-110478720D01*
X82524510Y-110486288D01*
X82511203Y-110492582D01*
X82497343Y-110497541D01*
X82483064Y-110501118D01*
X82468503Y-110503278D01*
X82453800Y-110504000D01*
X82153800Y-110504000D01*
X82139097Y-110503278D01*
X82124536Y-110501118D01*
X82110257Y-110497541D01*
X82096397Y-110492582D01*
X82083090Y-110486288D01*
X82070464Y-110478720D01*
X82058641Y-110469952D01*
X82047734Y-110460066D01*
X82037848Y-110449159D01*
X82029080Y-110437336D01*
X82021512Y-110424710D01*
X82015218Y-110411403D01*
X82010259Y-110397543D01*
X82006682Y-110383264D01*
X82004522Y-110368703D01*
X82003800Y-110354000D01*
X82003800Y-108704000D01*
X82004522Y-108689297D01*
X82006682Y-108674736D01*
X82010259Y-108660457D01*
X82015218Y-108646597D01*
X82021512Y-108633290D01*
X82029080Y-108620664D01*
X82037848Y-108608841D01*
X82047734Y-108597934D01*
X82058641Y-108588048D01*
X82070464Y-108579280D01*
X82083090Y-108571712D01*
X82096397Y-108565418D01*
X82110257Y-108560459D01*
X82124536Y-108556882D01*
X82139097Y-108554722D01*
X82153800Y-108554000D01*
X82453800Y-108554000D01*
X82468503Y-108554722D01*
X82468503Y-108554722D01*
G37*
D13*
X82303800Y-109529000D03*
D10*
G36*
X83738503Y-108554722D02*
G01*
X83753064Y-108556882D01*
X83767343Y-108560459D01*
X83781203Y-108565418D01*
X83794510Y-108571712D01*
X83807136Y-108579280D01*
X83818959Y-108588048D01*
X83829866Y-108597934D01*
X83839752Y-108608841D01*
X83848520Y-108620664D01*
X83856088Y-108633290D01*
X83862382Y-108646597D01*
X83867341Y-108660457D01*
X83870918Y-108674736D01*
X83873078Y-108689297D01*
X83873800Y-108704000D01*
X83873800Y-110354000D01*
X83873078Y-110368703D01*
X83870918Y-110383264D01*
X83867341Y-110397543D01*
X83862382Y-110411403D01*
X83856088Y-110424710D01*
X83848520Y-110437336D01*
X83839752Y-110449159D01*
X83829866Y-110460066D01*
X83818959Y-110469952D01*
X83807136Y-110478720D01*
X83794510Y-110486288D01*
X83781203Y-110492582D01*
X83767343Y-110497541D01*
X83753064Y-110501118D01*
X83738503Y-110503278D01*
X83723800Y-110504000D01*
X83423800Y-110504000D01*
X83409097Y-110503278D01*
X83394536Y-110501118D01*
X83380257Y-110497541D01*
X83366397Y-110492582D01*
X83353090Y-110486288D01*
X83340464Y-110478720D01*
X83328641Y-110469952D01*
X83317734Y-110460066D01*
X83307848Y-110449159D01*
X83299080Y-110437336D01*
X83291512Y-110424710D01*
X83285218Y-110411403D01*
X83280259Y-110397543D01*
X83276682Y-110383264D01*
X83274522Y-110368703D01*
X83273800Y-110354000D01*
X83273800Y-108704000D01*
X83274522Y-108689297D01*
X83276682Y-108674736D01*
X83280259Y-108660457D01*
X83285218Y-108646597D01*
X83291512Y-108633290D01*
X83299080Y-108620664D01*
X83307848Y-108608841D01*
X83317734Y-108597934D01*
X83328641Y-108588048D01*
X83340464Y-108579280D01*
X83353090Y-108571712D01*
X83366397Y-108565418D01*
X83380257Y-108560459D01*
X83394536Y-108556882D01*
X83409097Y-108554722D01*
X83423800Y-108554000D01*
X83723800Y-108554000D01*
X83738503Y-108554722D01*
X83738503Y-108554722D01*
G37*
D13*
X83573800Y-109529000D03*
D10*
G36*
X83738503Y-98671122D02*
G01*
X83753064Y-98673282D01*
X83767343Y-98676859D01*
X83781203Y-98681818D01*
X83794510Y-98688112D01*
X83807136Y-98695680D01*
X83818959Y-98704448D01*
X83829866Y-98714334D01*
X83839752Y-98725241D01*
X83848520Y-98737064D01*
X83856088Y-98749690D01*
X83862382Y-98762997D01*
X83867341Y-98776857D01*
X83870918Y-98791136D01*
X83873078Y-98805697D01*
X83873800Y-98820400D01*
X83873800Y-100470400D01*
X83873078Y-100485103D01*
X83870918Y-100499664D01*
X83867341Y-100513943D01*
X83862382Y-100527803D01*
X83856088Y-100541110D01*
X83848520Y-100553736D01*
X83839752Y-100565559D01*
X83829866Y-100576466D01*
X83818959Y-100586352D01*
X83807136Y-100595120D01*
X83794510Y-100602688D01*
X83781203Y-100608982D01*
X83767343Y-100613941D01*
X83753064Y-100617518D01*
X83738503Y-100619678D01*
X83723800Y-100620400D01*
X83423800Y-100620400D01*
X83409097Y-100619678D01*
X83394536Y-100617518D01*
X83380257Y-100613941D01*
X83366397Y-100608982D01*
X83353090Y-100602688D01*
X83340464Y-100595120D01*
X83328641Y-100586352D01*
X83317734Y-100576466D01*
X83307848Y-100565559D01*
X83299080Y-100553736D01*
X83291512Y-100541110D01*
X83285218Y-100527803D01*
X83280259Y-100513943D01*
X83276682Y-100499664D01*
X83274522Y-100485103D01*
X83273800Y-100470400D01*
X83273800Y-98820400D01*
X83274522Y-98805697D01*
X83276682Y-98791136D01*
X83280259Y-98776857D01*
X83285218Y-98762997D01*
X83291512Y-98749690D01*
X83299080Y-98737064D01*
X83307848Y-98725241D01*
X83317734Y-98714334D01*
X83328641Y-98704448D01*
X83340464Y-98695680D01*
X83353090Y-98688112D01*
X83366397Y-98681818D01*
X83380257Y-98676859D01*
X83394536Y-98673282D01*
X83409097Y-98671122D01*
X83423800Y-98670400D01*
X83723800Y-98670400D01*
X83738503Y-98671122D01*
X83738503Y-98671122D01*
G37*
D13*
X83573800Y-99645400D03*
D10*
G36*
X82468503Y-98671122D02*
G01*
X82483064Y-98673282D01*
X82497343Y-98676859D01*
X82511203Y-98681818D01*
X82524510Y-98688112D01*
X82537136Y-98695680D01*
X82548959Y-98704448D01*
X82559866Y-98714334D01*
X82569752Y-98725241D01*
X82578520Y-98737064D01*
X82586088Y-98749690D01*
X82592382Y-98762997D01*
X82597341Y-98776857D01*
X82600918Y-98791136D01*
X82603078Y-98805697D01*
X82603800Y-98820400D01*
X82603800Y-100470400D01*
X82603078Y-100485103D01*
X82600918Y-100499664D01*
X82597341Y-100513943D01*
X82592382Y-100527803D01*
X82586088Y-100541110D01*
X82578520Y-100553736D01*
X82569752Y-100565559D01*
X82559866Y-100576466D01*
X82548959Y-100586352D01*
X82537136Y-100595120D01*
X82524510Y-100602688D01*
X82511203Y-100608982D01*
X82497343Y-100613941D01*
X82483064Y-100617518D01*
X82468503Y-100619678D01*
X82453800Y-100620400D01*
X82153800Y-100620400D01*
X82139097Y-100619678D01*
X82124536Y-100617518D01*
X82110257Y-100613941D01*
X82096397Y-100608982D01*
X82083090Y-100602688D01*
X82070464Y-100595120D01*
X82058641Y-100586352D01*
X82047734Y-100576466D01*
X82037848Y-100565559D01*
X82029080Y-100553736D01*
X82021512Y-100541110D01*
X82015218Y-100527803D01*
X82010259Y-100513943D01*
X82006682Y-100499664D01*
X82004522Y-100485103D01*
X82003800Y-100470400D01*
X82003800Y-98820400D01*
X82004522Y-98805697D01*
X82006682Y-98791136D01*
X82010259Y-98776857D01*
X82015218Y-98762997D01*
X82021512Y-98749690D01*
X82029080Y-98737064D01*
X82037848Y-98725241D01*
X82047734Y-98714334D01*
X82058641Y-98704448D01*
X82070464Y-98695680D01*
X82083090Y-98688112D01*
X82096397Y-98681818D01*
X82110257Y-98676859D01*
X82124536Y-98673282D01*
X82139097Y-98671122D01*
X82153800Y-98670400D01*
X82453800Y-98670400D01*
X82468503Y-98671122D01*
X82468503Y-98671122D01*
G37*
D13*
X82303800Y-99645400D03*
D10*
G36*
X81198503Y-98671122D02*
G01*
X81213064Y-98673282D01*
X81227343Y-98676859D01*
X81241203Y-98681818D01*
X81254510Y-98688112D01*
X81267136Y-98695680D01*
X81278959Y-98704448D01*
X81289866Y-98714334D01*
X81299752Y-98725241D01*
X81308520Y-98737064D01*
X81316088Y-98749690D01*
X81322382Y-98762997D01*
X81327341Y-98776857D01*
X81330918Y-98791136D01*
X81333078Y-98805697D01*
X81333800Y-98820400D01*
X81333800Y-100470400D01*
X81333078Y-100485103D01*
X81330918Y-100499664D01*
X81327341Y-100513943D01*
X81322382Y-100527803D01*
X81316088Y-100541110D01*
X81308520Y-100553736D01*
X81299752Y-100565559D01*
X81289866Y-100576466D01*
X81278959Y-100586352D01*
X81267136Y-100595120D01*
X81254510Y-100602688D01*
X81241203Y-100608982D01*
X81227343Y-100613941D01*
X81213064Y-100617518D01*
X81198503Y-100619678D01*
X81183800Y-100620400D01*
X80883800Y-100620400D01*
X80869097Y-100619678D01*
X80854536Y-100617518D01*
X80840257Y-100613941D01*
X80826397Y-100608982D01*
X80813090Y-100602688D01*
X80800464Y-100595120D01*
X80788641Y-100586352D01*
X80777734Y-100576466D01*
X80767848Y-100565559D01*
X80759080Y-100553736D01*
X80751512Y-100541110D01*
X80745218Y-100527803D01*
X80740259Y-100513943D01*
X80736682Y-100499664D01*
X80734522Y-100485103D01*
X80733800Y-100470400D01*
X80733800Y-98820400D01*
X80734522Y-98805697D01*
X80736682Y-98791136D01*
X80740259Y-98776857D01*
X80745218Y-98762997D01*
X80751512Y-98749690D01*
X80759080Y-98737064D01*
X80767848Y-98725241D01*
X80777734Y-98714334D01*
X80788641Y-98704448D01*
X80800464Y-98695680D01*
X80813090Y-98688112D01*
X80826397Y-98681818D01*
X80840257Y-98676859D01*
X80854536Y-98673282D01*
X80869097Y-98671122D01*
X80883800Y-98670400D01*
X81183800Y-98670400D01*
X81198503Y-98671122D01*
X81198503Y-98671122D01*
G37*
D13*
X81033800Y-99645400D03*
D10*
G36*
X79928503Y-98671122D02*
G01*
X79943064Y-98673282D01*
X79957343Y-98676859D01*
X79971203Y-98681818D01*
X79984510Y-98688112D01*
X79997136Y-98695680D01*
X80008959Y-98704448D01*
X80019866Y-98714334D01*
X80029752Y-98725241D01*
X80038520Y-98737064D01*
X80046088Y-98749690D01*
X80052382Y-98762997D01*
X80057341Y-98776857D01*
X80060918Y-98791136D01*
X80063078Y-98805697D01*
X80063800Y-98820400D01*
X80063800Y-100470400D01*
X80063078Y-100485103D01*
X80060918Y-100499664D01*
X80057341Y-100513943D01*
X80052382Y-100527803D01*
X80046088Y-100541110D01*
X80038520Y-100553736D01*
X80029752Y-100565559D01*
X80019866Y-100576466D01*
X80008959Y-100586352D01*
X79997136Y-100595120D01*
X79984510Y-100602688D01*
X79971203Y-100608982D01*
X79957343Y-100613941D01*
X79943064Y-100617518D01*
X79928503Y-100619678D01*
X79913800Y-100620400D01*
X79613800Y-100620400D01*
X79599097Y-100619678D01*
X79584536Y-100617518D01*
X79570257Y-100613941D01*
X79556397Y-100608982D01*
X79543090Y-100602688D01*
X79530464Y-100595120D01*
X79518641Y-100586352D01*
X79507734Y-100576466D01*
X79497848Y-100565559D01*
X79489080Y-100553736D01*
X79481512Y-100541110D01*
X79475218Y-100527803D01*
X79470259Y-100513943D01*
X79466682Y-100499664D01*
X79464522Y-100485103D01*
X79463800Y-100470400D01*
X79463800Y-98820400D01*
X79464522Y-98805697D01*
X79466682Y-98791136D01*
X79470259Y-98776857D01*
X79475218Y-98762997D01*
X79481512Y-98749690D01*
X79489080Y-98737064D01*
X79497848Y-98725241D01*
X79507734Y-98714334D01*
X79518641Y-98704448D01*
X79530464Y-98695680D01*
X79543090Y-98688112D01*
X79556397Y-98681818D01*
X79570257Y-98676859D01*
X79584536Y-98673282D01*
X79599097Y-98671122D01*
X79613800Y-98670400D01*
X79913800Y-98670400D01*
X79928503Y-98671122D01*
X79928503Y-98671122D01*
G37*
D13*
X79763800Y-99645400D03*
D10*
G36*
X79928503Y-93721122D02*
G01*
X79943064Y-93723282D01*
X79957343Y-93726859D01*
X79971203Y-93731818D01*
X79984510Y-93738112D01*
X79997136Y-93745680D01*
X80008959Y-93754448D01*
X80019866Y-93764334D01*
X80029752Y-93775241D01*
X80038520Y-93787064D01*
X80046088Y-93799690D01*
X80052382Y-93812997D01*
X80057341Y-93826857D01*
X80060918Y-93841136D01*
X80063078Y-93855697D01*
X80063800Y-93870400D01*
X80063800Y-95520400D01*
X80063078Y-95535103D01*
X80060918Y-95549664D01*
X80057341Y-95563943D01*
X80052382Y-95577803D01*
X80046088Y-95591110D01*
X80038520Y-95603736D01*
X80029752Y-95615559D01*
X80019866Y-95626466D01*
X80008959Y-95636352D01*
X79997136Y-95645120D01*
X79984510Y-95652688D01*
X79971203Y-95658982D01*
X79957343Y-95663941D01*
X79943064Y-95667518D01*
X79928503Y-95669678D01*
X79913800Y-95670400D01*
X79613800Y-95670400D01*
X79599097Y-95669678D01*
X79584536Y-95667518D01*
X79570257Y-95663941D01*
X79556397Y-95658982D01*
X79543090Y-95652688D01*
X79530464Y-95645120D01*
X79518641Y-95636352D01*
X79507734Y-95626466D01*
X79497848Y-95615559D01*
X79489080Y-95603736D01*
X79481512Y-95591110D01*
X79475218Y-95577803D01*
X79470259Y-95563943D01*
X79466682Y-95549664D01*
X79464522Y-95535103D01*
X79463800Y-95520400D01*
X79463800Y-93870400D01*
X79464522Y-93855697D01*
X79466682Y-93841136D01*
X79470259Y-93826857D01*
X79475218Y-93812997D01*
X79481512Y-93799690D01*
X79489080Y-93787064D01*
X79497848Y-93775241D01*
X79507734Y-93764334D01*
X79518641Y-93754448D01*
X79530464Y-93745680D01*
X79543090Y-93738112D01*
X79556397Y-93731818D01*
X79570257Y-93726859D01*
X79584536Y-93723282D01*
X79599097Y-93721122D01*
X79613800Y-93720400D01*
X79913800Y-93720400D01*
X79928503Y-93721122D01*
X79928503Y-93721122D01*
G37*
D13*
X79763800Y-94695400D03*
D10*
G36*
X81198503Y-93721122D02*
G01*
X81213064Y-93723282D01*
X81227343Y-93726859D01*
X81241203Y-93731818D01*
X81254510Y-93738112D01*
X81267136Y-93745680D01*
X81278959Y-93754448D01*
X81289866Y-93764334D01*
X81299752Y-93775241D01*
X81308520Y-93787064D01*
X81316088Y-93799690D01*
X81322382Y-93812997D01*
X81327341Y-93826857D01*
X81330918Y-93841136D01*
X81333078Y-93855697D01*
X81333800Y-93870400D01*
X81333800Y-95520400D01*
X81333078Y-95535103D01*
X81330918Y-95549664D01*
X81327341Y-95563943D01*
X81322382Y-95577803D01*
X81316088Y-95591110D01*
X81308520Y-95603736D01*
X81299752Y-95615559D01*
X81289866Y-95626466D01*
X81278959Y-95636352D01*
X81267136Y-95645120D01*
X81254510Y-95652688D01*
X81241203Y-95658982D01*
X81227343Y-95663941D01*
X81213064Y-95667518D01*
X81198503Y-95669678D01*
X81183800Y-95670400D01*
X80883800Y-95670400D01*
X80869097Y-95669678D01*
X80854536Y-95667518D01*
X80840257Y-95663941D01*
X80826397Y-95658982D01*
X80813090Y-95652688D01*
X80800464Y-95645120D01*
X80788641Y-95636352D01*
X80777734Y-95626466D01*
X80767848Y-95615559D01*
X80759080Y-95603736D01*
X80751512Y-95591110D01*
X80745218Y-95577803D01*
X80740259Y-95563943D01*
X80736682Y-95549664D01*
X80734522Y-95535103D01*
X80733800Y-95520400D01*
X80733800Y-93870400D01*
X80734522Y-93855697D01*
X80736682Y-93841136D01*
X80740259Y-93826857D01*
X80745218Y-93812997D01*
X80751512Y-93799690D01*
X80759080Y-93787064D01*
X80767848Y-93775241D01*
X80777734Y-93764334D01*
X80788641Y-93754448D01*
X80800464Y-93745680D01*
X80813090Y-93738112D01*
X80826397Y-93731818D01*
X80840257Y-93726859D01*
X80854536Y-93723282D01*
X80869097Y-93721122D01*
X80883800Y-93720400D01*
X81183800Y-93720400D01*
X81198503Y-93721122D01*
X81198503Y-93721122D01*
G37*
D13*
X81033800Y-94695400D03*
D10*
G36*
X82468503Y-93721122D02*
G01*
X82483064Y-93723282D01*
X82497343Y-93726859D01*
X82511203Y-93731818D01*
X82524510Y-93738112D01*
X82537136Y-93745680D01*
X82548959Y-93754448D01*
X82559866Y-93764334D01*
X82569752Y-93775241D01*
X82578520Y-93787064D01*
X82586088Y-93799690D01*
X82592382Y-93812997D01*
X82597341Y-93826857D01*
X82600918Y-93841136D01*
X82603078Y-93855697D01*
X82603800Y-93870400D01*
X82603800Y-95520400D01*
X82603078Y-95535103D01*
X82600918Y-95549664D01*
X82597341Y-95563943D01*
X82592382Y-95577803D01*
X82586088Y-95591110D01*
X82578520Y-95603736D01*
X82569752Y-95615559D01*
X82559866Y-95626466D01*
X82548959Y-95636352D01*
X82537136Y-95645120D01*
X82524510Y-95652688D01*
X82511203Y-95658982D01*
X82497343Y-95663941D01*
X82483064Y-95667518D01*
X82468503Y-95669678D01*
X82453800Y-95670400D01*
X82153800Y-95670400D01*
X82139097Y-95669678D01*
X82124536Y-95667518D01*
X82110257Y-95663941D01*
X82096397Y-95658982D01*
X82083090Y-95652688D01*
X82070464Y-95645120D01*
X82058641Y-95636352D01*
X82047734Y-95626466D01*
X82037848Y-95615559D01*
X82029080Y-95603736D01*
X82021512Y-95591110D01*
X82015218Y-95577803D01*
X82010259Y-95563943D01*
X82006682Y-95549664D01*
X82004522Y-95535103D01*
X82003800Y-95520400D01*
X82003800Y-93870400D01*
X82004522Y-93855697D01*
X82006682Y-93841136D01*
X82010259Y-93826857D01*
X82015218Y-93812997D01*
X82021512Y-93799690D01*
X82029080Y-93787064D01*
X82037848Y-93775241D01*
X82047734Y-93764334D01*
X82058641Y-93754448D01*
X82070464Y-93745680D01*
X82083090Y-93738112D01*
X82096397Y-93731818D01*
X82110257Y-93726859D01*
X82124536Y-93723282D01*
X82139097Y-93721122D01*
X82153800Y-93720400D01*
X82453800Y-93720400D01*
X82468503Y-93721122D01*
X82468503Y-93721122D01*
G37*
D13*
X82303800Y-94695400D03*
D10*
G36*
X83738503Y-93721122D02*
G01*
X83753064Y-93723282D01*
X83767343Y-93726859D01*
X83781203Y-93731818D01*
X83794510Y-93738112D01*
X83807136Y-93745680D01*
X83818959Y-93754448D01*
X83829866Y-93764334D01*
X83839752Y-93775241D01*
X83848520Y-93787064D01*
X83856088Y-93799690D01*
X83862382Y-93812997D01*
X83867341Y-93826857D01*
X83870918Y-93841136D01*
X83873078Y-93855697D01*
X83873800Y-93870400D01*
X83873800Y-95520400D01*
X83873078Y-95535103D01*
X83870918Y-95549664D01*
X83867341Y-95563943D01*
X83862382Y-95577803D01*
X83856088Y-95591110D01*
X83848520Y-95603736D01*
X83839752Y-95615559D01*
X83829866Y-95626466D01*
X83818959Y-95636352D01*
X83807136Y-95645120D01*
X83794510Y-95652688D01*
X83781203Y-95658982D01*
X83767343Y-95663941D01*
X83753064Y-95667518D01*
X83738503Y-95669678D01*
X83723800Y-95670400D01*
X83423800Y-95670400D01*
X83409097Y-95669678D01*
X83394536Y-95667518D01*
X83380257Y-95663941D01*
X83366397Y-95658982D01*
X83353090Y-95652688D01*
X83340464Y-95645120D01*
X83328641Y-95636352D01*
X83317734Y-95626466D01*
X83307848Y-95615559D01*
X83299080Y-95603736D01*
X83291512Y-95591110D01*
X83285218Y-95577803D01*
X83280259Y-95563943D01*
X83276682Y-95549664D01*
X83274522Y-95535103D01*
X83273800Y-95520400D01*
X83273800Y-93870400D01*
X83274522Y-93855697D01*
X83276682Y-93841136D01*
X83280259Y-93826857D01*
X83285218Y-93812997D01*
X83291512Y-93799690D01*
X83299080Y-93787064D01*
X83307848Y-93775241D01*
X83317734Y-93764334D01*
X83328641Y-93754448D01*
X83340464Y-93745680D01*
X83353090Y-93738112D01*
X83366397Y-93731818D01*
X83380257Y-93726859D01*
X83394536Y-93723282D01*
X83409097Y-93721122D01*
X83423800Y-93720400D01*
X83723800Y-93720400D01*
X83738503Y-93721122D01*
X83738503Y-93721122D01*
G37*
D13*
X83573800Y-94695400D03*
D10*
G36*
X84220491Y-105383253D02*
G01*
X84241726Y-105386403D01*
X84262550Y-105391619D01*
X84282762Y-105398851D01*
X84302168Y-105408030D01*
X84320581Y-105419066D01*
X84337824Y-105431854D01*
X84353730Y-105446270D01*
X84368146Y-105462176D01*
X84380934Y-105479419D01*
X84391970Y-105497832D01*
X84401149Y-105517238D01*
X84408381Y-105537450D01*
X84413597Y-105558274D01*
X84416747Y-105579509D01*
X84417800Y-105600950D01*
X84417800Y-106113450D01*
X84416747Y-106134891D01*
X84413597Y-106156126D01*
X84408381Y-106176950D01*
X84401149Y-106197162D01*
X84391970Y-106216568D01*
X84380934Y-106234981D01*
X84368146Y-106252224D01*
X84353730Y-106268130D01*
X84337824Y-106282546D01*
X84320581Y-106295334D01*
X84302168Y-106306370D01*
X84282762Y-106315549D01*
X84262550Y-106322781D01*
X84241726Y-106327997D01*
X84220491Y-106331147D01*
X84199050Y-106332200D01*
X83761550Y-106332200D01*
X83740109Y-106331147D01*
X83718874Y-106327997D01*
X83698050Y-106322781D01*
X83677838Y-106315549D01*
X83658432Y-106306370D01*
X83640019Y-106295334D01*
X83622776Y-106282546D01*
X83606870Y-106268130D01*
X83592454Y-106252224D01*
X83579666Y-106234981D01*
X83568630Y-106216568D01*
X83559451Y-106197162D01*
X83552219Y-106176950D01*
X83547003Y-106156126D01*
X83543853Y-106134891D01*
X83542800Y-106113450D01*
X83542800Y-105600950D01*
X83543853Y-105579509D01*
X83547003Y-105558274D01*
X83552219Y-105537450D01*
X83559451Y-105517238D01*
X83568630Y-105497832D01*
X83579666Y-105479419D01*
X83592454Y-105462176D01*
X83606870Y-105446270D01*
X83622776Y-105431854D01*
X83640019Y-105419066D01*
X83658432Y-105408030D01*
X83677838Y-105398851D01*
X83698050Y-105391619D01*
X83718874Y-105386403D01*
X83740109Y-105383253D01*
X83761550Y-105382200D01*
X84199050Y-105382200D01*
X84220491Y-105383253D01*
X84220491Y-105383253D01*
G37*
D12*
X83980300Y-105857200D03*
D10*
G36*
X82645491Y-105383253D02*
G01*
X82666726Y-105386403D01*
X82687550Y-105391619D01*
X82707762Y-105398851D01*
X82727168Y-105408030D01*
X82745581Y-105419066D01*
X82762824Y-105431854D01*
X82778730Y-105446270D01*
X82793146Y-105462176D01*
X82805934Y-105479419D01*
X82816970Y-105497832D01*
X82826149Y-105517238D01*
X82833381Y-105537450D01*
X82838597Y-105558274D01*
X82841747Y-105579509D01*
X82842800Y-105600950D01*
X82842800Y-106113450D01*
X82841747Y-106134891D01*
X82838597Y-106156126D01*
X82833381Y-106176950D01*
X82826149Y-106197162D01*
X82816970Y-106216568D01*
X82805934Y-106234981D01*
X82793146Y-106252224D01*
X82778730Y-106268130D01*
X82762824Y-106282546D01*
X82745581Y-106295334D01*
X82727168Y-106306370D01*
X82707762Y-106315549D01*
X82687550Y-106322781D01*
X82666726Y-106327997D01*
X82645491Y-106331147D01*
X82624050Y-106332200D01*
X82186550Y-106332200D01*
X82165109Y-106331147D01*
X82143874Y-106327997D01*
X82123050Y-106322781D01*
X82102838Y-106315549D01*
X82083432Y-106306370D01*
X82065019Y-106295334D01*
X82047776Y-106282546D01*
X82031870Y-106268130D01*
X82017454Y-106252224D01*
X82004666Y-106234981D01*
X81993630Y-106216568D01*
X81984451Y-106197162D01*
X81977219Y-106176950D01*
X81972003Y-106156126D01*
X81968853Y-106134891D01*
X81967800Y-106113450D01*
X81967800Y-105600950D01*
X81968853Y-105579509D01*
X81972003Y-105558274D01*
X81977219Y-105537450D01*
X81984451Y-105517238D01*
X81993630Y-105497832D01*
X82004666Y-105479419D01*
X82017454Y-105462176D01*
X82031870Y-105446270D01*
X82047776Y-105431854D01*
X82065019Y-105419066D01*
X82083432Y-105408030D01*
X82102838Y-105398851D01*
X82123050Y-105391619D01*
X82143874Y-105386403D01*
X82165109Y-105383253D01*
X82186550Y-105382200D01*
X82624050Y-105382200D01*
X82645491Y-105383253D01*
X82645491Y-105383253D01*
G37*
D12*
X82405300Y-105857200D03*
D10*
G36*
X82645491Y-106958053D02*
G01*
X82666726Y-106961203D01*
X82687550Y-106966419D01*
X82707762Y-106973651D01*
X82727168Y-106982830D01*
X82745581Y-106993866D01*
X82762824Y-107006654D01*
X82778730Y-107021070D01*
X82793146Y-107036976D01*
X82805934Y-107054219D01*
X82816970Y-107072632D01*
X82826149Y-107092038D01*
X82833381Y-107112250D01*
X82838597Y-107133074D01*
X82841747Y-107154309D01*
X82842800Y-107175750D01*
X82842800Y-107688250D01*
X82841747Y-107709691D01*
X82838597Y-107730926D01*
X82833381Y-107751750D01*
X82826149Y-107771962D01*
X82816970Y-107791368D01*
X82805934Y-107809781D01*
X82793146Y-107827024D01*
X82778730Y-107842930D01*
X82762824Y-107857346D01*
X82745581Y-107870134D01*
X82727168Y-107881170D01*
X82707762Y-107890349D01*
X82687550Y-107897581D01*
X82666726Y-107902797D01*
X82645491Y-107905947D01*
X82624050Y-107907000D01*
X82186550Y-107907000D01*
X82165109Y-107905947D01*
X82143874Y-107902797D01*
X82123050Y-107897581D01*
X82102838Y-107890349D01*
X82083432Y-107881170D01*
X82065019Y-107870134D01*
X82047776Y-107857346D01*
X82031870Y-107842930D01*
X82017454Y-107827024D01*
X82004666Y-107809781D01*
X81993630Y-107791368D01*
X81984451Y-107771962D01*
X81977219Y-107751750D01*
X81972003Y-107730926D01*
X81968853Y-107709691D01*
X81967800Y-107688250D01*
X81967800Y-107175750D01*
X81968853Y-107154309D01*
X81972003Y-107133074D01*
X81977219Y-107112250D01*
X81984451Y-107092038D01*
X81993630Y-107072632D01*
X82004666Y-107054219D01*
X82017454Y-107036976D01*
X82031870Y-107021070D01*
X82047776Y-107006654D01*
X82065019Y-106993866D01*
X82083432Y-106982830D01*
X82102838Y-106973651D01*
X82123050Y-106966419D01*
X82143874Y-106961203D01*
X82165109Y-106958053D01*
X82186550Y-106957000D01*
X82624050Y-106957000D01*
X82645491Y-106958053D01*
X82645491Y-106958053D01*
G37*
D12*
X82405300Y-107432000D03*
D10*
G36*
X84220491Y-106958053D02*
G01*
X84241726Y-106961203D01*
X84262550Y-106966419D01*
X84282762Y-106973651D01*
X84302168Y-106982830D01*
X84320581Y-106993866D01*
X84337824Y-107006654D01*
X84353730Y-107021070D01*
X84368146Y-107036976D01*
X84380934Y-107054219D01*
X84391970Y-107072632D01*
X84401149Y-107092038D01*
X84408381Y-107112250D01*
X84413597Y-107133074D01*
X84416747Y-107154309D01*
X84417800Y-107175750D01*
X84417800Y-107688250D01*
X84416747Y-107709691D01*
X84413597Y-107730926D01*
X84408381Y-107751750D01*
X84401149Y-107771962D01*
X84391970Y-107791368D01*
X84380934Y-107809781D01*
X84368146Y-107827024D01*
X84353730Y-107842930D01*
X84337824Y-107857346D01*
X84320581Y-107870134D01*
X84302168Y-107881170D01*
X84282762Y-107890349D01*
X84262550Y-107897581D01*
X84241726Y-107902797D01*
X84220491Y-107905947D01*
X84199050Y-107907000D01*
X83761550Y-107907000D01*
X83740109Y-107905947D01*
X83718874Y-107902797D01*
X83698050Y-107897581D01*
X83677838Y-107890349D01*
X83658432Y-107881170D01*
X83640019Y-107870134D01*
X83622776Y-107857346D01*
X83606870Y-107842930D01*
X83592454Y-107827024D01*
X83579666Y-107809781D01*
X83568630Y-107791368D01*
X83559451Y-107771962D01*
X83552219Y-107751750D01*
X83547003Y-107730926D01*
X83543853Y-107709691D01*
X83542800Y-107688250D01*
X83542800Y-107175750D01*
X83543853Y-107154309D01*
X83547003Y-107133074D01*
X83552219Y-107112250D01*
X83559451Y-107092038D01*
X83568630Y-107072632D01*
X83579666Y-107054219D01*
X83592454Y-107036976D01*
X83606870Y-107021070D01*
X83622776Y-107006654D01*
X83640019Y-106993866D01*
X83658432Y-106982830D01*
X83677838Y-106973651D01*
X83698050Y-106966419D01*
X83718874Y-106961203D01*
X83740109Y-106958053D01*
X83761550Y-106957000D01*
X84199050Y-106957000D01*
X84220491Y-106958053D01*
X84220491Y-106958053D01*
G37*
D12*
X83980300Y-107432000D03*
D10*
G36*
X84220491Y-90549653D02*
G01*
X84241726Y-90552803D01*
X84262550Y-90558019D01*
X84282762Y-90565251D01*
X84302168Y-90574430D01*
X84320581Y-90585466D01*
X84337824Y-90598254D01*
X84353730Y-90612670D01*
X84368146Y-90628576D01*
X84380934Y-90645819D01*
X84391970Y-90664232D01*
X84401149Y-90683638D01*
X84408381Y-90703850D01*
X84413597Y-90724674D01*
X84416747Y-90745909D01*
X84417800Y-90767350D01*
X84417800Y-91279850D01*
X84416747Y-91301291D01*
X84413597Y-91322526D01*
X84408381Y-91343350D01*
X84401149Y-91363562D01*
X84391970Y-91382968D01*
X84380934Y-91401381D01*
X84368146Y-91418624D01*
X84353730Y-91434530D01*
X84337824Y-91448946D01*
X84320581Y-91461734D01*
X84302168Y-91472770D01*
X84282762Y-91481949D01*
X84262550Y-91489181D01*
X84241726Y-91494397D01*
X84220491Y-91497547D01*
X84199050Y-91498600D01*
X83761550Y-91498600D01*
X83740109Y-91497547D01*
X83718874Y-91494397D01*
X83698050Y-91489181D01*
X83677838Y-91481949D01*
X83658432Y-91472770D01*
X83640019Y-91461734D01*
X83622776Y-91448946D01*
X83606870Y-91434530D01*
X83592454Y-91418624D01*
X83579666Y-91401381D01*
X83568630Y-91382968D01*
X83559451Y-91363562D01*
X83552219Y-91343350D01*
X83547003Y-91322526D01*
X83543853Y-91301291D01*
X83542800Y-91279850D01*
X83542800Y-90767350D01*
X83543853Y-90745909D01*
X83547003Y-90724674D01*
X83552219Y-90703850D01*
X83559451Y-90683638D01*
X83568630Y-90664232D01*
X83579666Y-90645819D01*
X83592454Y-90628576D01*
X83606870Y-90612670D01*
X83622776Y-90598254D01*
X83640019Y-90585466D01*
X83658432Y-90574430D01*
X83677838Y-90565251D01*
X83698050Y-90558019D01*
X83718874Y-90552803D01*
X83740109Y-90549653D01*
X83761550Y-90548600D01*
X84199050Y-90548600D01*
X84220491Y-90549653D01*
X84220491Y-90549653D01*
G37*
D12*
X83980300Y-91023600D03*
D10*
G36*
X82645491Y-90549653D02*
G01*
X82666726Y-90552803D01*
X82687550Y-90558019D01*
X82707762Y-90565251D01*
X82727168Y-90574430D01*
X82745581Y-90585466D01*
X82762824Y-90598254D01*
X82778730Y-90612670D01*
X82793146Y-90628576D01*
X82805934Y-90645819D01*
X82816970Y-90664232D01*
X82826149Y-90683638D01*
X82833381Y-90703850D01*
X82838597Y-90724674D01*
X82841747Y-90745909D01*
X82842800Y-90767350D01*
X82842800Y-91279850D01*
X82841747Y-91301291D01*
X82838597Y-91322526D01*
X82833381Y-91343350D01*
X82826149Y-91363562D01*
X82816970Y-91382968D01*
X82805934Y-91401381D01*
X82793146Y-91418624D01*
X82778730Y-91434530D01*
X82762824Y-91448946D01*
X82745581Y-91461734D01*
X82727168Y-91472770D01*
X82707762Y-91481949D01*
X82687550Y-91489181D01*
X82666726Y-91494397D01*
X82645491Y-91497547D01*
X82624050Y-91498600D01*
X82186550Y-91498600D01*
X82165109Y-91497547D01*
X82143874Y-91494397D01*
X82123050Y-91489181D01*
X82102838Y-91481949D01*
X82083432Y-91472770D01*
X82065019Y-91461734D01*
X82047776Y-91448946D01*
X82031870Y-91434530D01*
X82017454Y-91418624D01*
X82004666Y-91401381D01*
X81993630Y-91382968D01*
X81984451Y-91363562D01*
X81977219Y-91343350D01*
X81972003Y-91322526D01*
X81968853Y-91301291D01*
X81967800Y-91279850D01*
X81967800Y-90767350D01*
X81968853Y-90745909D01*
X81972003Y-90724674D01*
X81977219Y-90703850D01*
X81984451Y-90683638D01*
X81993630Y-90664232D01*
X82004666Y-90645819D01*
X82017454Y-90628576D01*
X82031870Y-90612670D01*
X82047776Y-90598254D01*
X82065019Y-90585466D01*
X82083432Y-90574430D01*
X82102838Y-90565251D01*
X82123050Y-90558019D01*
X82143874Y-90552803D01*
X82165109Y-90549653D01*
X82186550Y-90548600D01*
X82624050Y-90548600D01*
X82645491Y-90549653D01*
X82645491Y-90549653D01*
G37*
D12*
X82405300Y-91023600D03*
D10*
G36*
X82645491Y-92124453D02*
G01*
X82666726Y-92127603D01*
X82687550Y-92132819D01*
X82707762Y-92140051D01*
X82727168Y-92149230D01*
X82745581Y-92160266D01*
X82762824Y-92173054D01*
X82778730Y-92187470D01*
X82793146Y-92203376D01*
X82805934Y-92220619D01*
X82816970Y-92239032D01*
X82826149Y-92258438D01*
X82833381Y-92278650D01*
X82838597Y-92299474D01*
X82841747Y-92320709D01*
X82842800Y-92342150D01*
X82842800Y-92854650D01*
X82841747Y-92876091D01*
X82838597Y-92897326D01*
X82833381Y-92918150D01*
X82826149Y-92938362D01*
X82816970Y-92957768D01*
X82805934Y-92976181D01*
X82793146Y-92993424D01*
X82778730Y-93009330D01*
X82762824Y-93023746D01*
X82745581Y-93036534D01*
X82727168Y-93047570D01*
X82707762Y-93056749D01*
X82687550Y-93063981D01*
X82666726Y-93069197D01*
X82645491Y-93072347D01*
X82624050Y-93073400D01*
X82186550Y-93073400D01*
X82165109Y-93072347D01*
X82143874Y-93069197D01*
X82123050Y-93063981D01*
X82102838Y-93056749D01*
X82083432Y-93047570D01*
X82065019Y-93036534D01*
X82047776Y-93023746D01*
X82031870Y-93009330D01*
X82017454Y-92993424D01*
X82004666Y-92976181D01*
X81993630Y-92957768D01*
X81984451Y-92938362D01*
X81977219Y-92918150D01*
X81972003Y-92897326D01*
X81968853Y-92876091D01*
X81967800Y-92854650D01*
X81967800Y-92342150D01*
X81968853Y-92320709D01*
X81972003Y-92299474D01*
X81977219Y-92278650D01*
X81984451Y-92258438D01*
X81993630Y-92239032D01*
X82004666Y-92220619D01*
X82017454Y-92203376D01*
X82031870Y-92187470D01*
X82047776Y-92173054D01*
X82065019Y-92160266D01*
X82083432Y-92149230D01*
X82102838Y-92140051D01*
X82123050Y-92132819D01*
X82143874Y-92127603D01*
X82165109Y-92124453D01*
X82186550Y-92123400D01*
X82624050Y-92123400D01*
X82645491Y-92124453D01*
X82645491Y-92124453D01*
G37*
D12*
X82405300Y-92598400D03*
D10*
G36*
X84220491Y-92124453D02*
G01*
X84241726Y-92127603D01*
X84262550Y-92132819D01*
X84282762Y-92140051D01*
X84302168Y-92149230D01*
X84320581Y-92160266D01*
X84337824Y-92173054D01*
X84353730Y-92187470D01*
X84368146Y-92203376D01*
X84380934Y-92220619D01*
X84391970Y-92239032D01*
X84401149Y-92258438D01*
X84408381Y-92278650D01*
X84413597Y-92299474D01*
X84416747Y-92320709D01*
X84417800Y-92342150D01*
X84417800Y-92854650D01*
X84416747Y-92876091D01*
X84413597Y-92897326D01*
X84408381Y-92918150D01*
X84401149Y-92938362D01*
X84391970Y-92957768D01*
X84380934Y-92976181D01*
X84368146Y-92993424D01*
X84353730Y-93009330D01*
X84337824Y-93023746D01*
X84320581Y-93036534D01*
X84302168Y-93047570D01*
X84282762Y-93056749D01*
X84262550Y-93063981D01*
X84241726Y-93069197D01*
X84220491Y-93072347D01*
X84199050Y-93073400D01*
X83761550Y-93073400D01*
X83740109Y-93072347D01*
X83718874Y-93069197D01*
X83698050Y-93063981D01*
X83677838Y-93056749D01*
X83658432Y-93047570D01*
X83640019Y-93036534D01*
X83622776Y-93023746D01*
X83606870Y-93009330D01*
X83592454Y-92993424D01*
X83579666Y-92976181D01*
X83568630Y-92957768D01*
X83559451Y-92938362D01*
X83552219Y-92918150D01*
X83547003Y-92897326D01*
X83543853Y-92876091D01*
X83542800Y-92854650D01*
X83542800Y-92342150D01*
X83543853Y-92320709D01*
X83547003Y-92299474D01*
X83552219Y-92278650D01*
X83559451Y-92258438D01*
X83568630Y-92239032D01*
X83579666Y-92220619D01*
X83592454Y-92203376D01*
X83606870Y-92187470D01*
X83622776Y-92173054D01*
X83640019Y-92160266D01*
X83658432Y-92149230D01*
X83677838Y-92140051D01*
X83698050Y-92132819D01*
X83718874Y-92127603D01*
X83740109Y-92124453D01*
X83761550Y-92123400D01*
X84199050Y-92123400D01*
X84220491Y-92124453D01*
X84220491Y-92124453D01*
G37*
D12*
X83980300Y-92598400D03*
D10*
G36*
X79609691Y-66025253D02*
G01*
X79630926Y-66028403D01*
X79651750Y-66033619D01*
X79671962Y-66040851D01*
X79691368Y-66050030D01*
X79709781Y-66061066D01*
X79727024Y-66073854D01*
X79742930Y-66088270D01*
X79757346Y-66104176D01*
X79770134Y-66121419D01*
X79781170Y-66139832D01*
X79790349Y-66159238D01*
X79797581Y-66179450D01*
X79802797Y-66200274D01*
X79805947Y-66221509D01*
X79807000Y-66242950D01*
X79807000Y-66680450D01*
X79805947Y-66701891D01*
X79802797Y-66723126D01*
X79797581Y-66743950D01*
X79790349Y-66764162D01*
X79781170Y-66783568D01*
X79770134Y-66801981D01*
X79757346Y-66819224D01*
X79742930Y-66835130D01*
X79727024Y-66849546D01*
X79709781Y-66862334D01*
X79691368Y-66873370D01*
X79671962Y-66882549D01*
X79651750Y-66889781D01*
X79630926Y-66894997D01*
X79609691Y-66898147D01*
X79588250Y-66899200D01*
X79075750Y-66899200D01*
X79054309Y-66898147D01*
X79033074Y-66894997D01*
X79012250Y-66889781D01*
X78992038Y-66882549D01*
X78972632Y-66873370D01*
X78954219Y-66862334D01*
X78936976Y-66849546D01*
X78921070Y-66835130D01*
X78906654Y-66819224D01*
X78893866Y-66801981D01*
X78882830Y-66783568D01*
X78873651Y-66764162D01*
X78866419Y-66743950D01*
X78861203Y-66723126D01*
X78858053Y-66701891D01*
X78857000Y-66680450D01*
X78857000Y-66242950D01*
X78858053Y-66221509D01*
X78861203Y-66200274D01*
X78866419Y-66179450D01*
X78873651Y-66159238D01*
X78882830Y-66139832D01*
X78893866Y-66121419D01*
X78906654Y-66104176D01*
X78921070Y-66088270D01*
X78936976Y-66073854D01*
X78954219Y-66061066D01*
X78972632Y-66050030D01*
X78992038Y-66040851D01*
X79012250Y-66033619D01*
X79033074Y-66028403D01*
X79054309Y-66025253D01*
X79075750Y-66024200D01*
X79588250Y-66024200D01*
X79609691Y-66025253D01*
X79609691Y-66025253D01*
G37*
D12*
X79332000Y-66461700D03*
D10*
G36*
X79609691Y-67600253D02*
G01*
X79630926Y-67603403D01*
X79651750Y-67608619D01*
X79671962Y-67615851D01*
X79691368Y-67625030D01*
X79709781Y-67636066D01*
X79727024Y-67648854D01*
X79742930Y-67663270D01*
X79757346Y-67679176D01*
X79770134Y-67696419D01*
X79781170Y-67714832D01*
X79790349Y-67734238D01*
X79797581Y-67754450D01*
X79802797Y-67775274D01*
X79805947Y-67796509D01*
X79807000Y-67817950D01*
X79807000Y-68255450D01*
X79805947Y-68276891D01*
X79802797Y-68298126D01*
X79797581Y-68318950D01*
X79790349Y-68339162D01*
X79781170Y-68358568D01*
X79770134Y-68376981D01*
X79757346Y-68394224D01*
X79742930Y-68410130D01*
X79727024Y-68424546D01*
X79709781Y-68437334D01*
X79691368Y-68448370D01*
X79671962Y-68457549D01*
X79651750Y-68464781D01*
X79630926Y-68469997D01*
X79609691Y-68473147D01*
X79588250Y-68474200D01*
X79075750Y-68474200D01*
X79054309Y-68473147D01*
X79033074Y-68469997D01*
X79012250Y-68464781D01*
X78992038Y-68457549D01*
X78972632Y-68448370D01*
X78954219Y-68437334D01*
X78936976Y-68424546D01*
X78921070Y-68410130D01*
X78906654Y-68394224D01*
X78893866Y-68376981D01*
X78882830Y-68358568D01*
X78873651Y-68339162D01*
X78866419Y-68318950D01*
X78861203Y-68298126D01*
X78858053Y-68276891D01*
X78857000Y-68255450D01*
X78857000Y-67817950D01*
X78858053Y-67796509D01*
X78861203Y-67775274D01*
X78866419Y-67754450D01*
X78873651Y-67734238D01*
X78882830Y-67714832D01*
X78893866Y-67696419D01*
X78906654Y-67679176D01*
X78921070Y-67663270D01*
X78936976Y-67648854D01*
X78954219Y-67636066D01*
X78972632Y-67625030D01*
X78992038Y-67615851D01*
X79012250Y-67608619D01*
X79033074Y-67603403D01*
X79054309Y-67600253D01*
X79075750Y-67599200D01*
X79588250Y-67599200D01*
X79609691Y-67600253D01*
X79609691Y-67600253D01*
G37*
D12*
X79332000Y-68036700D03*
D10*
G36*
X74580491Y-66076053D02*
G01*
X74601726Y-66079203D01*
X74622550Y-66084419D01*
X74642762Y-66091651D01*
X74662168Y-66100830D01*
X74680581Y-66111866D01*
X74697824Y-66124654D01*
X74713730Y-66139070D01*
X74728146Y-66154976D01*
X74740934Y-66172219D01*
X74751970Y-66190632D01*
X74761149Y-66210038D01*
X74768381Y-66230250D01*
X74773597Y-66251074D01*
X74776747Y-66272309D01*
X74777800Y-66293750D01*
X74777800Y-66731250D01*
X74776747Y-66752691D01*
X74773597Y-66773926D01*
X74768381Y-66794750D01*
X74761149Y-66814962D01*
X74751970Y-66834368D01*
X74740934Y-66852781D01*
X74728146Y-66870024D01*
X74713730Y-66885930D01*
X74697824Y-66900346D01*
X74680581Y-66913134D01*
X74662168Y-66924170D01*
X74642762Y-66933349D01*
X74622550Y-66940581D01*
X74601726Y-66945797D01*
X74580491Y-66948947D01*
X74559050Y-66950000D01*
X74046550Y-66950000D01*
X74025109Y-66948947D01*
X74003874Y-66945797D01*
X73983050Y-66940581D01*
X73962838Y-66933349D01*
X73943432Y-66924170D01*
X73925019Y-66913134D01*
X73907776Y-66900346D01*
X73891870Y-66885930D01*
X73877454Y-66870024D01*
X73864666Y-66852781D01*
X73853630Y-66834368D01*
X73844451Y-66814962D01*
X73837219Y-66794750D01*
X73832003Y-66773926D01*
X73828853Y-66752691D01*
X73827800Y-66731250D01*
X73827800Y-66293750D01*
X73828853Y-66272309D01*
X73832003Y-66251074D01*
X73837219Y-66230250D01*
X73844451Y-66210038D01*
X73853630Y-66190632D01*
X73864666Y-66172219D01*
X73877454Y-66154976D01*
X73891870Y-66139070D01*
X73907776Y-66124654D01*
X73925019Y-66111866D01*
X73943432Y-66100830D01*
X73962838Y-66091651D01*
X73983050Y-66084419D01*
X74003874Y-66079203D01*
X74025109Y-66076053D01*
X74046550Y-66075000D01*
X74559050Y-66075000D01*
X74580491Y-66076053D01*
X74580491Y-66076053D01*
G37*
D12*
X74302800Y-66512500D03*
D10*
G36*
X74580491Y-67651053D02*
G01*
X74601726Y-67654203D01*
X74622550Y-67659419D01*
X74642762Y-67666651D01*
X74662168Y-67675830D01*
X74680581Y-67686866D01*
X74697824Y-67699654D01*
X74713730Y-67714070D01*
X74728146Y-67729976D01*
X74740934Y-67747219D01*
X74751970Y-67765632D01*
X74761149Y-67785038D01*
X74768381Y-67805250D01*
X74773597Y-67826074D01*
X74776747Y-67847309D01*
X74777800Y-67868750D01*
X74777800Y-68306250D01*
X74776747Y-68327691D01*
X74773597Y-68348926D01*
X74768381Y-68369750D01*
X74761149Y-68389962D01*
X74751970Y-68409368D01*
X74740934Y-68427781D01*
X74728146Y-68445024D01*
X74713730Y-68460930D01*
X74697824Y-68475346D01*
X74680581Y-68488134D01*
X74662168Y-68499170D01*
X74642762Y-68508349D01*
X74622550Y-68515581D01*
X74601726Y-68520797D01*
X74580491Y-68523947D01*
X74559050Y-68525000D01*
X74046550Y-68525000D01*
X74025109Y-68523947D01*
X74003874Y-68520797D01*
X73983050Y-68515581D01*
X73962838Y-68508349D01*
X73943432Y-68499170D01*
X73925019Y-68488134D01*
X73907776Y-68475346D01*
X73891870Y-68460930D01*
X73877454Y-68445024D01*
X73864666Y-68427781D01*
X73853630Y-68409368D01*
X73844451Y-68389962D01*
X73837219Y-68369750D01*
X73832003Y-68348926D01*
X73828853Y-68327691D01*
X73827800Y-68306250D01*
X73827800Y-67868750D01*
X73828853Y-67847309D01*
X73832003Y-67826074D01*
X73837219Y-67805250D01*
X73844451Y-67785038D01*
X73853630Y-67765632D01*
X73864666Y-67747219D01*
X73877454Y-67729976D01*
X73891870Y-67714070D01*
X73907776Y-67699654D01*
X73925019Y-67686866D01*
X73943432Y-67675830D01*
X73962838Y-67666651D01*
X73983050Y-67659419D01*
X74003874Y-67654203D01*
X74025109Y-67651053D01*
X74046550Y-67650000D01*
X74559050Y-67650000D01*
X74580491Y-67651053D01*
X74580491Y-67651053D01*
G37*
D12*
X74302800Y-68087500D03*
D10*
G36*
X72993691Y-64438453D02*
G01*
X73014926Y-64441603D01*
X73035750Y-64446819D01*
X73055962Y-64454051D01*
X73075368Y-64463230D01*
X73093781Y-64474266D01*
X73111024Y-64487054D01*
X73126930Y-64501470D01*
X73141346Y-64517376D01*
X73154134Y-64534619D01*
X73165170Y-64553032D01*
X73174349Y-64572438D01*
X73181581Y-64592650D01*
X73186797Y-64613474D01*
X73189947Y-64634709D01*
X73191000Y-64656150D01*
X73191000Y-65168650D01*
X73189947Y-65190091D01*
X73186797Y-65211326D01*
X73181581Y-65232150D01*
X73174349Y-65252362D01*
X73165170Y-65271768D01*
X73154134Y-65290181D01*
X73141346Y-65307424D01*
X73126930Y-65323330D01*
X73111024Y-65337746D01*
X73093781Y-65350534D01*
X73075368Y-65361570D01*
X73055962Y-65370749D01*
X73035750Y-65377981D01*
X73014926Y-65383197D01*
X72993691Y-65386347D01*
X72972250Y-65387400D01*
X72534750Y-65387400D01*
X72513309Y-65386347D01*
X72492074Y-65383197D01*
X72471250Y-65377981D01*
X72451038Y-65370749D01*
X72431632Y-65361570D01*
X72413219Y-65350534D01*
X72395976Y-65337746D01*
X72380070Y-65323330D01*
X72365654Y-65307424D01*
X72352866Y-65290181D01*
X72341830Y-65271768D01*
X72332651Y-65252362D01*
X72325419Y-65232150D01*
X72320203Y-65211326D01*
X72317053Y-65190091D01*
X72316000Y-65168650D01*
X72316000Y-64656150D01*
X72317053Y-64634709D01*
X72320203Y-64613474D01*
X72325419Y-64592650D01*
X72332651Y-64572438D01*
X72341830Y-64553032D01*
X72352866Y-64534619D01*
X72365654Y-64517376D01*
X72380070Y-64501470D01*
X72395976Y-64487054D01*
X72413219Y-64474266D01*
X72431632Y-64463230D01*
X72451038Y-64454051D01*
X72471250Y-64446819D01*
X72492074Y-64441603D01*
X72513309Y-64438453D01*
X72534750Y-64437400D01*
X72972250Y-64437400D01*
X72993691Y-64438453D01*
X72993691Y-64438453D01*
G37*
D12*
X72753500Y-64912400D03*
D10*
G36*
X71418691Y-64438453D02*
G01*
X71439926Y-64441603D01*
X71460750Y-64446819D01*
X71480962Y-64454051D01*
X71500368Y-64463230D01*
X71518781Y-64474266D01*
X71536024Y-64487054D01*
X71551930Y-64501470D01*
X71566346Y-64517376D01*
X71579134Y-64534619D01*
X71590170Y-64553032D01*
X71599349Y-64572438D01*
X71606581Y-64592650D01*
X71611797Y-64613474D01*
X71614947Y-64634709D01*
X71616000Y-64656150D01*
X71616000Y-65168650D01*
X71614947Y-65190091D01*
X71611797Y-65211326D01*
X71606581Y-65232150D01*
X71599349Y-65252362D01*
X71590170Y-65271768D01*
X71579134Y-65290181D01*
X71566346Y-65307424D01*
X71551930Y-65323330D01*
X71536024Y-65337746D01*
X71518781Y-65350534D01*
X71500368Y-65361570D01*
X71480962Y-65370749D01*
X71460750Y-65377981D01*
X71439926Y-65383197D01*
X71418691Y-65386347D01*
X71397250Y-65387400D01*
X70959750Y-65387400D01*
X70938309Y-65386347D01*
X70917074Y-65383197D01*
X70896250Y-65377981D01*
X70876038Y-65370749D01*
X70856632Y-65361570D01*
X70838219Y-65350534D01*
X70820976Y-65337746D01*
X70805070Y-65323330D01*
X70790654Y-65307424D01*
X70777866Y-65290181D01*
X70766830Y-65271768D01*
X70757651Y-65252362D01*
X70750419Y-65232150D01*
X70745203Y-65211326D01*
X70742053Y-65190091D01*
X70741000Y-65168650D01*
X70741000Y-64656150D01*
X70742053Y-64634709D01*
X70745203Y-64613474D01*
X70750419Y-64592650D01*
X70757651Y-64572438D01*
X70766830Y-64553032D01*
X70777866Y-64534619D01*
X70790654Y-64517376D01*
X70805070Y-64501470D01*
X70820976Y-64487054D01*
X70838219Y-64474266D01*
X70856632Y-64463230D01*
X70876038Y-64454051D01*
X70896250Y-64446819D01*
X70917074Y-64441603D01*
X70938309Y-64438453D01*
X70959750Y-64437400D01*
X71397250Y-64437400D01*
X71418691Y-64438453D01*
X71418691Y-64438453D01*
G37*
D12*
X71178500Y-64912400D03*
D10*
G36*
X72993691Y-66013253D02*
G01*
X73014926Y-66016403D01*
X73035750Y-66021619D01*
X73055962Y-66028851D01*
X73075368Y-66038030D01*
X73093781Y-66049066D01*
X73111024Y-66061854D01*
X73126930Y-66076270D01*
X73141346Y-66092176D01*
X73154134Y-66109419D01*
X73165170Y-66127832D01*
X73174349Y-66147238D01*
X73181581Y-66167450D01*
X73186797Y-66188274D01*
X73189947Y-66209509D01*
X73191000Y-66230950D01*
X73191000Y-66743450D01*
X73189947Y-66764891D01*
X73186797Y-66786126D01*
X73181581Y-66806950D01*
X73174349Y-66827162D01*
X73165170Y-66846568D01*
X73154134Y-66864981D01*
X73141346Y-66882224D01*
X73126930Y-66898130D01*
X73111024Y-66912546D01*
X73093781Y-66925334D01*
X73075368Y-66936370D01*
X73055962Y-66945549D01*
X73035750Y-66952781D01*
X73014926Y-66957997D01*
X72993691Y-66961147D01*
X72972250Y-66962200D01*
X72534750Y-66962200D01*
X72513309Y-66961147D01*
X72492074Y-66957997D01*
X72471250Y-66952781D01*
X72451038Y-66945549D01*
X72431632Y-66936370D01*
X72413219Y-66925334D01*
X72395976Y-66912546D01*
X72380070Y-66898130D01*
X72365654Y-66882224D01*
X72352866Y-66864981D01*
X72341830Y-66846568D01*
X72332651Y-66827162D01*
X72325419Y-66806950D01*
X72320203Y-66786126D01*
X72317053Y-66764891D01*
X72316000Y-66743450D01*
X72316000Y-66230950D01*
X72317053Y-66209509D01*
X72320203Y-66188274D01*
X72325419Y-66167450D01*
X72332651Y-66147238D01*
X72341830Y-66127832D01*
X72352866Y-66109419D01*
X72365654Y-66092176D01*
X72380070Y-66076270D01*
X72395976Y-66061854D01*
X72413219Y-66049066D01*
X72431632Y-66038030D01*
X72451038Y-66028851D01*
X72471250Y-66021619D01*
X72492074Y-66016403D01*
X72513309Y-66013253D01*
X72534750Y-66012200D01*
X72972250Y-66012200D01*
X72993691Y-66013253D01*
X72993691Y-66013253D01*
G37*
D12*
X72753500Y-66487200D03*
D10*
G36*
X71418691Y-66013253D02*
G01*
X71439926Y-66016403D01*
X71460750Y-66021619D01*
X71480962Y-66028851D01*
X71500368Y-66038030D01*
X71518781Y-66049066D01*
X71536024Y-66061854D01*
X71551930Y-66076270D01*
X71566346Y-66092176D01*
X71579134Y-66109419D01*
X71590170Y-66127832D01*
X71599349Y-66147238D01*
X71606581Y-66167450D01*
X71611797Y-66188274D01*
X71614947Y-66209509D01*
X71616000Y-66230950D01*
X71616000Y-66743450D01*
X71614947Y-66764891D01*
X71611797Y-66786126D01*
X71606581Y-66806950D01*
X71599349Y-66827162D01*
X71590170Y-66846568D01*
X71579134Y-66864981D01*
X71566346Y-66882224D01*
X71551930Y-66898130D01*
X71536024Y-66912546D01*
X71518781Y-66925334D01*
X71500368Y-66936370D01*
X71480962Y-66945549D01*
X71460750Y-66952781D01*
X71439926Y-66957997D01*
X71418691Y-66961147D01*
X71397250Y-66962200D01*
X70959750Y-66962200D01*
X70938309Y-66961147D01*
X70917074Y-66957997D01*
X70896250Y-66952781D01*
X70876038Y-66945549D01*
X70856632Y-66936370D01*
X70838219Y-66925334D01*
X70820976Y-66912546D01*
X70805070Y-66898130D01*
X70790654Y-66882224D01*
X70777866Y-66864981D01*
X70766830Y-66846568D01*
X70757651Y-66827162D01*
X70750419Y-66806950D01*
X70745203Y-66786126D01*
X70742053Y-66764891D01*
X70741000Y-66743450D01*
X70741000Y-66230950D01*
X70742053Y-66209509D01*
X70745203Y-66188274D01*
X70750419Y-66167450D01*
X70757651Y-66147238D01*
X70766830Y-66127832D01*
X70777866Y-66109419D01*
X70790654Y-66092176D01*
X70805070Y-66076270D01*
X70820976Y-66061854D01*
X70838219Y-66049066D01*
X70856632Y-66038030D01*
X70876038Y-66028851D01*
X70896250Y-66021619D01*
X70917074Y-66016403D01*
X70938309Y-66013253D01*
X70959750Y-66012200D01*
X71397250Y-66012200D01*
X71418691Y-66013253D01*
X71418691Y-66013253D01*
G37*
D12*
X71178500Y-66487200D03*
D10*
G36*
X81172291Y-66013253D02*
G01*
X81193526Y-66016403D01*
X81214350Y-66021619D01*
X81234562Y-66028851D01*
X81253968Y-66038030D01*
X81272381Y-66049066D01*
X81289624Y-66061854D01*
X81305530Y-66076270D01*
X81319946Y-66092176D01*
X81332734Y-66109419D01*
X81343770Y-66127832D01*
X81352949Y-66147238D01*
X81360181Y-66167450D01*
X81365397Y-66188274D01*
X81368547Y-66209509D01*
X81369600Y-66230950D01*
X81369600Y-66743450D01*
X81368547Y-66764891D01*
X81365397Y-66786126D01*
X81360181Y-66806950D01*
X81352949Y-66827162D01*
X81343770Y-66846568D01*
X81332734Y-66864981D01*
X81319946Y-66882224D01*
X81305530Y-66898130D01*
X81289624Y-66912546D01*
X81272381Y-66925334D01*
X81253968Y-66936370D01*
X81234562Y-66945549D01*
X81214350Y-66952781D01*
X81193526Y-66957997D01*
X81172291Y-66961147D01*
X81150850Y-66962200D01*
X80713350Y-66962200D01*
X80691909Y-66961147D01*
X80670674Y-66957997D01*
X80649850Y-66952781D01*
X80629638Y-66945549D01*
X80610232Y-66936370D01*
X80591819Y-66925334D01*
X80574576Y-66912546D01*
X80558670Y-66898130D01*
X80544254Y-66882224D01*
X80531466Y-66864981D01*
X80520430Y-66846568D01*
X80511251Y-66827162D01*
X80504019Y-66806950D01*
X80498803Y-66786126D01*
X80495653Y-66764891D01*
X80494600Y-66743450D01*
X80494600Y-66230950D01*
X80495653Y-66209509D01*
X80498803Y-66188274D01*
X80504019Y-66167450D01*
X80511251Y-66147238D01*
X80520430Y-66127832D01*
X80531466Y-66109419D01*
X80544254Y-66092176D01*
X80558670Y-66076270D01*
X80574576Y-66061854D01*
X80591819Y-66049066D01*
X80610232Y-66038030D01*
X80629638Y-66028851D01*
X80649850Y-66021619D01*
X80670674Y-66016403D01*
X80691909Y-66013253D01*
X80713350Y-66012200D01*
X81150850Y-66012200D01*
X81172291Y-66013253D01*
X81172291Y-66013253D01*
G37*
D12*
X80932100Y-66487200D03*
D10*
G36*
X82747291Y-66013253D02*
G01*
X82768526Y-66016403D01*
X82789350Y-66021619D01*
X82809562Y-66028851D01*
X82828968Y-66038030D01*
X82847381Y-66049066D01*
X82864624Y-66061854D01*
X82880530Y-66076270D01*
X82894946Y-66092176D01*
X82907734Y-66109419D01*
X82918770Y-66127832D01*
X82927949Y-66147238D01*
X82935181Y-66167450D01*
X82940397Y-66188274D01*
X82943547Y-66209509D01*
X82944600Y-66230950D01*
X82944600Y-66743450D01*
X82943547Y-66764891D01*
X82940397Y-66786126D01*
X82935181Y-66806950D01*
X82927949Y-66827162D01*
X82918770Y-66846568D01*
X82907734Y-66864981D01*
X82894946Y-66882224D01*
X82880530Y-66898130D01*
X82864624Y-66912546D01*
X82847381Y-66925334D01*
X82828968Y-66936370D01*
X82809562Y-66945549D01*
X82789350Y-66952781D01*
X82768526Y-66957997D01*
X82747291Y-66961147D01*
X82725850Y-66962200D01*
X82288350Y-66962200D01*
X82266909Y-66961147D01*
X82245674Y-66957997D01*
X82224850Y-66952781D01*
X82204638Y-66945549D01*
X82185232Y-66936370D01*
X82166819Y-66925334D01*
X82149576Y-66912546D01*
X82133670Y-66898130D01*
X82119254Y-66882224D01*
X82106466Y-66864981D01*
X82095430Y-66846568D01*
X82086251Y-66827162D01*
X82079019Y-66806950D01*
X82073803Y-66786126D01*
X82070653Y-66764891D01*
X82069600Y-66743450D01*
X82069600Y-66230950D01*
X82070653Y-66209509D01*
X82073803Y-66188274D01*
X82079019Y-66167450D01*
X82086251Y-66147238D01*
X82095430Y-66127832D01*
X82106466Y-66109419D01*
X82119254Y-66092176D01*
X82133670Y-66076270D01*
X82149576Y-66061854D01*
X82166819Y-66049066D01*
X82185232Y-66038030D01*
X82204638Y-66028851D01*
X82224850Y-66021619D01*
X82245674Y-66016403D01*
X82266909Y-66013253D01*
X82288350Y-66012200D01*
X82725850Y-66012200D01*
X82747291Y-66013253D01*
X82747291Y-66013253D01*
G37*
D12*
X82507100Y-66487200D03*
D10*
G36*
X76295491Y-67588053D02*
G01*
X76316726Y-67591203D01*
X76337550Y-67596419D01*
X76357762Y-67603651D01*
X76377168Y-67612830D01*
X76395581Y-67623866D01*
X76412824Y-67636654D01*
X76428730Y-67651070D01*
X76443146Y-67666976D01*
X76455934Y-67684219D01*
X76466970Y-67702632D01*
X76476149Y-67722038D01*
X76483381Y-67742250D01*
X76488597Y-67763074D01*
X76491747Y-67784309D01*
X76492800Y-67805750D01*
X76492800Y-68318250D01*
X76491747Y-68339691D01*
X76488597Y-68360926D01*
X76483381Y-68381750D01*
X76476149Y-68401962D01*
X76466970Y-68421368D01*
X76455934Y-68439781D01*
X76443146Y-68457024D01*
X76428730Y-68472930D01*
X76412824Y-68487346D01*
X76395581Y-68500134D01*
X76377168Y-68511170D01*
X76357762Y-68520349D01*
X76337550Y-68527581D01*
X76316726Y-68532797D01*
X76295491Y-68535947D01*
X76274050Y-68537000D01*
X75836550Y-68537000D01*
X75815109Y-68535947D01*
X75793874Y-68532797D01*
X75773050Y-68527581D01*
X75752838Y-68520349D01*
X75733432Y-68511170D01*
X75715019Y-68500134D01*
X75697776Y-68487346D01*
X75681870Y-68472930D01*
X75667454Y-68457024D01*
X75654666Y-68439781D01*
X75643630Y-68421368D01*
X75634451Y-68401962D01*
X75627219Y-68381750D01*
X75622003Y-68360926D01*
X75618853Y-68339691D01*
X75617800Y-68318250D01*
X75617800Y-67805750D01*
X75618853Y-67784309D01*
X75622003Y-67763074D01*
X75627219Y-67742250D01*
X75634451Y-67722038D01*
X75643630Y-67702632D01*
X75654666Y-67684219D01*
X75667454Y-67666976D01*
X75681870Y-67651070D01*
X75697776Y-67636654D01*
X75715019Y-67623866D01*
X75733432Y-67612830D01*
X75752838Y-67603651D01*
X75773050Y-67596419D01*
X75793874Y-67591203D01*
X75815109Y-67588053D01*
X75836550Y-67587000D01*
X76274050Y-67587000D01*
X76295491Y-67588053D01*
X76295491Y-67588053D01*
G37*
D12*
X76055300Y-68062000D03*
D10*
G36*
X77870491Y-67588053D02*
G01*
X77891726Y-67591203D01*
X77912550Y-67596419D01*
X77932762Y-67603651D01*
X77952168Y-67612830D01*
X77970581Y-67623866D01*
X77987824Y-67636654D01*
X78003730Y-67651070D01*
X78018146Y-67666976D01*
X78030934Y-67684219D01*
X78041970Y-67702632D01*
X78051149Y-67722038D01*
X78058381Y-67742250D01*
X78063597Y-67763074D01*
X78066747Y-67784309D01*
X78067800Y-67805750D01*
X78067800Y-68318250D01*
X78066747Y-68339691D01*
X78063597Y-68360926D01*
X78058381Y-68381750D01*
X78051149Y-68401962D01*
X78041970Y-68421368D01*
X78030934Y-68439781D01*
X78018146Y-68457024D01*
X78003730Y-68472930D01*
X77987824Y-68487346D01*
X77970581Y-68500134D01*
X77952168Y-68511170D01*
X77932762Y-68520349D01*
X77912550Y-68527581D01*
X77891726Y-68532797D01*
X77870491Y-68535947D01*
X77849050Y-68537000D01*
X77411550Y-68537000D01*
X77390109Y-68535947D01*
X77368874Y-68532797D01*
X77348050Y-68527581D01*
X77327838Y-68520349D01*
X77308432Y-68511170D01*
X77290019Y-68500134D01*
X77272776Y-68487346D01*
X77256870Y-68472930D01*
X77242454Y-68457024D01*
X77229666Y-68439781D01*
X77218630Y-68421368D01*
X77209451Y-68401962D01*
X77202219Y-68381750D01*
X77197003Y-68360926D01*
X77193853Y-68339691D01*
X77192800Y-68318250D01*
X77192800Y-67805750D01*
X77193853Y-67784309D01*
X77197003Y-67763074D01*
X77202219Y-67742250D01*
X77209451Y-67722038D01*
X77218630Y-67702632D01*
X77229666Y-67684219D01*
X77242454Y-67666976D01*
X77256870Y-67651070D01*
X77272776Y-67636654D01*
X77290019Y-67623866D01*
X77308432Y-67612830D01*
X77327838Y-67603651D01*
X77348050Y-67596419D01*
X77368874Y-67591203D01*
X77390109Y-67588053D01*
X77411550Y-67587000D01*
X77849050Y-67587000D01*
X77870491Y-67588053D01*
X77870491Y-67588053D01*
G37*
D12*
X77630300Y-68062000D03*
D10*
G36*
X81172291Y-67588053D02*
G01*
X81193526Y-67591203D01*
X81214350Y-67596419D01*
X81234562Y-67603651D01*
X81253968Y-67612830D01*
X81272381Y-67623866D01*
X81289624Y-67636654D01*
X81305530Y-67651070D01*
X81319946Y-67666976D01*
X81332734Y-67684219D01*
X81343770Y-67702632D01*
X81352949Y-67722038D01*
X81360181Y-67742250D01*
X81365397Y-67763074D01*
X81368547Y-67784309D01*
X81369600Y-67805750D01*
X81369600Y-68318250D01*
X81368547Y-68339691D01*
X81365397Y-68360926D01*
X81360181Y-68381750D01*
X81352949Y-68401962D01*
X81343770Y-68421368D01*
X81332734Y-68439781D01*
X81319946Y-68457024D01*
X81305530Y-68472930D01*
X81289624Y-68487346D01*
X81272381Y-68500134D01*
X81253968Y-68511170D01*
X81234562Y-68520349D01*
X81214350Y-68527581D01*
X81193526Y-68532797D01*
X81172291Y-68535947D01*
X81150850Y-68537000D01*
X80713350Y-68537000D01*
X80691909Y-68535947D01*
X80670674Y-68532797D01*
X80649850Y-68527581D01*
X80629638Y-68520349D01*
X80610232Y-68511170D01*
X80591819Y-68500134D01*
X80574576Y-68487346D01*
X80558670Y-68472930D01*
X80544254Y-68457024D01*
X80531466Y-68439781D01*
X80520430Y-68421368D01*
X80511251Y-68401962D01*
X80504019Y-68381750D01*
X80498803Y-68360926D01*
X80495653Y-68339691D01*
X80494600Y-68318250D01*
X80494600Y-67805750D01*
X80495653Y-67784309D01*
X80498803Y-67763074D01*
X80504019Y-67742250D01*
X80511251Y-67722038D01*
X80520430Y-67702632D01*
X80531466Y-67684219D01*
X80544254Y-67666976D01*
X80558670Y-67651070D01*
X80574576Y-67636654D01*
X80591819Y-67623866D01*
X80610232Y-67612830D01*
X80629638Y-67603651D01*
X80649850Y-67596419D01*
X80670674Y-67591203D01*
X80691909Y-67588053D01*
X80713350Y-67587000D01*
X81150850Y-67587000D01*
X81172291Y-67588053D01*
X81172291Y-67588053D01*
G37*
D12*
X80932100Y-68062000D03*
D10*
G36*
X82747291Y-67588053D02*
G01*
X82768526Y-67591203D01*
X82789350Y-67596419D01*
X82809562Y-67603651D01*
X82828968Y-67612830D01*
X82847381Y-67623866D01*
X82864624Y-67636654D01*
X82880530Y-67651070D01*
X82894946Y-67666976D01*
X82907734Y-67684219D01*
X82918770Y-67702632D01*
X82927949Y-67722038D01*
X82935181Y-67742250D01*
X82940397Y-67763074D01*
X82943547Y-67784309D01*
X82944600Y-67805750D01*
X82944600Y-68318250D01*
X82943547Y-68339691D01*
X82940397Y-68360926D01*
X82935181Y-68381750D01*
X82927949Y-68401962D01*
X82918770Y-68421368D01*
X82907734Y-68439781D01*
X82894946Y-68457024D01*
X82880530Y-68472930D01*
X82864624Y-68487346D01*
X82847381Y-68500134D01*
X82828968Y-68511170D01*
X82809562Y-68520349D01*
X82789350Y-68527581D01*
X82768526Y-68532797D01*
X82747291Y-68535947D01*
X82725850Y-68537000D01*
X82288350Y-68537000D01*
X82266909Y-68535947D01*
X82245674Y-68532797D01*
X82224850Y-68527581D01*
X82204638Y-68520349D01*
X82185232Y-68511170D01*
X82166819Y-68500134D01*
X82149576Y-68487346D01*
X82133670Y-68472930D01*
X82119254Y-68457024D01*
X82106466Y-68439781D01*
X82095430Y-68421368D01*
X82086251Y-68401962D01*
X82079019Y-68381750D01*
X82073803Y-68360926D01*
X82070653Y-68339691D01*
X82069600Y-68318250D01*
X82069600Y-67805750D01*
X82070653Y-67784309D01*
X82073803Y-67763074D01*
X82079019Y-67742250D01*
X82086251Y-67722038D01*
X82095430Y-67702632D01*
X82106466Y-67684219D01*
X82119254Y-67666976D01*
X82133670Y-67651070D01*
X82149576Y-67636654D01*
X82166819Y-67623866D01*
X82185232Y-67612830D01*
X82204638Y-67603651D01*
X82224850Y-67596419D01*
X82245674Y-67591203D01*
X82266909Y-67588053D01*
X82288350Y-67587000D01*
X82725850Y-67587000D01*
X82747291Y-67588053D01*
X82747291Y-67588053D01*
G37*
D12*
X82507100Y-68062000D03*
D10*
G36*
X71418691Y-67588053D02*
G01*
X71439926Y-67591203D01*
X71460750Y-67596419D01*
X71480962Y-67603651D01*
X71500368Y-67612830D01*
X71518781Y-67623866D01*
X71536024Y-67636654D01*
X71551930Y-67651070D01*
X71566346Y-67666976D01*
X71579134Y-67684219D01*
X71590170Y-67702632D01*
X71599349Y-67722038D01*
X71606581Y-67742250D01*
X71611797Y-67763074D01*
X71614947Y-67784309D01*
X71616000Y-67805750D01*
X71616000Y-68318250D01*
X71614947Y-68339691D01*
X71611797Y-68360926D01*
X71606581Y-68381750D01*
X71599349Y-68401962D01*
X71590170Y-68421368D01*
X71579134Y-68439781D01*
X71566346Y-68457024D01*
X71551930Y-68472930D01*
X71536024Y-68487346D01*
X71518781Y-68500134D01*
X71500368Y-68511170D01*
X71480962Y-68520349D01*
X71460750Y-68527581D01*
X71439926Y-68532797D01*
X71418691Y-68535947D01*
X71397250Y-68537000D01*
X70959750Y-68537000D01*
X70938309Y-68535947D01*
X70917074Y-68532797D01*
X70896250Y-68527581D01*
X70876038Y-68520349D01*
X70856632Y-68511170D01*
X70838219Y-68500134D01*
X70820976Y-68487346D01*
X70805070Y-68472930D01*
X70790654Y-68457024D01*
X70777866Y-68439781D01*
X70766830Y-68421368D01*
X70757651Y-68401962D01*
X70750419Y-68381750D01*
X70745203Y-68360926D01*
X70742053Y-68339691D01*
X70741000Y-68318250D01*
X70741000Y-67805750D01*
X70742053Y-67784309D01*
X70745203Y-67763074D01*
X70750419Y-67742250D01*
X70757651Y-67722038D01*
X70766830Y-67702632D01*
X70777866Y-67684219D01*
X70790654Y-67666976D01*
X70805070Y-67651070D01*
X70820976Y-67636654D01*
X70838219Y-67623866D01*
X70856632Y-67612830D01*
X70876038Y-67603651D01*
X70896250Y-67596419D01*
X70917074Y-67591203D01*
X70938309Y-67588053D01*
X70959750Y-67587000D01*
X71397250Y-67587000D01*
X71418691Y-67588053D01*
X71418691Y-67588053D01*
G37*
D12*
X71178500Y-68062000D03*
D10*
G36*
X72993691Y-67588053D02*
G01*
X73014926Y-67591203D01*
X73035750Y-67596419D01*
X73055962Y-67603651D01*
X73075368Y-67612830D01*
X73093781Y-67623866D01*
X73111024Y-67636654D01*
X73126930Y-67651070D01*
X73141346Y-67666976D01*
X73154134Y-67684219D01*
X73165170Y-67702632D01*
X73174349Y-67722038D01*
X73181581Y-67742250D01*
X73186797Y-67763074D01*
X73189947Y-67784309D01*
X73191000Y-67805750D01*
X73191000Y-68318250D01*
X73189947Y-68339691D01*
X73186797Y-68360926D01*
X73181581Y-68381750D01*
X73174349Y-68401962D01*
X73165170Y-68421368D01*
X73154134Y-68439781D01*
X73141346Y-68457024D01*
X73126930Y-68472930D01*
X73111024Y-68487346D01*
X73093781Y-68500134D01*
X73075368Y-68511170D01*
X73055962Y-68520349D01*
X73035750Y-68527581D01*
X73014926Y-68532797D01*
X72993691Y-68535947D01*
X72972250Y-68537000D01*
X72534750Y-68537000D01*
X72513309Y-68535947D01*
X72492074Y-68532797D01*
X72471250Y-68527581D01*
X72451038Y-68520349D01*
X72431632Y-68511170D01*
X72413219Y-68500134D01*
X72395976Y-68487346D01*
X72380070Y-68472930D01*
X72365654Y-68457024D01*
X72352866Y-68439781D01*
X72341830Y-68421368D01*
X72332651Y-68401962D01*
X72325419Y-68381750D01*
X72320203Y-68360926D01*
X72317053Y-68339691D01*
X72316000Y-68318250D01*
X72316000Y-67805750D01*
X72317053Y-67784309D01*
X72320203Y-67763074D01*
X72325419Y-67742250D01*
X72332651Y-67722038D01*
X72341830Y-67702632D01*
X72352866Y-67684219D01*
X72365654Y-67666976D01*
X72380070Y-67651070D01*
X72395976Y-67636654D01*
X72413219Y-67623866D01*
X72431632Y-67612830D01*
X72451038Y-67603651D01*
X72471250Y-67596419D01*
X72492074Y-67591203D01*
X72513309Y-67588053D01*
X72534750Y-67587000D01*
X72972250Y-67587000D01*
X72993691Y-67588053D01*
X72993691Y-67588053D01*
G37*
D12*
X72753500Y-68062000D03*
D10*
G36*
X90023691Y-129017453D02*
G01*
X90044926Y-129020603D01*
X90065750Y-129025819D01*
X90085962Y-129033051D01*
X90105368Y-129042230D01*
X90123781Y-129053266D01*
X90141024Y-129066054D01*
X90156930Y-129080470D01*
X90171346Y-129096376D01*
X90184134Y-129113619D01*
X90195170Y-129132032D01*
X90204349Y-129151438D01*
X90211581Y-129171650D01*
X90216797Y-129192474D01*
X90219947Y-129213709D01*
X90221000Y-129235150D01*
X90221000Y-129672650D01*
X90219947Y-129694091D01*
X90216797Y-129715326D01*
X90211581Y-129736150D01*
X90204349Y-129756362D01*
X90195170Y-129775768D01*
X90184134Y-129794181D01*
X90171346Y-129811424D01*
X90156930Y-129827330D01*
X90141024Y-129841746D01*
X90123781Y-129854534D01*
X90105368Y-129865570D01*
X90085962Y-129874749D01*
X90065750Y-129881981D01*
X90044926Y-129887197D01*
X90023691Y-129890347D01*
X90002250Y-129891400D01*
X89489750Y-129891400D01*
X89468309Y-129890347D01*
X89447074Y-129887197D01*
X89426250Y-129881981D01*
X89406038Y-129874749D01*
X89386632Y-129865570D01*
X89368219Y-129854534D01*
X89350976Y-129841746D01*
X89335070Y-129827330D01*
X89320654Y-129811424D01*
X89307866Y-129794181D01*
X89296830Y-129775768D01*
X89287651Y-129756362D01*
X89280419Y-129736150D01*
X89275203Y-129715326D01*
X89272053Y-129694091D01*
X89271000Y-129672650D01*
X89271000Y-129235150D01*
X89272053Y-129213709D01*
X89275203Y-129192474D01*
X89280419Y-129171650D01*
X89287651Y-129151438D01*
X89296830Y-129132032D01*
X89307866Y-129113619D01*
X89320654Y-129096376D01*
X89335070Y-129080470D01*
X89350976Y-129066054D01*
X89368219Y-129053266D01*
X89386632Y-129042230D01*
X89406038Y-129033051D01*
X89426250Y-129025819D01*
X89447074Y-129020603D01*
X89468309Y-129017453D01*
X89489750Y-129016400D01*
X90002250Y-129016400D01*
X90023691Y-129017453D01*
X90023691Y-129017453D01*
G37*
D12*
X89746000Y-129453900D03*
D10*
G36*
X90023691Y-127442453D02*
G01*
X90044926Y-127445603D01*
X90065750Y-127450819D01*
X90085962Y-127458051D01*
X90105368Y-127467230D01*
X90123781Y-127478266D01*
X90141024Y-127491054D01*
X90156930Y-127505470D01*
X90171346Y-127521376D01*
X90184134Y-127538619D01*
X90195170Y-127557032D01*
X90204349Y-127576438D01*
X90211581Y-127596650D01*
X90216797Y-127617474D01*
X90219947Y-127638709D01*
X90221000Y-127660150D01*
X90221000Y-128097650D01*
X90219947Y-128119091D01*
X90216797Y-128140326D01*
X90211581Y-128161150D01*
X90204349Y-128181362D01*
X90195170Y-128200768D01*
X90184134Y-128219181D01*
X90171346Y-128236424D01*
X90156930Y-128252330D01*
X90141024Y-128266746D01*
X90123781Y-128279534D01*
X90105368Y-128290570D01*
X90085962Y-128299749D01*
X90065750Y-128306981D01*
X90044926Y-128312197D01*
X90023691Y-128315347D01*
X90002250Y-128316400D01*
X89489750Y-128316400D01*
X89468309Y-128315347D01*
X89447074Y-128312197D01*
X89426250Y-128306981D01*
X89406038Y-128299749D01*
X89386632Y-128290570D01*
X89368219Y-128279534D01*
X89350976Y-128266746D01*
X89335070Y-128252330D01*
X89320654Y-128236424D01*
X89307866Y-128219181D01*
X89296830Y-128200768D01*
X89287651Y-128181362D01*
X89280419Y-128161150D01*
X89275203Y-128140326D01*
X89272053Y-128119091D01*
X89271000Y-128097650D01*
X89271000Y-127660150D01*
X89272053Y-127638709D01*
X89275203Y-127617474D01*
X89280419Y-127596650D01*
X89287651Y-127576438D01*
X89296830Y-127557032D01*
X89307866Y-127538619D01*
X89320654Y-127521376D01*
X89335070Y-127505470D01*
X89350976Y-127491054D01*
X89368219Y-127478266D01*
X89386632Y-127467230D01*
X89406038Y-127458051D01*
X89426250Y-127450819D01*
X89447074Y-127445603D01*
X89468309Y-127442453D01*
X89489750Y-127441400D01*
X90002250Y-127441400D01*
X90023691Y-127442453D01*
X90023691Y-127442453D01*
G37*
D12*
X89746000Y-127878900D03*
D10*
G36*
X88550491Y-129017453D02*
G01*
X88571726Y-129020603D01*
X88592550Y-129025819D01*
X88612762Y-129033051D01*
X88632168Y-129042230D01*
X88650581Y-129053266D01*
X88667824Y-129066054D01*
X88683730Y-129080470D01*
X88698146Y-129096376D01*
X88710934Y-129113619D01*
X88721970Y-129132032D01*
X88731149Y-129151438D01*
X88738381Y-129171650D01*
X88743597Y-129192474D01*
X88746747Y-129213709D01*
X88747800Y-129235150D01*
X88747800Y-129672650D01*
X88746747Y-129694091D01*
X88743597Y-129715326D01*
X88738381Y-129736150D01*
X88731149Y-129756362D01*
X88721970Y-129775768D01*
X88710934Y-129794181D01*
X88698146Y-129811424D01*
X88683730Y-129827330D01*
X88667824Y-129841746D01*
X88650581Y-129854534D01*
X88632168Y-129865570D01*
X88612762Y-129874749D01*
X88592550Y-129881981D01*
X88571726Y-129887197D01*
X88550491Y-129890347D01*
X88529050Y-129891400D01*
X88016550Y-129891400D01*
X87995109Y-129890347D01*
X87973874Y-129887197D01*
X87953050Y-129881981D01*
X87932838Y-129874749D01*
X87913432Y-129865570D01*
X87895019Y-129854534D01*
X87877776Y-129841746D01*
X87861870Y-129827330D01*
X87847454Y-129811424D01*
X87834666Y-129794181D01*
X87823630Y-129775768D01*
X87814451Y-129756362D01*
X87807219Y-129736150D01*
X87802003Y-129715326D01*
X87798853Y-129694091D01*
X87797800Y-129672650D01*
X87797800Y-129235150D01*
X87798853Y-129213709D01*
X87802003Y-129192474D01*
X87807219Y-129171650D01*
X87814451Y-129151438D01*
X87823630Y-129132032D01*
X87834666Y-129113619D01*
X87847454Y-129096376D01*
X87861870Y-129080470D01*
X87877776Y-129066054D01*
X87895019Y-129053266D01*
X87913432Y-129042230D01*
X87932838Y-129033051D01*
X87953050Y-129025819D01*
X87973874Y-129020603D01*
X87995109Y-129017453D01*
X88016550Y-129016400D01*
X88529050Y-129016400D01*
X88550491Y-129017453D01*
X88550491Y-129017453D01*
G37*
D12*
X88272800Y-129453900D03*
D10*
G36*
X88550491Y-127442453D02*
G01*
X88571726Y-127445603D01*
X88592550Y-127450819D01*
X88612762Y-127458051D01*
X88632168Y-127467230D01*
X88650581Y-127478266D01*
X88667824Y-127491054D01*
X88683730Y-127505470D01*
X88698146Y-127521376D01*
X88710934Y-127538619D01*
X88721970Y-127557032D01*
X88731149Y-127576438D01*
X88738381Y-127596650D01*
X88743597Y-127617474D01*
X88746747Y-127638709D01*
X88747800Y-127660150D01*
X88747800Y-128097650D01*
X88746747Y-128119091D01*
X88743597Y-128140326D01*
X88738381Y-128161150D01*
X88731149Y-128181362D01*
X88721970Y-128200768D01*
X88710934Y-128219181D01*
X88698146Y-128236424D01*
X88683730Y-128252330D01*
X88667824Y-128266746D01*
X88650581Y-128279534D01*
X88632168Y-128290570D01*
X88612762Y-128299749D01*
X88592550Y-128306981D01*
X88571726Y-128312197D01*
X88550491Y-128315347D01*
X88529050Y-128316400D01*
X88016550Y-128316400D01*
X87995109Y-128315347D01*
X87973874Y-128312197D01*
X87953050Y-128306981D01*
X87932838Y-128299749D01*
X87913432Y-128290570D01*
X87895019Y-128279534D01*
X87877776Y-128266746D01*
X87861870Y-128252330D01*
X87847454Y-128236424D01*
X87834666Y-128219181D01*
X87823630Y-128200768D01*
X87814451Y-128181362D01*
X87807219Y-128161150D01*
X87802003Y-128140326D01*
X87798853Y-128119091D01*
X87797800Y-128097650D01*
X87797800Y-127660150D01*
X87798853Y-127638709D01*
X87802003Y-127617474D01*
X87807219Y-127596650D01*
X87814451Y-127576438D01*
X87823630Y-127557032D01*
X87834666Y-127538619D01*
X87847454Y-127521376D01*
X87861870Y-127505470D01*
X87877776Y-127491054D01*
X87895019Y-127478266D01*
X87913432Y-127467230D01*
X87932838Y-127458051D01*
X87953050Y-127450819D01*
X87973874Y-127445603D01*
X87995109Y-127442453D01*
X88016550Y-127441400D01*
X88529050Y-127441400D01*
X88550491Y-127442453D01*
X88550491Y-127442453D01*
G37*
D12*
X88272800Y-127878900D03*
D10*
G36*
X96844191Y-108482053D02*
G01*
X96865426Y-108485203D01*
X96886250Y-108490419D01*
X96906462Y-108497651D01*
X96925868Y-108506830D01*
X96944281Y-108517866D01*
X96961524Y-108530654D01*
X96977430Y-108545070D01*
X96991846Y-108560976D01*
X97004634Y-108578219D01*
X97015670Y-108596632D01*
X97024849Y-108616038D01*
X97032081Y-108636250D01*
X97037297Y-108657074D01*
X97040447Y-108678309D01*
X97041500Y-108699750D01*
X97041500Y-109212250D01*
X97040447Y-109233691D01*
X97037297Y-109254926D01*
X97032081Y-109275750D01*
X97024849Y-109295962D01*
X97015670Y-109315368D01*
X97004634Y-109333781D01*
X96991846Y-109351024D01*
X96977430Y-109366930D01*
X96961524Y-109381346D01*
X96944281Y-109394134D01*
X96925868Y-109405170D01*
X96906462Y-109414349D01*
X96886250Y-109421581D01*
X96865426Y-109426797D01*
X96844191Y-109429947D01*
X96822750Y-109431000D01*
X96385250Y-109431000D01*
X96363809Y-109429947D01*
X96342574Y-109426797D01*
X96321750Y-109421581D01*
X96301538Y-109414349D01*
X96282132Y-109405170D01*
X96263719Y-109394134D01*
X96246476Y-109381346D01*
X96230570Y-109366930D01*
X96216154Y-109351024D01*
X96203366Y-109333781D01*
X96192330Y-109315368D01*
X96183151Y-109295962D01*
X96175919Y-109275750D01*
X96170703Y-109254926D01*
X96167553Y-109233691D01*
X96166500Y-109212250D01*
X96166500Y-108699750D01*
X96167553Y-108678309D01*
X96170703Y-108657074D01*
X96175919Y-108636250D01*
X96183151Y-108616038D01*
X96192330Y-108596632D01*
X96203366Y-108578219D01*
X96216154Y-108560976D01*
X96230570Y-108545070D01*
X96246476Y-108530654D01*
X96263719Y-108517866D01*
X96282132Y-108506830D01*
X96301538Y-108497651D01*
X96321750Y-108490419D01*
X96342574Y-108485203D01*
X96363809Y-108482053D01*
X96385250Y-108481000D01*
X96822750Y-108481000D01*
X96844191Y-108482053D01*
X96844191Y-108482053D01*
G37*
D12*
X96604000Y-108956000D03*
D10*
G36*
X98419191Y-108482053D02*
G01*
X98440426Y-108485203D01*
X98461250Y-108490419D01*
X98481462Y-108497651D01*
X98500868Y-108506830D01*
X98519281Y-108517866D01*
X98536524Y-108530654D01*
X98552430Y-108545070D01*
X98566846Y-108560976D01*
X98579634Y-108578219D01*
X98590670Y-108596632D01*
X98599849Y-108616038D01*
X98607081Y-108636250D01*
X98612297Y-108657074D01*
X98615447Y-108678309D01*
X98616500Y-108699750D01*
X98616500Y-109212250D01*
X98615447Y-109233691D01*
X98612297Y-109254926D01*
X98607081Y-109275750D01*
X98599849Y-109295962D01*
X98590670Y-109315368D01*
X98579634Y-109333781D01*
X98566846Y-109351024D01*
X98552430Y-109366930D01*
X98536524Y-109381346D01*
X98519281Y-109394134D01*
X98500868Y-109405170D01*
X98481462Y-109414349D01*
X98461250Y-109421581D01*
X98440426Y-109426797D01*
X98419191Y-109429947D01*
X98397750Y-109431000D01*
X97960250Y-109431000D01*
X97938809Y-109429947D01*
X97917574Y-109426797D01*
X97896750Y-109421581D01*
X97876538Y-109414349D01*
X97857132Y-109405170D01*
X97838719Y-109394134D01*
X97821476Y-109381346D01*
X97805570Y-109366930D01*
X97791154Y-109351024D01*
X97778366Y-109333781D01*
X97767330Y-109315368D01*
X97758151Y-109295962D01*
X97750919Y-109275750D01*
X97745703Y-109254926D01*
X97742553Y-109233691D01*
X97741500Y-109212250D01*
X97741500Y-108699750D01*
X97742553Y-108678309D01*
X97745703Y-108657074D01*
X97750919Y-108636250D01*
X97758151Y-108616038D01*
X97767330Y-108596632D01*
X97778366Y-108578219D01*
X97791154Y-108560976D01*
X97805570Y-108545070D01*
X97821476Y-108530654D01*
X97838719Y-108517866D01*
X97857132Y-108506830D01*
X97876538Y-108497651D01*
X97896750Y-108490419D01*
X97917574Y-108485203D01*
X97938809Y-108482053D01*
X97960250Y-108481000D01*
X98397750Y-108481000D01*
X98419191Y-108482053D01*
X98419191Y-108482053D01*
G37*
D12*
X98179000Y-108956000D03*
D10*
G36*
X95865691Y-96302053D02*
G01*
X95886926Y-96305203D01*
X95907750Y-96310419D01*
X95927962Y-96317651D01*
X95947368Y-96326830D01*
X95965781Y-96337866D01*
X95983024Y-96350654D01*
X95998930Y-96365070D01*
X96013346Y-96380976D01*
X96026134Y-96398219D01*
X96037170Y-96416632D01*
X96046349Y-96436038D01*
X96053581Y-96456250D01*
X96058797Y-96477074D01*
X96061947Y-96498309D01*
X96063000Y-96519750D01*
X96063000Y-96957250D01*
X96061947Y-96978691D01*
X96058797Y-96999926D01*
X96053581Y-97020750D01*
X96046349Y-97040962D01*
X96037170Y-97060368D01*
X96026134Y-97078781D01*
X96013346Y-97096024D01*
X95998930Y-97111930D01*
X95983024Y-97126346D01*
X95965781Y-97139134D01*
X95947368Y-97150170D01*
X95927962Y-97159349D01*
X95907750Y-97166581D01*
X95886926Y-97171797D01*
X95865691Y-97174947D01*
X95844250Y-97176000D01*
X95331750Y-97176000D01*
X95310309Y-97174947D01*
X95289074Y-97171797D01*
X95268250Y-97166581D01*
X95248038Y-97159349D01*
X95228632Y-97150170D01*
X95210219Y-97139134D01*
X95192976Y-97126346D01*
X95177070Y-97111930D01*
X95162654Y-97096024D01*
X95149866Y-97078781D01*
X95138830Y-97060368D01*
X95129651Y-97040962D01*
X95122419Y-97020750D01*
X95117203Y-96999926D01*
X95114053Y-96978691D01*
X95113000Y-96957250D01*
X95113000Y-96519750D01*
X95114053Y-96498309D01*
X95117203Y-96477074D01*
X95122419Y-96456250D01*
X95129651Y-96436038D01*
X95138830Y-96416632D01*
X95149866Y-96398219D01*
X95162654Y-96380976D01*
X95177070Y-96365070D01*
X95192976Y-96350654D01*
X95210219Y-96337866D01*
X95228632Y-96326830D01*
X95248038Y-96317651D01*
X95268250Y-96310419D01*
X95289074Y-96305203D01*
X95310309Y-96302053D01*
X95331750Y-96301000D01*
X95844250Y-96301000D01*
X95865691Y-96302053D01*
X95865691Y-96302053D01*
G37*
D12*
X95588000Y-96738500D03*
D10*
G36*
X95865691Y-97877053D02*
G01*
X95886926Y-97880203D01*
X95907750Y-97885419D01*
X95927962Y-97892651D01*
X95947368Y-97901830D01*
X95965781Y-97912866D01*
X95983024Y-97925654D01*
X95998930Y-97940070D01*
X96013346Y-97955976D01*
X96026134Y-97973219D01*
X96037170Y-97991632D01*
X96046349Y-98011038D01*
X96053581Y-98031250D01*
X96058797Y-98052074D01*
X96061947Y-98073309D01*
X96063000Y-98094750D01*
X96063000Y-98532250D01*
X96061947Y-98553691D01*
X96058797Y-98574926D01*
X96053581Y-98595750D01*
X96046349Y-98615962D01*
X96037170Y-98635368D01*
X96026134Y-98653781D01*
X96013346Y-98671024D01*
X95998930Y-98686930D01*
X95983024Y-98701346D01*
X95965781Y-98714134D01*
X95947368Y-98725170D01*
X95927962Y-98734349D01*
X95907750Y-98741581D01*
X95886926Y-98746797D01*
X95865691Y-98749947D01*
X95844250Y-98751000D01*
X95331750Y-98751000D01*
X95310309Y-98749947D01*
X95289074Y-98746797D01*
X95268250Y-98741581D01*
X95248038Y-98734349D01*
X95228632Y-98725170D01*
X95210219Y-98714134D01*
X95192976Y-98701346D01*
X95177070Y-98686930D01*
X95162654Y-98671024D01*
X95149866Y-98653781D01*
X95138830Y-98635368D01*
X95129651Y-98615962D01*
X95122419Y-98595750D01*
X95117203Y-98574926D01*
X95114053Y-98553691D01*
X95113000Y-98532250D01*
X95113000Y-98094750D01*
X95114053Y-98073309D01*
X95117203Y-98052074D01*
X95122419Y-98031250D01*
X95129651Y-98011038D01*
X95138830Y-97991632D01*
X95149866Y-97973219D01*
X95162654Y-97955976D01*
X95177070Y-97940070D01*
X95192976Y-97925654D01*
X95210219Y-97912866D01*
X95228632Y-97901830D01*
X95248038Y-97892651D01*
X95268250Y-97885419D01*
X95289074Y-97880203D01*
X95310309Y-97877053D01*
X95331750Y-97876000D01*
X95844250Y-97876000D01*
X95865691Y-97877053D01*
X95865691Y-97877053D01*
G37*
D12*
X95588000Y-98313500D03*
D14*
X95608000Y-106772000D03*
X95608000Y-100472000D03*
X98108000Y-100472000D03*
X98108000Y-106772000D03*
D10*
G36*
X92924691Y-112556053D02*
G01*
X92945926Y-112559203D01*
X92966750Y-112564419D01*
X92986962Y-112571651D01*
X93006368Y-112580830D01*
X93024781Y-112591866D01*
X93042024Y-112604654D01*
X93057930Y-112619070D01*
X93072346Y-112634976D01*
X93085134Y-112652219D01*
X93096170Y-112670632D01*
X93105349Y-112690038D01*
X93112581Y-112710250D01*
X93117797Y-112731074D01*
X93120947Y-112752309D01*
X93122000Y-112773750D01*
X93122000Y-113286250D01*
X93120947Y-113307691D01*
X93117797Y-113328926D01*
X93112581Y-113349750D01*
X93105349Y-113369962D01*
X93096170Y-113389368D01*
X93085134Y-113407781D01*
X93072346Y-113425024D01*
X93057930Y-113440930D01*
X93042024Y-113455346D01*
X93024781Y-113468134D01*
X93006368Y-113479170D01*
X92986962Y-113488349D01*
X92966750Y-113495581D01*
X92945926Y-113500797D01*
X92924691Y-113503947D01*
X92903250Y-113505000D01*
X92465750Y-113505000D01*
X92444309Y-113503947D01*
X92423074Y-113500797D01*
X92402250Y-113495581D01*
X92382038Y-113488349D01*
X92362632Y-113479170D01*
X92344219Y-113468134D01*
X92326976Y-113455346D01*
X92311070Y-113440930D01*
X92296654Y-113425024D01*
X92283866Y-113407781D01*
X92272830Y-113389368D01*
X92263651Y-113369962D01*
X92256419Y-113349750D01*
X92251203Y-113328926D01*
X92248053Y-113307691D01*
X92247000Y-113286250D01*
X92247000Y-112773750D01*
X92248053Y-112752309D01*
X92251203Y-112731074D01*
X92256419Y-112710250D01*
X92263651Y-112690038D01*
X92272830Y-112670632D01*
X92283866Y-112652219D01*
X92296654Y-112634976D01*
X92311070Y-112619070D01*
X92326976Y-112604654D01*
X92344219Y-112591866D01*
X92362632Y-112580830D01*
X92382038Y-112571651D01*
X92402250Y-112564419D01*
X92423074Y-112559203D01*
X92444309Y-112556053D01*
X92465750Y-112555000D01*
X92903250Y-112555000D01*
X92924691Y-112556053D01*
X92924691Y-112556053D01*
G37*
D12*
X92684500Y-113030000D03*
D10*
G36*
X94499691Y-112556053D02*
G01*
X94520926Y-112559203D01*
X94541750Y-112564419D01*
X94561962Y-112571651D01*
X94581368Y-112580830D01*
X94599781Y-112591866D01*
X94617024Y-112604654D01*
X94632930Y-112619070D01*
X94647346Y-112634976D01*
X94660134Y-112652219D01*
X94671170Y-112670632D01*
X94680349Y-112690038D01*
X94687581Y-112710250D01*
X94692797Y-112731074D01*
X94695947Y-112752309D01*
X94697000Y-112773750D01*
X94697000Y-113286250D01*
X94695947Y-113307691D01*
X94692797Y-113328926D01*
X94687581Y-113349750D01*
X94680349Y-113369962D01*
X94671170Y-113389368D01*
X94660134Y-113407781D01*
X94647346Y-113425024D01*
X94632930Y-113440930D01*
X94617024Y-113455346D01*
X94599781Y-113468134D01*
X94581368Y-113479170D01*
X94561962Y-113488349D01*
X94541750Y-113495581D01*
X94520926Y-113500797D01*
X94499691Y-113503947D01*
X94478250Y-113505000D01*
X94040750Y-113505000D01*
X94019309Y-113503947D01*
X93998074Y-113500797D01*
X93977250Y-113495581D01*
X93957038Y-113488349D01*
X93937632Y-113479170D01*
X93919219Y-113468134D01*
X93901976Y-113455346D01*
X93886070Y-113440930D01*
X93871654Y-113425024D01*
X93858866Y-113407781D01*
X93847830Y-113389368D01*
X93838651Y-113369962D01*
X93831419Y-113349750D01*
X93826203Y-113328926D01*
X93823053Y-113307691D01*
X93822000Y-113286250D01*
X93822000Y-112773750D01*
X93823053Y-112752309D01*
X93826203Y-112731074D01*
X93831419Y-112710250D01*
X93838651Y-112690038D01*
X93847830Y-112670632D01*
X93858866Y-112652219D01*
X93871654Y-112634976D01*
X93886070Y-112619070D01*
X93901976Y-112604654D01*
X93919219Y-112591866D01*
X93937632Y-112580830D01*
X93957038Y-112571651D01*
X93977250Y-112564419D01*
X93998074Y-112559203D01*
X94019309Y-112556053D01*
X94040750Y-112555000D01*
X94478250Y-112555000D01*
X94499691Y-112556053D01*
X94499691Y-112556053D01*
G37*
D12*
X94259500Y-113030000D03*
D10*
G36*
X92924691Y-110016053D02*
G01*
X92945926Y-110019203D01*
X92966750Y-110024419D01*
X92986962Y-110031651D01*
X93006368Y-110040830D01*
X93024781Y-110051866D01*
X93042024Y-110064654D01*
X93057930Y-110079070D01*
X93072346Y-110094976D01*
X93085134Y-110112219D01*
X93096170Y-110130632D01*
X93105349Y-110150038D01*
X93112581Y-110170250D01*
X93117797Y-110191074D01*
X93120947Y-110212309D01*
X93122000Y-110233750D01*
X93122000Y-110746250D01*
X93120947Y-110767691D01*
X93117797Y-110788926D01*
X93112581Y-110809750D01*
X93105349Y-110829962D01*
X93096170Y-110849368D01*
X93085134Y-110867781D01*
X93072346Y-110885024D01*
X93057930Y-110900930D01*
X93042024Y-110915346D01*
X93024781Y-110928134D01*
X93006368Y-110939170D01*
X92986962Y-110948349D01*
X92966750Y-110955581D01*
X92945926Y-110960797D01*
X92924691Y-110963947D01*
X92903250Y-110965000D01*
X92465750Y-110965000D01*
X92444309Y-110963947D01*
X92423074Y-110960797D01*
X92402250Y-110955581D01*
X92382038Y-110948349D01*
X92362632Y-110939170D01*
X92344219Y-110928134D01*
X92326976Y-110915346D01*
X92311070Y-110900930D01*
X92296654Y-110885024D01*
X92283866Y-110867781D01*
X92272830Y-110849368D01*
X92263651Y-110829962D01*
X92256419Y-110809750D01*
X92251203Y-110788926D01*
X92248053Y-110767691D01*
X92247000Y-110746250D01*
X92247000Y-110233750D01*
X92248053Y-110212309D01*
X92251203Y-110191074D01*
X92256419Y-110170250D01*
X92263651Y-110150038D01*
X92272830Y-110130632D01*
X92283866Y-110112219D01*
X92296654Y-110094976D01*
X92311070Y-110079070D01*
X92326976Y-110064654D01*
X92344219Y-110051866D01*
X92362632Y-110040830D01*
X92382038Y-110031651D01*
X92402250Y-110024419D01*
X92423074Y-110019203D01*
X92444309Y-110016053D01*
X92465750Y-110015000D01*
X92903250Y-110015000D01*
X92924691Y-110016053D01*
X92924691Y-110016053D01*
G37*
D12*
X92684500Y-110490000D03*
D10*
G36*
X94499691Y-110016053D02*
G01*
X94520926Y-110019203D01*
X94541750Y-110024419D01*
X94561962Y-110031651D01*
X94581368Y-110040830D01*
X94599781Y-110051866D01*
X94617024Y-110064654D01*
X94632930Y-110079070D01*
X94647346Y-110094976D01*
X94660134Y-110112219D01*
X94671170Y-110130632D01*
X94680349Y-110150038D01*
X94687581Y-110170250D01*
X94692797Y-110191074D01*
X94695947Y-110212309D01*
X94697000Y-110233750D01*
X94697000Y-110746250D01*
X94695947Y-110767691D01*
X94692797Y-110788926D01*
X94687581Y-110809750D01*
X94680349Y-110829962D01*
X94671170Y-110849368D01*
X94660134Y-110867781D01*
X94647346Y-110885024D01*
X94632930Y-110900930D01*
X94617024Y-110915346D01*
X94599781Y-110928134D01*
X94581368Y-110939170D01*
X94561962Y-110948349D01*
X94541750Y-110955581D01*
X94520926Y-110960797D01*
X94499691Y-110963947D01*
X94478250Y-110965000D01*
X94040750Y-110965000D01*
X94019309Y-110963947D01*
X93998074Y-110960797D01*
X93977250Y-110955581D01*
X93957038Y-110948349D01*
X93937632Y-110939170D01*
X93919219Y-110928134D01*
X93901976Y-110915346D01*
X93886070Y-110900930D01*
X93871654Y-110885024D01*
X93858866Y-110867781D01*
X93847830Y-110849368D01*
X93838651Y-110829962D01*
X93831419Y-110809750D01*
X93826203Y-110788926D01*
X93823053Y-110767691D01*
X93822000Y-110746250D01*
X93822000Y-110233750D01*
X93823053Y-110212309D01*
X93826203Y-110191074D01*
X93831419Y-110170250D01*
X93838651Y-110150038D01*
X93847830Y-110130632D01*
X93858866Y-110112219D01*
X93871654Y-110094976D01*
X93886070Y-110079070D01*
X93901976Y-110064654D01*
X93919219Y-110051866D01*
X93937632Y-110040830D01*
X93957038Y-110031651D01*
X93977250Y-110024419D01*
X93998074Y-110019203D01*
X94019309Y-110016053D01*
X94040750Y-110015000D01*
X94478250Y-110015000D01*
X94499691Y-110016053D01*
X94499691Y-110016053D01*
G37*
D12*
X94259500Y-110490000D03*
D10*
G36*
X99917691Y-127786053D02*
G01*
X99938926Y-127789203D01*
X99959750Y-127794419D01*
X99979962Y-127801651D01*
X99999368Y-127810830D01*
X100017781Y-127821866D01*
X100035024Y-127834654D01*
X100050930Y-127849070D01*
X100065346Y-127864976D01*
X100078134Y-127882219D01*
X100089170Y-127900632D01*
X100098349Y-127920038D01*
X100105581Y-127940250D01*
X100110797Y-127961074D01*
X100113947Y-127982309D01*
X100115000Y-128003750D01*
X100115000Y-128516250D01*
X100113947Y-128537691D01*
X100110797Y-128558926D01*
X100105581Y-128579750D01*
X100098349Y-128599962D01*
X100089170Y-128619368D01*
X100078134Y-128637781D01*
X100065346Y-128655024D01*
X100050930Y-128670930D01*
X100035024Y-128685346D01*
X100017781Y-128698134D01*
X99999368Y-128709170D01*
X99979962Y-128718349D01*
X99959750Y-128725581D01*
X99938926Y-128730797D01*
X99917691Y-128733947D01*
X99896250Y-128735000D01*
X99458750Y-128735000D01*
X99437309Y-128733947D01*
X99416074Y-128730797D01*
X99395250Y-128725581D01*
X99375038Y-128718349D01*
X99355632Y-128709170D01*
X99337219Y-128698134D01*
X99319976Y-128685346D01*
X99304070Y-128670930D01*
X99289654Y-128655024D01*
X99276866Y-128637781D01*
X99265830Y-128619368D01*
X99256651Y-128599962D01*
X99249419Y-128579750D01*
X99244203Y-128558926D01*
X99241053Y-128537691D01*
X99240000Y-128516250D01*
X99240000Y-128003750D01*
X99241053Y-127982309D01*
X99244203Y-127961074D01*
X99249419Y-127940250D01*
X99256651Y-127920038D01*
X99265830Y-127900632D01*
X99276866Y-127882219D01*
X99289654Y-127864976D01*
X99304070Y-127849070D01*
X99319976Y-127834654D01*
X99337219Y-127821866D01*
X99355632Y-127810830D01*
X99375038Y-127801651D01*
X99395250Y-127794419D01*
X99416074Y-127789203D01*
X99437309Y-127786053D01*
X99458750Y-127785000D01*
X99896250Y-127785000D01*
X99917691Y-127786053D01*
X99917691Y-127786053D01*
G37*
D12*
X99677500Y-128260000D03*
D10*
G36*
X98342691Y-127786053D02*
G01*
X98363926Y-127789203D01*
X98384750Y-127794419D01*
X98404962Y-127801651D01*
X98424368Y-127810830D01*
X98442781Y-127821866D01*
X98460024Y-127834654D01*
X98475930Y-127849070D01*
X98490346Y-127864976D01*
X98503134Y-127882219D01*
X98514170Y-127900632D01*
X98523349Y-127920038D01*
X98530581Y-127940250D01*
X98535797Y-127961074D01*
X98538947Y-127982309D01*
X98540000Y-128003750D01*
X98540000Y-128516250D01*
X98538947Y-128537691D01*
X98535797Y-128558926D01*
X98530581Y-128579750D01*
X98523349Y-128599962D01*
X98514170Y-128619368D01*
X98503134Y-128637781D01*
X98490346Y-128655024D01*
X98475930Y-128670930D01*
X98460024Y-128685346D01*
X98442781Y-128698134D01*
X98424368Y-128709170D01*
X98404962Y-128718349D01*
X98384750Y-128725581D01*
X98363926Y-128730797D01*
X98342691Y-128733947D01*
X98321250Y-128735000D01*
X97883750Y-128735000D01*
X97862309Y-128733947D01*
X97841074Y-128730797D01*
X97820250Y-128725581D01*
X97800038Y-128718349D01*
X97780632Y-128709170D01*
X97762219Y-128698134D01*
X97744976Y-128685346D01*
X97729070Y-128670930D01*
X97714654Y-128655024D01*
X97701866Y-128637781D01*
X97690830Y-128619368D01*
X97681651Y-128599962D01*
X97674419Y-128579750D01*
X97669203Y-128558926D01*
X97666053Y-128537691D01*
X97665000Y-128516250D01*
X97665000Y-128003750D01*
X97666053Y-127982309D01*
X97669203Y-127961074D01*
X97674419Y-127940250D01*
X97681651Y-127920038D01*
X97690830Y-127900632D01*
X97701866Y-127882219D01*
X97714654Y-127864976D01*
X97729070Y-127849070D01*
X97744976Y-127834654D01*
X97762219Y-127821866D01*
X97780632Y-127810830D01*
X97800038Y-127801651D01*
X97820250Y-127794419D01*
X97841074Y-127789203D01*
X97862309Y-127786053D01*
X97883750Y-127785000D01*
X98321250Y-127785000D01*
X98342691Y-127786053D01*
X98342691Y-127786053D01*
G37*
D12*
X98102500Y-128260000D03*
D10*
G36*
X102965691Y-127786053D02*
G01*
X102986926Y-127789203D01*
X103007750Y-127794419D01*
X103027962Y-127801651D01*
X103047368Y-127810830D01*
X103065781Y-127821866D01*
X103083024Y-127834654D01*
X103098930Y-127849070D01*
X103113346Y-127864976D01*
X103126134Y-127882219D01*
X103137170Y-127900632D01*
X103146349Y-127920038D01*
X103153581Y-127940250D01*
X103158797Y-127961074D01*
X103161947Y-127982309D01*
X103163000Y-128003750D01*
X103163000Y-128516250D01*
X103161947Y-128537691D01*
X103158797Y-128558926D01*
X103153581Y-128579750D01*
X103146349Y-128599962D01*
X103137170Y-128619368D01*
X103126134Y-128637781D01*
X103113346Y-128655024D01*
X103098930Y-128670930D01*
X103083024Y-128685346D01*
X103065781Y-128698134D01*
X103047368Y-128709170D01*
X103027962Y-128718349D01*
X103007750Y-128725581D01*
X102986926Y-128730797D01*
X102965691Y-128733947D01*
X102944250Y-128735000D01*
X102506750Y-128735000D01*
X102485309Y-128733947D01*
X102464074Y-128730797D01*
X102443250Y-128725581D01*
X102423038Y-128718349D01*
X102403632Y-128709170D01*
X102385219Y-128698134D01*
X102367976Y-128685346D01*
X102352070Y-128670930D01*
X102337654Y-128655024D01*
X102324866Y-128637781D01*
X102313830Y-128619368D01*
X102304651Y-128599962D01*
X102297419Y-128579750D01*
X102292203Y-128558926D01*
X102289053Y-128537691D01*
X102288000Y-128516250D01*
X102288000Y-128003750D01*
X102289053Y-127982309D01*
X102292203Y-127961074D01*
X102297419Y-127940250D01*
X102304651Y-127920038D01*
X102313830Y-127900632D01*
X102324866Y-127882219D01*
X102337654Y-127864976D01*
X102352070Y-127849070D01*
X102367976Y-127834654D01*
X102385219Y-127821866D01*
X102403632Y-127810830D01*
X102423038Y-127801651D01*
X102443250Y-127794419D01*
X102464074Y-127789203D01*
X102485309Y-127786053D01*
X102506750Y-127785000D01*
X102944250Y-127785000D01*
X102965691Y-127786053D01*
X102965691Y-127786053D01*
G37*
D12*
X102725500Y-128260000D03*
D10*
G36*
X101390691Y-127786053D02*
G01*
X101411926Y-127789203D01*
X101432750Y-127794419D01*
X101452962Y-127801651D01*
X101472368Y-127810830D01*
X101490781Y-127821866D01*
X101508024Y-127834654D01*
X101523930Y-127849070D01*
X101538346Y-127864976D01*
X101551134Y-127882219D01*
X101562170Y-127900632D01*
X101571349Y-127920038D01*
X101578581Y-127940250D01*
X101583797Y-127961074D01*
X101586947Y-127982309D01*
X101588000Y-128003750D01*
X101588000Y-128516250D01*
X101586947Y-128537691D01*
X101583797Y-128558926D01*
X101578581Y-128579750D01*
X101571349Y-128599962D01*
X101562170Y-128619368D01*
X101551134Y-128637781D01*
X101538346Y-128655024D01*
X101523930Y-128670930D01*
X101508024Y-128685346D01*
X101490781Y-128698134D01*
X101472368Y-128709170D01*
X101452962Y-128718349D01*
X101432750Y-128725581D01*
X101411926Y-128730797D01*
X101390691Y-128733947D01*
X101369250Y-128735000D01*
X100931750Y-128735000D01*
X100910309Y-128733947D01*
X100889074Y-128730797D01*
X100868250Y-128725581D01*
X100848038Y-128718349D01*
X100828632Y-128709170D01*
X100810219Y-128698134D01*
X100792976Y-128685346D01*
X100777070Y-128670930D01*
X100762654Y-128655024D01*
X100749866Y-128637781D01*
X100738830Y-128619368D01*
X100729651Y-128599962D01*
X100722419Y-128579750D01*
X100717203Y-128558926D01*
X100714053Y-128537691D01*
X100713000Y-128516250D01*
X100713000Y-128003750D01*
X100714053Y-127982309D01*
X100717203Y-127961074D01*
X100722419Y-127940250D01*
X100729651Y-127920038D01*
X100738830Y-127900632D01*
X100749866Y-127882219D01*
X100762654Y-127864976D01*
X100777070Y-127849070D01*
X100792976Y-127834654D01*
X100810219Y-127821866D01*
X100828632Y-127810830D01*
X100848038Y-127801651D01*
X100868250Y-127794419D01*
X100889074Y-127789203D01*
X100910309Y-127786053D01*
X100931750Y-127785000D01*
X101369250Y-127785000D01*
X101390691Y-127786053D01*
X101390691Y-127786053D01*
G37*
D12*
X101150500Y-128260000D03*
D10*
G36*
X95548691Y-118642053D02*
G01*
X95569926Y-118645203D01*
X95590750Y-118650419D01*
X95610962Y-118657651D01*
X95630368Y-118666830D01*
X95648781Y-118677866D01*
X95666024Y-118690654D01*
X95681930Y-118705070D01*
X95696346Y-118720976D01*
X95709134Y-118738219D01*
X95720170Y-118756632D01*
X95729349Y-118776038D01*
X95736581Y-118796250D01*
X95741797Y-118817074D01*
X95744947Y-118838309D01*
X95746000Y-118859750D01*
X95746000Y-119372250D01*
X95744947Y-119393691D01*
X95741797Y-119414926D01*
X95736581Y-119435750D01*
X95729349Y-119455962D01*
X95720170Y-119475368D01*
X95709134Y-119493781D01*
X95696346Y-119511024D01*
X95681930Y-119526930D01*
X95666024Y-119541346D01*
X95648781Y-119554134D01*
X95630368Y-119565170D01*
X95610962Y-119574349D01*
X95590750Y-119581581D01*
X95569926Y-119586797D01*
X95548691Y-119589947D01*
X95527250Y-119591000D01*
X95089750Y-119591000D01*
X95068309Y-119589947D01*
X95047074Y-119586797D01*
X95026250Y-119581581D01*
X95006038Y-119574349D01*
X94986632Y-119565170D01*
X94968219Y-119554134D01*
X94950976Y-119541346D01*
X94935070Y-119526930D01*
X94920654Y-119511024D01*
X94907866Y-119493781D01*
X94896830Y-119475368D01*
X94887651Y-119455962D01*
X94880419Y-119435750D01*
X94875203Y-119414926D01*
X94872053Y-119393691D01*
X94871000Y-119372250D01*
X94871000Y-118859750D01*
X94872053Y-118838309D01*
X94875203Y-118817074D01*
X94880419Y-118796250D01*
X94887651Y-118776038D01*
X94896830Y-118756632D01*
X94907866Y-118738219D01*
X94920654Y-118720976D01*
X94935070Y-118705070D01*
X94950976Y-118690654D01*
X94968219Y-118677866D01*
X94986632Y-118666830D01*
X95006038Y-118657651D01*
X95026250Y-118650419D01*
X95047074Y-118645203D01*
X95068309Y-118642053D01*
X95089750Y-118641000D01*
X95527250Y-118641000D01*
X95548691Y-118642053D01*
X95548691Y-118642053D01*
G37*
D12*
X95308500Y-119116000D03*
D10*
G36*
X97123691Y-118642053D02*
G01*
X97144926Y-118645203D01*
X97165750Y-118650419D01*
X97185962Y-118657651D01*
X97205368Y-118666830D01*
X97223781Y-118677866D01*
X97241024Y-118690654D01*
X97256930Y-118705070D01*
X97271346Y-118720976D01*
X97284134Y-118738219D01*
X97295170Y-118756632D01*
X97304349Y-118776038D01*
X97311581Y-118796250D01*
X97316797Y-118817074D01*
X97319947Y-118838309D01*
X97321000Y-118859750D01*
X97321000Y-119372250D01*
X97319947Y-119393691D01*
X97316797Y-119414926D01*
X97311581Y-119435750D01*
X97304349Y-119455962D01*
X97295170Y-119475368D01*
X97284134Y-119493781D01*
X97271346Y-119511024D01*
X97256930Y-119526930D01*
X97241024Y-119541346D01*
X97223781Y-119554134D01*
X97205368Y-119565170D01*
X97185962Y-119574349D01*
X97165750Y-119581581D01*
X97144926Y-119586797D01*
X97123691Y-119589947D01*
X97102250Y-119591000D01*
X96664750Y-119591000D01*
X96643309Y-119589947D01*
X96622074Y-119586797D01*
X96601250Y-119581581D01*
X96581038Y-119574349D01*
X96561632Y-119565170D01*
X96543219Y-119554134D01*
X96525976Y-119541346D01*
X96510070Y-119526930D01*
X96495654Y-119511024D01*
X96482866Y-119493781D01*
X96471830Y-119475368D01*
X96462651Y-119455962D01*
X96455419Y-119435750D01*
X96450203Y-119414926D01*
X96447053Y-119393691D01*
X96446000Y-119372250D01*
X96446000Y-118859750D01*
X96447053Y-118838309D01*
X96450203Y-118817074D01*
X96455419Y-118796250D01*
X96462651Y-118776038D01*
X96471830Y-118756632D01*
X96482866Y-118738219D01*
X96495654Y-118720976D01*
X96510070Y-118705070D01*
X96525976Y-118690654D01*
X96543219Y-118677866D01*
X96561632Y-118666830D01*
X96581038Y-118657651D01*
X96601250Y-118650419D01*
X96622074Y-118645203D01*
X96643309Y-118642053D01*
X96664750Y-118641000D01*
X97102250Y-118641000D01*
X97123691Y-118642053D01*
X97123691Y-118642053D01*
G37*
D12*
X96883500Y-119116000D03*
D10*
G36*
X95611691Y-123988053D02*
G01*
X95632926Y-123991203D01*
X95653750Y-123996419D01*
X95673962Y-124003651D01*
X95693368Y-124012830D01*
X95711781Y-124023866D01*
X95729024Y-124036654D01*
X95744930Y-124051070D01*
X95759346Y-124066976D01*
X95772134Y-124084219D01*
X95783170Y-124102632D01*
X95792349Y-124122038D01*
X95799581Y-124142250D01*
X95804797Y-124163074D01*
X95807947Y-124184309D01*
X95809000Y-124205750D01*
X95809000Y-124643250D01*
X95807947Y-124664691D01*
X95804797Y-124685926D01*
X95799581Y-124706750D01*
X95792349Y-124726962D01*
X95783170Y-124746368D01*
X95772134Y-124764781D01*
X95759346Y-124782024D01*
X95744930Y-124797930D01*
X95729024Y-124812346D01*
X95711781Y-124825134D01*
X95693368Y-124836170D01*
X95673962Y-124845349D01*
X95653750Y-124852581D01*
X95632926Y-124857797D01*
X95611691Y-124860947D01*
X95590250Y-124862000D01*
X95077750Y-124862000D01*
X95056309Y-124860947D01*
X95035074Y-124857797D01*
X95014250Y-124852581D01*
X94994038Y-124845349D01*
X94974632Y-124836170D01*
X94956219Y-124825134D01*
X94938976Y-124812346D01*
X94923070Y-124797930D01*
X94908654Y-124782024D01*
X94895866Y-124764781D01*
X94884830Y-124746368D01*
X94875651Y-124726962D01*
X94868419Y-124706750D01*
X94863203Y-124685926D01*
X94860053Y-124664691D01*
X94859000Y-124643250D01*
X94859000Y-124205750D01*
X94860053Y-124184309D01*
X94863203Y-124163074D01*
X94868419Y-124142250D01*
X94875651Y-124122038D01*
X94884830Y-124102632D01*
X94895866Y-124084219D01*
X94908654Y-124066976D01*
X94923070Y-124051070D01*
X94938976Y-124036654D01*
X94956219Y-124023866D01*
X94974632Y-124012830D01*
X94994038Y-124003651D01*
X95014250Y-123996419D01*
X95035074Y-123991203D01*
X95056309Y-123988053D01*
X95077750Y-123987000D01*
X95590250Y-123987000D01*
X95611691Y-123988053D01*
X95611691Y-123988053D01*
G37*
D12*
X95334000Y-124424500D03*
D10*
G36*
X95611691Y-125563053D02*
G01*
X95632926Y-125566203D01*
X95653750Y-125571419D01*
X95673962Y-125578651D01*
X95693368Y-125587830D01*
X95711781Y-125598866D01*
X95729024Y-125611654D01*
X95744930Y-125626070D01*
X95759346Y-125641976D01*
X95772134Y-125659219D01*
X95783170Y-125677632D01*
X95792349Y-125697038D01*
X95799581Y-125717250D01*
X95804797Y-125738074D01*
X95807947Y-125759309D01*
X95809000Y-125780750D01*
X95809000Y-126218250D01*
X95807947Y-126239691D01*
X95804797Y-126260926D01*
X95799581Y-126281750D01*
X95792349Y-126301962D01*
X95783170Y-126321368D01*
X95772134Y-126339781D01*
X95759346Y-126357024D01*
X95744930Y-126372930D01*
X95729024Y-126387346D01*
X95711781Y-126400134D01*
X95693368Y-126411170D01*
X95673962Y-126420349D01*
X95653750Y-126427581D01*
X95632926Y-126432797D01*
X95611691Y-126435947D01*
X95590250Y-126437000D01*
X95077750Y-126437000D01*
X95056309Y-126435947D01*
X95035074Y-126432797D01*
X95014250Y-126427581D01*
X94994038Y-126420349D01*
X94974632Y-126411170D01*
X94956219Y-126400134D01*
X94938976Y-126387346D01*
X94923070Y-126372930D01*
X94908654Y-126357024D01*
X94895866Y-126339781D01*
X94884830Y-126321368D01*
X94875651Y-126301962D01*
X94868419Y-126281750D01*
X94863203Y-126260926D01*
X94860053Y-126239691D01*
X94859000Y-126218250D01*
X94859000Y-125780750D01*
X94860053Y-125759309D01*
X94863203Y-125738074D01*
X94868419Y-125717250D01*
X94875651Y-125697038D01*
X94884830Y-125677632D01*
X94895866Y-125659219D01*
X94908654Y-125641976D01*
X94923070Y-125626070D01*
X94938976Y-125611654D01*
X94956219Y-125598866D01*
X94974632Y-125587830D01*
X94994038Y-125578651D01*
X95014250Y-125571419D01*
X95035074Y-125566203D01*
X95056309Y-125563053D01*
X95077750Y-125562000D01*
X95590250Y-125562000D01*
X95611691Y-125563053D01*
X95611691Y-125563053D01*
G37*
D12*
X95334000Y-125999500D03*
D10*
G36*
X100959703Y-120238722D02*
G01*
X100974264Y-120240882D01*
X100988543Y-120244459D01*
X101002403Y-120249418D01*
X101015710Y-120255712D01*
X101028336Y-120263280D01*
X101040159Y-120272048D01*
X101051066Y-120281934D01*
X101060952Y-120292841D01*
X101069720Y-120304664D01*
X101077288Y-120317290D01*
X101083582Y-120330597D01*
X101088541Y-120344457D01*
X101092118Y-120358736D01*
X101094278Y-120373297D01*
X101095000Y-120388000D01*
X101095000Y-122038000D01*
X101094278Y-122052703D01*
X101092118Y-122067264D01*
X101088541Y-122081543D01*
X101083582Y-122095403D01*
X101077288Y-122108710D01*
X101069720Y-122121336D01*
X101060952Y-122133159D01*
X101051066Y-122144066D01*
X101040159Y-122153952D01*
X101028336Y-122162720D01*
X101015710Y-122170288D01*
X101002403Y-122176582D01*
X100988543Y-122181541D01*
X100974264Y-122185118D01*
X100959703Y-122187278D01*
X100945000Y-122188000D01*
X100645000Y-122188000D01*
X100630297Y-122187278D01*
X100615736Y-122185118D01*
X100601457Y-122181541D01*
X100587597Y-122176582D01*
X100574290Y-122170288D01*
X100561664Y-122162720D01*
X100549841Y-122153952D01*
X100538934Y-122144066D01*
X100529048Y-122133159D01*
X100520280Y-122121336D01*
X100512712Y-122108710D01*
X100506418Y-122095403D01*
X100501459Y-122081543D01*
X100497882Y-122067264D01*
X100495722Y-122052703D01*
X100495000Y-122038000D01*
X100495000Y-120388000D01*
X100495722Y-120373297D01*
X100497882Y-120358736D01*
X100501459Y-120344457D01*
X100506418Y-120330597D01*
X100512712Y-120317290D01*
X100520280Y-120304664D01*
X100529048Y-120292841D01*
X100538934Y-120281934D01*
X100549841Y-120272048D01*
X100561664Y-120263280D01*
X100574290Y-120255712D01*
X100587597Y-120249418D01*
X100601457Y-120244459D01*
X100615736Y-120240882D01*
X100630297Y-120238722D01*
X100645000Y-120238000D01*
X100945000Y-120238000D01*
X100959703Y-120238722D01*
X100959703Y-120238722D01*
G37*
D13*
X100795000Y-121213000D03*
D10*
G36*
X99689703Y-120238722D02*
G01*
X99704264Y-120240882D01*
X99718543Y-120244459D01*
X99732403Y-120249418D01*
X99745710Y-120255712D01*
X99758336Y-120263280D01*
X99770159Y-120272048D01*
X99781066Y-120281934D01*
X99790952Y-120292841D01*
X99799720Y-120304664D01*
X99807288Y-120317290D01*
X99813582Y-120330597D01*
X99818541Y-120344457D01*
X99822118Y-120358736D01*
X99824278Y-120373297D01*
X99825000Y-120388000D01*
X99825000Y-122038000D01*
X99824278Y-122052703D01*
X99822118Y-122067264D01*
X99818541Y-122081543D01*
X99813582Y-122095403D01*
X99807288Y-122108710D01*
X99799720Y-122121336D01*
X99790952Y-122133159D01*
X99781066Y-122144066D01*
X99770159Y-122153952D01*
X99758336Y-122162720D01*
X99745710Y-122170288D01*
X99732403Y-122176582D01*
X99718543Y-122181541D01*
X99704264Y-122185118D01*
X99689703Y-122187278D01*
X99675000Y-122188000D01*
X99375000Y-122188000D01*
X99360297Y-122187278D01*
X99345736Y-122185118D01*
X99331457Y-122181541D01*
X99317597Y-122176582D01*
X99304290Y-122170288D01*
X99291664Y-122162720D01*
X99279841Y-122153952D01*
X99268934Y-122144066D01*
X99259048Y-122133159D01*
X99250280Y-122121336D01*
X99242712Y-122108710D01*
X99236418Y-122095403D01*
X99231459Y-122081543D01*
X99227882Y-122067264D01*
X99225722Y-122052703D01*
X99225000Y-122038000D01*
X99225000Y-120388000D01*
X99225722Y-120373297D01*
X99227882Y-120358736D01*
X99231459Y-120344457D01*
X99236418Y-120330597D01*
X99242712Y-120317290D01*
X99250280Y-120304664D01*
X99259048Y-120292841D01*
X99268934Y-120281934D01*
X99279841Y-120272048D01*
X99291664Y-120263280D01*
X99304290Y-120255712D01*
X99317597Y-120249418D01*
X99331457Y-120244459D01*
X99345736Y-120240882D01*
X99360297Y-120238722D01*
X99375000Y-120238000D01*
X99675000Y-120238000D01*
X99689703Y-120238722D01*
X99689703Y-120238722D01*
G37*
D13*
X99525000Y-121213000D03*
D10*
G36*
X98419703Y-120238722D02*
G01*
X98434264Y-120240882D01*
X98448543Y-120244459D01*
X98462403Y-120249418D01*
X98475710Y-120255712D01*
X98488336Y-120263280D01*
X98500159Y-120272048D01*
X98511066Y-120281934D01*
X98520952Y-120292841D01*
X98529720Y-120304664D01*
X98537288Y-120317290D01*
X98543582Y-120330597D01*
X98548541Y-120344457D01*
X98552118Y-120358736D01*
X98554278Y-120373297D01*
X98555000Y-120388000D01*
X98555000Y-122038000D01*
X98554278Y-122052703D01*
X98552118Y-122067264D01*
X98548541Y-122081543D01*
X98543582Y-122095403D01*
X98537288Y-122108710D01*
X98529720Y-122121336D01*
X98520952Y-122133159D01*
X98511066Y-122144066D01*
X98500159Y-122153952D01*
X98488336Y-122162720D01*
X98475710Y-122170288D01*
X98462403Y-122176582D01*
X98448543Y-122181541D01*
X98434264Y-122185118D01*
X98419703Y-122187278D01*
X98405000Y-122188000D01*
X98105000Y-122188000D01*
X98090297Y-122187278D01*
X98075736Y-122185118D01*
X98061457Y-122181541D01*
X98047597Y-122176582D01*
X98034290Y-122170288D01*
X98021664Y-122162720D01*
X98009841Y-122153952D01*
X97998934Y-122144066D01*
X97989048Y-122133159D01*
X97980280Y-122121336D01*
X97972712Y-122108710D01*
X97966418Y-122095403D01*
X97961459Y-122081543D01*
X97957882Y-122067264D01*
X97955722Y-122052703D01*
X97955000Y-122038000D01*
X97955000Y-120388000D01*
X97955722Y-120373297D01*
X97957882Y-120358736D01*
X97961459Y-120344457D01*
X97966418Y-120330597D01*
X97972712Y-120317290D01*
X97980280Y-120304664D01*
X97989048Y-120292841D01*
X97998934Y-120281934D01*
X98009841Y-120272048D01*
X98021664Y-120263280D01*
X98034290Y-120255712D01*
X98047597Y-120249418D01*
X98061457Y-120244459D01*
X98075736Y-120240882D01*
X98090297Y-120238722D01*
X98105000Y-120238000D01*
X98405000Y-120238000D01*
X98419703Y-120238722D01*
X98419703Y-120238722D01*
G37*
D13*
X98255000Y-121213000D03*
D10*
G36*
X97149703Y-120238722D02*
G01*
X97164264Y-120240882D01*
X97178543Y-120244459D01*
X97192403Y-120249418D01*
X97205710Y-120255712D01*
X97218336Y-120263280D01*
X97230159Y-120272048D01*
X97241066Y-120281934D01*
X97250952Y-120292841D01*
X97259720Y-120304664D01*
X97267288Y-120317290D01*
X97273582Y-120330597D01*
X97278541Y-120344457D01*
X97282118Y-120358736D01*
X97284278Y-120373297D01*
X97285000Y-120388000D01*
X97285000Y-122038000D01*
X97284278Y-122052703D01*
X97282118Y-122067264D01*
X97278541Y-122081543D01*
X97273582Y-122095403D01*
X97267288Y-122108710D01*
X97259720Y-122121336D01*
X97250952Y-122133159D01*
X97241066Y-122144066D01*
X97230159Y-122153952D01*
X97218336Y-122162720D01*
X97205710Y-122170288D01*
X97192403Y-122176582D01*
X97178543Y-122181541D01*
X97164264Y-122185118D01*
X97149703Y-122187278D01*
X97135000Y-122188000D01*
X96835000Y-122188000D01*
X96820297Y-122187278D01*
X96805736Y-122185118D01*
X96791457Y-122181541D01*
X96777597Y-122176582D01*
X96764290Y-122170288D01*
X96751664Y-122162720D01*
X96739841Y-122153952D01*
X96728934Y-122144066D01*
X96719048Y-122133159D01*
X96710280Y-122121336D01*
X96702712Y-122108710D01*
X96696418Y-122095403D01*
X96691459Y-122081543D01*
X96687882Y-122067264D01*
X96685722Y-122052703D01*
X96685000Y-122038000D01*
X96685000Y-120388000D01*
X96685722Y-120373297D01*
X96687882Y-120358736D01*
X96691459Y-120344457D01*
X96696418Y-120330597D01*
X96702712Y-120317290D01*
X96710280Y-120304664D01*
X96719048Y-120292841D01*
X96728934Y-120281934D01*
X96739841Y-120272048D01*
X96751664Y-120263280D01*
X96764290Y-120255712D01*
X96777597Y-120249418D01*
X96791457Y-120244459D01*
X96805736Y-120240882D01*
X96820297Y-120238722D01*
X96835000Y-120238000D01*
X97135000Y-120238000D01*
X97149703Y-120238722D01*
X97149703Y-120238722D01*
G37*
D13*
X96985000Y-121213000D03*
D10*
G36*
X97149703Y-125188722D02*
G01*
X97164264Y-125190882D01*
X97178543Y-125194459D01*
X97192403Y-125199418D01*
X97205710Y-125205712D01*
X97218336Y-125213280D01*
X97230159Y-125222048D01*
X97241066Y-125231934D01*
X97250952Y-125242841D01*
X97259720Y-125254664D01*
X97267288Y-125267290D01*
X97273582Y-125280597D01*
X97278541Y-125294457D01*
X97282118Y-125308736D01*
X97284278Y-125323297D01*
X97285000Y-125338000D01*
X97285000Y-126988000D01*
X97284278Y-127002703D01*
X97282118Y-127017264D01*
X97278541Y-127031543D01*
X97273582Y-127045403D01*
X97267288Y-127058710D01*
X97259720Y-127071336D01*
X97250952Y-127083159D01*
X97241066Y-127094066D01*
X97230159Y-127103952D01*
X97218336Y-127112720D01*
X97205710Y-127120288D01*
X97192403Y-127126582D01*
X97178543Y-127131541D01*
X97164264Y-127135118D01*
X97149703Y-127137278D01*
X97135000Y-127138000D01*
X96835000Y-127138000D01*
X96820297Y-127137278D01*
X96805736Y-127135118D01*
X96791457Y-127131541D01*
X96777597Y-127126582D01*
X96764290Y-127120288D01*
X96751664Y-127112720D01*
X96739841Y-127103952D01*
X96728934Y-127094066D01*
X96719048Y-127083159D01*
X96710280Y-127071336D01*
X96702712Y-127058710D01*
X96696418Y-127045403D01*
X96691459Y-127031543D01*
X96687882Y-127017264D01*
X96685722Y-127002703D01*
X96685000Y-126988000D01*
X96685000Y-125338000D01*
X96685722Y-125323297D01*
X96687882Y-125308736D01*
X96691459Y-125294457D01*
X96696418Y-125280597D01*
X96702712Y-125267290D01*
X96710280Y-125254664D01*
X96719048Y-125242841D01*
X96728934Y-125231934D01*
X96739841Y-125222048D01*
X96751664Y-125213280D01*
X96764290Y-125205712D01*
X96777597Y-125199418D01*
X96791457Y-125194459D01*
X96805736Y-125190882D01*
X96820297Y-125188722D01*
X96835000Y-125188000D01*
X97135000Y-125188000D01*
X97149703Y-125188722D01*
X97149703Y-125188722D01*
G37*
D13*
X96985000Y-126163000D03*
D10*
G36*
X98419703Y-125188722D02*
G01*
X98434264Y-125190882D01*
X98448543Y-125194459D01*
X98462403Y-125199418D01*
X98475710Y-125205712D01*
X98488336Y-125213280D01*
X98500159Y-125222048D01*
X98511066Y-125231934D01*
X98520952Y-125242841D01*
X98529720Y-125254664D01*
X98537288Y-125267290D01*
X98543582Y-125280597D01*
X98548541Y-125294457D01*
X98552118Y-125308736D01*
X98554278Y-125323297D01*
X98555000Y-125338000D01*
X98555000Y-126988000D01*
X98554278Y-127002703D01*
X98552118Y-127017264D01*
X98548541Y-127031543D01*
X98543582Y-127045403D01*
X98537288Y-127058710D01*
X98529720Y-127071336D01*
X98520952Y-127083159D01*
X98511066Y-127094066D01*
X98500159Y-127103952D01*
X98488336Y-127112720D01*
X98475710Y-127120288D01*
X98462403Y-127126582D01*
X98448543Y-127131541D01*
X98434264Y-127135118D01*
X98419703Y-127137278D01*
X98405000Y-127138000D01*
X98105000Y-127138000D01*
X98090297Y-127137278D01*
X98075736Y-127135118D01*
X98061457Y-127131541D01*
X98047597Y-127126582D01*
X98034290Y-127120288D01*
X98021664Y-127112720D01*
X98009841Y-127103952D01*
X97998934Y-127094066D01*
X97989048Y-127083159D01*
X97980280Y-127071336D01*
X97972712Y-127058710D01*
X97966418Y-127045403D01*
X97961459Y-127031543D01*
X97957882Y-127017264D01*
X97955722Y-127002703D01*
X97955000Y-126988000D01*
X97955000Y-125338000D01*
X97955722Y-125323297D01*
X97957882Y-125308736D01*
X97961459Y-125294457D01*
X97966418Y-125280597D01*
X97972712Y-125267290D01*
X97980280Y-125254664D01*
X97989048Y-125242841D01*
X97998934Y-125231934D01*
X98009841Y-125222048D01*
X98021664Y-125213280D01*
X98034290Y-125205712D01*
X98047597Y-125199418D01*
X98061457Y-125194459D01*
X98075736Y-125190882D01*
X98090297Y-125188722D01*
X98105000Y-125188000D01*
X98405000Y-125188000D01*
X98419703Y-125188722D01*
X98419703Y-125188722D01*
G37*
D13*
X98255000Y-126163000D03*
D10*
G36*
X99689703Y-125188722D02*
G01*
X99704264Y-125190882D01*
X99718543Y-125194459D01*
X99732403Y-125199418D01*
X99745710Y-125205712D01*
X99758336Y-125213280D01*
X99770159Y-125222048D01*
X99781066Y-125231934D01*
X99790952Y-125242841D01*
X99799720Y-125254664D01*
X99807288Y-125267290D01*
X99813582Y-125280597D01*
X99818541Y-125294457D01*
X99822118Y-125308736D01*
X99824278Y-125323297D01*
X99825000Y-125338000D01*
X99825000Y-126988000D01*
X99824278Y-127002703D01*
X99822118Y-127017264D01*
X99818541Y-127031543D01*
X99813582Y-127045403D01*
X99807288Y-127058710D01*
X99799720Y-127071336D01*
X99790952Y-127083159D01*
X99781066Y-127094066D01*
X99770159Y-127103952D01*
X99758336Y-127112720D01*
X99745710Y-127120288D01*
X99732403Y-127126582D01*
X99718543Y-127131541D01*
X99704264Y-127135118D01*
X99689703Y-127137278D01*
X99675000Y-127138000D01*
X99375000Y-127138000D01*
X99360297Y-127137278D01*
X99345736Y-127135118D01*
X99331457Y-127131541D01*
X99317597Y-127126582D01*
X99304290Y-127120288D01*
X99291664Y-127112720D01*
X99279841Y-127103952D01*
X99268934Y-127094066D01*
X99259048Y-127083159D01*
X99250280Y-127071336D01*
X99242712Y-127058710D01*
X99236418Y-127045403D01*
X99231459Y-127031543D01*
X99227882Y-127017264D01*
X99225722Y-127002703D01*
X99225000Y-126988000D01*
X99225000Y-125338000D01*
X99225722Y-125323297D01*
X99227882Y-125308736D01*
X99231459Y-125294457D01*
X99236418Y-125280597D01*
X99242712Y-125267290D01*
X99250280Y-125254664D01*
X99259048Y-125242841D01*
X99268934Y-125231934D01*
X99279841Y-125222048D01*
X99291664Y-125213280D01*
X99304290Y-125205712D01*
X99317597Y-125199418D01*
X99331457Y-125194459D01*
X99345736Y-125190882D01*
X99360297Y-125188722D01*
X99375000Y-125188000D01*
X99675000Y-125188000D01*
X99689703Y-125188722D01*
X99689703Y-125188722D01*
G37*
D13*
X99525000Y-126163000D03*
D10*
G36*
X100959703Y-125188722D02*
G01*
X100974264Y-125190882D01*
X100988543Y-125194459D01*
X101002403Y-125199418D01*
X101015710Y-125205712D01*
X101028336Y-125213280D01*
X101040159Y-125222048D01*
X101051066Y-125231934D01*
X101060952Y-125242841D01*
X101069720Y-125254664D01*
X101077288Y-125267290D01*
X101083582Y-125280597D01*
X101088541Y-125294457D01*
X101092118Y-125308736D01*
X101094278Y-125323297D01*
X101095000Y-125338000D01*
X101095000Y-126988000D01*
X101094278Y-127002703D01*
X101092118Y-127017264D01*
X101088541Y-127031543D01*
X101083582Y-127045403D01*
X101077288Y-127058710D01*
X101069720Y-127071336D01*
X101060952Y-127083159D01*
X101051066Y-127094066D01*
X101040159Y-127103952D01*
X101028336Y-127112720D01*
X101015710Y-127120288D01*
X101002403Y-127126582D01*
X100988543Y-127131541D01*
X100974264Y-127135118D01*
X100959703Y-127137278D01*
X100945000Y-127138000D01*
X100645000Y-127138000D01*
X100630297Y-127137278D01*
X100615736Y-127135118D01*
X100601457Y-127131541D01*
X100587597Y-127126582D01*
X100574290Y-127120288D01*
X100561664Y-127112720D01*
X100549841Y-127103952D01*
X100538934Y-127094066D01*
X100529048Y-127083159D01*
X100520280Y-127071336D01*
X100512712Y-127058710D01*
X100506418Y-127045403D01*
X100501459Y-127031543D01*
X100497882Y-127017264D01*
X100495722Y-127002703D01*
X100495000Y-126988000D01*
X100495000Y-125338000D01*
X100495722Y-125323297D01*
X100497882Y-125308736D01*
X100501459Y-125294457D01*
X100506418Y-125280597D01*
X100512712Y-125267290D01*
X100520280Y-125254664D01*
X100529048Y-125242841D01*
X100538934Y-125231934D01*
X100549841Y-125222048D01*
X100561664Y-125213280D01*
X100574290Y-125205712D01*
X100587597Y-125199418D01*
X100601457Y-125194459D01*
X100615736Y-125190882D01*
X100630297Y-125188722D01*
X100645000Y-125188000D01*
X100945000Y-125188000D01*
X100959703Y-125188722D01*
X100959703Y-125188722D01*
G37*
D13*
X100795000Y-126163000D03*
D15*
X102186000Y-92387000D03*
X102986000Y-92387000D03*
X103786000Y-92387000D03*
X104586000Y-92387000D03*
X105386000Y-92387000D03*
X106186000Y-92387000D03*
X106986000Y-92387000D03*
X107786000Y-92387000D03*
D16*
X109236000Y-93837000D03*
X109236000Y-94637000D03*
X109236000Y-95437000D03*
X109236000Y-96237000D03*
X109236000Y-97037000D03*
X109236000Y-97837000D03*
X109236000Y-98637000D03*
X109236000Y-99437000D03*
D15*
X107786000Y-100887000D03*
X106986000Y-100887000D03*
X106186000Y-100887000D03*
X105386000Y-100887000D03*
X104586000Y-100887000D03*
X103786000Y-100887000D03*
X102986000Y-100887000D03*
X102186000Y-100887000D03*
D16*
X100736000Y-99437000D03*
X100736000Y-98637000D03*
X100736000Y-97837000D03*
X100736000Y-97037000D03*
X100736000Y-96237000D03*
X100736000Y-95437000D03*
X100736000Y-94637000D03*
X100736000Y-93837000D03*
D17*
X90314600Y-126541800D03*
X89664600Y-126541800D03*
X89014600Y-126541800D03*
X88364600Y-126541800D03*
X88364600Y-124491800D03*
X89014600Y-124491800D03*
X89664600Y-124491800D03*
X90314600Y-124491800D03*
M02*
