G04 #@! TF.GenerationSoftware,KiCad,Pcbnew,(5.1.4)-1*
G04 #@! TF.CreationDate,2020-06-10T13:05:05+02:00*
G04 #@! TF.ProjectId,NodeMCU_WeatherStation,4e6f6465-4d43-4555-9f57-656174686572,rev?*
G04 #@! TF.SameCoordinates,Original*
G04 #@! TF.FileFunction,Legend,Top*
G04 #@! TF.FilePolarity,Positive*
%FSLAX46Y46*%
G04 Gerber Fmt 4.6, Leading zero omitted, Abs format (unit mm)*
G04 Created by KiCad (PCBNEW (5.1.4)-1) date 2020-06-10 13:05:05*
%MOMM*%
%LPD*%
G04 APERTURE LIST*
%ADD10C,0.150000*%
%ADD11C,0.250000*%
%ADD12C,0.200000*%
%ADD13C,0.120000*%
%ADD14C,0.100000*%
G04 APERTURE END LIST*
D10*
X82659923Y-140107580D02*
X82898019Y-141107580D01*
X83088495Y-140393295D01*
X83278971Y-141107580D01*
X83517066Y-140107580D01*
X84326590Y-141107580D02*
X84326590Y-140583771D01*
X84278971Y-140488533D01*
X84183733Y-140440914D01*
X83993257Y-140440914D01*
X83898019Y-140488533D01*
X84326590Y-141059961D02*
X84231352Y-141107580D01*
X83993257Y-141107580D01*
X83898019Y-141059961D01*
X83850400Y-140964723D01*
X83850400Y-140869485D01*
X83898019Y-140774247D01*
X83993257Y-140726628D01*
X84231352Y-140726628D01*
X84326590Y-140679009D01*
X84659923Y-140440914D02*
X85040876Y-140440914D01*
X84802780Y-140107580D02*
X84802780Y-140964723D01*
X84850400Y-141059961D01*
X84945638Y-141107580D01*
X85040876Y-141107580D01*
X85755161Y-141059961D02*
X85659923Y-141107580D01*
X85469447Y-141107580D01*
X85374209Y-141059961D01*
X85326590Y-140964723D01*
X85326590Y-140583771D01*
X85374209Y-140488533D01*
X85469447Y-140440914D01*
X85659923Y-140440914D01*
X85755161Y-140488533D01*
X85802780Y-140583771D01*
X85802780Y-140679009D01*
X85326590Y-140774247D01*
X86231352Y-141107580D02*
X86231352Y-140440914D01*
X86231352Y-140631390D02*
X86278971Y-140536152D01*
X86326590Y-140488533D01*
X86421828Y-140440914D01*
X86517066Y-140440914D01*
X88088495Y-141107580D02*
X87612304Y-141107580D01*
X87612304Y-140107580D01*
X88802780Y-141059961D02*
X88707542Y-141107580D01*
X88517066Y-141107580D01*
X88421828Y-141059961D01*
X88374209Y-140964723D01*
X88374209Y-140583771D01*
X88421828Y-140488533D01*
X88517066Y-140440914D01*
X88707542Y-140440914D01*
X88802780Y-140488533D01*
X88850400Y-140583771D01*
X88850400Y-140679009D01*
X88374209Y-140774247D01*
X89183733Y-140440914D02*
X89421828Y-141107580D01*
X89659923Y-140440914D01*
X90421828Y-141059961D02*
X90326590Y-141107580D01*
X90136114Y-141107580D01*
X90040876Y-141059961D01*
X89993257Y-140964723D01*
X89993257Y-140583771D01*
X90040876Y-140488533D01*
X90136114Y-140440914D01*
X90326590Y-140440914D01*
X90421828Y-140488533D01*
X90469447Y-140583771D01*
X90469447Y-140679009D01*
X89993257Y-140774247D01*
X91040876Y-141107580D02*
X90945638Y-141059961D01*
X90898019Y-140964723D01*
X90898019Y-140107580D01*
X118178285Y-63104228D02*
X118940190Y-63104228D01*
X118559238Y-63485180D02*
X118559238Y-62723276D01*
X119892571Y-62485180D02*
X119416380Y-62485180D01*
X119368761Y-62961371D01*
X119416380Y-62913752D01*
X119511619Y-62866133D01*
X119749714Y-62866133D01*
X119844952Y-62913752D01*
X119892571Y-62961371D01*
X119940190Y-63056609D01*
X119940190Y-63294704D01*
X119892571Y-63389942D01*
X119844952Y-63437561D01*
X119749714Y-63485180D01*
X119511619Y-63485180D01*
X119416380Y-63437561D01*
X119368761Y-63389942D01*
X120225904Y-62485180D02*
X120559238Y-63485180D01*
X120892571Y-62485180D01*
X118854495Y-57605200D02*
X118759257Y-57557580D01*
X118616400Y-57557580D01*
X118473542Y-57605200D01*
X118378304Y-57700438D01*
X118330685Y-57795676D01*
X118283066Y-57986152D01*
X118283066Y-58129009D01*
X118330685Y-58319485D01*
X118378304Y-58414723D01*
X118473542Y-58509961D01*
X118616400Y-58557580D01*
X118711638Y-58557580D01*
X118854495Y-58509961D01*
X118902114Y-58462342D01*
X118902114Y-58129009D01*
X118711638Y-58129009D01*
X119330685Y-58557580D02*
X119330685Y-57557580D01*
X119902114Y-58557580D01*
X119902114Y-57557580D01*
X120378304Y-58557580D02*
X120378304Y-57557580D01*
X120616400Y-57557580D01*
X120759257Y-57605200D01*
X120854495Y-57700438D01*
X120902114Y-57795676D01*
X120949733Y-57986152D01*
X120949733Y-58129009D01*
X120902114Y-58319485D01*
X120854495Y-58414723D01*
X120759257Y-58509961D01*
X120616400Y-58557580D01*
X120378304Y-58557580D01*
X108269295Y-141075866D02*
X108745485Y-141075866D01*
X108174057Y-141361580D02*
X108507390Y-140361580D01*
X108840723Y-141361580D01*
X109031200Y-140361580D02*
X109364533Y-141361580D01*
X109697866Y-140361580D01*
X110602628Y-141361580D02*
X110269295Y-140885390D01*
X110031200Y-141361580D02*
X110031200Y-140361580D01*
X110412152Y-140361580D01*
X110507390Y-140409200D01*
X110555009Y-140456819D01*
X110602628Y-140552057D01*
X110602628Y-140694914D01*
X110555009Y-140790152D01*
X110507390Y-140837771D01*
X110412152Y-140885390D01*
X110031200Y-140885390D01*
X111793104Y-141361580D02*
X111793104Y-140361580D01*
X112221676Y-141313961D02*
X112364533Y-141361580D01*
X112602628Y-141361580D01*
X112697866Y-141313961D01*
X112745485Y-141266342D01*
X112793104Y-141171104D01*
X112793104Y-141075866D01*
X112745485Y-140980628D01*
X112697866Y-140933009D01*
X112602628Y-140885390D01*
X112412152Y-140837771D01*
X112316914Y-140790152D01*
X112269295Y-140742533D01*
X112221676Y-140647295D01*
X112221676Y-140552057D01*
X112269295Y-140456819D01*
X112316914Y-140409200D01*
X112412152Y-140361580D01*
X112650247Y-140361580D01*
X112793104Y-140409200D01*
X113221676Y-141361580D02*
X113221676Y-140361580D01*
X113602628Y-140361580D01*
X113697866Y-140409200D01*
X113745485Y-140456819D01*
X113793104Y-140552057D01*
X113793104Y-140694914D01*
X113745485Y-140790152D01*
X113697866Y-140837771D01*
X113602628Y-140885390D01*
X113221676Y-140885390D01*
X123277276Y-84935600D02*
X123182038Y-84887980D01*
X123039181Y-84887980D01*
X122896323Y-84935600D01*
X122801085Y-85030838D01*
X122753466Y-85126076D01*
X122705847Y-85316552D01*
X122705847Y-85459409D01*
X122753466Y-85649885D01*
X122801085Y-85745123D01*
X122896323Y-85840361D01*
X123039181Y-85887980D01*
X123134419Y-85887980D01*
X123277276Y-85840361D01*
X123324895Y-85792742D01*
X123324895Y-85459409D01*
X123134419Y-85459409D01*
X123753466Y-85887980D02*
X123753466Y-84887980D01*
X124324895Y-85887980D01*
X124324895Y-84887980D01*
X124801085Y-85887980D02*
X124801085Y-84887980D01*
X125039181Y-84887980D01*
X125182038Y-84935600D01*
X125277276Y-85030838D01*
X125324895Y-85126076D01*
X125372514Y-85316552D01*
X125372514Y-85459409D01*
X125324895Y-85649885D01*
X125277276Y-85745123D01*
X125182038Y-85840361D01*
X125039181Y-85887980D01*
X124801085Y-85887980D01*
X123420133Y-80909580D02*
X123086800Y-80433390D01*
X122848704Y-80909580D02*
X122848704Y-79909580D01*
X123229657Y-79909580D01*
X123324895Y-79957200D01*
X123372514Y-80004819D01*
X123420133Y-80100057D01*
X123420133Y-80242914D01*
X123372514Y-80338152D01*
X123324895Y-80385771D01*
X123229657Y-80433390D01*
X122848704Y-80433390D01*
X123753466Y-79909580D02*
X124420133Y-80909580D01*
X124420133Y-79909580D02*
X123753466Y-80909580D01*
X124801085Y-80909580D02*
X124801085Y-79909580D01*
X125039180Y-79909580D01*
X125182038Y-79957200D01*
X125277276Y-80052438D01*
X125324895Y-80147676D01*
X125372514Y-80338152D01*
X125372514Y-80481009D01*
X125324895Y-80671485D01*
X125277276Y-80766723D01*
X125182038Y-80861961D01*
X125039180Y-80909580D01*
X124801085Y-80909580D01*
X122280457Y-123749980D02*
X122470933Y-123749980D01*
X122566171Y-123797600D01*
X122661409Y-123892838D01*
X122709028Y-124083314D01*
X122709028Y-124416647D01*
X122661409Y-124607123D01*
X122566171Y-124702361D01*
X122470933Y-124749980D01*
X122280457Y-124749980D01*
X122185219Y-124702361D01*
X122089981Y-124607123D01*
X122042362Y-124416647D01*
X122042362Y-124083314D01*
X122089981Y-123892838D01*
X122185219Y-123797600D01*
X122280457Y-123749980D01*
X123137600Y-123749980D02*
X123137600Y-124559504D01*
X123185219Y-124654742D01*
X123232838Y-124702361D01*
X123328076Y-124749980D01*
X123518552Y-124749980D01*
X123613790Y-124702361D01*
X123661409Y-124654742D01*
X123709028Y-124559504D01*
X123709028Y-123749980D01*
X124042362Y-123749980D02*
X124613790Y-123749980D01*
X124328076Y-124749980D02*
X124328076Y-123749980D01*
X125470933Y-124749980D02*
X124899505Y-124749980D01*
X125185219Y-124749980D02*
X125185219Y-123749980D01*
X125089981Y-123892838D01*
X124994743Y-123988076D01*
X124899505Y-124035695D01*
X122280457Y-118669980D02*
X122470933Y-118669980D01*
X122566171Y-118717600D01*
X122661409Y-118812838D01*
X122709028Y-119003314D01*
X122709028Y-119336647D01*
X122661409Y-119527123D01*
X122566171Y-119622361D01*
X122470933Y-119669980D01*
X122280457Y-119669980D01*
X122185219Y-119622361D01*
X122089981Y-119527123D01*
X122042362Y-119336647D01*
X122042362Y-119003314D01*
X122089981Y-118812838D01*
X122185219Y-118717600D01*
X122280457Y-118669980D01*
X123137600Y-118669980D02*
X123137600Y-119479504D01*
X123185219Y-119574742D01*
X123232838Y-119622361D01*
X123328076Y-119669980D01*
X123518552Y-119669980D01*
X123613790Y-119622361D01*
X123661409Y-119574742D01*
X123709028Y-119479504D01*
X123709028Y-118669980D01*
X124042362Y-118669980D02*
X124613790Y-118669980D01*
X124328076Y-119669980D02*
X124328076Y-118669980D01*
X124899505Y-118765219D02*
X124947124Y-118717600D01*
X125042362Y-118669980D01*
X125280457Y-118669980D01*
X125375695Y-118717600D01*
X125423314Y-118765219D01*
X125470933Y-118860457D01*
X125470933Y-118955695D01*
X125423314Y-119098552D01*
X124851886Y-119669980D01*
X125470933Y-119669980D01*
X123423315Y-114589980D02*
X123423315Y-113589980D01*
X123899505Y-114589980D02*
X123899505Y-113589980D01*
X124470934Y-114589980D01*
X124470934Y-113589980D01*
X125470934Y-114589980D02*
X124899505Y-114589980D01*
X125185219Y-114589980D02*
X125185219Y-113589980D01*
X125089981Y-113732838D01*
X124994743Y-113828076D01*
X124899505Y-113875695D01*
X123423315Y-109509980D02*
X123423315Y-108509980D01*
X123899505Y-109509980D02*
X123899505Y-108509980D01*
X124470934Y-109509980D01*
X124470934Y-108509980D01*
X124899505Y-108605219D02*
X124947124Y-108557600D01*
X125042362Y-108509980D01*
X125280457Y-108509980D01*
X125375695Y-108557600D01*
X125423315Y-108605219D01*
X125470934Y-108700457D01*
X125470934Y-108795695D01*
X125423315Y-108938552D01*
X124851886Y-109509980D01*
X125470934Y-109509980D01*
X123375695Y-121257600D02*
X123280457Y-121209980D01*
X123137600Y-121209980D01*
X122994742Y-121257600D01*
X122899504Y-121352838D01*
X122851885Y-121448076D01*
X122804266Y-121638552D01*
X122804266Y-121781409D01*
X122851885Y-121971885D01*
X122899504Y-122067123D01*
X122994742Y-122162361D01*
X123137600Y-122209980D01*
X123232838Y-122209980D01*
X123375695Y-122162361D01*
X123423314Y-122114742D01*
X123423314Y-121781409D01*
X123232838Y-121781409D01*
X123851885Y-122209980D02*
X123851885Y-121209980D01*
X124423314Y-122209980D01*
X124423314Y-121209980D01*
X124899504Y-122209980D02*
X124899504Y-121209980D01*
X125137600Y-121209980D01*
X125280457Y-121257600D01*
X125375695Y-121352838D01*
X125423314Y-121448076D01*
X125470933Y-121638552D01*
X125470933Y-121781409D01*
X125423314Y-121971885D01*
X125375695Y-122067123D01*
X125280457Y-122162361D01*
X125137600Y-122209980D01*
X124899504Y-122209980D01*
X123375695Y-116177600D02*
X123280457Y-116129980D01*
X123137600Y-116129980D01*
X122994742Y-116177600D01*
X122899504Y-116272838D01*
X122851885Y-116368076D01*
X122804266Y-116558552D01*
X122804266Y-116701409D01*
X122851885Y-116891885D01*
X122899504Y-116987123D01*
X122994742Y-117082361D01*
X123137600Y-117129980D01*
X123232838Y-117129980D01*
X123375695Y-117082361D01*
X123423314Y-117034742D01*
X123423314Y-116701409D01*
X123232838Y-116701409D01*
X123851885Y-117129980D02*
X123851885Y-116129980D01*
X124423314Y-117129980D01*
X124423314Y-116129980D01*
X124899504Y-117129980D02*
X124899504Y-116129980D01*
X125137600Y-116129980D01*
X125280457Y-116177600D01*
X125375695Y-116272838D01*
X125423314Y-116368076D01*
X125470933Y-116558552D01*
X125470933Y-116701409D01*
X125423314Y-116891885D01*
X125375695Y-116987123D01*
X125280457Y-117082361D01*
X125137600Y-117129980D01*
X124899504Y-117129980D01*
X123375695Y-111097600D02*
X123280457Y-111049980D01*
X123137600Y-111049980D01*
X122994742Y-111097600D01*
X122899504Y-111192838D01*
X122851885Y-111288076D01*
X122804266Y-111478552D01*
X122804266Y-111621409D01*
X122851885Y-111811885D01*
X122899504Y-111907123D01*
X122994742Y-112002361D01*
X123137600Y-112049980D01*
X123232838Y-112049980D01*
X123375695Y-112002361D01*
X123423314Y-111954742D01*
X123423314Y-111621409D01*
X123232838Y-111621409D01*
X123851885Y-112049980D02*
X123851885Y-111049980D01*
X124423314Y-112049980D01*
X124423314Y-111049980D01*
X124899504Y-112049980D02*
X124899504Y-111049980D01*
X125137600Y-111049980D01*
X125280457Y-111097600D01*
X125375695Y-111192838D01*
X125423314Y-111288076D01*
X125470933Y-111478552D01*
X125470933Y-111621409D01*
X125423314Y-111811885D01*
X125375695Y-111907123D01*
X125280457Y-112002361D01*
X125137600Y-112049980D01*
X124899504Y-112049980D01*
X123375695Y-106017600D02*
X123280457Y-105969980D01*
X123137600Y-105969980D01*
X122994742Y-106017600D01*
X122899504Y-106112838D01*
X122851885Y-106208076D01*
X122804266Y-106398552D01*
X122804266Y-106541409D01*
X122851885Y-106731885D01*
X122899504Y-106827123D01*
X122994742Y-106922361D01*
X123137600Y-106969980D01*
X123232838Y-106969980D01*
X123375695Y-106922361D01*
X123423314Y-106874742D01*
X123423314Y-106541409D01*
X123232838Y-106541409D01*
X123851885Y-106969980D02*
X123851885Y-105969980D01*
X124423314Y-106969980D01*
X124423314Y-105969980D01*
X124899504Y-106969980D02*
X124899504Y-105969980D01*
X125137600Y-105969980D01*
X125280457Y-106017600D01*
X125375695Y-106112838D01*
X125423314Y-106208076D01*
X125470933Y-106398552D01*
X125470933Y-106541409D01*
X125423314Y-106731885D01*
X125375695Y-106827123D01*
X125280457Y-106922361D01*
X125137600Y-106969980D01*
X124899504Y-106969980D01*
X122851885Y-104049028D02*
X123613790Y-104049028D01*
X123232838Y-104429980D02*
X123232838Y-103668076D01*
X124566171Y-103429980D02*
X124089980Y-103429980D01*
X124042361Y-103906171D01*
X124089980Y-103858552D01*
X124185219Y-103810933D01*
X124423314Y-103810933D01*
X124518552Y-103858552D01*
X124566171Y-103906171D01*
X124613790Y-104001409D01*
X124613790Y-104239504D01*
X124566171Y-104334742D01*
X124518552Y-104382361D01*
X124423314Y-104429980D01*
X124185219Y-104429980D01*
X124089980Y-104382361D01*
X124042361Y-104334742D01*
X124899504Y-103429980D02*
X125232838Y-104429980D01*
X125566171Y-103429980D01*
X122851885Y-101509028D02*
X123613790Y-101509028D01*
X123232838Y-101889980D02*
X123232838Y-101128076D01*
X124566171Y-100889980D02*
X124089980Y-100889980D01*
X124042361Y-101366171D01*
X124089980Y-101318552D01*
X124185219Y-101270933D01*
X124423314Y-101270933D01*
X124518552Y-101318552D01*
X124566171Y-101366171D01*
X124613790Y-101461409D01*
X124613790Y-101699504D01*
X124566171Y-101794742D01*
X124518552Y-101842361D01*
X124423314Y-101889980D01*
X124185219Y-101889980D01*
X124089980Y-101842361D01*
X124042361Y-101794742D01*
X124899504Y-100889980D02*
X125232838Y-101889980D01*
X125566171Y-100889980D01*
X122943943Y-82398780D02*
X123515371Y-82398780D01*
X123229657Y-83398780D02*
X123229657Y-82398780D01*
X123753467Y-82398780D02*
X124420133Y-83398780D01*
X124420133Y-82398780D02*
X123753467Y-83398780D01*
X124801086Y-83398780D02*
X124801086Y-82398780D01*
X125039181Y-82398780D01*
X125182038Y-82446400D01*
X125277276Y-82541638D01*
X125324895Y-82636876D01*
X125372514Y-82827352D01*
X125372514Y-82970209D01*
X125324895Y-83160685D01*
X125277276Y-83255923D01*
X125182038Y-83351161D01*
X125039181Y-83398780D01*
X124801086Y-83398780D01*
D11*
X121085257Y-141306971D02*
X121085257Y-142378400D01*
X121013828Y-142592685D01*
X120870971Y-142735542D01*
X120656685Y-142806971D01*
X120513828Y-142806971D01*
X121728114Y-142735542D02*
X121942400Y-142806971D01*
X122299542Y-142806971D01*
X122442400Y-142735542D01*
X122513828Y-142664114D01*
X122585257Y-142521257D01*
X122585257Y-142378400D01*
X122513828Y-142235542D01*
X122442400Y-142164114D01*
X122299542Y-142092685D01*
X122013828Y-142021257D01*
X121870971Y-141949828D01*
X121799542Y-141878400D01*
X121728114Y-141735542D01*
X121728114Y-141592685D01*
X121799542Y-141449828D01*
X121870971Y-141378400D01*
X122013828Y-141306971D01*
X122370971Y-141306971D01*
X122585257Y-141378400D01*
X123156685Y-141449828D02*
X123228114Y-141378400D01*
X123370971Y-141306971D01*
X123728114Y-141306971D01*
X123870971Y-141378400D01*
X123942400Y-141449828D01*
X124013828Y-141592685D01*
X124013828Y-141735542D01*
X123942400Y-141949828D01*
X123085257Y-142806971D01*
X124013828Y-142806971D01*
X124942400Y-141306971D02*
X125085257Y-141306971D01*
X125228114Y-141378400D01*
X125299542Y-141449828D01*
X125370971Y-141592685D01*
X125442400Y-141878400D01*
X125442400Y-142235542D01*
X125370971Y-142521257D01*
X125299542Y-142664114D01*
X125228114Y-142735542D01*
X125085257Y-142806971D01*
X124942400Y-142806971D01*
X124799542Y-142735542D01*
X124728114Y-142664114D01*
X124656685Y-142521257D01*
X124585257Y-142235542D01*
X124585257Y-141878400D01*
X124656685Y-141592685D01*
X124728114Y-141449828D01*
X124799542Y-141378400D01*
X124942400Y-141306971D01*
X126013828Y-141449828D02*
X126085257Y-141378400D01*
X126228114Y-141306971D01*
X126585257Y-141306971D01*
X126728114Y-141378400D01*
X126799542Y-141449828D01*
X126870971Y-141592685D01*
X126870971Y-141735542D01*
X126799542Y-141949828D01*
X125942400Y-142806971D01*
X126870971Y-142806971D01*
X127799542Y-141306971D02*
X127942399Y-141306971D01*
X128085257Y-141378400D01*
X128156685Y-141449828D01*
X128228114Y-141592685D01*
X128299542Y-141878400D01*
X128299542Y-142235542D01*
X128228114Y-142521257D01*
X128156685Y-142664114D01*
X128085257Y-142735542D01*
X127942399Y-142806971D01*
X127799542Y-142806971D01*
X127656685Y-142735542D01*
X127585257Y-142664114D01*
X127513828Y-142521257D01*
X127442399Y-142235542D01*
X127442399Y-141878400D01*
X127513828Y-141592685D01*
X127585257Y-141449828D01*
X127656685Y-141378400D01*
X127799542Y-141306971D01*
X121361771Y-126223828D02*
X119861771Y-126223828D01*
X121361771Y-125366685D01*
X119861771Y-125366685D01*
X121361771Y-124438114D02*
X121290342Y-124580971D01*
X121218914Y-124652400D01*
X121076057Y-124723828D01*
X120647485Y-124723828D01*
X120504628Y-124652400D01*
X120433200Y-124580971D01*
X120361771Y-124438114D01*
X120361771Y-124223828D01*
X120433200Y-124080971D01*
X120504628Y-124009542D01*
X120647485Y-123938114D01*
X121076057Y-123938114D01*
X121218914Y-124009542D01*
X121290342Y-124080971D01*
X121361771Y-124223828D01*
X121361771Y-124438114D01*
X121361771Y-122652400D02*
X119861771Y-122652400D01*
X121290342Y-122652400D02*
X121361771Y-122795257D01*
X121361771Y-123080971D01*
X121290342Y-123223828D01*
X121218914Y-123295257D01*
X121076057Y-123366685D01*
X120647485Y-123366685D01*
X120504628Y-123295257D01*
X120433200Y-123223828D01*
X120361771Y-123080971D01*
X120361771Y-122795257D01*
X120433200Y-122652400D01*
X121290342Y-121366685D02*
X121361771Y-121509542D01*
X121361771Y-121795257D01*
X121290342Y-121938114D01*
X121147485Y-122009542D01*
X120576057Y-122009542D01*
X120433200Y-121938114D01*
X120361771Y-121795257D01*
X120361771Y-121509542D01*
X120433200Y-121366685D01*
X120576057Y-121295257D01*
X120718914Y-121295257D01*
X120861771Y-122009542D01*
X121361771Y-120652400D02*
X119861771Y-120652400D01*
X120933200Y-120152400D01*
X119861771Y-119652400D01*
X121361771Y-119652400D01*
X121218914Y-118080971D02*
X121290342Y-118152400D01*
X121361771Y-118366685D01*
X121361771Y-118509542D01*
X121290342Y-118723828D01*
X121147485Y-118866685D01*
X121004628Y-118938114D01*
X120718914Y-119009542D01*
X120504628Y-119009542D01*
X120218914Y-118938114D01*
X120076057Y-118866685D01*
X119933200Y-118723828D01*
X119861771Y-118509542D01*
X119861771Y-118366685D01*
X119933200Y-118152400D01*
X120004628Y-118080971D01*
X119861771Y-117438114D02*
X121076057Y-117438114D01*
X121218914Y-117366685D01*
X121290342Y-117295257D01*
X121361771Y-117152400D01*
X121361771Y-116866685D01*
X121290342Y-116723828D01*
X121218914Y-116652400D01*
X121076057Y-116580971D01*
X119861771Y-116580971D01*
X119861771Y-114866685D02*
X121361771Y-114509542D01*
X120290342Y-114223828D01*
X121361771Y-113938114D01*
X119861771Y-113580971D01*
X121290342Y-112438114D02*
X121361771Y-112580971D01*
X121361771Y-112866685D01*
X121290342Y-113009542D01*
X121147485Y-113080971D01*
X120576057Y-113080971D01*
X120433200Y-113009542D01*
X120361771Y-112866685D01*
X120361771Y-112580971D01*
X120433200Y-112438114D01*
X120576057Y-112366685D01*
X120718914Y-112366685D01*
X120861771Y-113080971D01*
X121361771Y-111080971D02*
X120576057Y-111080971D01*
X120433200Y-111152400D01*
X120361771Y-111295257D01*
X120361771Y-111580971D01*
X120433200Y-111723828D01*
X121290342Y-111080971D02*
X121361771Y-111223828D01*
X121361771Y-111580971D01*
X121290342Y-111723828D01*
X121147485Y-111795257D01*
X121004628Y-111795257D01*
X120861771Y-111723828D01*
X120790342Y-111580971D01*
X120790342Y-111223828D01*
X120718914Y-111080971D01*
X120361771Y-110580971D02*
X120361771Y-110009542D01*
X119861771Y-110366685D02*
X121147485Y-110366685D01*
X121290342Y-110295257D01*
X121361771Y-110152400D01*
X121361771Y-110009542D01*
X121361771Y-109509542D02*
X119861771Y-109509542D01*
X121361771Y-108866685D02*
X120576057Y-108866685D01*
X120433200Y-108938114D01*
X120361771Y-109080971D01*
X120361771Y-109295257D01*
X120433200Y-109438114D01*
X120504628Y-109509542D01*
X121290342Y-107580971D02*
X121361771Y-107723828D01*
X121361771Y-108009542D01*
X121290342Y-108152400D01*
X121147485Y-108223828D01*
X120576057Y-108223828D01*
X120433200Y-108152400D01*
X120361771Y-108009542D01*
X120361771Y-107723828D01*
X120433200Y-107580971D01*
X120576057Y-107509542D01*
X120718914Y-107509542D01*
X120861771Y-108223828D01*
X121361771Y-106866685D02*
X120361771Y-106866685D01*
X120647485Y-106866685D02*
X120504628Y-106795257D01*
X120433200Y-106723828D01*
X120361771Y-106580971D01*
X120361771Y-106438114D01*
X121290342Y-104866685D02*
X121361771Y-104652400D01*
X121361771Y-104295257D01*
X121290342Y-104152400D01*
X121218914Y-104080971D01*
X121076057Y-104009542D01*
X120933200Y-104009542D01*
X120790342Y-104080971D01*
X120718914Y-104152400D01*
X120647485Y-104295257D01*
X120576057Y-104580971D01*
X120504628Y-104723828D01*
X120433200Y-104795257D01*
X120290342Y-104866685D01*
X120147485Y-104866685D01*
X120004628Y-104795257D01*
X119933200Y-104723828D01*
X119861771Y-104580971D01*
X119861771Y-104223828D01*
X119933200Y-104009542D01*
X120361771Y-103580971D02*
X120361771Y-103009542D01*
X119861771Y-103366685D02*
X121147485Y-103366685D01*
X121290342Y-103295257D01*
X121361771Y-103152400D01*
X121361771Y-103009542D01*
X121361771Y-101866685D02*
X120576057Y-101866685D01*
X120433200Y-101938114D01*
X120361771Y-102080971D01*
X120361771Y-102366685D01*
X120433200Y-102509542D01*
X121290342Y-101866685D02*
X121361771Y-102009542D01*
X121361771Y-102366685D01*
X121290342Y-102509542D01*
X121147485Y-102580971D01*
X121004628Y-102580971D01*
X120861771Y-102509542D01*
X120790342Y-102366685D01*
X120790342Y-102009542D01*
X120718914Y-101866685D01*
X120361771Y-101366685D02*
X120361771Y-100795257D01*
X119861771Y-101152400D02*
X121147485Y-101152400D01*
X121290342Y-101080971D01*
X121361771Y-100938114D01*
X121361771Y-100795257D01*
X121361771Y-100295257D02*
X120361771Y-100295257D01*
X119861771Y-100295257D02*
X119933200Y-100366685D01*
X120004628Y-100295257D01*
X119933200Y-100223828D01*
X119861771Y-100295257D01*
X120004628Y-100295257D01*
X121361771Y-99366685D02*
X121290342Y-99509542D01*
X121218914Y-99580971D01*
X121076057Y-99652400D01*
X120647485Y-99652400D01*
X120504628Y-99580971D01*
X120433200Y-99509542D01*
X120361771Y-99366685D01*
X120361771Y-99152400D01*
X120433200Y-99009542D01*
X120504628Y-98938114D01*
X120647485Y-98866685D01*
X121076057Y-98866685D01*
X121218914Y-98938114D01*
X121290342Y-99009542D01*
X121361771Y-99152400D01*
X121361771Y-99366685D01*
X120361771Y-98223828D02*
X121361771Y-98223828D01*
X120504628Y-98223828D02*
X120433200Y-98152400D01*
X120361771Y-98009542D01*
X120361771Y-97795257D01*
X120433200Y-97652400D01*
X120576057Y-97580971D01*
X121361771Y-97580971D01*
D12*
X100645857Y-69928714D02*
X100645857Y-69185857D01*
X101103000Y-69585857D01*
X101103000Y-69414428D01*
X101160142Y-69300142D01*
X101217285Y-69243000D01*
X101331571Y-69185857D01*
X101617285Y-69185857D01*
X101731571Y-69243000D01*
X101788714Y-69300142D01*
X101845857Y-69414428D01*
X101845857Y-69757285D01*
X101788714Y-69871571D01*
X101731571Y-69928714D01*
X100645857Y-68843000D02*
X101845857Y-68443000D01*
X100645857Y-68043000D01*
X100645857Y-67757285D02*
X100645857Y-67014428D01*
X101103000Y-67414428D01*
X101103000Y-67243000D01*
X101160142Y-67128714D01*
X101217285Y-67071571D01*
X101331571Y-67014428D01*
X101617285Y-67014428D01*
X101731571Y-67071571D01*
X101788714Y-67128714D01*
X101845857Y-67243000D01*
X101845857Y-67585857D01*
X101788714Y-67700142D01*
X101731571Y-67757285D01*
X96708714Y-69871571D02*
X96765857Y-69700142D01*
X96765857Y-69414428D01*
X96708714Y-69300142D01*
X96651571Y-69243000D01*
X96537285Y-69185857D01*
X96423000Y-69185857D01*
X96308714Y-69243000D01*
X96251571Y-69300142D01*
X96194428Y-69414428D01*
X96137285Y-69643000D01*
X96080142Y-69757285D01*
X96023000Y-69814428D01*
X95908714Y-69871571D01*
X95794428Y-69871571D01*
X95680142Y-69814428D01*
X95623000Y-69757285D01*
X95565857Y-69643000D01*
X95565857Y-69357285D01*
X95623000Y-69185857D01*
X96651571Y-67985857D02*
X96708714Y-68043000D01*
X96765857Y-68214428D01*
X96765857Y-68328714D01*
X96708714Y-68500142D01*
X96594428Y-68614428D01*
X96480142Y-68671571D01*
X96251571Y-68728714D01*
X96080142Y-68728714D01*
X95851571Y-68671571D01*
X95737285Y-68614428D01*
X95623000Y-68500142D01*
X95565857Y-68328714D01*
X95565857Y-68214428D01*
X95623000Y-68043000D01*
X95680142Y-67985857D01*
X96765857Y-66900142D02*
X96765857Y-67471571D01*
X95565857Y-67471571D01*
X99248714Y-69900142D02*
X99305857Y-69728714D01*
X99305857Y-69443000D01*
X99248714Y-69328714D01*
X99191571Y-69271571D01*
X99077285Y-69214428D01*
X98963000Y-69214428D01*
X98848714Y-69271571D01*
X98791571Y-69328714D01*
X98734428Y-69443000D01*
X98677285Y-69671571D01*
X98620142Y-69785857D01*
X98563000Y-69843000D01*
X98448714Y-69900142D01*
X98334428Y-69900142D01*
X98220142Y-69843000D01*
X98163000Y-69785857D01*
X98105857Y-69671571D01*
X98105857Y-69385857D01*
X98163000Y-69214428D01*
X99305857Y-68700142D02*
X98105857Y-68700142D01*
X98105857Y-68414428D01*
X98163000Y-68243000D01*
X98277285Y-68128714D01*
X98391571Y-68071571D01*
X98620142Y-68014428D01*
X98791571Y-68014428D01*
X99020142Y-68071571D01*
X99134428Y-68128714D01*
X99248714Y-68243000D01*
X99305857Y-68414428D01*
X99305857Y-68700142D01*
X98963000Y-67557285D02*
X98963000Y-66985857D01*
X99305857Y-67671571D02*
X98105857Y-67271571D01*
X99305857Y-66871571D01*
X93083000Y-69357285D02*
X93025857Y-69471571D01*
X93025857Y-69643000D01*
X93083000Y-69814428D01*
X93197285Y-69928714D01*
X93311571Y-69985857D01*
X93540142Y-70043000D01*
X93711571Y-70043000D01*
X93940142Y-69985857D01*
X94054428Y-69928714D01*
X94168714Y-69814428D01*
X94225857Y-69643000D01*
X94225857Y-69528714D01*
X94168714Y-69357285D01*
X94111571Y-69300142D01*
X93711571Y-69300142D01*
X93711571Y-69528714D01*
X94225857Y-68785857D02*
X93025857Y-68785857D01*
X94225857Y-68100142D01*
X93025857Y-68100142D01*
X94225857Y-67528714D02*
X93025857Y-67528714D01*
X93025857Y-67243000D01*
X93083000Y-67071571D01*
X93197285Y-66957285D01*
X93311571Y-66900142D01*
X93540142Y-66843000D01*
X93711571Y-66843000D01*
X93940142Y-66900142D01*
X94054428Y-66957285D01*
X94168714Y-67071571D01*
X94225857Y-67243000D01*
X94225857Y-67528714D01*
X104767000Y-69357285D02*
X104709857Y-69471571D01*
X104709857Y-69643000D01*
X104767000Y-69814428D01*
X104881285Y-69928714D01*
X104995571Y-69985857D01*
X105224142Y-70043000D01*
X105395571Y-70043000D01*
X105624142Y-69985857D01*
X105738428Y-69928714D01*
X105852714Y-69814428D01*
X105909857Y-69643000D01*
X105909857Y-69528714D01*
X105852714Y-69357285D01*
X105795571Y-69300142D01*
X105395571Y-69300142D01*
X105395571Y-69528714D01*
X105909857Y-68785857D02*
X104709857Y-68785857D01*
X105909857Y-68100142D01*
X104709857Y-68100142D01*
X105909857Y-67528714D02*
X104709857Y-67528714D01*
X104709857Y-67243000D01*
X104767000Y-67071571D01*
X104881285Y-66957285D01*
X104995571Y-66900142D01*
X105224142Y-66843000D01*
X105395571Y-66843000D01*
X105624142Y-66900142D01*
X105738428Y-66957285D01*
X105852714Y-67071571D01*
X105909857Y-67243000D01*
X105909857Y-67528714D01*
X112329857Y-69928714D02*
X112329857Y-69185857D01*
X112787000Y-69585857D01*
X112787000Y-69414428D01*
X112844142Y-69300142D01*
X112901285Y-69243000D01*
X113015571Y-69185857D01*
X113301285Y-69185857D01*
X113415571Y-69243000D01*
X113472714Y-69300142D01*
X113529857Y-69414428D01*
X113529857Y-69757285D01*
X113472714Y-69871571D01*
X113415571Y-69928714D01*
X112329857Y-68843000D02*
X113529857Y-68443000D01*
X112329857Y-68043000D01*
X112329857Y-67757285D02*
X112329857Y-67014428D01*
X112787000Y-67414428D01*
X112787000Y-67243000D01*
X112844142Y-67128714D01*
X112901285Y-67071571D01*
X113015571Y-67014428D01*
X113301285Y-67014428D01*
X113415571Y-67071571D01*
X113472714Y-67128714D01*
X113529857Y-67243000D01*
X113529857Y-67585857D01*
X113472714Y-67700142D01*
X113415571Y-67757285D01*
X110932714Y-69900142D02*
X110989857Y-69728714D01*
X110989857Y-69443000D01*
X110932714Y-69328714D01*
X110875571Y-69271571D01*
X110761285Y-69214428D01*
X110647000Y-69214428D01*
X110532714Y-69271571D01*
X110475571Y-69328714D01*
X110418428Y-69443000D01*
X110361285Y-69671571D01*
X110304142Y-69785857D01*
X110247000Y-69843000D01*
X110132714Y-69900142D01*
X110018428Y-69900142D01*
X109904142Y-69843000D01*
X109847000Y-69785857D01*
X109789857Y-69671571D01*
X109789857Y-69385857D01*
X109847000Y-69214428D01*
X110989857Y-68700142D02*
X109789857Y-68700142D01*
X109789857Y-68414428D01*
X109847000Y-68243000D01*
X109961285Y-68128714D01*
X110075571Y-68071571D01*
X110304142Y-68014428D01*
X110475571Y-68014428D01*
X110704142Y-68071571D01*
X110818428Y-68128714D01*
X110932714Y-68243000D01*
X110989857Y-68414428D01*
X110989857Y-68700142D01*
X110647000Y-67557285D02*
X110647000Y-66985857D01*
X110989857Y-67671571D02*
X109789857Y-67271571D01*
X110989857Y-66871571D01*
X108392714Y-69871571D02*
X108449857Y-69700142D01*
X108449857Y-69414428D01*
X108392714Y-69300142D01*
X108335571Y-69243000D01*
X108221285Y-69185857D01*
X108107000Y-69185857D01*
X107992714Y-69243000D01*
X107935571Y-69300142D01*
X107878428Y-69414428D01*
X107821285Y-69643000D01*
X107764142Y-69757285D01*
X107707000Y-69814428D01*
X107592714Y-69871571D01*
X107478428Y-69871571D01*
X107364142Y-69814428D01*
X107307000Y-69757285D01*
X107249857Y-69643000D01*
X107249857Y-69357285D01*
X107307000Y-69185857D01*
X108335571Y-67985857D02*
X108392714Y-68043000D01*
X108449857Y-68214428D01*
X108449857Y-68328714D01*
X108392714Y-68500142D01*
X108278428Y-68614428D01*
X108164142Y-68671571D01*
X107935571Y-68728714D01*
X107764142Y-68728714D01*
X107535571Y-68671571D01*
X107421285Y-68614428D01*
X107307000Y-68500142D01*
X107249857Y-68328714D01*
X107249857Y-68214428D01*
X107307000Y-68043000D01*
X107364142Y-67985857D01*
X108449857Y-66900142D02*
X108449857Y-67471571D01*
X107249857Y-67471571D01*
D13*
X128922000Y-125627600D02*
X127592000Y-125627600D01*
X128922000Y-124297600D02*
X128922000Y-125627600D01*
X128922000Y-123027600D02*
X126262000Y-123027600D01*
X126262000Y-123027600D02*
X126262000Y-100107600D01*
X128922000Y-123027600D02*
X128922000Y-100107600D01*
X128922000Y-100107600D02*
X126262000Y-100107600D01*
X129758400Y-65883600D02*
X129758400Y-63883600D01*
X127518400Y-65883600D02*
X129758400Y-65883600D01*
X126434400Y-59263600D02*
X126527400Y-59357600D01*
X124183400Y-57013600D02*
X124242400Y-57072600D01*
X126674400Y-59093600D02*
X126732400Y-59152600D01*
X124389400Y-56808600D02*
X124482400Y-56902600D01*
X121398400Y-55523600D02*
X129518400Y-55523600D01*
X121398400Y-65643600D02*
X129518400Y-65643600D01*
X129518400Y-65643600D02*
X129518400Y-55523600D01*
X121398400Y-65643600D02*
X121398400Y-55523600D01*
X123458400Y-65643600D02*
X123458400Y-55523600D01*
X127458400Y-65643600D02*
X127458400Y-55523600D01*
X127138400Y-58083600D02*
G75*
G03X127138400Y-58083600I-1680000J0D01*
G01*
X127138850Y-63054217D02*
G75*
G02X126942400Y-63872600I-1680450J-29383D01*
G01*
X126247488Y-64567553D02*
G75*
G02X124669400Y-64567600I-789088J1483953D01*
G01*
X123974447Y-63872688D02*
G75*
G02X123974400Y-62294600I1483953J789088D01*
G01*
X124669312Y-61599647D02*
G75*
G02X126247400Y-61599600I789088J-1483953D01*
G01*
X126941752Y-62294888D02*
G75*
G02X127138400Y-63083600I-1483352J-788712D01*
G01*
X75762000Y-76592200D02*
X75762000Y-77832200D01*
X77002000Y-76592200D02*
X75762000Y-76592200D01*
X84622000Y-88553200D02*
X76002000Y-88553200D01*
X84622000Y-76832200D02*
X76002000Y-76832200D01*
X76002000Y-76832200D02*
X76002000Y-88553200D01*
X84622000Y-76832200D02*
X84622000Y-88553200D01*
X74578600Y-120861800D02*
X74578600Y-122111800D01*
X73953600Y-121486800D02*
X75203600Y-121486800D01*
X75443600Y-128442363D02*
X76508037Y-129506800D01*
X75443600Y-120051237D02*
X76508037Y-118986800D01*
X75443600Y-120051237D02*
X75443600Y-122736800D01*
X75443600Y-128442363D02*
X75443600Y-125756800D01*
X76508037Y-129506800D02*
X85963600Y-129506800D01*
X76508037Y-118986800D02*
X85963600Y-118986800D01*
X85963600Y-118986800D02*
X85963600Y-122736800D01*
X85963600Y-129506800D02*
X85963600Y-125756800D01*
X123225200Y-88646379D02*
X123225200Y-88320821D01*
X122205200Y-88646379D02*
X122205200Y-88320821D01*
X123675200Y-96226800D02*
X123675200Y-97146800D01*
X121755200Y-96226800D02*
X121755200Y-97146800D01*
X120455200Y-91356800D02*
X121655200Y-91356800D01*
X120455200Y-96226800D02*
X120455200Y-91356800D01*
X124975200Y-91356800D02*
X124975200Y-96226800D01*
X123775200Y-91356800D02*
X124975200Y-91356800D01*
X120455200Y-96226800D02*
X121755200Y-96226800D01*
X123675200Y-96226800D02*
X124975200Y-96226800D01*
X91467200Y-145514000D02*
X93467200Y-145514000D01*
X91467200Y-143274000D02*
X91467200Y-145514000D01*
X98087200Y-142190000D02*
X97993200Y-142283000D01*
X100337200Y-139939000D02*
X100278200Y-139998000D01*
X98257200Y-142430000D02*
X98198200Y-142488000D01*
X100542200Y-140145000D02*
X100448200Y-140238000D01*
X101827200Y-137154000D02*
X101827200Y-145274000D01*
X91707200Y-137154000D02*
X91707200Y-145274000D01*
X91707200Y-145274000D02*
X101827200Y-145274000D01*
X91707200Y-137154000D02*
X101827200Y-137154000D01*
X91707200Y-139214000D02*
X101827200Y-139214000D01*
X91707200Y-143214000D02*
X101827200Y-143214000D01*
X100947200Y-141214000D02*
G75*
G03X100947200Y-141214000I-1680000J0D01*
G01*
X94296583Y-142894450D02*
G75*
G02X93478200Y-142698000I-29383J1680450D01*
G01*
X92783247Y-142003088D02*
G75*
G02X92783200Y-140425000I1483953J789088D01*
G01*
X93478112Y-139730047D02*
G75*
G02X95056200Y-139730000I789088J-1483953D01*
G01*
X95751153Y-140424912D02*
G75*
G02X95751200Y-142003000I-1483953J-789088D01*
G01*
X95055912Y-142697352D02*
G75*
G02X94267200Y-142894000I-788712J1483352D01*
G01*
X107426400Y-127914779D02*
X107426400Y-127589221D01*
X106406400Y-127914779D02*
X106406400Y-127589221D01*
X105800800Y-127914779D02*
X105800800Y-127589221D01*
X104780800Y-127914779D02*
X104780800Y-127589221D01*
X106182200Y-123219000D02*
X106182200Y-125504000D01*
X107652200Y-123219000D02*
X106182200Y-123219000D01*
X107652200Y-125504000D02*
X107652200Y-123219000D01*
X104555800Y-123219000D02*
X104555800Y-125504000D01*
X106025800Y-123219000D02*
X104555800Y-123219000D01*
X106025800Y-125504000D02*
X106025800Y-123219000D01*
X112658800Y-96418779D02*
X112658800Y-96093221D01*
X111638800Y-96418779D02*
X111638800Y-96093221D01*
X117658000Y-139956000D02*
X115118000Y-139956000D01*
X117658000Y-139956000D02*
X117658000Y-137416000D01*
X117408000Y-139706000D02*
X108058000Y-139706000D01*
X117408000Y-123926000D02*
X117408000Y-139706000D01*
X108058000Y-123926000D02*
X117408000Y-123926000D01*
X108058000Y-139706000D02*
X108058000Y-123926000D01*
X79880421Y-107942000D02*
X80205979Y-107942000D01*
X79880421Y-106922000D02*
X80205979Y-106922000D01*
X82974679Y-116066000D02*
X82649121Y-116066000D01*
X82974679Y-117086000D02*
X82649121Y-117086000D01*
X79931221Y-93108400D02*
X80256779Y-93108400D01*
X79931221Y-92088400D02*
X80256779Y-92088400D01*
X82999979Y-101232400D02*
X82674421Y-101232400D01*
X82999979Y-102252400D02*
X82674421Y-102252400D01*
X84228800Y-112004000D02*
X84228800Y-108554000D01*
X84228800Y-112004000D02*
X84228800Y-113954000D01*
X79108800Y-112004000D02*
X79108800Y-110054000D01*
X79108800Y-112004000D02*
X79108800Y-113954000D01*
X84228800Y-97170400D02*
X84228800Y-93720400D01*
X84228800Y-97170400D02*
X84228800Y-99120400D01*
X79108800Y-97170400D02*
X79108800Y-95220400D01*
X79108800Y-97170400D02*
X79108800Y-99120400D01*
X83030021Y-106367200D02*
X83355579Y-106367200D01*
X83030021Y-105347200D02*
X83355579Y-105347200D01*
X83355579Y-106922000D02*
X83030021Y-106922000D01*
X83355579Y-107942000D02*
X83030021Y-107942000D01*
X83030021Y-91533600D02*
X83355579Y-91533600D01*
X83030021Y-90513600D02*
X83355579Y-90513600D01*
X83355579Y-92088400D02*
X83030021Y-92088400D01*
X83355579Y-93108400D02*
X83030021Y-93108400D01*
X66142000Y-77381600D02*
X66142000Y-79381600D01*
X68382000Y-77381600D02*
X66142000Y-77381600D01*
X69466000Y-84001600D02*
X69373000Y-83907600D01*
X71717000Y-86251600D02*
X71658000Y-86192600D01*
X69226000Y-84171600D02*
X69168000Y-84112600D01*
X71511000Y-86456600D02*
X71418000Y-86362600D01*
X74502000Y-87741600D02*
X66382000Y-87741600D01*
X74502000Y-77621600D02*
X66382000Y-77621600D01*
X66382000Y-77621600D02*
X66382000Y-87741600D01*
X74502000Y-77621600D02*
X74502000Y-87741600D01*
X72442000Y-77621600D02*
X72442000Y-87741600D01*
X68442000Y-77621600D02*
X68442000Y-87741600D01*
X72122000Y-85181600D02*
G75*
G03X72122000Y-85181600I-1680000J0D01*
G01*
X68761550Y-80210983D02*
G75*
G02X68958000Y-79392600I1680450J29383D01*
G01*
X69652912Y-78697647D02*
G75*
G02X71231000Y-78697600I789088J-1483953D01*
G01*
X71925953Y-79392512D02*
G75*
G02X71926000Y-80970600I-1483953J-789088D01*
G01*
X71231088Y-81665553D02*
G75*
G02X69653000Y-81665600I-789088J1483953D01*
G01*
X68958648Y-80970312D02*
G75*
G02X68762000Y-80181600I1483352J788712D01*
G01*
X66142000Y-105038800D02*
X66142000Y-107038800D01*
X68382000Y-105038800D02*
X66142000Y-105038800D01*
X69466000Y-116658800D02*
X69373000Y-116564800D01*
X71717000Y-118908800D02*
X71658000Y-118849800D01*
X69226000Y-116828800D02*
X69168000Y-116769800D01*
X71511000Y-119113800D02*
X71418000Y-119019800D01*
X69466000Y-111658800D02*
X69373000Y-111564800D01*
X71717000Y-113908800D02*
X71658000Y-113849800D01*
X69226000Y-111828800D02*
X69168000Y-111769800D01*
X71511000Y-114113800D02*
X71418000Y-114019800D01*
X74502000Y-120398800D02*
X66382000Y-120398800D01*
X74502000Y-105278800D02*
X66382000Y-105278800D01*
X66382000Y-105278800D02*
X66382000Y-120398800D01*
X74502000Y-105278800D02*
X74502000Y-120398800D01*
X72442000Y-105278800D02*
X72442000Y-120398800D01*
X68442000Y-105278800D02*
X68442000Y-120398800D01*
X72122000Y-117838800D02*
G75*
G03X72122000Y-117838800I-1680000J0D01*
G01*
X72122000Y-112838800D02*
G75*
G03X72122000Y-112838800I-1680000J0D01*
G01*
X68761550Y-107868183D02*
G75*
G02X68958000Y-107049800I1680450J29383D01*
G01*
X69652912Y-106354847D02*
G75*
G02X71231000Y-106354800I789088J-1483953D01*
G01*
X71925953Y-107049712D02*
G75*
G02X71926000Y-108627800I-1483953J-789088D01*
G01*
X71231088Y-109322753D02*
G75*
G02X69653000Y-109322800I-789088J1483953D01*
G01*
X68958648Y-108627512D02*
G75*
G02X68762000Y-107838800I1483352J788712D01*
G01*
X66142000Y-88833200D02*
X66142000Y-90833200D01*
X68382000Y-88833200D02*
X66142000Y-88833200D01*
X69466000Y-100453200D02*
X69373000Y-100359200D01*
X71717000Y-102703200D02*
X71658000Y-102644200D01*
X69226000Y-100623200D02*
X69168000Y-100564200D01*
X71511000Y-102908200D02*
X71418000Y-102814200D01*
X69466000Y-95453200D02*
X69373000Y-95359200D01*
X71717000Y-97703200D02*
X71658000Y-97644200D01*
X69226000Y-95623200D02*
X69168000Y-95564200D01*
X71511000Y-97908200D02*
X71418000Y-97814200D01*
X74502000Y-104193200D02*
X66382000Y-104193200D01*
X74502000Y-89073200D02*
X66382000Y-89073200D01*
X66382000Y-89073200D02*
X66382000Y-104193200D01*
X74502000Y-89073200D02*
X74502000Y-104193200D01*
X72442000Y-89073200D02*
X72442000Y-104193200D01*
X68442000Y-89073200D02*
X68442000Y-104193200D01*
X72122000Y-101633200D02*
G75*
G03X72122000Y-101633200I-1680000J0D01*
G01*
X72122000Y-96633200D02*
G75*
G03X72122000Y-96633200I-1680000J0D01*
G01*
X68761550Y-91662583D02*
G75*
G02X68958000Y-90844200I1680450J29383D01*
G01*
X69652912Y-90149247D02*
G75*
G02X71231000Y-90149200I789088J-1483953D01*
G01*
X71925953Y-90844112D02*
G75*
G02X71926000Y-92422200I-1483953J-789088D01*
G01*
X71231088Y-93117153D02*
G75*
G02X69653000Y-93117200I-789088J1483953D01*
G01*
X68958648Y-92421912D02*
G75*
G02X68762000Y-91633200I1483352J788712D01*
G01*
X79842000Y-67411979D02*
X79842000Y-67086421D01*
X78822000Y-67411979D02*
X78822000Y-67086421D01*
X74812800Y-67462779D02*
X74812800Y-67137221D01*
X73792800Y-67462779D02*
X73792800Y-67137221D01*
X71803221Y-65422400D02*
X72128779Y-65422400D01*
X71803221Y-64402400D02*
X72128779Y-64402400D01*
X71803221Y-66997200D02*
X72128779Y-66997200D01*
X71803221Y-65977200D02*
X72128779Y-65977200D01*
X81882379Y-65977200D02*
X81556821Y-65977200D01*
X81882379Y-66997200D02*
X81556821Y-66997200D01*
X87110400Y-54973600D02*
X85110400Y-54973600D01*
X87110400Y-57213600D02*
X87110400Y-54973600D01*
X70490400Y-58297600D02*
X70584400Y-58204600D01*
X68240400Y-60548600D02*
X68299400Y-60489600D01*
X70320400Y-58057600D02*
X70379400Y-57999600D01*
X68035400Y-60342600D02*
X68129400Y-60249600D01*
X75490400Y-58297600D02*
X75584400Y-58204600D01*
X73240400Y-60548600D02*
X73299400Y-60489600D01*
X75320400Y-58057600D02*
X75379400Y-57999600D01*
X73035400Y-60342600D02*
X73129400Y-60249600D01*
X80490400Y-58297600D02*
X80584400Y-58204600D01*
X78240400Y-60548600D02*
X78299400Y-60489600D01*
X80320400Y-58057600D02*
X80379400Y-57999600D01*
X78035400Y-60342600D02*
X78129400Y-60249600D01*
X66749400Y-63333600D02*
X66749400Y-55213600D01*
X86870400Y-63333600D02*
X86870400Y-55213600D01*
X86870400Y-55213600D02*
X66749400Y-55213600D01*
X86870400Y-63333600D02*
X66749400Y-63333600D01*
X86870400Y-61273600D02*
X66749400Y-61273600D01*
X86870400Y-57273600D02*
X66749400Y-57273600D01*
X70990400Y-59273600D02*
G75*
G03X70990400Y-59273600I-1680000J0D01*
G01*
X75990400Y-59273600D02*
G75*
G03X75990400Y-59273600I-1680000J0D01*
G01*
X80990400Y-59273600D02*
G75*
G03X80990400Y-59273600I-1680000J0D01*
G01*
X84281017Y-57593150D02*
G75*
G02X85099400Y-57789600I29383J-1680450D01*
G01*
X85794353Y-58484512D02*
G75*
G02X85794400Y-60062600I-1483953J-789088D01*
G01*
X85099488Y-60757553D02*
G75*
G02X83521400Y-60757600I-789088J1483953D01*
G01*
X82826447Y-60062688D02*
G75*
G02X82826400Y-58484600I1483953J789088D01*
G01*
X83521688Y-57790248D02*
G75*
G02X84310400Y-57593600I788712J-1483352D01*
G01*
X77005579Y-67552000D02*
X76680021Y-67552000D01*
X77005579Y-68572000D02*
X76680021Y-68572000D01*
X81882379Y-67552000D02*
X81556821Y-67552000D01*
X81882379Y-68572000D02*
X81556821Y-68572000D01*
X72128779Y-67552000D02*
X71803221Y-67552000D01*
X72128779Y-68572000D02*
X71803221Y-68572000D01*
X126211200Y-79025600D02*
X127541200Y-79025600D01*
X126211200Y-80355600D02*
X126211200Y-79025600D01*
X126211200Y-81625600D02*
X128871200Y-81625600D01*
X128871200Y-81625600D02*
X128871200Y-96925600D01*
X126211200Y-81625600D02*
X126211200Y-96925600D01*
X126211200Y-96925600D02*
X128871200Y-96925600D01*
X93438400Y-124533600D02*
X93438400Y-128633600D01*
X93438400Y-128633600D02*
X91438400Y-128633600D01*
X91438400Y-128633600D02*
X91438400Y-124533600D01*
X91438400Y-124533600D02*
X93438400Y-124533600D01*
X91238400Y-125283600D02*
X90938400Y-124983600D01*
X90938400Y-124983600D02*
X90938400Y-125583600D01*
X91238400Y-125283600D02*
X90938400Y-125583600D01*
X89236000Y-128503621D02*
X89236000Y-128829179D01*
X90256000Y-128503621D02*
X90256000Y-128829179D01*
X87762800Y-128503621D02*
X87762800Y-128829179D01*
X88782800Y-128503621D02*
X88782800Y-128829179D01*
X117940000Y-78670000D02*
X119270000Y-78670000D01*
X119270000Y-78670000D02*
X119270000Y-80000000D01*
X119270000Y-81270000D02*
X119270000Y-116890000D01*
X116610000Y-116890000D02*
X119270000Y-116890000D01*
X116610000Y-81270000D02*
X116610000Y-116890000D01*
X116610000Y-81270000D02*
X119270000Y-81270000D01*
X87460000Y-78670000D02*
X88790000Y-78670000D01*
X88790000Y-78670000D02*
X88790000Y-80000000D01*
X88790000Y-81270000D02*
X88790000Y-116890000D01*
X86130000Y-116890000D02*
X88790000Y-116890000D01*
X86130000Y-81270000D02*
X86130000Y-116890000D01*
X86130000Y-81270000D02*
X88790000Y-81270000D01*
X97554279Y-108446000D02*
X97228721Y-108446000D01*
X97554279Y-109466000D02*
X97228721Y-109466000D01*
X96098000Y-97688779D02*
X96098000Y-97363221D01*
X95078000Y-97688779D02*
X95078000Y-97363221D01*
X96508000Y-99922000D02*
X97208000Y-99922000D01*
X97208000Y-107322000D02*
X96508000Y-107322000D01*
X97208000Y-108072000D02*
X97208000Y-107322000D01*
X99558000Y-99922000D02*
X99008000Y-99922000D01*
X99558000Y-107322000D02*
X99558000Y-99922000D01*
X99008000Y-107322000D02*
X99558000Y-107322000D01*
X99008000Y-108072000D02*
X99008000Y-107322000D01*
X94158000Y-99922000D02*
X94708000Y-99922000D01*
X94158000Y-107322000D02*
X94158000Y-99922000D01*
X94708000Y-107322000D02*
X94158000Y-107322000D01*
X101109000Y-65141000D02*
X101109000Y-66251000D01*
X101109000Y-66251000D02*
X99779000Y-66251000D01*
X101109000Y-55051000D02*
X90829000Y-55051000D01*
X90829000Y-55051000D02*
X90829000Y-63681000D01*
X101109000Y-63681000D02*
X90829000Y-63681000D01*
X101109000Y-55051000D02*
X101109000Y-63681000D01*
X93429000Y-55051000D02*
X93429000Y-63681000D01*
X95969000Y-55051000D02*
X95969000Y-63681000D01*
X98509000Y-55051000D02*
X98509000Y-63681000D01*
X91799000Y-63681000D02*
X91799000Y-64091000D01*
X92519000Y-63681000D02*
X92519000Y-64091000D01*
X94339000Y-63681000D02*
X94339000Y-64091000D01*
X95059000Y-63681000D02*
X95059000Y-64091000D01*
X96879000Y-63681000D02*
X96879000Y-64091000D01*
X97599000Y-63681000D02*
X97599000Y-64091000D01*
X99419000Y-63681000D02*
X99419000Y-64031000D01*
X100139000Y-63681000D02*
X100139000Y-64031000D01*
X98627100Y-55051000D02*
X98627100Y-63681000D01*
X98745195Y-55051000D02*
X98745195Y-63681000D01*
X98863290Y-55051000D02*
X98863290Y-63681000D01*
X98981385Y-55051000D02*
X98981385Y-63681000D01*
X99099480Y-55051000D02*
X99099480Y-63681000D01*
X99217575Y-55051000D02*
X99217575Y-63681000D01*
X99335670Y-55051000D02*
X99335670Y-63681000D01*
X99453765Y-55051000D02*
X99453765Y-63681000D01*
X99571860Y-55051000D02*
X99571860Y-63681000D01*
X99689955Y-55051000D02*
X99689955Y-63681000D01*
X99808050Y-55051000D02*
X99808050Y-63681000D01*
X99926145Y-55051000D02*
X99926145Y-63681000D01*
X100044240Y-55051000D02*
X100044240Y-63681000D01*
X100162335Y-55051000D02*
X100162335Y-63681000D01*
X100280430Y-55051000D02*
X100280430Y-63681000D01*
X100398525Y-55051000D02*
X100398525Y-63681000D01*
X100516620Y-55051000D02*
X100516620Y-63681000D01*
X100634715Y-55051000D02*
X100634715Y-63681000D01*
X100752810Y-55051000D02*
X100752810Y-63681000D01*
X100870905Y-55051000D02*
X100870905Y-63681000D01*
X100989000Y-55051000D02*
X100989000Y-63681000D01*
X114317000Y-65141000D02*
X114317000Y-66251000D01*
X114317000Y-66251000D02*
X112987000Y-66251000D01*
X114317000Y-55051000D02*
X104037000Y-55051000D01*
X104037000Y-55051000D02*
X104037000Y-63681000D01*
X114317000Y-63681000D02*
X104037000Y-63681000D01*
X114317000Y-55051000D02*
X114317000Y-63681000D01*
X106637000Y-55051000D02*
X106637000Y-63681000D01*
X109177000Y-55051000D02*
X109177000Y-63681000D01*
X111717000Y-55051000D02*
X111717000Y-63681000D01*
X105007000Y-63681000D02*
X105007000Y-64091000D01*
X105727000Y-63681000D02*
X105727000Y-64091000D01*
X107547000Y-63681000D02*
X107547000Y-64091000D01*
X108267000Y-63681000D02*
X108267000Y-64091000D01*
X110087000Y-63681000D02*
X110087000Y-64091000D01*
X110807000Y-63681000D02*
X110807000Y-64091000D01*
X112627000Y-63681000D02*
X112627000Y-64031000D01*
X113347000Y-63681000D02*
X113347000Y-64031000D01*
X111835100Y-55051000D02*
X111835100Y-63681000D01*
X111953195Y-55051000D02*
X111953195Y-63681000D01*
X112071290Y-55051000D02*
X112071290Y-63681000D01*
X112189385Y-55051000D02*
X112189385Y-63681000D01*
X112307480Y-55051000D02*
X112307480Y-63681000D01*
X112425575Y-55051000D02*
X112425575Y-63681000D01*
X112543670Y-55051000D02*
X112543670Y-63681000D01*
X112661765Y-55051000D02*
X112661765Y-63681000D01*
X112779860Y-55051000D02*
X112779860Y-63681000D01*
X112897955Y-55051000D02*
X112897955Y-63681000D01*
X113016050Y-55051000D02*
X113016050Y-63681000D01*
X113134145Y-55051000D02*
X113134145Y-63681000D01*
X113252240Y-55051000D02*
X113252240Y-63681000D01*
X113370335Y-55051000D02*
X113370335Y-63681000D01*
X113488430Y-55051000D02*
X113488430Y-63681000D01*
X113606525Y-55051000D02*
X113606525Y-63681000D01*
X113724620Y-55051000D02*
X113724620Y-63681000D01*
X113842715Y-55051000D02*
X113842715Y-63681000D01*
X113960810Y-55051000D02*
X113960810Y-63681000D01*
X114078905Y-55051000D02*
X114078905Y-63681000D01*
X114197000Y-55051000D02*
X114197000Y-63681000D01*
X93634779Y-112520000D02*
X93309221Y-112520000D01*
X93634779Y-113540000D02*
X93309221Y-113540000D01*
X93634779Y-109980000D02*
X93309221Y-109980000D01*
X93634779Y-111000000D02*
X93309221Y-111000000D01*
X99052779Y-128770000D02*
X98727221Y-128770000D01*
X99052779Y-127750000D02*
X98727221Y-127750000D01*
X102100779Y-128770000D02*
X101775221Y-128770000D01*
X102100779Y-127750000D02*
X101775221Y-127750000D01*
X95933221Y-118606000D02*
X96258779Y-118606000D01*
X95933221Y-119626000D02*
X96258779Y-119626000D01*
X95844000Y-125049221D02*
X95844000Y-125374779D01*
X94824000Y-125049221D02*
X94824000Y-125374779D01*
X96330000Y-123688000D02*
X96330000Y-125638000D01*
X96330000Y-123688000D02*
X96330000Y-121738000D01*
X101450000Y-123688000D02*
X101450000Y-125638000D01*
X101450000Y-123688000D02*
X101450000Y-120238000D01*
D10*
X101361000Y-93237000D02*
X99936000Y-93237000D01*
X108611000Y-93012000D02*
X108286000Y-93012000D01*
X108611000Y-100262000D02*
X108286000Y-100262000D01*
X101361000Y-100262000D02*
X101686000Y-100262000D01*
X101361000Y-93012000D02*
X101686000Y-93012000D01*
X101361000Y-100262000D02*
X101361000Y-99937000D01*
X108611000Y-100262000D02*
X108611000Y-99937000D01*
X108611000Y-93012000D02*
X108611000Y-93337000D01*
X101361000Y-93012000D02*
X101361000Y-93237000D01*
D14*
X87989600Y-124316800D02*
X87989600Y-124066800D01*
X90689600Y-124166800D02*
X90689600Y-124316800D01*
X90539600Y-124166800D02*
X90689600Y-124166800D01*
X90689600Y-126866800D02*
X90539600Y-126866800D01*
X90689600Y-126866800D02*
X90689600Y-126716800D01*
X87989600Y-126866800D02*
X87989600Y-126716800D01*
X87989600Y-126876800D02*
X88139600Y-126876800D01*
D13*
X115400000Y-78670000D02*
X116730000Y-78670000D01*
X116730000Y-78670000D02*
X116730000Y-80000000D01*
X116730000Y-81270000D02*
X116730000Y-116890000D01*
X114070000Y-116890000D02*
X116730000Y-116890000D01*
X114070000Y-81270000D02*
X114070000Y-116890000D01*
X114070000Y-81270000D02*
X116730000Y-81270000D01*
X90000000Y-78670000D02*
X91330000Y-78670000D01*
X91330000Y-78670000D02*
X91330000Y-80000000D01*
X91330000Y-81270000D02*
X91330000Y-116890000D01*
X88670000Y-116890000D02*
X91330000Y-116890000D01*
X88670000Y-81270000D02*
X88670000Y-116890000D01*
X88670000Y-81270000D02*
X91330000Y-81270000D01*
D10*
X87968095Y-68252380D02*
X87968095Y-67252380D01*
X87968095Y-67728571D02*
X88539523Y-67728571D01*
X88539523Y-68252380D02*
X88539523Y-67252380D01*
X89444285Y-67252380D02*
X89253809Y-67252380D01*
X89158571Y-67300000D01*
X89110952Y-67347619D01*
X89015714Y-67490476D01*
X88968095Y-67680952D01*
X88968095Y-68061904D01*
X89015714Y-68157142D01*
X89063333Y-68204761D01*
X89158571Y-68252380D01*
X89349047Y-68252380D01*
X89444285Y-68204761D01*
X89491904Y-68157142D01*
X89539523Y-68061904D01*
X89539523Y-67823809D01*
X89491904Y-67728571D01*
X89444285Y-67680952D01*
X89349047Y-67633333D01*
X89158571Y-67633333D01*
X89063333Y-67680952D01*
X89015714Y-67728571D01*
X88968095Y-67823809D01*
X122238095Y-130252380D02*
X122238095Y-129252380D01*
X122238095Y-129728571D02*
X122809523Y-129728571D01*
X122809523Y-130252380D02*
X122809523Y-129252380D01*
X123761904Y-129252380D02*
X123285714Y-129252380D01*
X123238095Y-129728571D01*
X123285714Y-129680952D01*
X123380952Y-129633333D01*
X123619047Y-129633333D01*
X123714285Y-129680952D01*
X123761904Y-129728571D01*
X123809523Y-129823809D01*
X123809523Y-130061904D01*
X123761904Y-130157142D01*
X123714285Y-130204761D01*
X123619047Y-130252380D01*
X123380952Y-130252380D01*
X123285714Y-130204761D01*
X123238095Y-130157142D01*
X122238095Y-68252380D02*
X122238095Y-67252380D01*
X122238095Y-67728571D02*
X122809523Y-67728571D01*
X122809523Y-68252380D02*
X122809523Y-67252380D01*
X123714285Y-67585714D02*
X123714285Y-68252380D01*
X123476190Y-67204761D02*
X123238095Y-67919047D01*
X123857142Y-67919047D01*
X72238095Y-130252380D02*
X72238095Y-129252380D01*
X72238095Y-129728571D02*
X72809523Y-129728571D01*
X72809523Y-130252380D02*
X72809523Y-129252380D01*
X73190476Y-129252380D02*
X73809523Y-129252380D01*
X73476190Y-129633333D01*
X73619047Y-129633333D01*
X73714285Y-129680952D01*
X73761904Y-129728571D01*
X73809523Y-129823809D01*
X73809523Y-130061904D01*
X73761904Y-130157142D01*
X73714285Y-130204761D01*
X73619047Y-130252380D01*
X73333333Y-130252380D01*
X73238095Y-130204761D01*
X73190476Y-130157142D01*
X126782476Y-126079980D02*
X126782476Y-126794266D01*
X126734857Y-126937123D01*
X126639619Y-127032361D01*
X126496761Y-127079980D01*
X126401523Y-127079980D01*
X127782476Y-127079980D02*
X127211047Y-127079980D01*
X127496761Y-127079980D02*
X127496761Y-126079980D01*
X127401523Y-126222838D01*
X127306285Y-126318076D01*
X127211047Y-126365695D01*
X128687238Y-126079980D02*
X128211047Y-126079980D01*
X128163428Y-126556171D01*
X128211047Y-126508552D01*
X128306285Y-126460933D01*
X128544380Y-126460933D01*
X128639619Y-126508552D01*
X128687238Y-126556171D01*
X128734857Y-126651409D01*
X128734857Y-126889504D01*
X128687238Y-126984742D01*
X128639619Y-127032361D01*
X128544380Y-127079980D01*
X128306285Y-127079980D01*
X128211047Y-127032361D01*
X128163428Y-126984742D01*
X127442876Y-66345980D02*
X127442876Y-67060266D01*
X127395257Y-67203123D01*
X127300019Y-67298361D01*
X127157161Y-67345980D01*
X127061923Y-67345980D01*
X128442876Y-67345980D02*
X127871447Y-67345980D01*
X128157161Y-67345980D02*
X128157161Y-66345980D01*
X128061923Y-66488838D01*
X127966685Y-66584076D01*
X127871447Y-66631695D01*
X129300019Y-66679314D02*
X129300019Y-67345980D01*
X129061923Y-66298361D02*
X128823828Y-67012647D01*
X129442876Y-67012647D01*
X77655695Y-75489980D02*
X77655695Y-76299504D01*
X77703314Y-76394742D01*
X77750933Y-76442361D01*
X77846171Y-76489980D01*
X78036647Y-76489980D01*
X78131885Y-76442361D01*
X78179504Y-76394742D01*
X78227123Y-76299504D01*
X78227123Y-75489980D01*
X78608076Y-75489980D02*
X79274742Y-75489980D01*
X78846171Y-76489980D01*
X80467142Y-131055542D02*
X80419523Y-131103161D01*
X80276666Y-131150780D01*
X80181428Y-131150780D01*
X80038571Y-131103161D01*
X79943333Y-131007923D01*
X79895714Y-130912685D01*
X79848095Y-130722209D01*
X79848095Y-130579352D01*
X79895714Y-130388876D01*
X79943333Y-130293638D01*
X80038571Y-130198400D01*
X80181428Y-130150780D01*
X80276666Y-130150780D01*
X80419523Y-130198400D01*
X80467142Y-130246019D01*
X80848095Y-130246019D02*
X80895714Y-130198400D01*
X80990952Y-130150780D01*
X81229047Y-130150780D01*
X81324285Y-130198400D01*
X81371904Y-130246019D01*
X81419523Y-130341257D01*
X81419523Y-130436495D01*
X81371904Y-130579352D01*
X80800476Y-131150780D01*
X81419523Y-131150780D01*
X81752857Y-130150780D02*
X82371904Y-130150780D01*
X82038571Y-130531733D01*
X82181428Y-130531733D01*
X82276666Y-130579352D01*
X82324285Y-130626971D01*
X82371904Y-130722209D01*
X82371904Y-130960304D01*
X82324285Y-131055542D01*
X82276666Y-131103161D01*
X82181428Y-131150780D01*
X81895714Y-131150780D01*
X81800476Y-131103161D01*
X81752857Y-131055542D01*
X121737580Y-89126457D02*
X121261390Y-89459790D01*
X121737580Y-89697885D02*
X120737580Y-89697885D01*
X120737580Y-89316933D01*
X120785200Y-89221695D01*
X120832819Y-89174076D01*
X120928057Y-89126457D01*
X121070914Y-89126457D01*
X121166152Y-89174076D01*
X121213771Y-89221695D01*
X121261390Y-89316933D01*
X121261390Y-89697885D01*
X120832819Y-88745504D02*
X120785200Y-88697885D01*
X120737580Y-88602647D01*
X120737580Y-88364552D01*
X120785200Y-88269314D01*
X120832819Y-88221695D01*
X120928057Y-88174076D01*
X121023295Y-88174076D01*
X121166152Y-88221695D01*
X121737580Y-88793123D01*
X121737580Y-88174076D01*
X121070914Y-87316933D02*
X121737580Y-87316933D01*
X120689961Y-87555028D02*
X121404247Y-87793123D01*
X121404247Y-87174076D01*
X124110704Y-97571980D02*
X124110704Y-96571980D01*
X124348800Y-96571980D01*
X124491657Y-96619600D01*
X124586895Y-96714838D01*
X124634514Y-96810076D01*
X124682133Y-97000552D01*
X124682133Y-97143409D01*
X124634514Y-97333885D01*
X124586895Y-97429123D01*
X124491657Y-97524361D01*
X124348800Y-97571980D01*
X124110704Y-97571980D01*
X125015466Y-96571980D02*
X125682133Y-96571980D01*
X125253561Y-97571980D01*
X89858780Y-143852323D02*
X90573066Y-143852323D01*
X90715923Y-143899942D01*
X90811161Y-143995180D01*
X90858780Y-144138038D01*
X90858780Y-144233276D01*
X90858780Y-142852323D02*
X90858780Y-143423752D01*
X90858780Y-143138038D02*
X89858780Y-143138038D01*
X90001638Y-143233276D01*
X90096876Y-143328514D01*
X90144495Y-143423752D01*
X89858780Y-142518990D02*
X89858780Y-141899942D01*
X90239733Y-142233276D01*
X90239733Y-142090419D01*
X90287352Y-141995180D01*
X90334971Y-141947561D01*
X90430209Y-141899942D01*
X90668304Y-141899942D01*
X90763542Y-141947561D01*
X90811161Y-141995180D01*
X90858780Y-142090419D01*
X90858780Y-142376133D01*
X90811161Y-142471371D01*
X90763542Y-142518990D01*
X107571980Y-131392057D02*
X107095790Y-131725390D01*
X107571980Y-131963485D02*
X106571980Y-131963485D01*
X106571980Y-131582533D01*
X106619600Y-131487295D01*
X106667219Y-131439676D01*
X106762457Y-131392057D01*
X106905314Y-131392057D01*
X107000552Y-131439676D01*
X107048171Y-131487295D01*
X107095790Y-131582533D01*
X107095790Y-131963485D01*
X106667219Y-131011104D02*
X106619600Y-130963485D01*
X106571980Y-130868247D01*
X106571980Y-130630152D01*
X106619600Y-130534914D01*
X106667219Y-130487295D01*
X106762457Y-130439676D01*
X106857695Y-130439676D01*
X107000552Y-130487295D01*
X107571980Y-131058723D01*
X107571980Y-130439676D01*
X106571980Y-130106342D02*
X106571980Y-129487295D01*
X106952933Y-129820628D01*
X106952933Y-129677771D01*
X107000552Y-129582533D01*
X107048171Y-129534914D01*
X107143409Y-129487295D01*
X107381504Y-129487295D01*
X107476742Y-129534914D01*
X107524361Y-129582533D01*
X107571980Y-129677771D01*
X107571980Y-129963485D01*
X107524361Y-130058723D01*
X107476742Y-130106342D01*
X106047980Y-131392057D02*
X105571790Y-131725390D01*
X106047980Y-131963485D02*
X105047980Y-131963485D01*
X105047980Y-131582533D01*
X105095600Y-131487295D01*
X105143219Y-131439676D01*
X105238457Y-131392057D01*
X105381314Y-131392057D01*
X105476552Y-131439676D01*
X105524171Y-131487295D01*
X105571790Y-131582533D01*
X105571790Y-131963485D01*
X105143219Y-131011104D02*
X105095600Y-130963485D01*
X105047980Y-130868247D01*
X105047980Y-130630152D01*
X105095600Y-130534914D01*
X105143219Y-130487295D01*
X105238457Y-130439676D01*
X105333695Y-130439676D01*
X105476552Y-130487295D01*
X106047980Y-131058723D01*
X106047980Y-130439676D01*
X105143219Y-130058723D02*
X105095600Y-130011104D01*
X105047980Y-129915866D01*
X105047980Y-129677771D01*
X105095600Y-129582533D01*
X105143219Y-129534914D01*
X105238457Y-129487295D01*
X105333695Y-129487295D01*
X105476552Y-129534914D01*
X106047980Y-130106342D01*
X106047980Y-129487295D01*
X107368780Y-122851295D02*
X106368780Y-122851295D01*
X106368780Y-122613200D01*
X106416400Y-122470342D01*
X106511638Y-122375104D01*
X106606876Y-122327485D01*
X106797352Y-122279866D01*
X106940209Y-122279866D01*
X107130685Y-122327485D01*
X107225923Y-122375104D01*
X107321161Y-122470342D01*
X107368780Y-122613200D01*
X107368780Y-122851295D01*
X106368780Y-121422723D02*
X106368780Y-121613200D01*
X106416400Y-121708438D01*
X106464019Y-121756057D01*
X106606876Y-121851295D01*
X106797352Y-121898914D01*
X107178304Y-121898914D01*
X107273542Y-121851295D01*
X107321161Y-121803676D01*
X107368780Y-121708438D01*
X107368780Y-121517961D01*
X107321161Y-121422723D01*
X107273542Y-121375104D01*
X107178304Y-121327485D01*
X106940209Y-121327485D01*
X106844971Y-121375104D01*
X106797352Y-121422723D01*
X106749733Y-121517961D01*
X106749733Y-121708438D01*
X106797352Y-121803676D01*
X106844971Y-121851295D01*
X106940209Y-121898914D01*
X105793980Y-122800495D02*
X104793980Y-122800495D01*
X104793980Y-122562400D01*
X104841600Y-122419542D01*
X104936838Y-122324304D01*
X105032076Y-122276685D01*
X105222552Y-122229066D01*
X105365409Y-122229066D01*
X105555885Y-122276685D01*
X105651123Y-122324304D01*
X105746361Y-122419542D01*
X105793980Y-122562400D01*
X105793980Y-122800495D01*
X104793980Y-121324304D02*
X104793980Y-121800495D01*
X105270171Y-121848114D01*
X105222552Y-121800495D01*
X105174933Y-121705257D01*
X105174933Y-121467161D01*
X105222552Y-121371923D01*
X105270171Y-121324304D01*
X105365409Y-121276685D01*
X105603504Y-121276685D01*
X105698742Y-121324304D01*
X105746361Y-121371923D01*
X105793980Y-121467161D01*
X105793980Y-121705257D01*
X105746361Y-121800495D01*
X105698742Y-121848114D01*
X112505942Y-100150057D02*
X112553561Y-100197676D01*
X112601180Y-100340533D01*
X112601180Y-100435771D01*
X112553561Y-100578628D01*
X112458323Y-100673866D01*
X112363085Y-100721485D01*
X112172609Y-100769104D01*
X112029752Y-100769104D01*
X111839276Y-100721485D01*
X111744038Y-100673866D01*
X111648800Y-100578628D01*
X111601180Y-100435771D01*
X111601180Y-100340533D01*
X111648800Y-100197676D01*
X111696419Y-100150057D01*
X112601180Y-99197676D02*
X112601180Y-99769104D01*
X112601180Y-99483390D02*
X111601180Y-99483390D01*
X111744038Y-99578628D01*
X111839276Y-99673866D01*
X111886895Y-99769104D01*
X112601180Y-98721485D02*
X112601180Y-98531009D01*
X112553561Y-98435771D01*
X112505942Y-98388152D01*
X112363085Y-98292914D01*
X112172609Y-98245295D01*
X111791657Y-98245295D01*
X111696419Y-98292914D01*
X111648800Y-98340533D01*
X111601180Y-98435771D01*
X111601180Y-98626247D01*
X111648800Y-98721485D01*
X111696419Y-98769104D01*
X111791657Y-98816723D01*
X112029752Y-98816723D01*
X112124990Y-98769104D01*
X112172609Y-98721485D01*
X112220228Y-98626247D01*
X112220228Y-98435771D01*
X112172609Y-98340533D01*
X112124990Y-98292914D01*
X112029752Y-98245295D01*
X79400342Y-106359142D02*
X79352723Y-106406761D01*
X79209866Y-106454380D01*
X79114628Y-106454380D01*
X78971771Y-106406761D01*
X78876533Y-106311523D01*
X78828914Y-106216285D01*
X78781295Y-106025809D01*
X78781295Y-105882952D01*
X78828914Y-105692476D01*
X78876533Y-105597238D01*
X78971771Y-105502000D01*
X79114628Y-105454380D01*
X79209866Y-105454380D01*
X79352723Y-105502000D01*
X79400342Y-105549619D01*
X80352723Y-106454380D02*
X79781295Y-106454380D01*
X80067009Y-106454380D02*
X80067009Y-105454380D01*
X79971771Y-105597238D01*
X79876533Y-105692476D01*
X79781295Y-105740095D01*
X80686057Y-105454380D02*
X81352723Y-105454380D01*
X80924152Y-106454380D01*
X78993942Y-116933142D02*
X78946323Y-116980761D01*
X78803466Y-117028380D01*
X78708228Y-117028380D01*
X78565371Y-116980761D01*
X78470133Y-116885523D01*
X78422514Y-116790285D01*
X78374895Y-116599809D01*
X78374895Y-116456952D01*
X78422514Y-116266476D01*
X78470133Y-116171238D01*
X78565371Y-116076000D01*
X78708228Y-116028380D01*
X78803466Y-116028380D01*
X78946323Y-116076000D01*
X78993942Y-116123619D01*
X79946323Y-117028380D02*
X79374895Y-117028380D01*
X79660609Y-117028380D02*
X79660609Y-116028380D01*
X79565371Y-116171238D01*
X79470133Y-116266476D01*
X79374895Y-116314095D01*
X80803466Y-116028380D02*
X80612990Y-116028380D01*
X80517752Y-116076000D01*
X80470133Y-116123619D01*
X80374895Y-116266476D01*
X80327276Y-116456952D01*
X80327276Y-116837904D01*
X80374895Y-116933142D01*
X80422514Y-116980761D01*
X80517752Y-117028380D01*
X80708228Y-117028380D01*
X80803466Y-116980761D01*
X80851085Y-116933142D01*
X80898704Y-116837904D01*
X80898704Y-116599809D01*
X80851085Y-116504571D01*
X80803466Y-116456952D01*
X80708228Y-116409333D01*
X80517752Y-116409333D01*
X80422514Y-116456952D01*
X80374895Y-116504571D01*
X80327276Y-116599809D01*
X79451142Y-91525542D02*
X79403523Y-91573161D01*
X79260666Y-91620780D01*
X79165428Y-91620780D01*
X79022571Y-91573161D01*
X78927333Y-91477923D01*
X78879714Y-91382685D01*
X78832095Y-91192209D01*
X78832095Y-91049352D01*
X78879714Y-90858876D01*
X78927333Y-90763638D01*
X79022571Y-90668400D01*
X79165428Y-90620780D01*
X79260666Y-90620780D01*
X79403523Y-90668400D01*
X79451142Y-90716019D01*
X80403523Y-91620780D02*
X79832095Y-91620780D01*
X80117809Y-91620780D02*
X80117809Y-90620780D01*
X80022571Y-90763638D01*
X79927333Y-90858876D01*
X79832095Y-90906495D01*
X81260666Y-90954114D02*
X81260666Y-91620780D01*
X81022571Y-90573161D02*
X80784476Y-91287447D01*
X81403523Y-91287447D01*
X79197142Y-102150342D02*
X79149523Y-102197961D01*
X79006666Y-102245580D01*
X78911428Y-102245580D01*
X78768571Y-102197961D01*
X78673333Y-102102723D01*
X78625714Y-102007485D01*
X78578095Y-101817009D01*
X78578095Y-101674152D01*
X78625714Y-101483676D01*
X78673333Y-101388438D01*
X78768571Y-101293200D01*
X78911428Y-101245580D01*
X79006666Y-101245580D01*
X79149523Y-101293200D01*
X79197142Y-101340819D01*
X80149523Y-102245580D02*
X79578095Y-102245580D01*
X79863809Y-102245580D02*
X79863809Y-101245580D01*
X79768571Y-101388438D01*
X79673333Y-101483676D01*
X79578095Y-101531295D01*
X80482857Y-101245580D02*
X81101904Y-101245580D01*
X80768571Y-101626533D01*
X80911428Y-101626533D01*
X81006666Y-101674152D01*
X81054285Y-101721771D01*
X81101904Y-101817009D01*
X81101904Y-102055104D01*
X81054285Y-102150342D01*
X81006666Y-102197961D01*
X80911428Y-102245580D01*
X80625714Y-102245580D01*
X80530476Y-102197961D01*
X80482857Y-102150342D01*
X84521180Y-112765904D02*
X85330704Y-112765904D01*
X85425942Y-112718285D01*
X85473561Y-112670666D01*
X85521180Y-112575428D01*
X85521180Y-112384952D01*
X85473561Y-112289714D01*
X85425942Y-112242095D01*
X85330704Y-112194476D01*
X84521180Y-112194476D01*
X84521180Y-111289714D02*
X84521180Y-111480190D01*
X84568800Y-111575428D01*
X84616419Y-111623047D01*
X84759276Y-111718285D01*
X84949752Y-111765904D01*
X85330704Y-111765904D01*
X85425942Y-111718285D01*
X85473561Y-111670666D01*
X85521180Y-111575428D01*
X85521180Y-111384952D01*
X85473561Y-111289714D01*
X85425942Y-111242095D01*
X85330704Y-111194476D01*
X85092609Y-111194476D01*
X84997371Y-111242095D01*
X84949752Y-111289714D01*
X84902133Y-111384952D01*
X84902133Y-111575428D01*
X84949752Y-111670666D01*
X84997371Y-111718285D01*
X85092609Y-111765904D01*
X84521180Y-97932304D02*
X85330704Y-97932304D01*
X85425942Y-97884685D01*
X85473561Y-97837066D01*
X85521180Y-97741828D01*
X85521180Y-97551352D01*
X85473561Y-97456114D01*
X85425942Y-97408495D01*
X85330704Y-97360876D01*
X84521180Y-97360876D01*
X84521180Y-96408495D02*
X84521180Y-96884685D01*
X84997371Y-96932304D01*
X84949752Y-96884685D01*
X84902133Y-96789447D01*
X84902133Y-96551352D01*
X84949752Y-96456114D01*
X84997371Y-96408495D01*
X85092609Y-96360876D01*
X85330704Y-96360876D01*
X85425942Y-96408495D01*
X85473561Y-96456114D01*
X85521180Y-96551352D01*
X85521180Y-96789447D01*
X85473561Y-96884685D01*
X85425942Y-96932304D01*
X82549942Y-103667980D02*
X82216609Y-103191790D01*
X81978514Y-103667980D02*
X81978514Y-102667980D01*
X82359466Y-102667980D01*
X82454704Y-102715600D01*
X82502323Y-102763219D01*
X82549942Y-102858457D01*
X82549942Y-103001314D01*
X82502323Y-103096552D01*
X82454704Y-103144171D01*
X82359466Y-103191790D01*
X81978514Y-103191790D01*
X82930895Y-102763219D02*
X82978514Y-102715600D01*
X83073752Y-102667980D01*
X83311847Y-102667980D01*
X83407085Y-102715600D01*
X83454704Y-102763219D01*
X83502323Y-102858457D01*
X83502323Y-102953695D01*
X83454704Y-103096552D01*
X82883276Y-103667980D01*
X83502323Y-103667980D01*
X84454704Y-103667980D02*
X83883276Y-103667980D01*
X84168990Y-103667980D02*
X84168990Y-102667980D01*
X84073752Y-102810838D01*
X83978514Y-102906076D01*
X83883276Y-102953695D01*
X82549942Y-104988780D02*
X82216609Y-104512590D01*
X81978514Y-104988780D02*
X81978514Y-103988780D01*
X82359466Y-103988780D01*
X82454704Y-104036400D01*
X82502323Y-104084019D01*
X82549942Y-104179257D01*
X82549942Y-104322114D01*
X82502323Y-104417352D01*
X82454704Y-104464971D01*
X82359466Y-104512590D01*
X81978514Y-104512590D01*
X82930895Y-104084019D02*
X82978514Y-104036400D01*
X83073752Y-103988780D01*
X83311847Y-103988780D01*
X83407085Y-104036400D01*
X83454704Y-104084019D01*
X83502323Y-104179257D01*
X83502323Y-104274495D01*
X83454704Y-104417352D01*
X82883276Y-104988780D01*
X83502323Y-104988780D01*
X84121371Y-103988780D02*
X84216609Y-103988780D01*
X84311847Y-104036400D01*
X84359466Y-104084019D01*
X84407085Y-104179257D01*
X84454704Y-104369733D01*
X84454704Y-104607828D01*
X84407085Y-104798304D01*
X84359466Y-104893542D01*
X84311847Y-104941161D01*
X84216609Y-104988780D01*
X84121371Y-104988780D01*
X84026133Y-104941161D01*
X83978514Y-104893542D01*
X83930895Y-104798304D01*
X83883276Y-104607828D01*
X83883276Y-104369733D01*
X83930895Y-104179257D01*
X83978514Y-104084019D01*
X84026133Y-104036400D01*
X84121371Y-103988780D01*
X82549942Y-88478780D02*
X82216609Y-88002590D01*
X81978514Y-88478780D02*
X81978514Y-87478780D01*
X82359466Y-87478780D01*
X82454704Y-87526400D01*
X82502323Y-87574019D01*
X82549942Y-87669257D01*
X82549942Y-87812114D01*
X82502323Y-87907352D01*
X82454704Y-87954971D01*
X82359466Y-88002590D01*
X81978514Y-88002590D01*
X83502323Y-88478780D02*
X82930895Y-88478780D01*
X83216609Y-88478780D02*
X83216609Y-87478780D01*
X83121371Y-87621638D01*
X83026133Y-87716876D01*
X82930895Y-87764495D01*
X84359466Y-87478780D02*
X84168990Y-87478780D01*
X84073752Y-87526400D01*
X84026133Y-87574019D01*
X83930895Y-87716876D01*
X83883276Y-87907352D01*
X83883276Y-88288304D01*
X83930895Y-88383542D01*
X83978514Y-88431161D01*
X84073752Y-88478780D01*
X84264228Y-88478780D01*
X84359466Y-88431161D01*
X84407085Y-88383542D01*
X84454704Y-88288304D01*
X84454704Y-88050209D01*
X84407085Y-87954971D01*
X84359466Y-87907352D01*
X84264228Y-87859733D01*
X84073752Y-87859733D01*
X83978514Y-87907352D01*
X83930895Y-87954971D01*
X83883276Y-88050209D01*
X82549942Y-89901180D02*
X82216609Y-89424990D01*
X81978514Y-89901180D02*
X81978514Y-88901180D01*
X82359466Y-88901180D01*
X82454704Y-88948800D01*
X82502323Y-88996419D01*
X82549942Y-89091657D01*
X82549942Y-89234514D01*
X82502323Y-89329752D01*
X82454704Y-89377371D01*
X82359466Y-89424990D01*
X81978514Y-89424990D01*
X83502323Y-89901180D02*
X82930895Y-89901180D01*
X83216609Y-89901180D02*
X83216609Y-88901180D01*
X83121371Y-89044038D01*
X83026133Y-89139276D01*
X82930895Y-89186895D01*
X84407085Y-88901180D02*
X83930895Y-88901180D01*
X83883276Y-89377371D01*
X83930895Y-89329752D01*
X84026133Y-89282133D01*
X84264228Y-89282133D01*
X84359466Y-89329752D01*
X84407085Y-89377371D01*
X84454704Y-89472609D01*
X84454704Y-89710704D01*
X84407085Y-89805942D01*
X84359466Y-89853561D01*
X84264228Y-89901180D01*
X84026133Y-89901180D01*
X83930895Y-89853561D01*
X83883276Y-89805942D01*
X67041676Y-75794780D02*
X67041676Y-76509066D01*
X66994057Y-76651923D01*
X66898819Y-76747161D01*
X66755961Y-76794780D01*
X66660723Y-76794780D01*
X68041676Y-76794780D02*
X67470247Y-76794780D01*
X67755961Y-76794780D02*
X67755961Y-75794780D01*
X67660723Y-75937638D01*
X67565485Y-76032876D01*
X67470247Y-76080495D01*
X68422628Y-75890019D02*
X68470247Y-75842400D01*
X68565485Y-75794780D01*
X68803580Y-75794780D01*
X68898819Y-75842400D01*
X68946438Y-75890019D01*
X68994057Y-75985257D01*
X68994057Y-76080495D01*
X68946438Y-76223352D01*
X68375009Y-76794780D01*
X68994057Y-76794780D01*
X74954380Y-113648323D02*
X75668666Y-113648323D01*
X75811523Y-113695942D01*
X75906761Y-113791180D01*
X75954380Y-113934038D01*
X75954380Y-114029276D01*
X75954380Y-112648323D02*
X75954380Y-113219752D01*
X75954380Y-112934038D02*
X74954380Y-112934038D01*
X75097238Y-113029276D01*
X75192476Y-113124514D01*
X75240095Y-113219752D01*
X75954380Y-111695942D02*
X75954380Y-112267371D01*
X75954380Y-111981657D02*
X74954380Y-111981657D01*
X75097238Y-112076895D01*
X75192476Y-112172133D01*
X75240095Y-112267371D01*
X74954380Y-97442723D02*
X75668666Y-97442723D01*
X75811523Y-97490342D01*
X75906761Y-97585580D01*
X75954380Y-97728438D01*
X75954380Y-97823676D01*
X75954380Y-96442723D02*
X75954380Y-97014152D01*
X75954380Y-96728438D02*
X74954380Y-96728438D01*
X75097238Y-96823676D01*
X75192476Y-96918914D01*
X75240095Y-97014152D01*
X74954380Y-95823676D02*
X74954380Y-95728438D01*
X75002000Y-95633200D01*
X75049619Y-95585580D01*
X75144857Y-95537961D01*
X75335333Y-95490342D01*
X75573428Y-95490342D01*
X75763904Y-95537961D01*
X75859142Y-95585580D01*
X75906761Y-95633200D01*
X75954380Y-95728438D01*
X75954380Y-95823676D01*
X75906761Y-95918914D01*
X75859142Y-95966533D01*
X75763904Y-96014152D01*
X75573428Y-96061771D01*
X75335333Y-96061771D01*
X75144857Y-96014152D01*
X75049619Y-95966533D01*
X75002000Y-95918914D01*
X74954380Y-95823676D01*
X79784380Y-70790838D02*
X79308190Y-71124171D01*
X79784380Y-71362266D02*
X78784380Y-71362266D01*
X78784380Y-70981314D01*
X78832000Y-70886076D01*
X78879619Y-70838457D01*
X78974857Y-70790838D01*
X79117714Y-70790838D01*
X79212952Y-70838457D01*
X79260571Y-70886076D01*
X79308190Y-70981314D01*
X79308190Y-71362266D01*
X79260571Y-70028933D02*
X79260571Y-70362266D01*
X79784380Y-70362266D02*
X78784380Y-70362266D01*
X78784380Y-69886076D01*
X78879619Y-69552742D02*
X78832000Y-69505123D01*
X78784380Y-69409885D01*
X78784380Y-69171790D01*
X78832000Y-69076552D01*
X78879619Y-69028933D01*
X78974857Y-68981314D01*
X79070095Y-68981314D01*
X79212952Y-69028933D01*
X79784380Y-69600361D01*
X79784380Y-68981314D01*
X74755180Y-70740038D02*
X74278990Y-71073371D01*
X74755180Y-71311466D02*
X73755180Y-71311466D01*
X73755180Y-70930514D01*
X73802800Y-70835276D01*
X73850419Y-70787657D01*
X73945657Y-70740038D01*
X74088514Y-70740038D01*
X74183752Y-70787657D01*
X74231371Y-70835276D01*
X74278990Y-70930514D01*
X74278990Y-71311466D01*
X74231371Y-69978133D02*
X74231371Y-70311466D01*
X74755180Y-70311466D02*
X73755180Y-70311466D01*
X73755180Y-69835276D01*
X74755180Y-68930514D02*
X74755180Y-69501942D01*
X74755180Y-69216228D02*
X73755180Y-69216228D01*
X73898038Y-69311466D01*
X73993276Y-69406704D01*
X74040895Y-69501942D01*
X74269542Y-65415580D02*
X73936209Y-64939390D01*
X73698114Y-65415580D02*
X73698114Y-64415580D01*
X74079066Y-64415580D01*
X74174304Y-64463200D01*
X74221923Y-64510819D01*
X74269542Y-64606057D01*
X74269542Y-64748914D01*
X74221923Y-64844152D01*
X74174304Y-64891771D01*
X74079066Y-64939390D01*
X73698114Y-64939390D01*
X75221923Y-65415580D02*
X74650495Y-65415580D01*
X74936209Y-65415580D02*
X74936209Y-64415580D01*
X74840971Y-64558438D01*
X74745733Y-64653676D01*
X74650495Y-64701295D01*
X75840971Y-64415580D02*
X75936209Y-64415580D01*
X76031447Y-64463200D01*
X76079066Y-64510819D01*
X76126685Y-64606057D01*
X76174304Y-64796533D01*
X76174304Y-65034628D01*
X76126685Y-65225104D01*
X76079066Y-65320342D01*
X76031447Y-65367961D01*
X75936209Y-65415580D01*
X75840971Y-65415580D01*
X75745733Y-65367961D01*
X75698114Y-65320342D01*
X75650495Y-65225104D01*
X75602876Y-65034628D01*
X75602876Y-64796533D01*
X75650495Y-64606057D01*
X75698114Y-64510819D01*
X75745733Y-64463200D01*
X75840971Y-64415580D01*
X68192533Y-66939580D02*
X67859200Y-66463390D01*
X67621104Y-66939580D02*
X67621104Y-65939580D01*
X68002057Y-65939580D01*
X68097295Y-65987200D01*
X68144914Y-66034819D01*
X68192533Y-66130057D01*
X68192533Y-66272914D01*
X68144914Y-66368152D01*
X68097295Y-66415771D01*
X68002057Y-66463390D01*
X67621104Y-66463390D01*
X68668723Y-66939580D02*
X68859200Y-66939580D01*
X68954438Y-66891961D01*
X69002057Y-66844342D01*
X69097295Y-66701485D01*
X69144914Y-66511009D01*
X69144914Y-66130057D01*
X69097295Y-66034819D01*
X69049676Y-65987200D01*
X68954438Y-65939580D01*
X68763961Y-65939580D01*
X68668723Y-65987200D01*
X68621104Y-66034819D01*
X68573485Y-66130057D01*
X68573485Y-66368152D01*
X68621104Y-66463390D01*
X68668723Y-66511009D01*
X68763961Y-66558628D01*
X68954438Y-66558628D01*
X69049676Y-66511009D01*
X69097295Y-66463390D01*
X69144914Y-66368152D01*
X84194533Y-66939580D02*
X83861200Y-66463390D01*
X83623104Y-66939580D02*
X83623104Y-65939580D01*
X84004057Y-65939580D01*
X84099295Y-65987200D01*
X84146914Y-66034819D01*
X84194533Y-66130057D01*
X84194533Y-66272914D01*
X84146914Y-66368152D01*
X84099295Y-66415771D01*
X84004057Y-66463390D01*
X83623104Y-66463390D01*
X84765961Y-66368152D02*
X84670723Y-66320533D01*
X84623104Y-66272914D01*
X84575485Y-66177676D01*
X84575485Y-66130057D01*
X84623104Y-66034819D01*
X84670723Y-65987200D01*
X84765961Y-65939580D01*
X84956438Y-65939580D01*
X85051676Y-65987200D01*
X85099295Y-66034819D01*
X85146914Y-66130057D01*
X85146914Y-66177676D01*
X85099295Y-66272914D01*
X85051676Y-66320533D01*
X84956438Y-66368152D01*
X84765961Y-66368152D01*
X84670723Y-66415771D01*
X84623104Y-66463390D01*
X84575485Y-66558628D01*
X84575485Y-66749104D01*
X84623104Y-66844342D01*
X84670723Y-66891961D01*
X84765961Y-66939580D01*
X84956438Y-66939580D01*
X85051676Y-66891961D01*
X85099295Y-66844342D01*
X85146914Y-66749104D01*
X85146914Y-66558628D01*
X85099295Y-66463390D01*
X85051676Y-66415771D01*
X84956438Y-66368152D01*
X87318780Y-59606933D02*
X88033066Y-59606933D01*
X88175923Y-59654552D01*
X88271161Y-59749790D01*
X88318780Y-59892647D01*
X88318780Y-59987885D01*
X88318780Y-59083123D02*
X88318780Y-58892647D01*
X88271161Y-58797409D01*
X88223542Y-58749790D01*
X88080685Y-58654552D01*
X87890209Y-58606933D01*
X87509257Y-58606933D01*
X87414019Y-58654552D01*
X87366400Y-58702171D01*
X87318780Y-58797409D01*
X87318780Y-58987885D01*
X87366400Y-59083123D01*
X87414019Y-59130742D01*
X87509257Y-59178361D01*
X87747352Y-59178361D01*
X87842590Y-59130742D01*
X87890209Y-59083123D01*
X87937828Y-58987885D01*
X87937828Y-58797409D01*
X87890209Y-58702171D01*
X87842590Y-58654552D01*
X87747352Y-58606933D01*
X77199942Y-71897257D02*
X77247561Y-71944876D01*
X77295180Y-72087733D01*
X77295180Y-72182971D01*
X77247561Y-72325828D01*
X77152323Y-72421066D01*
X77057085Y-72468685D01*
X76866609Y-72516304D01*
X76723752Y-72516304D01*
X76533276Y-72468685D01*
X76438038Y-72421066D01*
X76342800Y-72325828D01*
X76295180Y-72182971D01*
X76295180Y-72087733D01*
X76342800Y-71944876D01*
X76390419Y-71897257D01*
X77295180Y-71040114D02*
X76295180Y-71040114D01*
X77247561Y-71040114D02*
X77295180Y-71135352D01*
X77295180Y-71325828D01*
X77247561Y-71421066D01*
X77199942Y-71468685D01*
X77104704Y-71516304D01*
X76818990Y-71516304D01*
X76723752Y-71468685D01*
X76676133Y-71421066D01*
X76628514Y-71325828D01*
X76628514Y-71135352D01*
X76676133Y-71040114D01*
X77295180Y-70563923D02*
X76628514Y-70563923D01*
X76295180Y-70563923D02*
X76342800Y-70611542D01*
X76390419Y-70563923D01*
X76342800Y-70516304D01*
X76295180Y-70563923D01*
X76390419Y-70563923D01*
X76628514Y-70230590D02*
X76628514Y-69849638D01*
X77295180Y-70087733D02*
X76438038Y-70087733D01*
X76342800Y-70040114D01*
X76295180Y-69944876D01*
X76295180Y-69849638D01*
X77295180Y-68992495D02*
X77295180Y-69563923D01*
X77295180Y-69278209D02*
X76295180Y-69278209D01*
X76438038Y-69373447D01*
X76533276Y-69468685D01*
X76580895Y-69563923D01*
X81016495Y-69943142D02*
X80968876Y-69990761D01*
X80826019Y-70038380D01*
X80730780Y-70038380D01*
X80587923Y-69990761D01*
X80492685Y-69895523D01*
X80445066Y-69800285D01*
X80397447Y-69609809D01*
X80397447Y-69466952D01*
X80445066Y-69276476D01*
X80492685Y-69181238D01*
X80587923Y-69086000D01*
X80730780Y-69038380D01*
X80826019Y-69038380D01*
X80968876Y-69086000D01*
X81016495Y-69133619D01*
X81873638Y-69990761D02*
X81778400Y-70038380D01*
X81587923Y-70038380D01*
X81492685Y-69990761D01*
X81445066Y-69943142D01*
X81397447Y-69847904D01*
X81397447Y-69562190D01*
X81445066Y-69466952D01*
X81492685Y-69419333D01*
X81587923Y-69371714D01*
X81778400Y-69371714D01*
X81873638Y-69419333D01*
X82302209Y-70038380D02*
X82302209Y-69371714D01*
X82302209Y-69466952D02*
X82349828Y-69419333D01*
X82445066Y-69371714D01*
X82587923Y-69371714D01*
X82683161Y-69419333D01*
X82730780Y-69514571D01*
X82730780Y-70038380D01*
X82730780Y-69514571D02*
X82778400Y-69419333D01*
X82873638Y-69371714D01*
X83016495Y-69371714D01*
X83111733Y-69419333D01*
X83159352Y-69514571D01*
X83159352Y-70038380D01*
X83587923Y-69133619D02*
X83635542Y-69086000D01*
X83730780Y-69038380D01*
X83968876Y-69038380D01*
X84064114Y-69086000D01*
X84111733Y-69133619D01*
X84159352Y-69228857D01*
X84159352Y-69324095D01*
X84111733Y-69466952D01*
X83540304Y-70038380D01*
X84159352Y-70038380D01*
X70094495Y-69849142D02*
X70046876Y-69896761D01*
X69904019Y-69944380D01*
X69808780Y-69944380D01*
X69665923Y-69896761D01*
X69570685Y-69801523D01*
X69523066Y-69706285D01*
X69475447Y-69515809D01*
X69475447Y-69372952D01*
X69523066Y-69182476D01*
X69570685Y-69087238D01*
X69665923Y-68992000D01*
X69808780Y-68944380D01*
X69904019Y-68944380D01*
X70046876Y-68992000D01*
X70094495Y-69039619D01*
X70951638Y-69896761D02*
X70856400Y-69944380D01*
X70665923Y-69944380D01*
X70570685Y-69896761D01*
X70523066Y-69849142D01*
X70475447Y-69753904D01*
X70475447Y-69468190D01*
X70523066Y-69372952D01*
X70570685Y-69325333D01*
X70665923Y-69277714D01*
X70856400Y-69277714D01*
X70951638Y-69325333D01*
X71380209Y-69944380D02*
X71380209Y-69277714D01*
X71380209Y-69372952D02*
X71427828Y-69325333D01*
X71523066Y-69277714D01*
X71665923Y-69277714D01*
X71761161Y-69325333D01*
X71808780Y-69420571D01*
X71808780Y-69944380D01*
X71808780Y-69420571D02*
X71856400Y-69325333D01*
X71951638Y-69277714D01*
X72094495Y-69277714D01*
X72189733Y-69325333D01*
X72237352Y-69420571D01*
X72237352Y-69944380D01*
X73237352Y-69944380D02*
X72665923Y-69944380D01*
X72951638Y-69944380D02*
X72951638Y-68944380D01*
X72856400Y-69087238D01*
X72761161Y-69182476D01*
X72665923Y-69230095D01*
X127207866Y-77477980D02*
X127207866Y-78192266D01*
X127160247Y-78335123D01*
X127065009Y-78430361D01*
X126922152Y-78477980D01*
X126826914Y-78477980D01*
X127826914Y-77906552D02*
X127731676Y-77858933D01*
X127684057Y-77811314D01*
X127636438Y-77716076D01*
X127636438Y-77668457D01*
X127684057Y-77573219D01*
X127731676Y-77525600D01*
X127826914Y-77477980D01*
X128017390Y-77477980D01*
X128112628Y-77525600D01*
X128160247Y-77573219D01*
X128207866Y-77668457D01*
X128207866Y-77716076D01*
X128160247Y-77811314D01*
X128112628Y-77858933D01*
X128017390Y-77906552D01*
X127826914Y-77906552D01*
X127731676Y-77954171D01*
X127684057Y-78001790D01*
X127636438Y-78097028D01*
X127636438Y-78287504D01*
X127684057Y-78382742D01*
X127731676Y-78430361D01*
X127826914Y-78477980D01*
X128017390Y-78477980D01*
X128112628Y-78430361D01*
X128160247Y-78382742D01*
X128207866Y-78287504D01*
X128207866Y-78097028D01*
X128160247Y-78001790D01*
X128112628Y-77954171D01*
X128017390Y-77906552D01*
X87207542Y-131747657D02*
X87255161Y-131795276D01*
X87302780Y-131938133D01*
X87302780Y-132033371D01*
X87255161Y-132176228D01*
X87159923Y-132271466D01*
X87064685Y-132319085D01*
X86874209Y-132366704D01*
X86731352Y-132366704D01*
X86540876Y-132319085D01*
X86445638Y-132271466D01*
X86350400Y-132176228D01*
X86302780Y-132033371D01*
X86302780Y-131938133D01*
X86350400Y-131795276D01*
X86398019Y-131747657D01*
X87302780Y-130795276D02*
X87302780Y-131366704D01*
X87302780Y-131080990D02*
X86302780Y-131080990D01*
X86445638Y-131176228D01*
X86540876Y-131271466D01*
X86588495Y-131366704D01*
X86302780Y-130176228D02*
X86302780Y-130080990D01*
X86350400Y-129985752D01*
X86398019Y-129938133D01*
X86493257Y-129890514D01*
X86683733Y-129842895D01*
X86921828Y-129842895D01*
X87112304Y-129890514D01*
X87207542Y-129938133D01*
X87255161Y-129985752D01*
X87302780Y-130080990D01*
X87302780Y-130176228D01*
X87255161Y-130271466D01*
X87207542Y-130319085D01*
X87112304Y-130366704D01*
X86921828Y-130414323D01*
X86683733Y-130414323D01*
X86493257Y-130366704D01*
X86398019Y-130319085D01*
X86350400Y-130271466D01*
X86302780Y-130176228D01*
X85886742Y-131677866D02*
X85934361Y-131725485D01*
X85981980Y-131868342D01*
X85981980Y-131963580D01*
X85934361Y-132106438D01*
X85839123Y-132201676D01*
X85743885Y-132249295D01*
X85553409Y-132296914D01*
X85410552Y-132296914D01*
X85220076Y-132249295D01*
X85124838Y-132201676D01*
X85029600Y-132106438D01*
X84981980Y-131963580D01*
X84981980Y-131868342D01*
X85029600Y-131725485D01*
X85077219Y-131677866D01*
X85981980Y-131201676D02*
X85981980Y-131011200D01*
X85934361Y-130915961D01*
X85886742Y-130868342D01*
X85743885Y-130773104D01*
X85553409Y-130725485D01*
X85172457Y-130725485D01*
X85077219Y-130773104D01*
X85029600Y-130820723D01*
X84981980Y-130915961D01*
X84981980Y-131106438D01*
X85029600Y-131201676D01*
X85077219Y-131249295D01*
X85172457Y-131296914D01*
X85410552Y-131296914D01*
X85505790Y-131249295D01*
X85553409Y-131201676D01*
X85601028Y-131106438D01*
X85601028Y-130915961D01*
X85553409Y-130820723D01*
X85505790Y-130773104D01*
X85410552Y-130725485D01*
X117606666Y-76682380D02*
X117606666Y-77396666D01*
X117559047Y-77539523D01*
X117463809Y-77634761D01*
X117320952Y-77682380D01*
X117225714Y-77682380D01*
X117987619Y-76682380D02*
X118654285Y-76682380D01*
X118225714Y-77682380D01*
X87126666Y-76682380D02*
X87126666Y-77396666D01*
X87079047Y-77539523D01*
X86983809Y-77634761D01*
X86840952Y-77682380D01*
X86745714Y-77682380D01*
X88031428Y-76682380D02*
X87840952Y-76682380D01*
X87745714Y-76730000D01*
X87698095Y-76777619D01*
X87602857Y-76920476D01*
X87555238Y-77110952D01*
X87555238Y-77491904D01*
X87602857Y-77587142D01*
X87650476Y-77634761D01*
X87745714Y-77682380D01*
X87936190Y-77682380D01*
X88031428Y-77634761D01*
X88079047Y-77587142D01*
X88126666Y-77491904D01*
X88126666Y-77253809D01*
X88079047Y-77158571D01*
X88031428Y-77110952D01*
X87936190Y-77063333D01*
X87745714Y-77063333D01*
X87650476Y-77110952D01*
X87602857Y-77158571D01*
X87555238Y-77253809D01*
X97224833Y-110743142D02*
X97177214Y-110790761D01*
X97034357Y-110838380D01*
X96939119Y-110838380D01*
X96796261Y-110790761D01*
X96701023Y-110695523D01*
X96653404Y-110600285D01*
X96605785Y-110409809D01*
X96605785Y-110266952D01*
X96653404Y-110076476D01*
X96701023Y-109981238D01*
X96796261Y-109886000D01*
X96939119Y-109838380D01*
X97034357Y-109838380D01*
X97177214Y-109886000D01*
X97224833Y-109933619D01*
X97796261Y-110266952D02*
X97701023Y-110219333D01*
X97653404Y-110171714D01*
X97605785Y-110076476D01*
X97605785Y-110028857D01*
X97653404Y-109933619D01*
X97701023Y-109886000D01*
X97796261Y-109838380D01*
X97986738Y-109838380D01*
X98081976Y-109886000D01*
X98129595Y-109933619D01*
X98177214Y-110028857D01*
X98177214Y-110076476D01*
X98129595Y-110171714D01*
X98081976Y-110219333D01*
X97986738Y-110266952D01*
X97796261Y-110266952D01*
X97701023Y-110314571D01*
X97653404Y-110362190D01*
X97605785Y-110457428D01*
X97605785Y-110647904D01*
X97653404Y-110743142D01*
X97701023Y-110790761D01*
X97796261Y-110838380D01*
X97986738Y-110838380D01*
X98081976Y-110790761D01*
X98129595Y-110743142D01*
X98177214Y-110647904D01*
X98177214Y-110457428D01*
X98129595Y-110362190D01*
X98081976Y-110314571D01*
X97986738Y-110266952D01*
X94515142Y-97692666D02*
X94562761Y-97740285D01*
X94610380Y-97883142D01*
X94610380Y-97978380D01*
X94562761Y-98121238D01*
X94467523Y-98216476D01*
X94372285Y-98264095D01*
X94181809Y-98311714D01*
X94038952Y-98311714D01*
X93848476Y-98264095D01*
X93753238Y-98216476D01*
X93658000Y-98121238D01*
X93610380Y-97978380D01*
X93610380Y-97883142D01*
X93658000Y-97740285D01*
X93705619Y-97692666D01*
X93610380Y-97359333D02*
X93610380Y-96692666D01*
X94610380Y-97121238D01*
X93134190Y-104098190D02*
X93610380Y-104098190D01*
X92610380Y-104431523D02*
X93134190Y-104098190D01*
X92610380Y-103764857D01*
X93610380Y-102907714D02*
X93610380Y-103479142D01*
X93610380Y-103193428D02*
X92610380Y-103193428D01*
X92753238Y-103288666D01*
X92848476Y-103383904D01*
X92896095Y-103479142D01*
X102001380Y-61094333D02*
X102715666Y-61094333D01*
X102858523Y-61141952D01*
X102953761Y-61237190D01*
X103001380Y-61380047D01*
X103001380Y-61475285D01*
X102001380Y-60141952D02*
X102001380Y-60618142D01*
X102477571Y-60665761D01*
X102429952Y-60618142D01*
X102382333Y-60522904D01*
X102382333Y-60284809D01*
X102429952Y-60189571D01*
X102477571Y-60141952D01*
X102572809Y-60094333D01*
X102810904Y-60094333D01*
X102906142Y-60141952D01*
X102953761Y-60189571D01*
X103001380Y-60284809D01*
X103001380Y-60522904D01*
X102953761Y-60618142D01*
X102906142Y-60665761D01*
X115209380Y-61094333D02*
X115923666Y-61094333D01*
X116066523Y-61141952D01*
X116161761Y-61237190D01*
X116209380Y-61380047D01*
X116209380Y-61475285D01*
X115542714Y-60189571D02*
X116209380Y-60189571D01*
X115161761Y-60427666D02*
X115876047Y-60665761D01*
X115876047Y-60046714D01*
X95929333Y-113624780D02*
X95596000Y-113148590D01*
X95357904Y-113624780D02*
X95357904Y-112624780D01*
X95738857Y-112624780D01*
X95834095Y-112672400D01*
X95881714Y-112720019D01*
X95929333Y-112815257D01*
X95929333Y-112958114D01*
X95881714Y-113053352D01*
X95834095Y-113100971D01*
X95738857Y-113148590D01*
X95357904Y-113148590D01*
X96834095Y-112624780D02*
X96357904Y-112624780D01*
X96310285Y-113100971D01*
X96357904Y-113053352D01*
X96453142Y-113005733D01*
X96691238Y-113005733D01*
X96786476Y-113053352D01*
X96834095Y-113100971D01*
X96881714Y-113196209D01*
X96881714Y-113434304D01*
X96834095Y-113529542D01*
X96786476Y-113577161D01*
X96691238Y-113624780D01*
X96453142Y-113624780D01*
X96357904Y-113577161D01*
X96310285Y-113529542D01*
X95929333Y-112303980D02*
X95596000Y-111827790D01*
X95357904Y-112303980D02*
X95357904Y-111303980D01*
X95738857Y-111303980D01*
X95834095Y-111351600D01*
X95881714Y-111399219D01*
X95929333Y-111494457D01*
X95929333Y-111637314D01*
X95881714Y-111732552D01*
X95834095Y-111780171D01*
X95738857Y-111827790D01*
X95357904Y-111827790D01*
X96786476Y-111637314D02*
X96786476Y-112303980D01*
X96548380Y-111256361D02*
X96310285Y-111970647D01*
X96929333Y-111970647D01*
X98723333Y-130142380D02*
X98390000Y-129666190D01*
X98151904Y-130142380D02*
X98151904Y-129142380D01*
X98532857Y-129142380D01*
X98628095Y-129190000D01*
X98675714Y-129237619D01*
X98723333Y-129332857D01*
X98723333Y-129475714D01*
X98675714Y-129570952D01*
X98628095Y-129618571D01*
X98532857Y-129666190D01*
X98151904Y-129666190D01*
X99056666Y-129142380D02*
X99675714Y-129142380D01*
X99342380Y-129523333D01*
X99485238Y-129523333D01*
X99580476Y-129570952D01*
X99628095Y-129618571D01*
X99675714Y-129713809D01*
X99675714Y-129951904D01*
X99628095Y-130047142D01*
X99580476Y-130094761D01*
X99485238Y-130142380D01*
X99199523Y-130142380D01*
X99104285Y-130094761D01*
X99056666Y-130047142D01*
X101771333Y-130142380D02*
X101438000Y-129666190D01*
X101199904Y-130142380D02*
X101199904Y-129142380D01*
X101580857Y-129142380D01*
X101676095Y-129190000D01*
X101723714Y-129237619D01*
X101771333Y-129332857D01*
X101771333Y-129475714D01*
X101723714Y-129570952D01*
X101676095Y-129618571D01*
X101580857Y-129666190D01*
X101199904Y-129666190D01*
X102152285Y-129237619D02*
X102199904Y-129190000D01*
X102295142Y-129142380D01*
X102533238Y-129142380D01*
X102628476Y-129190000D01*
X102676095Y-129237619D01*
X102723714Y-129332857D01*
X102723714Y-129428095D01*
X102676095Y-129570952D01*
X102104666Y-130142380D01*
X102723714Y-130142380D01*
X95929333Y-118043142D02*
X95881714Y-118090761D01*
X95738857Y-118138380D01*
X95643619Y-118138380D01*
X95500761Y-118090761D01*
X95405523Y-117995523D01*
X95357904Y-117900285D01*
X95310285Y-117709809D01*
X95310285Y-117566952D01*
X95357904Y-117376476D01*
X95405523Y-117281238D01*
X95500761Y-117186000D01*
X95643619Y-117138380D01*
X95738857Y-117138380D01*
X95881714Y-117186000D01*
X95929333Y-117233619D01*
X96262666Y-117138380D02*
X96881714Y-117138380D01*
X96548380Y-117519333D01*
X96691238Y-117519333D01*
X96786476Y-117566952D01*
X96834095Y-117614571D01*
X96881714Y-117709809D01*
X96881714Y-117947904D01*
X96834095Y-118043142D01*
X96786476Y-118090761D01*
X96691238Y-118138380D01*
X96405523Y-118138380D01*
X96310285Y-118090761D01*
X96262666Y-118043142D01*
X95691142Y-122838666D02*
X95738761Y-122886285D01*
X95786380Y-123029142D01*
X95786380Y-123124380D01*
X95738761Y-123267238D01*
X95643523Y-123362476D01*
X95548285Y-123410095D01*
X95357809Y-123457714D01*
X95214952Y-123457714D01*
X95024476Y-123410095D01*
X94929238Y-123362476D01*
X94834000Y-123267238D01*
X94786380Y-123124380D01*
X94786380Y-123029142D01*
X94834000Y-122886285D01*
X94881619Y-122838666D01*
X94881619Y-122457714D02*
X94834000Y-122410095D01*
X94786380Y-122314857D01*
X94786380Y-122076761D01*
X94834000Y-121981523D01*
X94881619Y-121933904D01*
X94976857Y-121886285D01*
X95072095Y-121886285D01*
X95214952Y-121933904D01*
X95786380Y-122505333D01*
X95786380Y-121886285D01*
X101771380Y-121655904D02*
X102580904Y-121655904D01*
X102676142Y-121608285D01*
X102723761Y-121560666D01*
X102771380Y-121465428D01*
X102771380Y-121274952D01*
X102723761Y-121179714D01*
X102676142Y-121132095D01*
X102580904Y-121084476D01*
X101771380Y-121084476D01*
X101771380Y-120703523D02*
X101771380Y-120084476D01*
X102152333Y-120417809D01*
X102152333Y-120274952D01*
X102199952Y-120179714D01*
X102247571Y-120132095D01*
X102342809Y-120084476D01*
X102580904Y-120084476D01*
X102676142Y-120132095D01*
X102723761Y-120179714D01*
X102771380Y-120274952D01*
X102771380Y-120560666D01*
X102723761Y-120655904D01*
X102676142Y-120703523D01*
X104224095Y-90039380D02*
X104224095Y-90848904D01*
X104271714Y-90944142D01*
X104319333Y-90991761D01*
X104414571Y-91039380D01*
X104605047Y-91039380D01*
X104700285Y-90991761D01*
X104747904Y-90944142D01*
X104795523Y-90848904D01*
X104795523Y-90039380D01*
X105224095Y-90134619D02*
X105271714Y-90087000D01*
X105366952Y-90039380D01*
X105605047Y-90039380D01*
X105700285Y-90087000D01*
X105747904Y-90134619D01*
X105795523Y-90229857D01*
X105795523Y-90325095D01*
X105747904Y-90467952D01*
X105176476Y-91039380D01*
X105795523Y-91039380D01*
X86658380Y-127142304D02*
X87467904Y-127142304D01*
X87563142Y-127094685D01*
X87610761Y-127047066D01*
X87658380Y-126951828D01*
X87658380Y-126761352D01*
X87610761Y-126666114D01*
X87563142Y-126618495D01*
X87467904Y-126570876D01*
X86658380Y-126570876D01*
X87658380Y-125570876D02*
X87658380Y-126142304D01*
X87658380Y-125856590D02*
X86658380Y-125856590D01*
X86801238Y-125951828D01*
X86896476Y-126047066D01*
X86944095Y-126142304D01*
X115066666Y-76682380D02*
X115066666Y-77396666D01*
X115019047Y-77539523D01*
X114923809Y-77634761D01*
X114780952Y-77682380D01*
X114685714Y-77682380D01*
X115447619Y-76682380D02*
X116066666Y-76682380D01*
X115733333Y-77063333D01*
X115876190Y-77063333D01*
X115971428Y-77110952D01*
X116019047Y-77158571D01*
X116066666Y-77253809D01*
X116066666Y-77491904D01*
X116019047Y-77587142D01*
X115971428Y-77634761D01*
X115876190Y-77682380D01*
X115590476Y-77682380D01*
X115495238Y-77634761D01*
X115447619Y-77587142D01*
X89666666Y-76682380D02*
X89666666Y-77396666D01*
X89619047Y-77539523D01*
X89523809Y-77634761D01*
X89380952Y-77682380D01*
X89285714Y-77682380D01*
X90095238Y-76777619D02*
X90142857Y-76730000D01*
X90238095Y-76682380D01*
X90476190Y-76682380D01*
X90571428Y-76730000D01*
X90619047Y-76777619D01*
X90666666Y-76872857D01*
X90666666Y-76968095D01*
X90619047Y-77110952D01*
X90047619Y-77682380D01*
X90666666Y-77682380D01*
M02*
