G04 #@! TF.GenerationSoftware,KiCad,Pcbnew,(5.1.4)-1*
G04 #@! TF.CreationDate,2020-06-16T14:32:10+02:00*
G04 #@! TF.ProjectId,NodeMCU_WeatherStation,4e6f6465-4d43-4555-9f57-656174686572,rev?*
G04 #@! TF.SameCoordinates,Original*
G04 #@! TF.FileFunction,Soldermask,Bot*
G04 #@! TF.FilePolarity,Negative*
%FSLAX46Y46*%
G04 Gerber Fmt 4.6, Leading zero omitted, Abs format (unit mm)*
G04 Created by KiCad (PCBNEW (5.1.4)-1) date 2020-06-16 14:32:10*
%MOMM*%
%LPD*%
G04 APERTURE LIST*
%ADD10R,1.500000X0.450000*%
%ADD11C,0.100000*%
%ADD12C,0.875000*%
%ADD13C,0.800000*%
%ADD14C,6.400000*%
%ADD15O,1.700000X1.700000*%
%ADD16R,1.700000X1.700000*%
%ADD17C,2.500000*%
%ADD18R,2.500000X2.500000*%
%ADD19O,2.300000X1.500000*%
%ADD20R,2.300000X1.500000*%
%ADD21R,2.700000X1.500000*%
%ADD22C,1.400000*%
%ADD23O,1.400000X1.700000*%
%ADD24C,0.975000*%
%ADD25O,1.727200X1.727200*%
%ADD26R,1.727200X1.727200*%
%ADD27R,0.900000X0.800000*%
%ADD28R,1.300000X1.700000*%
%ADD29C,8.600000*%
%ADD30C,0.900000*%
G04 APERTURE END LIST*
D10*
X79742000Y-77652200D03*
X79742000Y-77002200D03*
X79742000Y-76352200D03*
X79742000Y-75702200D03*
X79742000Y-75052200D03*
X79742000Y-74402200D03*
X79742000Y-73752200D03*
X79742000Y-73102200D03*
X73842000Y-73102200D03*
X73842000Y-73752200D03*
X73842000Y-74402200D03*
X73842000Y-75052200D03*
X73842000Y-75702200D03*
X73842000Y-76352200D03*
X73842000Y-77002200D03*
X73842000Y-77652200D03*
D11*
G36*
X82200491Y-78725253D02*
G01*
X82221726Y-78728403D01*
X82242550Y-78733619D01*
X82262762Y-78740851D01*
X82282168Y-78750030D01*
X82300581Y-78761066D01*
X82317824Y-78773854D01*
X82333730Y-78788270D01*
X82348146Y-78804176D01*
X82360934Y-78821419D01*
X82371970Y-78839832D01*
X82381149Y-78859238D01*
X82388381Y-78879450D01*
X82393597Y-78900274D01*
X82396747Y-78921509D01*
X82397800Y-78942950D01*
X82397800Y-79380450D01*
X82396747Y-79401891D01*
X82393597Y-79423126D01*
X82388381Y-79443950D01*
X82381149Y-79464162D01*
X82371970Y-79483568D01*
X82360934Y-79501981D01*
X82348146Y-79519224D01*
X82333730Y-79535130D01*
X82317824Y-79549546D01*
X82300581Y-79562334D01*
X82282168Y-79573370D01*
X82262762Y-79582549D01*
X82242550Y-79589781D01*
X82221726Y-79594997D01*
X82200491Y-79598147D01*
X82179050Y-79599200D01*
X81666550Y-79599200D01*
X81645109Y-79598147D01*
X81623874Y-79594997D01*
X81603050Y-79589781D01*
X81582838Y-79582549D01*
X81563432Y-79573370D01*
X81545019Y-79562334D01*
X81527776Y-79549546D01*
X81511870Y-79535130D01*
X81497454Y-79519224D01*
X81484666Y-79501981D01*
X81473630Y-79483568D01*
X81464451Y-79464162D01*
X81457219Y-79443950D01*
X81452003Y-79423126D01*
X81448853Y-79401891D01*
X81447800Y-79380450D01*
X81447800Y-78942950D01*
X81448853Y-78921509D01*
X81452003Y-78900274D01*
X81457219Y-78879450D01*
X81464451Y-78859238D01*
X81473630Y-78839832D01*
X81484666Y-78821419D01*
X81497454Y-78804176D01*
X81511870Y-78788270D01*
X81527776Y-78773854D01*
X81545019Y-78761066D01*
X81563432Y-78750030D01*
X81582838Y-78740851D01*
X81603050Y-78733619D01*
X81623874Y-78728403D01*
X81645109Y-78725253D01*
X81666550Y-78724200D01*
X82179050Y-78724200D01*
X82200491Y-78725253D01*
X82200491Y-78725253D01*
G37*
D12*
X81922800Y-79161700D03*
D11*
G36*
X82200491Y-80300253D02*
G01*
X82221726Y-80303403D01*
X82242550Y-80308619D01*
X82262762Y-80315851D01*
X82282168Y-80325030D01*
X82300581Y-80336066D01*
X82317824Y-80348854D01*
X82333730Y-80363270D01*
X82348146Y-80379176D01*
X82360934Y-80396419D01*
X82371970Y-80414832D01*
X82381149Y-80434238D01*
X82388381Y-80454450D01*
X82393597Y-80475274D01*
X82396747Y-80496509D01*
X82397800Y-80517950D01*
X82397800Y-80955450D01*
X82396747Y-80976891D01*
X82393597Y-80998126D01*
X82388381Y-81018950D01*
X82381149Y-81039162D01*
X82371970Y-81058568D01*
X82360934Y-81076981D01*
X82348146Y-81094224D01*
X82333730Y-81110130D01*
X82317824Y-81124546D01*
X82300581Y-81137334D01*
X82282168Y-81148370D01*
X82262762Y-81157549D01*
X82242550Y-81164781D01*
X82221726Y-81169997D01*
X82200491Y-81173147D01*
X82179050Y-81174200D01*
X81666550Y-81174200D01*
X81645109Y-81173147D01*
X81623874Y-81169997D01*
X81603050Y-81164781D01*
X81582838Y-81157549D01*
X81563432Y-81148370D01*
X81545019Y-81137334D01*
X81527776Y-81124546D01*
X81511870Y-81110130D01*
X81497454Y-81094224D01*
X81484666Y-81076981D01*
X81473630Y-81058568D01*
X81464451Y-81039162D01*
X81457219Y-81018950D01*
X81452003Y-80998126D01*
X81448853Y-80976891D01*
X81447800Y-80955450D01*
X81447800Y-80517950D01*
X81448853Y-80496509D01*
X81452003Y-80475274D01*
X81457219Y-80454450D01*
X81464451Y-80434238D01*
X81473630Y-80414832D01*
X81484666Y-80396419D01*
X81497454Y-80379176D01*
X81511870Y-80363270D01*
X81527776Y-80348854D01*
X81545019Y-80336066D01*
X81563432Y-80325030D01*
X81582838Y-80315851D01*
X81603050Y-80308619D01*
X81623874Y-80303403D01*
X81645109Y-80300253D01*
X81666550Y-80299200D01*
X82179050Y-80299200D01*
X82200491Y-80300253D01*
X82200491Y-80300253D01*
G37*
D12*
X81922800Y-80736700D03*
D11*
G36*
X80625691Y-80300253D02*
G01*
X80646926Y-80303403D01*
X80667750Y-80308619D01*
X80687962Y-80315851D01*
X80707368Y-80325030D01*
X80725781Y-80336066D01*
X80743024Y-80348854D01*
X80758930Y-80363270D01*
X80773346Y-80379176D01*
X80786134Y-80396419D01*
X80797170Y-80414832D01*
X80806349Y-80434238D01*
X80813581Y-80454450D01*
X80818797Y-80475274D01*
X80821947Y-80496509D01*
X80823000Y-80517950D01*
X80823000Y-80955450D01*
X80821947Y-80976891D01*
X80818797Y-80998126D01*
X80813581Y-81018950D01*
X80806349Y-81039162D01*
X80797170Y-81058568D01*
X80786134Y-81076981D01*
X80773346Y-81094224D01*
X80758930Y-81110130D01*
X80743024Y-81124546D01*
X80725781Y-81137334D01*
X80707368Y-81148370D01*
X80687962Y-81157549D01*
X80667750Y-81164781D01*
X80646926Y-81169997D01*
X80625691Y-81173147D01*
X80604250Y-81174200D01*
X80091750Y-81174200D01*
X80070309Y-81173147D01*
X80049074Y-81169997D01*
X80028250Y-81164781D01*
X80008038Y-81157549D01*
X79988632Y-81148370D01*
X79970219Y-81137334D01*
X79952976Y-81124546D01*
X79937070Y-81110130D01*
X79922654Y-81094224D01*
X79909866Y-81076981D01*
X79898830Y-81058568D01*
X79889651Y-81039162D01*
X79882419Y-81018950D01*
X79877203Y-80998126D01*
X79874053Y-80976891D01*
X79873000Y-80955450D01*
X79873000Y-80517950D01*
X79874053Y-80496509D01*
X79877203Y-80475274D01*
X79882419Y-80454450D01*
X79889651Y-80434238D01*
X79898830Y-80414832D01*
X79909866Y-80396419D01*
X79922654Y-80379176D01*
X79937070Y-80363270D01*
X79952976Y-80348854D01*
X79970219Y-80336066D01*
X79988632Y-80325030D01*
X80008038Y-80315851D01*
X80028250Y-80308619D01*
X80049074Y-80303403D01*
X80070309Y-80300253D01*
X80091750Y-80299200D01*
X80604250Y-80299200D01*
X80625691Y-80300253D01*
X80625691Y-80300253D01*
G37*
D12*
X80348000Y-80736700D03*
D11*
G36*
X80625691Y-78725253D02*
G01*
X80646926Y-78728403D01*
X80667750Y-78733619D01*
X80687962Y-78740851D01*
X80707368Y-78750030D01*
X80725781Y-78761066D01*
X80743024Y-78773854D01*
X80758930Y-78788270D01*
X80773346Y-78804176D01*
X80786134Y-78821419D01*
X80797170Y-78839832D01*
X80806349Y-78859238D01*
X80813581Y-78879450D01*
X80818797Y-78900274D01*
X80821947Y-78921509D01*
X80823000Y-78942950D01*
X80823000Y-79380450D01*
X80821947Y-79401891D01*
X80818797Y-79423126D01*
X80813581Y-79443950D01*
X80806349Y-79464162D01*
X80797170Y-79483568D01*
X80786134Y-79501981D01*
X80773346Y-79519224D01*
X80758930Y-79535130D01*
X80743024Y-79549546D01*
X80725781Y-79562334D01*
X80707368Y-79573370D01*
X80687962Y-79582549D01*
X80667750Y-79589781D01*
X80646926Y-79594997D01*
X80625691Y-79598147D01*
X80604250Y-79599200D01*
X80091750Y-79599200D01*
X80070309Y-79598147D01*
X80049074Y-79594997D01*
X80028250Y-79589781D01*
X80008038Y-79582549D01*
X79988632Y-79573370D01*
X79970219Y-79562334D01*
X79952976Y-79549546D01*
X79937070Y-79535130D01*
X79922654Y-79519224D01*
X79909866Y-79501981D01*
X79898830Y-79483568D01*
X79889651Y-79464162D01*
X79882419Y-79443950D01*
X79877203Y-79423126D01*
X79874053Y-79401891D01*
X79873000Y-79380450D01*
X79873000Y-78942950D01*
X79874053Y-78921509D01*
X79877203Y-78900274D01*
X79882419Y-78879450D01*
X79889651Y-78859238D01*
X79898830Y-78839832D01*
X79909866Y-78821419D01*
X79922654Y-78804176D01*
X79937070Y-78788270D01*
X79952976Y-78773854D01*
X79970219Y-78761066D01*
X79988632Y-78750030D01*
X80008038Y-78740851D01*
X80028250Y-78733619D01*
X80049074Y-78728403D01*
X80070309Y-78725253D01*
X80091750Y-78724200D01*
X80604250Y-78724200D01*
X80625691Y-78725253D01*
X80625691Y-78725253D01*
G37*
D12*
X80348000Y-79161700D03*
D13*
X90427056Y-70302944D03*
X88730000Y-69600000D03*
X87032944Y-70302944D03*
X86330000Y-72000000D03*
X87032944Y-73697056D03*
X88730000Y-74400000D03*
X90427056Y-73697056D03*
X91130000Y-72000000D03*
D14*
X88730000Y-72000000D03*
D13*
X124697056Y-132302944D03*
X123000000Y-131600000D03*
X121302944Y-132302944D03*
X120600000Y-134000000D03*
X121302944Y-135697056D03*
X123000000Y-136400000D03*
X124697056Y-135697056D03*
X125400000Y-134000000D03*
D14*
X123000000Y-134000000D03*
D13*
X124697056Y-70302944D03*
X123000000Y-69600000D03*
X121302944Y-70302944D03*
X120600000Y-72000000D03*
X121302944Y-73697056D03*
X123000000Y-74400000D03*
X124697056Y-73697056D03*
X125400000Y-72000000D03*
D14*
X123000000Y-72000000D03*
D13*
X74697056Y-132302944D03*
X73000000Y-131600000D03*
X71302944Y-132302944D03*
X70600000Y-134000000D03*
X71302944Y-135697056D03*
X73000000Y-136400000D03*
X74697056Y-135697056D03*
X75400000Y-134000000D03*
D14*
X73000000Y-134000000D03*
D15*
X127592000Y-101437600D03*
X127592000Y-103977600D03*
X127592000Y-106517600D03*
X127592000Y-109057600D03*
X127592000Y-111597600D03*
X127592000Y-114137600D03*
X127592000Y-116677600D03*
X127592000Y-119217600D03*
X127592000Y-121757600D03*
D16*
X127592000Y-124297600D03*
D17*
X125458400Y-58083600D03*
D18*
X125458400Y-63083600D03*
D11*
G36*
X123145291Y-61046853D02*
G01*
X123166526Y-61050003D01*
X123187350Y-61055219D01*
X123207562Y-61062451D01*
X123226968Y-61071630D01*
X123245381Y-61082666D01*
X123262624Y-61095454D01*
X123278530Y-61109870D01*
X123292946Y-61125776D01*
X123305734Y-61143019D01*
X123316770Y-61161432D01*
X123325949Y-61180838D01*
X123333181Y-61201050D01*
X123338397Y-61221874D01*
X123341547Y-61243109D01*
X123342600Y-61264550D01*
X123342600Y-61702050D01*
X123341547Y-61723491D01*
X123338397Y-61744726D01*
X123333181Y-61765550D01*
X123325949Y-61785762D01*
X123316770Y-61805168D01*
X123305734Y-61823581D01*
X123292946Y-61840824D01*
X123278530Y-61856730D01*
X123262624Y-61871146D01*
X123245381Y-61883934D01*
X123226968Y-61894970D01*
X123207562Y-61904149D01*
X123187350Y-61911381D01*
X123166526Y-61916597D01*
X123145291Y-61919747D01*
X123123850Y-61920800D01*
X122611350Y-61920800D01*
X122589909Y-61919747D01*
X122568674Y-61916597D01*
X122547850Y-61911381D01*
X122527638Y-61904149D01*
X122508232Y-61894970D01*
X122489819Y-61883934D01*
X122472576Y-61871146D01*
X122456670Y-61856730D01*
X122442254Y-61840824D01*
X122429466Y-61823581D01*
X122418430Y-61805168D01*
X122409251Y-61785762D01*
X122402019Y-61765550D01*
X122396803Y-61744726D01*
X122393653Y-61723491D01*
X122392600Y-61702050D01*
X122392600Y-61264550D01*
X122393653Y-61243109D01*
X122396803Y-61221874D01*
X122402019Y-61201050D01*
X122409251Y-61180838D01*
X122418430Y-61161432D01*
X122429466Y-61143019D01*
X122442254Y-61125776D01*
X122456670Y-61109870D01*
X122472576Y-61095454D01*
X122489819Y-61082666D01*
X122508232Y-61071630D01*
X122527638Y-61062451D01*
X122547850Y-61055219D01*
X122568674Y-61050003D01*
X122589909Y-61046853D01*
X122611350Y-61045800D01*
X123123850Y-61045800D01*
X123145291Y-61046853D01*
X123145291Y-61046853D01*
G37*
D12*
X122867600Y-61483300D03*
D11*
G36*
X123145291Y-62621853D02*
G01*
X123166526Y-62625003D01*
X123187350Y-62630219D01*
X123207562Y-62637451D01*
X123226968Y-62646630D01*
X123245381Y-62657666D01*
X123262624Y-62670454D01*
X123278530Y-62684870D01*
X123292946Y-62700776D01*
X123305734Y-62718019D01*
X123316770Y-62736432D01*
X123325949Y-62755838D01*
X123333181Y-62776050D01*
X123338397Y-62796874D01*
X123341547Y-62818109D01*
X123342600Y-62839550D01*
X123342600Y-63277050D01*
X123341547Y-63298491D01*
X123338397Y-63319726D01*
X123333181Y-63340550D01*
X123325949Y-63360762D01*
X123316770Y-63380168D01*
X123305734Y-63398581D01*
X123292946Y-63415824D01*
X123278530Y-63431730D01*
X123262624Y-63446146D01*
X123245381Y-63458934D01*
X123226968Y-63469970D01*
X123207562Y-63479149D01*
X123187350Y-63486381D01*
X123166526Y-63491597D01*
X123145291Y-63494747D01*
X123123850Y-63495800D01*
X122611350Y-63495800D01*
X122589909Y-63494747D01*
X122568674Y-63491597D01*
X122547850Y-63486381D01*
X122527638Y-63479149D01*
X122508232Y-63469970D01*
X122489819Y-63458934D01*
X122472576Y-63446146D01*
X122456670Y-63431730D01*
X122442254Y-63415824D01*
X122429466Y-63398581D01*
X122418430Y-63380168D01*
X122409251Y-63360762D01*
X122402019Y-63340550D01*
X122396803Y-63319726D01*
X122393653Y-63298491D01*
X122392600Y-63277050D01*
X122392600Y-62839550D01*
X122393653Y-62818109D01*
X122396803Y-62796874D01*
X122402019Y-62776050D01*
X122409251Y-62755838D01*
X122418430Y-62736432D01*
X122429466Y-62718019D01*
X122442254Y-62700776D01*
X122456670Y-62684870D01*
X122472576Y-62670454D01*
X122489819Y-62657666D01*
X122508232Y-62646630D01*
X122527638Y-62637451D01*
X122547850Y-62630219D01*
X122568674Y-62625003D01*
X122589909Y-62621853D01*
X122611350Y-62620800D01*
X123123850Y-62620800D01*
X123145291Y-62621853D01*
X123145291Y-62621853D01*
G37*
D12*
X122867600Y-63058300D03*
D19*
X78062000Y-85283200D03*
X78062000Y-82743200D03*
D20*
X78062000Y-80203200D03*
D11*
G36*
X112058691Y-79526053D02*
G01*
X112079926Y-79529203D01*
X112100750Y-79534419D01*
X112120962Y-79541651D01*
X112140368Y-79550830D01*
X112158781Y-79561866D01*
X112176024Y-79574654D01*
X112191930Y-79589070D01*
X112206346Y-79604976D01*
X112219134Y-79622219D01*
X112230170Y-79640632D01*
X112239349Y-79660038D01*
X112246581Y-79680250D01*
X112251797Y-79701074D01*
X112254947Y-79722309D01*
X112256000Y-79743750D01*
X112256000Y-80256250D01*
X112254947Y-80277691D01*
X112251797Y-80298926D01*
X112246581Y-80319750D01*
X112239349Y-80339962D01*
X112230170Y-80359368D01*
X112219134Y-80377781D01*
X112206346Y-80395024D01*
X112191930Y-80410930D01*
X112176024Y-80425346D01*
X112158781Y-80438134D01*
X112140368Y-80449170D01*
X112120962Y-80458349D01*
X112100750Y-80465581D01*
X112079926Y-80470797D01*
X112058691Y-80473947D01*
X112037250Y-80475000D01*
X111599750Y-80475000D01*
X111578309Y-80473947D01*
X111557074Y-80470797D01*
X111536250Y-80465581D01*
X111516038Y-80458349D01*
X111496632Y-80449170D01*
X111478219Y-80438134D01*
X111460976Y-80425346D01*
X111445070Y-80410930D01*
X111430654Y-80395024D01*
X111417866Y-80377781D01*
X111406830Y-80359368D01*
X111397651Y-80339962D01*
X111390419Y-80319750D01*
X111385203Y-80298926D01*
X111382053Y-80277691D01*
X111381000Y-80256250D01*
X111381000Y-79743750D01*
X111382053Y-79722309D01*
X111385203Y-79701074D01*
X111390419Y-79680250D01*
X111397651Y-79660038D01*
X111406830Y-79640632D01*
X111417866Y-79622219D01*
X111430654Y-79604976D01*
X111445070Y-79589070D01*
X111460976Y-79574654D01*
X111478219Y-79561866D01*
X111496632Y-79550830D01*
X111516038Y-79541651D01*
X111536250Y-79534419D01*
X111557074Y-79529203D01*
X111578309Y-79526053D01*
X111599750Y-79525000D01*
X112037250Y-79525000D01*
X112058691Y-79526053D01*
X112058691Y-79526053D01*
G37*
D12*
X111818500Y-80000000D03*
D11*
G36*
X113633691Y-79526053D02*
G01*
X113654926Y-79529203D01*
X113675750Y-79534419D01*
X113695962Y-79541651D01*
X113715368Y-79550830D01*
X113733781Y-79561866D01*
X113751024Y-79574654D01*
X113766930Y-79589070D01*
X113781346Y-79604976D01*
X113794134Y-79622219D01*
X113805170Y-79640632D01*
X113814349Y-79660038D01*
X113821581Y-79680250D01*
X113826797Y-79701074D01*
X113829947Y-79722309D01*
X113831000Y-79743750D01*
X113831000Y-80256250D01*
X113829947Y-80277691D01*
X113826797Y-80298926D01*
X113821581Y-80319750D01*
X113814349Y-80339962D01*
X113805170Y-80359368D01*
X113794134Y-80377781D01*
X113781346Y-80395024D01*
X113766930Y-80410930D01*
X113751024Y-80425346D01*
X113733781Y-80438134D01*
X113715368Y-80449170D01*
X113695962Y-80458349D01*
X113675750Y-80465581D01*
X113654926Y-80470797D01*
X113633691Y-80473947D01*
X113612250Y-80475000D01*
X113174750Y-80475000D01*
X113153309Y-80473947D01*
X113132074Y-80470797D01*
X113111250Y-80465581D01*
X113091038Y-80458349D01*
X113071632Y-80449170D01*
X113053219Y-80438134D01*
X113035976Y-80425346D01*
X113020070Y-80410930D01*
X113005654Y-80395024D01*
X112992866Y-80377781D01*
X112981830Y-80359368D01*
X112972651Y-80339962D01*
X112965419Y-80319750D01*
X112960203Y-80298926D01*
X112957053Y-80277691D01*
X112956000Y-80256250D01*
X112956000Y-79743750D01*
X112957053Y-79722309D01*
X112960203Y-79701074D01*
X112965419Y-79680250D01*
X112972651Y-79660038D01*
X112981830Y-79640632D01*
X112992866Y-79622219D01*
X113005654Y-79604976D01*
X113020070Y-79589070D01*
X113035976Y-79574654D01*
X113053219Y-79561866D01*
X113071632Y-79550830D01*
X113091038Y-79541651D01*
X113111250Y-79534419D01*
X113132074Y-79529203D01*
X113153309Y-79526053D01*
X113174750Y-79525000D01*
X113612250Y-79525000D01*
X113633691Y-79526053D01*
X113633691Y-79526053D01*
G37*
D12*
X113393500Y-80000000D03*
D21*
X74607600Y-85092400D03*
X74607600Y-80292400D03*
D11*
G36*
X76752691Y-86587253D02*
G01*
X76773926Y-86590403D01*
X76794750Y-86595619D01*
X76814962Y-86602851D01*
X76834368Y-86612030D01*
X76852781Y-86623066D01*
X76870024Y-86635854D01*
X76885930Y-86650270D01*
X76900346Y-86666176D01*
X76913134Y-86683419D01*
X76924170Y-86701832D01*
X76933349Y-86721238D01*
X76940581Y-86741450D01*
X76945797Y-86762274D01*
X76948947Y-86783509D01*
X76950000Y-86804950D01*
X76950000Y-87317450D01*
X76948947Y-87338891D01*
X76945797Y-87360126D01*
X76940581Y-87380950D01*
X76933349Y-87401162D01*
X76924170Y-87420568D01*
X76913134Y-87438981D01*
X76900346Y-87456224D01*
X76885930Y-87472130D01*
X76870024Y-87486546D01*
X76852781Y-87499334D01*
X76834368Y-87510370D01*
X76814962Y-87519549D01*
X76794750Y-87526781D01*
X76773926Y-87531997D01*
X76752691Y-87535147D01*
X76731250Y-87536200D01*
X76293750Y-87536200D01*
X76272309Y-87535147D01*
X76251074Y-87531997D01*
X76230250Y-87526781D01*
X76210038Y-87519549D01*
X76190632Y-87510370D01*
X76172219Y-87499334D01*
X76154976Y-87486546D01*
X76139070Y-87472130D01*
X76124654Y-87456224D01*
X76111866Y-87438981D01*
X76100830Y-87420568D01*
X76091651Y-87401162D01*
X76084419Y-87380950D01*
X76079203Y-87360126D01*
X76076053Y-87338891D01*
X76075000Y-87317450D01*
X76075000Y-86804950D01*
X76076053Y-86783509D01*
X76079203Y-86762274D01*
X76084419Y-86741450D01*
X76091651Y-86721238D01*
X76100830Y-86701832D01*
X76111866Y-86683419D01*
X76124654Y-86666176D01*
X76139070Y-86650270D01*
X76154976Y-86635854D01*
X76172219Y-86623066D01*
X76190632Y-86612030D01*
X76210038Y-86602851D01*
X76230250Y-86595619D01*
X76251074Y-86590403D01*
X76272309Y-86587253D01*
X76293750Y-86586200D01*
X76731250Y-86586200D01*
X76752691Y-86587253D01*
X76752691Y-86587253D01*
G37*
D12*
X76512500Y-87061200D03*
D11*
G36*
X78327691Y-86587253D02*
G01*
X78348926Y-86590403D01*
X78369750Y-86595619D01*
X78389962Y-86602851D01*
X78409368Y-86612030D01*
X78427781Y-86623066D01*
X78445024Y-86635854D01*
X78460930Y-86650270D01*
X78475346Y-86666176D01*
X78488134Y-86683419D01*
X78499170Y-86701832D01*
X78508349Y-86721238D01*
X78515581Y-86741450D01*
X78520797Y-86762274D01*
X78523947Y-86783509D01*
X78525000Y-86804950D01*
X78525000Y-87317450D01*
X78523947Y-87338891D01*
X78520797Y-87360126D01*
X78515581Y-87380950D01*
X78508349Y-87401162D01*
X78499170Y-87420568D01*
X78488134Y-87438981D01*
X78475346Y-87456224D01*
X78460930Y-87472130D01*
X78445024Y-87486546D01*
X78427781Y-87499334D01*
X78409368Y-87510370D01*
X78389962Y-87519549D01*
X78369750Y-87526781D01*
X78348926Y-87531997D01*
X78327691Y-87535147D01*
X78306250Y-87536200D01*
X77868750Y-87536200D01*
X77847309Y-87535147D01*
X77826074Y-87531997D01*
X77805250Y-87526781D01*
X77785038Y-87519549D01*
X77765632Y-87510370D01*
X77747219Y-87499334D01*
X77729976Y-87486546D01*
X77714070Y-87472130D01*
X77699654Y-87456224D01*
X77686866Y-87438981D01*
X77675830Y-87420568D01*
X77666651Y-87401162D01*
X77659419Y-87380950D01*
X77654203Y-87360126D01*
X77651053Y-87338891D01*
X77650000Y-87317450D01*
X77650000Y-86804950D01*
X77651053Y-86783509D01*
X77654203Y-86762274D01*
X77659419Y-86741450D01*
X77666651Y-86721238D01*
X77675830Y-86701832D01*
X77686866Y-86683419D01*
X77699654Y-86666176D01*
X77714070Y-86650270D01*
X77729976Y-86635854D01*
X77747219Y-86623066D01*
X77765632Y-86612030D01*
X77785038Y-86602851D01*
X77805250Y-86595619D01*
X77826074Y-86590403D01*
X77847309Y-86587253D01*
X77868750Y-86586200D01*
X78306250Y-86586200D01*
X78327691Y-86587253D01*
X78327691Y-86587253D01*
G37*
D12*
X78087500Y-87061200D03*
D11*
G36*
X123190426Y-95458000D02*
G01*
X123214617Y-95461588D01*
X123238339Y-95467530D01*
X123261365Y-95475769D01*
X123283472Y-95486225D01*
X123304448Y-95498798D01*
X123324091Y-95513366D01*
X123342211Y-95529789D01*
X123358634Y-95547909D01*
X123373202Y-95567552D01*
X123385775Y-95588528D01*
X123396231Y-95610635D01*
X123404470Y-95633661D01*
X123410412Y-95657383D01*
X123414000Y-95681574D01*
X123415200Y-95706000D01*
X123415200Y-96907600D01*
X123414000Y-96932026D01*
X123410412Y-96956217D01*
X123404470Y-96979939D01*
X123396231Y-97002965D01*
X123385775Y-97025072D01*
X123373202Y-97046048D01*
X123358634Y-97065691D01*
X123342211Y-97083811D01*
X123324091Y-97100234D01*
X123304448Y-97114802D01*
X123283472Y-97127375D01*
X123261365Y-97137831D01*
X123238339Y-97146070D01*
X123214617Y-97152012D01*
X123190426Y-97155600D01*
X123166000Y-97156800D01*
X122264400Y-97156800D01*
X122239974Y-97155600D01*
X122215783Y-97152012D01*
X122192061Y-97146070D01*
X122169035Y-97137831D01*
X122146928Y-97127375D01*
X122125952Y-97114802D01*
X122106309Y-97100234D01*
X122088189Y-97083811D01*
X122071766Y-97065691D01*
X122057198Y-97046048D01*
X122044625Y-97025072D01*
X122034169Y-97002965D01*
X122025930Y-96979939D01*
X122019988Y-96956217D01*
X122016400Y-96932026D01*
X122015200Y-96907600D01*
X122015200Y-95706000D01*
X122016400Y-95681574D01*
X122019988Y-95657383D01*
X122025930Y-95633661D01*
X122034169Y-95610635D01*
X122044625Y-95588528D01*
X122057198Y-95567552D01*
X122071766Y-95547909D01*
X122088189Y-95529789D01*
X122106309Y-95513366D01*
X122125952Y-95498798D01*
X122146928Y-95486225D01*
X122169035Y-95475769D01*
X122192061Y-95467530D01*
X122215783Y-95461588D01*
X122239974Y-95458000D01*
X122264400Y-95456800D01*
X123166000Y-95456800D01*
X123190426Y-95458000D01*
X123190426Y-95458000D01*
G37*
D22*
X122715200Y-96306800D03*
D23*
X122715200Y-91226800D03*
D11*
G36*
X70719691Y-76083653D02*
G01*
X70740926Y-76086803D01*
X70761750Y-76092019D01*
X70781962Y-76099251D01*
X70801368Y-76108430D01*
X70819781Y-76119466D01*
X70837024Y-76132254D01*
X70852930Y-76146670D01*
X70867346Y-76162576D01*
X70880134Y-76179819D01*
X70891170Y-76198232D01*
X70900349Y-76217638D01*
X70907581Y-76237850D01*
X70912797Y-76258674D01*
X70915947Y-76279909D01*
X70917000Y-76301350D01*
X70917000Y-76738850D01*
X70915947Y-76760291D01*
X70912797Y-76781526D01*
X70907581Y-76802350D01*
X70900349Y-76822562D01*
X70891170Y-76841968D01*
X70880134Y-76860381D01*
X70867346Y-76877624D01*
X70852930Y-76893530D01*
X70837024Y-76907946D01*
X70819781Y-76920734D01*
X70801368Y-76931770D01*
X70781962Y-76940949D01*
X70761750Y-76948181D01*
X70740926Y-76953397D01*
X70719691Y-76956547D01*
X70698250Y-76957600D01*
X70185750Y-76957600D01*
X70164309Y-76956547D01*
X70143074Y-76953397D01*
X70122250Y-76948181D01*
X70102038Y-76940949D01*
X70082632Y-76931770D01*
X70064219Y-76920734D01*
X70046976Y-76907946D01*
X70031070Y-76893530D01*
X70016654Y-76877624D01*
X70003866Y-76860381D01*
X69992830Y-76841968D01*
X69983651Y-76822562D01*
X69976419Y-76802350D01*
X69971203Y-76781526D01*
X69968053Y-76760291D01*
X69967000Y-76738850D01*
X69967000Y-76301350D01*
X69968053Y-76279909D01*
X69971203Y-76258674D01*
X69976419Y-76237850D01*
X69983651Y-76217638D01*
X69992830Y-76198232D01*
X70003866Y-76179819D01*
X70016654Y-76162576D01*
X70031070Y-76146670D01*
X70046976Y-76132254D01*
X70064219Y-76119466D01*
X70082632Y-76108430D01*
X70102038Y-76099251D01*
X70122250Y-76092019D01*
X70143074Y-76086803D01*
X70164309Y-76083653D01*
X70185750Y-76082600D01*
X70698250Y-76082600D01*
X70719691Y-76083653D01*
X70719691Y-76083653D01*
G37*
D12*
X70442000Y-76520100D03*
D11*
G36*
X70719691Y-77658653D02*
G01*
X70740926Y-77661803D01*
X70761750Y-77667019D01*
X70781962Y-77674251D01*
X70801368Y-77683430D01*
X70819781Y-77694466D01*
X70837024Y-77707254D01*
X70852930Y-77721670D01*
X70867346Y-77737576D01*
X70880134Y-77754819D01*
X70891170Y-77773232D01*
X70900349Y-77792638D01*
X70907581Y-77812850D01*
X70912797Y-77833674D01*
X70915947Y-77854909D01*
X70917000Y-77876350D01*
X70917000Y-78313850D01*
X70915947Y-78335291D01*
X70912797Y-78356526D01*
X70907581Y-78377350D01*
X70900349Y-78397562D01*
X70891170Y-78416968D01*
X70880134Y-78435381D01*
X70867346Y-78452624D01*
X70852930Y-78468530D01*
X70837024Y-78482946D01*
X70819781Y-78495734D01*
X70801368Y-78506770D01*
X70781962Y-78515949D01*
X70761750Y-78523181D01*
X70740926Y-78528397D01*
X70719691Y-78531547D01*
X70698250Y-78532600D01*
X70185750Y-78532600D01*
X70164309Y-78531547D01*
X70143074Y-78528397D01*
X70122250Y-78523181D01*
X70102038Y-78515949D01*
X70082632Y-78506770D01*
X70064219Y-78495734D01*
X70046976Y-78482946D01*
X70031070Y-78468530D01*
X70016654Y-78452624D01*
X70003866Y-78435381D01*
X69992830Y-78416968D01*
X69983651Y-78397562D01*
X69976419Y-78377350D01*
X69971203Y-78356526D01*
X69968053Y-78335291D01*
X69967000Y-78313850D01*
X69967000Y-77876350D01*
X69968053Y-77854909D01*
X69971203Y-77833674D01*
X69976419Y-77812850D01*
X69983651Y-77792638D01*
X69992830Y-77773232D01*
X70003866Y-77754819D01*
X70016654Y-77737576D01*
X70031070Y-77721670D01*
X70046976Y-77707254D01*
X70064219Y-77694466D01*
X70082632Y-77683430D01*
X70102038Y-77674251D01*
X70122250Y-77667019D01*
X70143074Y-77661803D01*
X70164309Y-77658653D01*
X70185750Y-77657600D01*
X70698250Y-77657600D01*
X70719691Y-77658653D01*
X70719691Y-77658653D01*
G37*
D12*
X70442000Y-78095100D03*
D11*
G36*
X82199742Y-82030574D02*
G01*
X82223403Y-82034084D01*
X82246607Y-82039896D01*
X82269129Y-82047954D01*
X82290753Y-82058182D01*
X82311270Y-82070479D01*
X82330483Y-82084729D01*
X82348207Y-82100793D01*
X82364271Y-82118517D01*
X82378521Y-82137730D01*
X82390818Y-82158247D01*
X82401046Y-82179871D01*
X82409104Y-82202393D01*
X82414916Y-82225597D01*
X82418426Y-82249258D01*
X82419600Y-82273150D01*
X82419600Y-82760650D01*
X82418426Y-82784542D01*
X82414916Y-82808203D01*
X82409104Y-82831407D01*
X82401046Y-82853929D01*
X82390818Y-82875553D01*
X82378521Y-82896070D01*
X82364271Y-82915283D01*
X82348207Y-82933007D01*
X82330483Y-82949071D01*
X82311270Y-82963321D01*
X82290753Y-82975618D01*
X82269129Y-82985846D01*
X82246607Y-82993904D01*
X82223403Y-82999716D01*
X82199742Y-83003226D01*
X82175850Y-83004400D01*
X81263350Y-83004400D01*
X81239458Y-83003226D01*
X81215797Y-82999716D01*
X81192593Y-82993904D01*
X81170071Y-82985846D01*
X81148447Y-82975618D01*
X81127930Y-82963321D01*
X81108717Y-82949071D01*
X81090993Y-82933007D01*
X81074929Y-82915283D01*
X81060679Y-82896070D01*
X81048382Y-82875553D01*
X81038154Y-82853929D01*
X81030096Y-82831407D01*
X81024284Y-82808203D01*
X81020774Y-82784542D01*
X81019600Y-82760650D01*
X81019600Y-82273150D01*
X81020774Y-82249258D01*
X81024284Y-82225597D01*
X81030096Y-82202393D01*
X81038154Y-82179871D01*
X81048382Y-82158247D01*
X81060679Y-82137730D01*
X81074929Y-82118517D01*
X81090993Y-82100793D01*
X81108717Y-82084729D01*
X81127930Y-82070479D01*
X81148447Y-82058182D01*
X81170071Y-82047954D01*
X81192593Y-82039896D01*
X81215797Y-82034084D01*
X81239458Y-82030574D01*
X81263350Y-82029400D01*
X82175850Y-82029400D01*
X82199742Y-82030574D01*
X82199742Y-82030574D01*
G37*
D24*
X81719600Y-82516900D03*
D11*
G36*
X82199742Y-83905574D02*
G01*
X82223403Y-83909084D01*
X82246607Y-83914896D01*
X82269129Y-83922954D01*
X82290753Y-83933182D01*
X82311270Y-83945479D01*
X82330483Y-83959729D01*
X82348207Y-83975793D01*
X82364271Y-83993517D01*
X82378521Y-84012730D01*
X82390818Y-84033247D01*
X82401046Y-84054871D01*
X82409104Y-84077393D01*
X82414916Y-84100597D01*
X82418426Y-84124258D01*
X82419600Y-84148150D01*
X82419600Y-84635650D01*
X82418426Y-84659542D01*
X82414916Y-84683203D01*
X82409104Y-84706407D01*
X82401046Y-84728929D01*
X82390818Y-84750553D01*
X82378521Y-84771070D01*
X82364271Y-84790283D01*
X82348207Y-84808007D01*
X82330483Y-84824071D01*
X82311270Y-84838321D01*
X82290753Y-84850618D01*
X82269129Y-84860846D01*
X82246607Y-84868904D01*
X82223403Y-84874716D01*
X82199742Y-84878226D01*
X82175850Y-84879400D01*
X81263350Y-84879400D01*
X81239458Y-84878226D01*
X81215797Y-84874716D01*
X81192593Y-84868904D01*
X81170071Y-84860846D01*
X81148447Y-84850618D01*
X81127930Y-84838321D01*
X81108717Y-84824071D01*
X81090993Y-84808007D01*
X81074929Y-84790283D01*
X81060679Y-84771070D01*
X81048382Y-84750553D01*
X81038154Y-84728929D01*
X81030096Y-84706407D01*
X81024284Y-84683203D01*
X81020774Y-84659542D01*
X81019600Y-84635650D01*
X81019600Y-84148150D01*
X81020774Y-84124258D01*
X81024284Y-84100597D01*
X81030096Y-84077393D01*
X81038154Y-84054871D01*
X81048382Y-84033247D01*
X81060679Y-84012730D01*
X81074929Y-83993517D01*
X81090993Y-83975793D01*
X81108717Y-83959729D01*
X81127930Y-83945479D01*
X81148447Y-83933182D01*
X81170071Y-83922954D01*
X81192593Y-83914896D01*
X81215797Y-83909084D01*
X81239458Y-83905574D01*
X81263350Y-83904400D01*
X82175850Y-83904400D01*
X82199742Y-83905574D01*
X82199742Y-83905574D01*
G37*
D24*
X81719600Y-84391900D03*
D11*
G36*
X85338091Y-82015253D02*
G01*
X85359326Y-82018403D01*
X85380150Y-82023619D01*
X85400362Y-82030851D01*
X85419768Y-82040030D01*
X85438181Y-82051066D01*
X85455424Y-82063854D01*
X85471330Y-82078270D01*
X85485746Y-82094176D01*
X85498534Y-82111419D01*
X85509570Y-82129832D01*
X85518749Y-82149238D01*
X85525981Y-82169450D01*
X85531197Y-82190274D01*
X85534347Y-82211509D01*
X85535400Y-82232950D01*
X85535400Y-82745450D01*
X85534347Y-82766891D01*
X85531197Y-82788126D01*
X85525981Y-82808950D01*
X85518749Y-82829162D01*
X85509570Y-82848568D01*
X85498534Y-82866981D01*
X85485746Y-82884224D01*
X85471330Y-82900130D01*
X85455424Y-82914546D01*
X85438181Y-82927334D01*
X85419768Y-82938370D01*
X85400362Y-82947549D01*
X85380150Y-82954781D01*
X85359326Y-82959997D01*
X85338091Y-82963147D01*
X85316650Y-82964200D01*
X84879150Y-82964200D01*
X84857709Y-82963147D01*
X84836474Y-82959997D01*
X84815650Y-82954781D01*
X84795438Y-82947549D01*
X84776032Y-82938370D01*
X84757619Y-82927334D01*
X84740376Y-82914546D01*
X84724470Y-82900130D01*
X84710054Y-82884224D01*
X84697266Y-82866981D01*
X84686230Y-82848568D01*
X84677051Y-82829162D01*
X84669819Y-82808950D01*
X84664603Y-82788126D01*
X84661453Y-82766891D01*
X84660400Y-82745450D01*
X84660400Y-82232950D01*
X84661453Y-82211509D01*
X84664603Y-82190274D01*
X84669819Y-82169450D01*
X84677051Y-82149238D01*
X84686230Y-82129832D01*
X84697266Y-82111419D01*
X84710054Y-82094176D01*
X84724470Y-82078270D01*
X84740376Y-82063854D01*
X84757619Y-82051066D01*
X84776032Y-82040030D01*
X84795438Y-82030851D01*
X84815650Y-82023619D01*
X84836474Y-82018403D01*
X84857709Y-82015253D01*
X84879150Y-82014200D01*
X85316650Y-82014200D01*
X85338091Y-82015253D01*
X85338091Y-82015253D01*
G37*
D12*
X85097900Y-82489200D03*
D11*
G36*
X83763091Y-82015253D02*
G01*
X83784326Y-82018403D01*
X83805150Y-82023619D01*
X83825362Y-82030851D01*
X83844768Y-82040030D01*
X83863181Y-82051066D01*
X83880424Y-82063854D01*
X83896330Y-82078270D01*
X83910746Y-82094176D01*
X83923534Y-82111419D01*
X83934570Y-82129832D01*
X83943749Y-82149238D01*
X83950981Y-82169450D01*
X83956197Y-82190274D01*
X83959347Y-82211509D01*
X83960400Y-82232950D01*
X83960400Y-82745450D01*
X83959347Y-82766891D01*
X83956197Y-82788126D01*
X83950981Y-82808950D01*
X83943749Y-82829162D01*
X83934570Y-82848568D01*
X83923534Y-82866981D01*
X83910746Y-82884224D01*
X83896330Y-82900130D01*
X83880424Y-82914546D01*
X83863181Y-82927334D01*
X83844768Y-82938370D01*
X83825362Y-82947549D01*
X83805150Y-82954781D01*
X83784326Y-82959997D01*
X83763091Y-82963147D01*
X83741650Y-82964200D01*
X83304150Y-82964200D01*
X83282709Y-82963147D01*
X83261474Y-82959997D01*
X83240650Y-82954781D01*
X83220438Y-82947549D01*
X83201032Y-82938370D01*
X83182619Y-82927334D01*
X83165376Y-82914546D01*
X83149470Y-82900130D01*
X83135054Y-82884224D01*
X83122266Y-82866981D01*
X83111230Y-82848568D01*
X83102051Y-82829162D01*
X83094819Y-82808950D01*
X83089603Y-82788126D01*
X83086453Y-82766891D01*
X83085400Y-82745450D01*
X83085400Y-82232950D01*
X83086453Y-82211509D01*
X83089603Y-82190274D01*
X83094819Y-82169450D01*
X83102051Y-82149238D01*
X83111230Y-82129832D01*
X83122266Y-82111419D01*
X83135054Y-82094176D01*
X83149470Y-82078270D01*
X83165376Y-82063854D01*
X83182619Y-82051066D01*
X83201032Y-82040030D01*
X83220438Y-82030851D01*
X83240650Y-82023619D01*
X83261474Y-82018403D01*
X83282709Y-82015253D01*
X83304150Y-82014200D01*
X83741650Y-82014200D01*
X83763091Y-82015253D01*
X83763091Y-82015253D01*
G37*
D12*
X83522900Y-82489200D03*
D11*
G36*
X85338091Y-83894853D02*
G01*
X85359326Y-83898003D01*
X85380150Y-83903219D01*
X85400362Y-83910451D01*
X85419768Y-83919630D01*
X85438181Y-83930666D01*
X85455424Y-83943454D01*
X85471330Y-83957870D01*
X85485746Y-83973776D01*
X85498534Y-83991019D01*
X85509570Y-84009432D01*
X85518749Y-84028838D01*
X85525981Y-84049050D01*
X85531197Y-84069874D01*
X85534347Y-84091109D01*
X85535400Y-84112550D01*
X85535400Y-84625050D01*
X85534347Y-84646491D01*
X85531197Y-84667726D01*
X85525981Y-84688550D01*
X85518749Y-84708762D01*
X85509570Y-84728168D01*
X85498534Y-84746581D01*
X85485746Y-84763824D01*
X85471330Y-84779730D01*
X85455424Y-84794146D01*
X85438181Y-84806934D01*
X85419768Y-84817970D01*
X85400362Y-84827149D01*
X85380150Y-84834381D01*
X85359326Y-84839597D01*
X85338091Y-84842747D01*
X85316650Y-84843800D01*
X84879150Y-84843800D01*
X84857709Y-84842747D01*
X84836474Y-84839597D01*
X84815650Y-84834381D01*
X84795438Y-84827149D01*
X84776032Y-84817970D01*
X84757619Y-84806934D01*
X84740376Y-84794146D01*
X84724470Y-84779730D01*
X84710054Y-84763824D01*
X84697266Y-84746581D01*
X84686230Y-84728168D01*
X84677051Y-84708762D01*
X84669819Y-84688550D01*
X84664603Y-84667726D01*
X84661453Y-84646491D01*
X84660400Y-84625050D01*
X84660400Y-84112550D01*
X84661453Y-84091109D01*
X84664603Y-84069874D01*
X84669819Y-84049050D01*
X84677051Y-84028838D01*
X84686230Y-84009432D01*
X84697266Y-83991019D01*
X84710054Y-83973776D01*
X84724470Y-83957870D01*
X84740376Y-83943454D01*
X84757619Y-83930666D01*
X84776032Y-83919630D01*
X84795438Y-83910451D01*
X84815650Y-83903219D01*
X84836474Y-83898003D01*
X84857709Y-83894853D01*
X84879150Y-83893800D01*
X85316650Y-83893800D01*
X85338091Y-83894853D01*
X85338091Y-83894853D01*
G37*
D12*
X85097900Y-84368800D03*
D11*
G36*
X83763091Y-83894853D02*
G01*
X83784326Y-83898003D01*
X83805150Y-83903219D01*
X83825362Y-83910451D01*
X83844768Y-83919630D01*
X83863181Y-83930666D01*
X83880424Y-83943454D01*
X83896330Y-83957870D01*
X83910746Y-83973776D01*
X83923534Y-83991019D01*
X83934570Y-84009432D01*
X83943749Y-84028838D01*
X83950981Y-84049050D01*
X83956197Y-84069874D01*
X83959347Y-84091109D01*
X83960400Y-84112550D01*
X83960400Y-84625050D01*
X83959347Y-84646491D01*
X83956197Y-84667726D01*
X83950981Y-84688550D01*
X83943749Y-84708762D01*
X83934570Y-84728168D01*
X83923534Y-84746581D01*
X83910746Y-84763824D01*
X83896330Y-84779730D01*
X83880424Y-84794146D01*
X83863181Y-84806934D01*
X83844768Y-84817970D01*
X83825362Y-84827149D01*
X83805150Y-84834381D01*
X83784326Y-84839597D01*
X83763091Y-84842747D01*
X83741650Y-84843800D01*
X83304150Y-84843800D01*
X83282709Y-84842747D01*
X83261474Y-84839597D01*
X83240650Y-84834381D01*
X83220438Y-84827149D01*
X83201032Y-84817970D01*
X83182619Y-84806934D01*
X83165376Y-84794146D01*
X83149470Y-84779730D01*
X83135054Y-84763824D01*
X83122266Y-84746581D01*
X83111230Y-84728168D01*
X83102051Y-84708762D01*
X83094819Y-84688550D01*
X83089603Y-84667726D01*
X83086453Y-84646491D01*
X83085400Y-84625050D01*
X83085400Y-84112550D01*
X83086453Y-84091109D01*
X83089603Y-84069874D01*
X83094819Y-84049050D01*
X83102051Y-84028838D01*
X83111230Y-84009432D01*
X83122266Y-83991019D01*
X83135054Y-83973776D01*
X83149470Y-83957870D01*
X83165376Y-83943454D01*
X83182619Y-83930666D01*
X83201032Y-83919630D01*
X83220438Y-83910451D01*
X83240650Y-83903219D01*
X83261474Y-83898003D01*
X83282709Y-83894853D01*
X83304150Y-83893800D01*
X83741650Y-83893800D01*
X83763091Y-83894853D01*
X83763091Y-83894853D01*
G37*
D12*
X83522900Y-84368800D03*
D17*
X99267200Y-141214000D03*
D18*
X94267200Y-141214000D03*
D25*
X111463000Y-129276000D03*
X114003000Y-129276000D03*
X111463000Y-131816000D03*
X114003000Y-131816000D03*
X111463000Y-134356000D03*
D26*
X114003000Y-134356000D03*
D27*
X76979200Y-109819600D03*
X74979200Y-108869600D03*
X74979200Y-110769600D03*
X77792000Y-93512800D03*
X75792000Y-92562800D03*
X75792000Y-94462800D03*
D11*
G36*
X84220491Y-106958053D02*
G01*
X84241726Y-106961203D01*
X84262550Y-106966419D01*
X84282762Y-106973651D01*
X84302168Y-106982830D01*
X84320581Y-106993866D01*
X84337824Y-107006654D01*
X84353730Y-107021070D01*
X84368146Y-107036976D01*
X84380934Y-107054219D01*
X84391970Y-107072632D01*
X84401149Y-107092038D01*
X84408381Y-107112250D01*
X84413597Y-107133074D01*
X84416747Y-107154309D01*
X84417800Y-107175750D01*
X84417800Y-107688250D01*
X84416747Y-107709691D01*
X84413597Y-107730926D01*
X84408381Y-107751750D01*
X84401149Y-107771962D01*
X84391970Y-107791368D01*
X84380934Y-107809781D01*
X84368146Y-107827024D01*
X84353730Y-107842930D01*
X84337824Y-107857346D01*
X84320581Y-107870134D01*
X84302168Y-107881170D01*
X84282762Y-107890349D01*
X84262550Y-107897581D01*
X84241726Y-107902797D01*
X84220491Y-107905947D01*
X84199050Y-107907000D01*
X83761550Y-107907000D01*
X83740109Y-107905947D01*
X83718874Y-107902797D01*
X83698050Y-107897581D01*
X83677838Y-107890349D01*
X83658432Y-107881170D01*
X83640019Y-107870134D01*
X83622776Y-107857346D01*
X83606870Y-107842930D01*
X83592454Y-107827024D01*
X83579666Y-107809781D01*
X83568630Y-107791368D01*
X83559451Y-107771962D01*
X83552219Y-107751750D01*
X83547003Y-107730926D01*
X83543853Y-107709691D01*
X83542800Y-107688250D01*
X83542800Y-107175750D01*
X83543853Y-107154309D01*
X83547003Y-107133074D01*
X83552219Y-107112250D01*
X83559451Y-107092038D01*
X83568630Y-107072632D01*
X83579666Y-107054219D01*
X83592454Y-107036976D01*
X83606870Y-107021070D01*
X83622776Y-107006654D01*
X83640019Y-106993866D01*
X83658432Y-106982830D01*
X83677838Y-106973651D01*
X83698050Y-106966419D01*
X83718874Y-106961203D01*
X83740109Y-106958053D01*
X83761550Y-106957000D01*
X84199050Y-106957000D01*
X84220491Y-106958053D01*
X84220491Y-106958053D01*
G37*
D12*
X83980300Y-107432000D03*
D11*
G36*
X82645491Y-106958053D02*
G01*
X82666726Y-106961203D01*
X82687550Y-106966419D01*
X82707762Y-106973651D01*
X82727168Y-106982830D01*
X82745581Y-106993866D01*
X82762824Y-107006654D01*
X82778730Y-107021070D01*
X82793146Y-107036976D01*
X82805934Y-107054219D01*
X82816970Y-107072632D01*
X82826149Y-107092038D01*
X82833381Y-107112250D01*
X82838597Y-107133074D01*
X82841747Y-107154309D01*
X82842800Y-107175750D01*
X82842800Y-107688250D01*
X82841747Y-107709691D01*
X82838597Y-107730926D01*
X82833381Y-107751750D01*
X82826149Y-107771962D01*
X82816970Y-107791368D01*
X82805934Y-107809781D01*
X82793146Y-107827024D01*
X82778730Y-107842930D01*
X82762824Y-107857346D01*
X82745581Y-107870134D01*
X82727168Y-107881170D01*
X82707762Y-107890349D01*
X82687550Y-107897581D01*
X82666726Y-107902797D01*
X82645491Y-107905947D01*
X82624050Y-107907000D01*
X82186550Y-107907000D01*
X82165109Y-107905947D01*
X82143874Y-107902797D01*
X82123050Y-107897581D01*
X82102838Y-107890349D01*
X82083432Y-107881170D01*
X82065019Y-107870134D01*
X82047776Y-107857346D01*
X82031870Y-107842930D01*
X82017454Y-107827024D01*
X82004666Y-107809781D01*
X81993630Y-107791368D01*
X81984451Y-107771962D01*
X81977219Y-107751750D01*
X81972003Y-107730926D01*
X81968853Y-107709691D01*
X81967800Y-107688250D01*
X81967800Y-107175750D01*
X81968853Y-107154309D01*
X81972003Y-107133074D01*
X81977219Y-107112250D01*
X81984451Y-107092038D01*
X81993630Y-107072632D01*
X82004666Y-107054219D01*
X82017454Y-107036976D01*
X82031870Y-107021070D01*
X82047776Y-107006654D01*
X82065019Y-106993866D01*
X82083432Y-106982830D01*
X82102838Y-106973651D01*
X82123050Y-106966419D01*
X82143874Y-106961203D01*
X82165109Y-106958053D01*
X82186550Y-106957000D01*
X82624050Y-106957000D01*
X82645491Y-106958053D01*
X82645491Y-106958053D01*
G37*
D12*
X82405300Y-107432000D03*
D11*
G36*
X84220491Y-92124453D02*
G01*
X84241726Y-92127603D01*
X84262550Y-92132819D01*
X84282762Y-92140051D01*
X84302168Y-92149230D01*
X84320581Y-92160266D01*
X84337824Y-92173054D01*
X84353730Y-92187470D01*
X84368146Y-92203376D01*
X84380934Y-92220619D01*
X84391970Y-92239032D01*
X84401149Y-92258438D01*
X84408381Y-92278650D01*
X84413597Y-92299474D01*
X84416747Y-92320709D01*
X84417800Y-92342150D01*
X84417800Y-92854650D01*
X84416747Y-92876091D01*
X84413597Y-92897326D01*
X84408381Y-92918150D01*
X84401149Y-92938362D01*
X84391970Y-92957768D01*
X84380934Y-92976181D01*
X84368146Y-92993424D01*
X84353730Y-93009330D01*
X84337824Y-93023746D01*
X84320581Y-93036534D01*
X84302168Y-93047570D01*
X84282762Y-93056749D01*
X84262550Y-93063981D01*
X84241726Y-93069197D01*
X84220491Y-93072347D01*
X84199050Y-93073400D01*
X83761550Y-93073400D01*
X83740109Y-93072347D01*
X83718874Y-93069197D01*
X83698050Y-93063981D01*
X83677838Y-93056749D01*
X83658432Y-93047570D01*
X83640019Y-93036534D01*
X83622776Y-93023746D01*
X83606870Y-93009330D01*
X83592454Y-92993424D01*
X83579666Y-92976181D01*
X83568630Y-92957768D01*
X83559451Y-92938362D01*
X83552219Y-92918150D01*
X83547003Y-92897326D01*
X83543853Y-92876091D01*
X83542800Y-92854650D01*
X83542800Y-92342150D01*
X83543853Y-92320709D01*
X83547003Y-92299474D01*
X83552219Y-92278650D01*
X83559451Y-92258438D01*
X83568630Y-92239032D01*
X83579666Y-92220619D01*
X83592454Y-92203376D01*
X83606870Y-92187470D01*
X83622776Y-92173054D01*
X83640019Y-92160266D01*
X83658432Y-92149230D01*
X83677838Y-92140051D01*
X83698050Y-92132819D01*
X83718874Y-92127603D01*
X83740109Y-92124453D01*
X83761550Y-92123400D01*
X84199050Y-92123400D01*
X84220491Y-92124453D01*
X84220491Y-92124453D01*
G37*
D12*
X83980300Y-92598400D03*
D11*
G36*
X82645491Y-92124453D02*
G01*
X82666726Y-92127603D01*
X82687550Y-92132819D01*
X82707762Y-92140051D01*
X82727168Y-92149230D01*
X82745581Y-92160266D01*
X82762824Y-92173054D01*
X82778730Y-92187470D01*
X82793146Y-92203376D01*
X82805934Y-92220619D01*
X82816970Y-92239032D01*
X82826149Y-92258438D01*
X82833381Y-92278650D01*
X82838597Y-92299474D01*
X82841747Y-92320709D01*
X82842800Y-92342150D01*
X82842800Y-92854650D01*
X82841747Y-92876091D01*
X82838597Y-92897326D01*
X82833381Y-92918150D01*
X82826149Y-92938362D01*
X82816970Y-92957768D01*
X82805934Y-92976181D01*
X82793146Y-92993424D01*
X82778730Y-93009330D01*
X82762824Y-93023746D01*
X82745581Y-93036534D01*
X82727168Y-93047570D01*
X82707762Y-93056749D01*
X82687550Y-93063981D01*
X82666726Y-93069197D01*
X82645491Y-93072347D01*
X82624050Y-93073400D01*
X82186550Y-93073400D01*
X82165109Y-93072347D01*
X82143874Y-93069197D01*
X82123050Y-93063981D01*
X82102838Y-93056749D01*
X82083432Y-93047570D01*
X82065019Y-93036534D01*
X82047776Y-93023746D01*
X82031870Y-93009330D01*
X82017454Y-92993424D01*
X82004666Y-92976181D01*
X81993630Y-92957768D01*
X81984451Y-92938362D01*
X81977219Y-92918150D01*
X81972003Y-92897326D01*
X81968853Y-92876091D01*
X81967800Y-92854650D01*
X81967800Y-92342150D01*
X81968853Y-92320709D01*
X81972003Y-92299474D01*
X81977219Y-92278650D01*
X81984451Y-92258438D01*
X81993630Y-92239032D01*
X82004666Y-92220619D01*
X82017454Y-92203376D01*
X82031870Y-92187470D01*
X82047776Y-92173054D01*
X82065019Y-92160266D01*
X82083432Y-92149230D01*
X82102838Y-92140051D01*
X82123050Y-92132819D01*
X82143874Y-92127603D01*
X82165109Y-92124453D01*
X82186550Y-92123400D01*
X82624050Y-92123400D01*
X82645491Y-92124453D01*
X82645491Y-92124453D01*
G37*
D12*
X82405300Y-92598400D03*
D11*
G36*
X81121491Y-109548853D02*
G01*
X81142726Y-109552003D01*
X81163550Y-109557219D01*
X81183762Y-109564451D01*
X81203168Y-109573630D01*
X81221581Y-109584666D01*
X81238824Y-109597454D01*
X81254730Y-109611870D01*
X81269146Y-109627776D01*
X81281934Y-109645019D01*
X81292970Y-109663432D01*
X81302149Y-109682838D01*
X81309381Y-109703050D01*
X81314597Y-109723874D01*
X81317747Y-109745109D01*
X81318800Y-109766550D01*
X81318800Y-110279050D01*
X81317747Y-110300491D01*
X81314597Y-110321726D01*
X81309381Y-110342550D01*
X81302149Y-110362762D01*
X81292970Y-110382168D01*
X81281934Y-110400581D01*
X81269146Y-110417824D01*
X81254730Y-110433730D01*
X81238824Y-110448146D01*
X81221581Y-110460934D01*
X81203168Y-110471970D01*
X81183762Y-110481149D01*
X81163550Y-110488381D01*
X81142726Y-110493597D01*
X81121491Y-110496747D01*
X81100050Y-110497800D01*
X80662550Y-110497800D01*
X80641109Y-110496747D01*
X80619874Y-110493597D01*
X80599050Y-110488381D01*
X80578838Y-110481149D01*
X80559432Y-110471970D01*
X80541019Y-110460934D01*
X80523776Y-110448146D01*
X80507870Y-110433730D01*
X80493454Y-110417824D01*
X80480666Y-110400581D01*
X80469630Y-110382168D01*
X80460451Y-110362762D01*
X80453219Y-110342550D01*
X80448003Y-110321726D01*
X80444853Y-110300491D01*
X80443800Y-110279050D01*
X80443800Y-109766550D01*
X80444853Y-109745109D01*
X80448003Y-109723874D01*
X80453219Y-109703050D01*
X80460451Y-109682838D01*
X80469630Y-109663432D01*
X80480666Y-109645019D01*
X80493454Y-109627776D01*
X80507870Y-109611870D01*
X80523776Y-109597454D01*
X80541019Y-109584666D01*
X80559432Y-109573630D01*
X80578838Y-109564451D01*
X80599050Y-109557219D01*
X80619874Y-109552003D01*
X80641109Y-109548853D01*
X80662550Y-109547800D01*
X81100050Y-109547800D01*
X81121491Y-109548853D01*
X81121491Y-109548853D01*
G37*
D12*
X80881300Y-110022800D03*
D11*
G36*
X82696491Y-109548853D02*
G01*
X82717726Y-109552003D01*
X82738550Y-109557219D01*
X82758762Y-109564451D01*
X82778168Y-109573630D01*
X82796581Y-109584666D01*
X82813824Y-109597454D01*
X82829730Y-109611870D01*
X82844146Y-109627776D01*
X82856934Y-109645019D01*
X82867970Y-109663432D01*
X82877149Y-109682838D01*
X82884381Y-109703050D01*
X82889597Y-109723874D01*
X82892747Y-109745109D01*
X82893800Y-109766550D01*
X82893800Y-110279050D01*
X82892747Y-110300491D01*
X82889597Y-110321726D01*
X82884381Y-110342550D01*
X82877149Y-110362762D01*
X82867970Y-110382168D01*
X82856934Y-110400581D01*
X82844146Y-110417824D01*
X82829730Y-110433730D01*
X82813824Y-110448146D01*
X82796581Y-110460934D01*
X82778168Y-110471970D01*
X82758762Y-110481149D01*
X82738550Y-110488381D01*
X82717726Y-110493597D01*
X82696491Y-110496747D01*
X82675050Y-110497800D01*
X82237550Y-110497800D01*
X82216109Y-110496747D01*
X82194874Y-110493597D01*
X82174050Y-110488381D01*
X82153838Y-110481149D01*
X82134432Y-110471970D01*
X82116019Y-110460934D01*
X82098776Y-110448146D01*
X82082870Y-110433730D01*
X82068454Y-110417824D01*
X82055666Y-110400581D01*
X82044630Y-110382168D01*
X82035451Y-110362762D01*
X82028219Y-110342550D01*
X82023003Y-110321726D01*
X82019853Y-110300491D01*
X82018800Y-110279050D01*
X82018800Y-109766550D01*
X82019853Y-109745109D01*
X82023003Y-109723874D01*
X82028219Y-109703050D01*
X82035451Y-109682838D01*
X82044630Y-109663432D01*
X82055666Y-109645019D01*
X82068454Y-109627776D01*
X82082870Y-109611870D01*
X82098776Y-109597454D01*
X82116019Y-109584666D01*
X82134432Y-109573630D01*
X82153838Y-109564451D01*
X82174050Y-109557219D01*
X82194874Y-109552003D01*
X82216109Y-109548853D01*
X82237550Y-109547800D01*
X82675050Y-109547800D01*
X82696491Y-109548853D01*
X82696491Y-109548853D01*
G37*
D12*
X82456300Y-110022800D03*
D11*
G36*
X78847691Y-110424453D02*
G01*
X78868926Y-110427603D01*
X78889750Y-110432819D01*
X78909962Y-110440051D01*
X78929368Y-110449230D01*
X78947781Y-110460266D01*
X78965024Y-110473054D01*
X78980930Y-110487470D01*
X78995346Y-110503376D01*
X79008134Y-110520619D01*
X79019170Y-110539032D01*
X79028349Y-110558438D01*
X79035581Y-110578650D01*
X79040797Y-110599474D01*
X79043947Y-110620709D01*
X79045000Y-110642150D01*
X79045000Y-111079650D01*
X79043947Y-111101091D01*
X79040797Y-111122326D01*
X79035581Y-111143150D01*
X79028349Y-111163362D01*
X79019170Y-111182768D01*
X79008134Y-111201181D01*
X78995346Y-111218424D01*
X78980930Y-111234330D01*
X78965024Y-111248746D01*
X78947781Y-111261534D01*
X78929368Y-111272570D01*
X78909962Y-111281749D01*
X78889750Y-111288981D01*
X78868926Y-111294197D01*
X78847691Y-111297347D01*
X78826250Y-111298400D01*
X78313750Y-111298400D01*
X78292309Y-111297347D01*
X78271074Y-111294197D01*
X78250250Y-111288981D01*
X78230038Y-111281749D01*
X78210632Y-111272570D01*
X78192219Y-111261534D01*
X78174976Y-111248746D01*
X78159070Y-111234330D01*
X78144654Y-111218424D01*
X78131866Y-111201181D01*
X78120830Y-111182768D01*
X78111651Y-111163362D01*
X78104419Y-111143150D01*
X78099203Y-111122326D01*
X78096053Y-111101091D01*
X78095000Y-111079650D01*
X78095000Y-110642150D01*
X78096053Y-110620709D01*
X78099203Y-110599474D01*
X78104419Y-110578650D01*
X78111651Y-110558438D01*
X78120830Y-110539032D01*
X78131866Y-110520619D01*
X78144654Y-110503376D01*
X78159070Y-110487470D01*
X78174976Y-110473054D01*
X78192219Y-110460266D01*
X78210632Y-110449230D01*
X78230038Y-110440051D01*
X78250250Y-110432819D01*
X78271074Y-110427603D01*
X78292309Y-110424453D01*
X78313750Y-110423400D01*
X78826250Y-110423400D01*
X78847691Y-110424453D01*
X78847691Y-110424453D01*
G37*
D12*
X78570000Y-110860900D03*
D11*
G36*
X78847691Y-111999453D02*
G01*
X78868926Y-112002603D01*
X78889750Y-112007819D01*
X78909962Y-112015051D01*
X78929368Y-112024230D01*
X78947781Y-112035266D01*
X78965024Y-112048054D01*
X78980930Y-112062470D01*
X78995346Y-112078376D01*
X79008134Y-112095619D01*
X79019170Y-112114032D01*
X79028349Y-112133438D01*
X79035581Y-112153650D01*
X79040797Y-112174474D01*
X79043947Y-112195709D01*
X79045000Y-112217150D01*
X79045000Y-112654650D01*
X79043947Y-112676091D01*
X79040797Y-112697326D01*
X79035581Y-112718150D01*
X79028349Y-112738362D01*
X79019170Y-112757768D01*
X79008134Y-112776181D01*
X78995346Y-112793424D01*
X78980930Y-112809330D01*
X78965024Y-112823746D01*
X78947781Y-112836534D01*
X78929368Y-112847570D01*
X78909962Y-112856749D01*
X78889750Y-112863981D01*
X78868926Y-112869197D01*
X78847691Y-112872347D01*
X78826250Y-112873400D01*
X78313750Y-112873400D01*
X78292309Y-112872347D01*
X78271074Y-112869197D01*
X78250250Y-112863981D01*
X78230038Y-112856749D01*
X78210632Y-112847570D01*
X78192219Y-112836534D01*
X78174976Y-112823746D01*
X78159070Y-112809330D01*
X78144654Y-112793424D01*
X78131866Y-112776181D01*
X78120830Y-112757768D01*
X78111651Y-112738362D01*
X78104419Y-112718150D01*
X78099203Y-112697326D01*
X78096053Y-112676091D01*
X78095000Y-112654650D01*
X78095000Y-112217150D01*
X78096053Y-112195709D01*
X78099203Y-112174474D01*
X78104419Y-112153650D01*
X78111651Y-112133438D01*
X78120830Y-112114032D01*
X78131866Y-112095619D01*
X78144654Y-112078376D01*
X78159070Y-112062470D01*
X78174976Y-112048054D01*
X78192219Y-112035266D01*
X78210632Y-112024230D01*
X78230038Y-112015051D01*
X78250250Y-112007819D01*
X78271074Y-112002603D01*
X78292309Y-111999453D01*
X78313750Y-111998400D01*
X78826250Y-111998400D01*
X78847691Y-111999453D01*
X78847691Y-111999453D01*
G37*
D12*
X78570000Y-112435900D03*
D11*
G36*
X77069691Y-115860253D02*
G01*
X77090926Y-115863403D01*
X77111750Y-115868619D01*
X77131962Y-115875851D01*
X77151368Y-115885030D01*
X77169781Y-115896066D01*
X77187024Y-115908854D01*
X77202930Y-115923270D01*
X77217346Y-115939176D01*
X77230134Y-115956419D01*
X77241170Y-115974832D01*
X77250349Y-115994238D01*
X77257581Y-116014450D01*
X77262797Y-116035274D01*
X77265947Y-116056509D01*
X77267000Y-116077950D01*
X77267000Y-116515450D01*
X77265947Y-116536891D01*
X77262797Y-116558126D01*
X77257581Y-116578950D01*
X77250349Y-116599162D01*
X77241170Y-116618568D01*
X77230134Y-116636981D01*
X77217346Y-116654224D01*
X77202930Y-116670130D01*
X77187024Y-116684546D01*
X77169781Y-116697334D01*
X77151368Y-116708370D01*
X77131962Y-116717549D01*
X77111750Y-116724781D01*
X77090926Y-116729997D01*
X77069691Y-116733147D01*
X77048250Y-116734200D01*
X76535750Y-116734200D01*
X76514309Y-116733147D01*
X76493074Y-116729997D01*
X76472250Y-116724781D01*
X76452038Y-116717549D01*
X76432632Y-116708370D01*
X76414219Y-116697334D01*
X76396976Y-116684546D01*
X76381070Y-116670130D01*
X76366654Y-116654224D01*
X76353866Y-116636981D01*
X76342830Y-116618568D01*
X76333651Y-116599162D01*
X76326419Y-116578950D01*
X76321203Y-116558126D01*
X76318053Y-116536891D01*
X76317000Y-116515450D01*
X76317000Y-116077950D01*
X76318053Y-116056509D01*
X76321203Y-116035274D01*
X76326419Y-116014450D01*
X76333651Y-115994238D01*
X76342830Y-115974832D01*
X76353866Y-115956419D01*
X76366654Y-115939176D01*
X76381070Y-115923270D01*
X76396976Y-115908854D01*
X76414219Y-115896066D01*
X76432632Y-115885030D01*
X76452038Y-115875851D01*
X76472250Y-115868619D01*
X76493074Y-115863403D01*
X76514309Y-115860253D01*
X76535750Y-115859200D01*
X77048250Y-115859200D01*
X77069691Y-115860253D01*
X77069691Y-115860253D01*
G37*
D12*
X76792000Y-116296700D03*
D11*
G36*
X77069691Y-114285253D02*
G01*
X77090926Y-114288403D01*
X77111750Y-114293619D01*
X77131962Y-114300851D01*
X77151368Y-114310030D01*
X77169781Y-114321066D01*
X77187024Y-114333854D01*
X77202930Y-114348270D01*
X77217346Y-114364176D01*
X77230134Y-114381419D01*
X77241170Y-114399832D01*
X77250349Y-114419238D01*
X77257581Y-114439450D01*
X77262797Y-114460274D01*
X77265947Y-114481509D01*
X77267000Y-114502950D01*
X77267000Y-114940450D01*
X77265947Y-114961891D01*
X77262797Y-114983126D01*
X77257581Y-115003950D01*
X77250349Y-115024162D01*
X77241170Y-115043568D01*
X77230134Y-115061981D01*
X77217346Y-115079224D01*
X77202930Y-115095130D01*
X77187024Y-115109546D01*
X77169781Y-115122334D01*
X77151368Y-115133370D01*
X77131962Y-115142549D01*
X77111750Y-115149781D01*
X77090926Y-115154997D01*
X77069691Y-115158147D01*
X77048250Y-115159200D01*
X76535750Y-115159200D01*
X76514309Y-115158147D01*
X76493074Y-115154997D01*
X76472250Y-115149781D01*
X76452038Y-115142549D01*
X76432632Y-115133370D01*
X76414219Y-115122334D01*
X76396976Y-115109546D01*
X76381070Y-115095130D01*
X76366654Y-115079224D01*
X76353866Y-115061981D01*
X76342830Y-115043568D01*
X76333651Y-115024162D01*
X76326419Y-115003950D01*
X76321203Y-114983126D01*
X76318053Y-114961891D01*
X76317000Y-114940450D01*
X76317000Y-114502950D01*
X76318053Y-114481509D01*
X76321203Y-114460274D01*
X76326419Y-114439450D01*
X76333651Y-114419238D01*
X76342830Y-114399832D01*
X76353866Y-114381419D01*
X76366654Y-114364176D01*
X76381070Y-114348270D01*
X76396976Y-114333854D01*
X76414219Y-114321066D01*
X76432632Y-114310030D01*
X76452038Y-114300851D01*
X76472250Y-114293619D01*
X76493074Y-114288403D01*
X76514309Y-114285253D01*
X76535750Y-114284200D01*
X77048250Y-114284200D01*
X77069691Y-114285253D01*
X77069691Y-114285253D01*
G37*
D12*
X76792000Y-114721700D03*
D11*
G36*
X81070691Y-93597653D02*
G01*
X81091926Y-93600803D01*
X81112750Y-93606019D01*
X81132962Y-93613251D01*
X81152368Y-93622430D01*
X81170781Y-93633466D01*
X81188024Y-93646254D01*
X81203930Y-93660670D01*
X81218346Y-93676576D01*
X81231134Y-93693819D01*
X81242170Y-93712232D01*
X81251349Y-93731638D01*
X81258581Y-93751850D01*
X81263797Y-93772674D01*
X81266947Y-93793909D01*
X81268000Y-93815350D01*
X81268000Y-94327850D01*
X81266947Y-94349291D01*
X81263797Y-94370526D01*
X81258581Y-94391350D01*
X81251349Y-94411562D01*
X81242170Y-94430968D01*
X81231134Y-94449381D01*
X81218346Y-94466624D01*
X81203930Y-94482530D01*
X81188024Y-94496946D01*
X81170781Y-94509734D01*
X81152368Y-94520770D01*
X81132962Y-94529949D01*
X81112750Y-94537181D01*
X81091926Y-94542397D01*
X81070691Y-94545547D01*
X81049250Y-94546600D01*
X80611750Y-94546600D01*
X80590309Y-94545547D01*
X80569074Y-94542397D01*
X80548250Y-94537181D01*
X80528038Y-94529949D01*
X80508632Y-94520770D01*
X80490219Y-94509734D01*
X80472976Y-94496946D01*
X80457070Y-94482530D01*
X80442654Y-94466624D01*
X80429866Y-94449381D01*
X80418830Y-94430968D01*
X80409651Y-94411562D01*
X80402419Y-94391350D01*
X80397203Y-94370526D01*
X80394053Y-94349291D01*
X80393000Y-94327850D01*
X80393000Y-93815350D01*
X80394053Y-93793909D01*
X80397203Y-93772674D01*
X80402419Y-93751850D01*
X80409651Y-93731638D01*
X80418830Y-93712232D01*
X80429866Y-93693819D01*
X80442654Y-93676576D01*
X80457070Y-93660670D01*
X80472976Y-93646254D01*
X80490219Y-93633466D01*
X80508632Y-93622430D01*
X80528038Y-93613251D01*
X80548250Y-93606019D01*
X80569074Y-93600803D01*
X80590309Y-93597653D01*
X80611750Y-93596600D01*
X81049250Y-93596600D01*
X81070691Y-93597653D01*
X81070691Y-93597653D01*
G37*
D12*
X80830500Y-94071600D03*
D11*
G36*
X82645691Y-93597653D02*
G01*
X82666926Y-93600803D01*
X82687750Y-93606019D01*
X82707962Y-93613251D01*
X82727368Y-93622430D01*
X82745781Y-93633466D01*
X82763024Y-93646254D01*
X82778930Y-93660670D01*
X82793346Y-93676576D01*
X82806134Y-93693819D01*
X82817170Y-93712232D01*
X82826349Y-93731638D01*
X82833581Y-93751850D01*
X82838797Y-93772674D01*
X82841947Y-93793909D01*
X82843000Y-93815350D01*
X82843000Y-94327850D01*
X82841947Y-94349291D01*
X82838797Y-94370526D01*
X82833581Y-94391350D01*
X82826349Y-94411562D01*
X82817170Y-94430968D01*
X82806134Y-94449381D01*
X82793346Y-94466624D01*
X82778930Y-94482530D01*
X82763024Y-94496946D01*
X82745781Y-94509734D01*
X82727368Y-94520770D01*
X82707962Y-94529949D01*
X82687750Y-94537181D01*
X82666926Y-94542397D01*
X82645691Y-94545547D01*
X82624250Y-94546600D01*
X82186750Y-94546600D01*
X82165309Y-94545547D01*
X82144074Y-94542397D01*
X82123250Y-94537181D01*
X82103038Y-94529949D01*
X82083632Y-94520770D01*
X82065219Y-94509734D01*
X82047976Y-94496946D01*
X82032070Y-94482530D01*
X82017654Y-94466624D01*
X82004866Y-94449381D01*
X81993830Y-94430968D01*
X81984651Y-94411562D01*
X81977419Y-94391350D01*
X81972203Y-94370526D01*
X81969053Y-94349291D01*
X81968000Y-94327850D01*
X81968000Y-93815350D01*
X81969053Y-93793909D01*
X81972203Y-93772674D01*
X81977419Y-93751850D01*
X81984651Y-93731638D01*
X81993830Y-93712232D01*
X82004866Y-93693819D01*
X82017654Y-93676576D01*
X82032070Y-93660670D01*
X82047976Y-93646254D01*
X82065219Y-93633466D01*
X82083632Y-93622430D01*
X82103038Y-93613251D01*
X82123250Y-93606019D01*
X82144074Y-93600803D01*
X82165309Y-93597653D01*
X82186750Y-93596600D01*
X82624250Y-93596600D01*
X82645691Y-93597653D01*
X82645691Y-93597653D01*
G37*
D12*
X82405500Y-94071600D03*
D11*
G36*
X78847691Y-94574853D02*
G01*
X78868926Y-94578003D01*
X78889750Y-94583219D01*
X78909962Y-94590451D01*
X78929368Y-94599630D01*
X78947781Y-94610666D01*
X78965024Y-94623454D01*
X78980930Y-94637870D01*
X78995346Y-94653776D01*
X79008134Y-94671019D01*
X79019170Y-94689432D01*
X79028349Y-94708838D01*
X79035581Y-94729050D01*
X79040797Y-94749874D01*
X79043947Y-94771109D01*
X79045000Y-94792550D01*
X79045000Y-95230050D01*
X79043947Y-95251491D01*
X79040797Y-95272726D01*
X79035581Y-95293550D01*
X79028349Y-95313762D01*
X79019170Y-95333168D01*
X79008134Y-95351581D01*
X78995346Y-95368824D01*
X78980930Y-95384730D01*
X78965024Y-95399146D01*
X78947781Y-95411934D01*
X78929368Y-95422970D01*
X78909962Y-95432149D01*
X78889750Y-95439381D01*
X78868926Y-95444597D01*
X78847691Y-95447747D01*
X78826250Y-95448800D01*
X78313750Y-95448800D01*
X78292309Y-95447747D01*
X78271074Y-95444597D01*
X78250250Y-95439381D01*
X78230038Y-95432149D01*
X78210632Y-95422970D01*
X78192219Y-95411934D01*
X78174976Y-95399146D01*
X78159070Y-95384730D01*
X78144654Y-95368824D01*
X78131866Y-95351581D01*
X78120830Y-95333168D01*
X78111651Y-95313762D01*
X78104419Y-95293550D01*
X78099203Y-95272726D01*
X78096053Y-95251491D01*
X78095000Y-95230050D01*
X78095000Y-94792550D01*
X78096053Y-94771109D01*
X78099203Y-94749874D01*
X78104419Y-94729050D01*
X78111651Y-94708838D01*
X78120830Y-94689432D01*
X78131866Y-94671019D01*
X78144654Y-94653776D01*
X78159070Y-94637870D01*
X78174976Y-94623454D01*
X78192219Y-94610666D01*
X78210632Y-94599630D01*
X78230038Y-94590451D01*
X78250250Y-94583219D01*
X78271074Y-94578003D01*
X78292309Y-94574853D01*
X78313750Y-94573800D01*
X78826250Y-94573800D01*
X78847691Y-94574853D01*
X78847691Y-94574853D01*
G37*
D12*
X78570000Y-95011300D03*
D11*
G36*
X78847691Y-96149853D02*
G01*
X78868926Y-96153003D01*
X78889750Y-96158219D01*
X78909962Y-96165451D01*
X78929368Y-96174630D01*
X78947781Y-96185666D01*
X78965024Y-96198454D01*
X78980930Y-96212870D01*
X78995346Y-96228776D01*
X79008134Y-96246019D01*
X79019170Y-96264432D01*
X79028349Y-96283838D01*
X79035581Y-96304050D01*
X79040797Y-96324874D01*
X79043947Y-96346109D01*
X79045000Y-96367550D01*
X79045000Y-96805050D01*
X79043947Y-96826491D01*
X79040797Y-96847726D01*
X79035581Y-96868550D01*
X79028349Y-96888762D01*
X79019170Y-96908168D01*
X79008134Y-96926581D01*
X78995346Y-96943824D01*
X78980930Y-96959730D01*
X78965024Y-96974146D01*
X78947781Y-96986934D01*
X78929368Y-96997970D01*
X78909962Y-97007149D01*
X78889750Y-97014381D01*
X78868926Y-97019597D01*
X78847691Y-97022747D01*
X78826250Y-97023800D01*
X78313750Y-97023800D01*
X78292309Y-97022747D01*
X78271074Y-97019597D01*
X78250250Y-97014381D01*
X78230038Y-97007149D01*
X78210632Y-96997970D01*
X78192219Y-96986934D01*
X78174976Y-96974146D01*
X78159070Y-96959730D01*
X78144654Y-96943824D01*
X78131866Y-96926581D01*
X78120830Y-96908168D01*
X78111651Y-96888762D01*
X78104419Y-96868550D01*
X78099203Y-96847726D01*
X78096053Y-96826491D01*
X78095000Y-96805050D01*
X78095000Y-96367550D01*
X78096053Y-96346109D01*
X78099203Y-96324874D01*
X78104419Y-96304050D01*
X78111651Y-96283838D01*
X78120830Y-96264432D01*
X78131866Y-96246019D01*
X78144654Y-96228776D01*
X78159070Y-96212870D01*
X78174976Y-96198454D01*
X78192219Y-96185666D01*
X78210632Y-96174630D01*
X78230038Y-96165451D01*
X78250250Y-96158219D01*
X78271074Y-96153003D01*
X78292309Y-96149853D01*
X78313750Y-96148800D01*
X78826250Y-96148800D01*
X78847691Y-96149853D01*
X78847691Y-96149853D01*
G37*
D12*
X78570000Y-96586300D03*
D11*
G36*
X77069691Y-99655053D02*
G01*
X77090926Y-99658203D01*
X77111750Y-99663419D01*
X77131962Y-99670651D01*
X77151368Y-99679830D01*
X77169781Y-99690866D01*
X77187024Y-99703654D01*
X77202930Y-99718070D01*
X77217346Y-99733976D01*
X77230134Y-99751219D01*
X77241170Y-99769632D01*
X77250349Y-99789038D01*
X77257581Y-99809250D01*
X77262797Y-99830074D01*
X77265947Y-99851309D01*
X77267000Y-99872750D01*
X77267000Y-100310250D01*
X77265947Y-100331691D01*
X77262797Y-100352926D01*
X77257581Y-100373750D01*
X77250349Y-100393962D01*
X77241170Y-100413368D01*
X77230134Y-100431781D01*
X77217346Y-100449024D01*
X77202930Y-100464930D01*
X77187024Y-100479346D01*
X77169781Y-100492134D01*
X77151368Y-100503170D01*
X77131962Y-100512349D01*
X77111750Y-100519581D01*
X77090926Y-100524797D01*
X77069691Y-100527947D01*
X77048250Y-100529000D01*
X76535750Y-100529000D01*
X76514309Y-100527947D01*
X76493074Y-100524797D01*
X76472250Y-100519581D01*
X76452038Y-100512349D01*
X76432632Y-100503170D01*
X76414219Y-100492134D01*
X76396976Y-100479346D01*
X76381070Y-100464930D01*
X76366654Y-100449024D01*
X76353866Y-100431781D01*
X76342830Y-100413368D01*
X76333651Y-100393962D01*
X76326419Y-100373750D01*
X76321203Y-100352926D01*
X76318053Y-100331691D01*
X76317000Y-100310250D01*
X76317000Y-99872750D01*
X76318053Y-99851309D01*
X76321203Y-99830074D01*
X76326419Y-99809250D01*
X76333651Y-99789038D01*
X76342830Y-99769632D01*
X76353866Y-99751219D01*
X76366654Y-99733976D01*
X76381070Y-99718070D01*
X76396976Y-99703654D01*
X76414219Y-99690866D01*
X76432632Y-99679830D01*
X76452038Y-99670651D01*
X76472250Y-99663419D01*
X76493074Y-99658203D01*
X76514309Y-99655053D01*
X76535750Y-99654000D01*
X77048250Y-99654000D01*
X77069691Y-99655053D01*
X77069691Y-99655053D01*
G37*
D12*
X76792000Y-100091500D03*
D11*
G36*
X77069691Y-98080053D02*
G01*
X77090926Y-98083203D01*
X77111750Y-98088419D01*
X77131962Y-98095651D01*
X77151368Y-98104830D01*
X77169781Y-98115866D01*
X77187024Y-98128654D01*
X77202930Y-98143070D01*
X77217346Y-98158976D01*
X77230134Y-98176219D01*
X77241170Y-98194632D01*
X77250349Y-98214038D01*
X77257581Y-98234250D01*
X77262797Y-98255074D01*
X77265947Y-98276309D01*
X77267000Y-98297750D01*
X77267000Y-98735250D01*
X77265947Y-98756691D01*
X77262797Y-98777926D01*
X77257581Y-98798750D01*
X77250349Y-98818962D01*
X77241170Y-98838368D01*
X77230134Y-98856781D01*
X77217346Y-98874024D01*
X77202930Y-98889930D01*
X77187024Y-98904346D01*
X77169781Y-98917134D01*
X77151368Y-98928170D01*
X77131962Y-98937349D01*
X77111750Y-98944581D01*
X77090926Y-98949797D01*
X77069691Y-98952947D01*
X77048250Y-98954000D01*
X76535750Y-98954000D01*
X76514309Y-98952947D01*
X76493074Y-98949797D01*
X76472250Y-98944581D01*
X76452038Y-98937349D01*
X76432632Y-98928170D01*
X76414219Y-98917134D01*
X76396976Y-98904346D01*
X76381070Y-98889930D01*
X76366654Y-98874024D01*
X76353866Y-98856781D01*
X76342830Y-98838368D01*
X76333651Y-98818962D01*
X76326419Y-98798750D01*
X76321203Y-98777926D01*
X76318053Y-98756691D01*
X76317000Y-98735250D01*
X76317000Y-98297750D01*
X76318053Y-98276309D01*
X76321203Y-98255074D01*
X76326419Y-98234250D01*
X76333651Y-98214038D01*
X76342830Y-98194632D01*
X76353866Y-98176219D01*
X76366654Y-98158976D01*
X76381070Y-98143070D01*
X76396976Y-98128654D01*
X76414219Y-98115866D01*
X76432632Y-98104830D01*
X76452038Y-98095651D01*
X76472250Y-98088419D01*
X76493074Y-98083203D01*
X76514309Y-98080053D01*
X76535750Y-98079000D01*
X77048250Y-98079000D01*
X77069691Y-98080053D01*
X77069691Y-98080053D01*
G37*
D12*
X76792000Y-98516500D03*
D17*
X70442000Y-85181600D03*
D18*
X70442000Y-80181600D03*
D28*
X73314800Y-112816800D03*
X76814800Y-112816800D03*
X73264000Y-96611600D03*
X76764000Y-96611600D03*
D17*
X70442000Y-117838800D03*
X70442000Y-112838800D03*
D18*
X70442000Y-107838800D03*
D17*
X70442000Y-101633200D03*
X70442000Y-96633200D03*
D18*
X70442000Y-91633200D03*
D11*
G36*
X77870491Y-66368853D02*
G01*
X77891726Y-66372003D01*
X77912550Y-66377219D01*
X77932762Y-66384451D01*
X77952168Y-66393630D01*
X77970581Y-66404666D01*
X77987824Y-66417454D01*
X78003730Y-66431870D01*
X78018146Y-66447776D01*
X78030934Y-66465019D01*
X78041970Y-66483432D01*
X78051149Y-66502838D01*
X78058381Y-66523050D01*
X78063597Y-66543874D01*
X78066747Y-66565109D01*
X78067800Y-66586550D01*
X78067800Y-67099050D01*
X78066747Y-67120491D01*
X78063597Y-67141726D01*
X78058381Y-67162550D01*
X78051149Y-67182762D01*
X78041970Y-67202168D01*
X78030934Y-67220581D01*
X78018146Y-67237824D01*
X78003730Y-67253730D01*
X77987824Y-67268146D01*
X77970581Y-67280934D01*
X77952168Y-67291970D01*
X77932762Y-67301149D01*
X77912550Y-67308381D01*
X77891726Y-67313597D01*
X77870491Y-67316747D01*
X77849050Y-67317800D01*
X77411550Y-67317800D01*
X77390109Y-67316747D01*
X77368874Y-67313597D01*
X77348050Y-67308381D01*
X77327838Y-67301149D01*
X77308432Y-67291970D01*
X77290019Y-67280934D01*
X77272776Y-67268146D01*
X77256870Y-67253730D01*
X77242454Y-67237824D01*
X77229666Y-67220581D01*
X77218630Y-67202168D01*
X77209451Y-67182762D01*
X77202219Y-67162550D01*
X77197003Y-67141726D01*
X77193853Y-67120491D01*
X77192800Y-67099050D01*
X77192800Y-66586550D01*
X77193853Y-66565109D01*
X77197003Y-66543874D01*
X77202219Y-66523050D01*
X77209451Y-66502838D01*
X77218630Y-66483432D01*
X77229666Y-66465019D01*
X77242454Y-66447776D01*
X77256870Y-66431870D01*
X77272776Y-66417454D01*
X77290019Y-66404666D01*
X77308432Y-66393630D01*
X77327838Y-66384451D01*
X77348050Y-66377219D01*
X77368874Y-66372003D01*
X77390109Y-66368853D01*
X77411550Y-66367800D01*
X77849050Y-66367800D01*
X77870491Y-66368853D01*
X77870491Y-66368853D01*
G37*
D12*
X77630300Y-66842800D03*
D11*
G36*
X76295491Y-66368853D02*
G01*
X76316726Y-66372003D01*
X76337550Y-66377219D01*
X76357762Y-66384451D01*
X76377168Y-66393630D01*
X76395581Y-66404666D01*
X76412824Y-66417454D01*
X76428730Y-66431870D01*
X76443146Y-66447776D01*
X76455934Y-66465019D01*
X76466970Y-66483432D01*
X76476149Y-66502838D01*
X76483381Y-66523050D01*
X76488597Y-66543874D01*
X76491747Y-66565109D01*
X76492800Y-66586550D01*
X76492800Y-67099050D01*
X76491747Y-67120491D01*
X76488597Y-67141726D01*
X76483381Y-67162550D01*
X76476149Y-67182762D01*
X76466970Y-67202168D01*
X76455934Y-67220581D01*
X76443146Y-67237824D01*
X76428730Y-67253730D01*
X76412824Y-67268146D01*
X76395581Y-67280934D01*
X76377168Y-67291970D01*
X76357762Y-67301149D01*
X76337550Y-67308381D01*
X76316726Y-67313597D01*
X76295491Y-67316747D01*
X76274050Y-67317800D01*
X75836550Y-67317800D01*
X75815109Y-67316747D01*
X75793874Y-67313597D01*
X75773050Y-67308381D01*
X75752838Y-67301149D01*
X75733432Y-67291970D01*
X75715019Y-67280934D01*
X75697776Y-67268146D01*
X75681870Y-67253730D01*
X75667454Y-67237824D01*
X75654666Y-67220581D01*
X75643630Y-67202168D01*
X75634451Y-67182762D01*
X75627219Y-67162550D01*
X75622003Y-67141726D01*
X75618853Y-67120491D01*
X75617800Y-67099050D01*
X75617800Y-66586550D01*
X75618853Y-66565109D01*
X75622003Y-66543874D01*
X75627219Y-66523050D01*
X75634451Y-66502838D01*
X75643630Y-66483432D01*
X75654666Y-66465019D01*
X75667454Y-66447776D01*
X75681870Y-66431870D01*
X75697776Y-66417454D01*
X75715019Y-66404666D01*
X75733432Y-66393630D01*
X75752838Y-66384451D01*
X75773050Y-66377219D01*
X75793874Y-66372003D01*
X75815109Y-66368853D01*
X75836550Y-66367800D01*
X76274050Y-66367800D01*
X76295491Y-66368853D01*
X76295491Y-66368853D01*
G37*
D12*
X76055300Y-66842800D03*
D11*
G36*
X76307691Y-67955653D02*
G01*
X76328926Y-67958803D01*
X76349750Y-67964019D01*
X76369962Y-67971251D01*
X76389368Y-67980430D01*
X76407781Y-67991466D01*
X76425024Y-68004254D01*
X76440930Y-68018670D01*
X76455346Y-68034576D01*
X76468134Y-68051819D01*
X76479170Y-68070232D01*
X76488349Y-68089638D01*
X76495581Y-68109850D01*
X76500797Y-68130674D01*
X76503947Y-68151909D01*
X76505000Y-68173350D01*
X76505000Y-68610850D01*
X76503947Y-68632291D01*
X76500797Y-68653526D01*
X76495581Y-68674350D01*
X76488349Y-68694562D01*
X76479170Y-68713968D01*
X76468134Y-68732381D01*
X76455346Y-68749624D01*
X76440930Y-68765530D01*
X76425024Y-68779946D01*
X76407781Y-68792734D01*
X76389368Y-68803770D01*
X76369962Y-68812949D01*
X76349750Y-68820181D01*
X76328926Y-68825397D01*
X76307691Y-68828547D01*
X76286250Y-68829600D01*
X75773750Y-68829600D01*
X75752309Y-68828547D01*
X75731074Y-68825397D01*
X75710250Y-68820181D01*
X75690038Y-68812949D01*
X75670632Y-68803770D01*
X75652219Y-68792734D01*
X75634976Y-68779946D01*
X75619070Y-68765530D01*
X75604654Y-68749624D01*
X75591866Y-68732381D01*
X75580830Y-68713968D01*
X75571651Y-68694562D01*
X75564419Y-68674350D01*
X75559203Y-68653526D01*
X75556053Y-68632291D01*
X75555000Y-68610850D01*
X75555000Y-68173350D01*
X75556053Y-68151909D01*
X75559203Y-68130674D01*
X75564419Y-68109850D01*
X75571651Y-68089638D01*
X75580830Y-68070232D01*
X75591866Y-68051819D01*
X75604654Y-68034576D01*
X75619070Y-68018670D01*
X75634976Y-68004254D01*
X75652219Y-67991466D01*
X75670632Y-67980430D01*
X75690038Y-67971251D01*
X75710250Y-67964019D01*
X75731074Y-67958803D01*
X75752309Y-67955653D01*
X75773750Y-67954600D01*
X76286250Y-67954600D01*
X76307691Y-67955653D01*
X76307691Y-67955653D01*
G37*
D12*
X76030000Y-68392100D03*
D11*
G36*
X76307691Y-69530653D02*
G01*
X76328926Y-69533803D01*
X76349750Y-69539019D01*
X76369962Y-69546251D01*
X76389368Y-69555430D01*
X76407781Y-69566466D01*
X76425024Y-69579254D01*
X76440930Y-69593670D01*
X76455346Y-69609576D01*
X76468134Y-69626819D01*
X76479170Y-69645232D01*
X76488349Y-69664638D01*
X76495581Y-69684850D01*
X76500797Y-69705674D01*
X76503947Y-69726909D01*
X76505000Y-69748350D01*
X76505000Y-70185850D01*
X76503947Y-70207291D01*
X76500797Y-70228526D01*
X76495581Y-70249350D01*
X76488349Y-70269562D01*
X76479170Y-70288968D01*
X76468134Y-70307381D01*
X76455346Y-70324624D01*
X76440930Y-70340530D01*
X76425024Y-70354946D01*
X76407781Y-70367734D01*
X76389368Y-70378770D01*
X76369962Y-70387949D01*
X76349750Y-70395181D01*
X76328926Y-70400397D01*
X76307691Y-70403547D01*
X76286250Y-70404600D01*
X75773750Y-70404600D01*
X75752309Y-70403547D01*
X75731074Y-70400397D01*
X75710250Y-70395181D01*
X75690038Y-70387949D01*
X75670632Y-70378770D01*
X75652219Y-70367734D01*
X75634976Y-70354946D01*
X75619070Y-70340530D01*
X75604654Y-70324624D01*
X75591866Y-70307381D01*
X75580830Y-70288968D01*
X75571651Y-70269562D01*
X75564419Y-70249350D01*
X75559203Y-70228526D01*
X75556053Y-70207291D01*
X75555000Y-70185850D01*
X75555000Y-69748350D01*
X75556053Y-69726909D01*
X75559203Y-69705674D01*
X75564419Y-69684850D01*
X75571651Y-69664638D01*
X75580830Y-69645232D01*
X75591866Y-69626819D01*
X75604654Y-69609576D01*
X75619070Y-69593670D01*
X75634976Y-69579254D01*
X75652219Y-69566466D01*
X75670632Y-69555430D01*
X75690038Y-69546251D01*
X75710250Y-69539019D01*
X75731074Y-69533803D01*
X75752309Y-69530653D01*
X75773750Y-69529600D01*
X76286250Y-69529600D01*
X76307691Y-69530653D01*
X76307691Y-69530653D01*
G37*
D12*
X76030000Y-69967100D03*
D11*
G36*
X77882491Y-67955653D02*
G01*
X77903726Y-67958803D01*
X77924550Y-67964019D01*
X77944762Y-67971251D01*
X77964168Y-67980430D01*
X77982581Y-67991466D01*
X77999824Y-68004254D01*
X78015730Y-68018670D01*
X78030146Y-68034576D01*
X78042934Y-68051819D01*
X78053970Y-68070232D01*
X78063149Y-68089638D01*
X78070381Y-68109850D01*
X78075597Y-68130674D01*
X78078747Y-68151909D01*
X78079800Y-68173350D01*
X78079800Y-68610850D01*
X78078747Y-68632291D01*
X78075597Y-68653526D01*
X78070381Y-68674350D01*
X78063149Y-68694562D01*
X78053970Y-68713968D01*
X78042934Y-68732381D01*
X78030146Y-68749624D01*
X78015730Y-68765530D01*
X77999824Y-68779946D01*
X77982581Y-68792734D01*
X77964168Y-68803770D01*
X77944762Y-68812949D01*
X77924550Y-68820181D01*
X77903726Y-68825397D01*
X77882491Y-68828547D01*
X77861050Y-68829600D01*
X77348550Y-68829600D01*
X77327109Y-68828547D01*
X77305874Y-68825397D01*
X77285050Y-68820181D01*
X77264838Y-68812949D01*
X77245432Y-68803770D01*
X77227019Y-68792734D01*
X77209776Y-68779946D01*
X77193870Y-68765530D01*
X77179454Y-68749624D01*
X77166666Y-68732381D01*
X77155630Y-68713968D01*
X77146451Y-68694562D01*
X77139219Y-68674350D01*
X77134003Y-68653526D01*
X77130853Y-68632291D01*
X77129800Y-68610850D01*
X77129800Y-68173350D01*
X77130853Y-68151909D01*
X77134003Y-68130674D01*
X77139219Y-68109850D01*
X77146451Y-68089638D01*
X77155630Y-68070232D01*
X77166666Y-68051819D01*
X77179454Y-68034576D01*
X77193870Y-68018670D01*
X77209776Y-68004254D01*
X77227019Y-67991466D01*
X77245432Y-67980430D01*
X77264838Y-67971251D01*
X77285050Y-67964019D01*
X77305874Y-67958803D01*
X77327109Y-67955653D01*
X77348550Y-67954600D01*
X77861050Y-67954600D01*
X77882491Y-67955653D01*
X77882491Y-67955653D01*
G37*
D12*
X77604800Y-68392100D03*
D11*
G36*
X77882491Y-69530653D02*
G01*
X77903726Y-69533803D01*
X77924550Y-69539019D01*
X77944762Y-69546251D01*
X77964168Y-69555430D01*
X77982581Y-69566466D01*
X77999824Y-69579254D01*
X78015730Y-69593670D01*
X78030146Y-69609576D01*
X78042934Y-69626819D01*
X78053970Y-69645232D01*
X78063149Y-69664638D01*
X78070381Y-69684850D01*
X78075597Y-69705674D01*
X78078747Y-69726909D01*
X78079800Y-69748350D01*
X78079800Y-70185850D01*
X78078747Y-70207291D01*
X78075597Y-70228526D01*
X78070381Y-70249350D01*
X78063149Y-70269562D01*
X78053970Y-70288968D01*
X78042934Y-70307381D01*
X78030146Y-70324624D01*
X78015730Y-70340530D01*
X77999824Y-70354946D01*
X77982581Y-70367734D01*
X77964168Y-70378770D01*
X77944762Y-70387949D01*
X77924550Y-70395181D01*
X77903726Y-70400397D01*
X77882491Y-70403547D01*
X77861050Y-70404600D01*
X77348550Y-70404600D01*
X77327109Y-70403547D01*
X77305874Y-70400397D01*
X77285050Y-70395181D01*
X77264838Y-70387949D01*
X77245432Y-70378770D01*
X77227019Y-70367734D01*
X77209776Y-70354946D01*
X77193870Y-70340530D01*
X77179454Y-70324624D01*
X77166666Y-70307381D01*
X77155630Y-70288968D01*
X77146451Y-70269562D01*
X77139219Y-70249350D01*
X77134003Y-70228526D01*
X77130853Y-70207291D01*
X77129800Y-70185850D01*
X77129800Y-69748350D01*
X77130853Y-69726909D01*
X77134003Y-69705674D01*
X77139219Y-69684850D01*
X77146451Y-69664638D01*
X77155630Y-69645232D01*
X77166666Y-69626819D01*
X77179454Y-69609576D01*
X77193870Y-69593670D01*
X77209776Y-69579254D01*
X77227019Y-69566466D01*
X77245432Y-69555430D01*
X77264838Y-69546251D01*
X77285050Y-69539019D01*
X77305874Y-69533803D01*
X77327109Y-69530653D01*
X77348550Y-69529600D01*
X77861050Y-69529600D01*
X77882491Y-69530653D01*
X77882491Y-69530653D01*
G37*
D12*
X77604800Y-69967100D03*
D11*
G36*
X77870491Y-64438453D02*
G01*
X77891726Y-64441603D01*
X77912550Y-64446819D01*
X77932762Y-64454051D01*
X77952168Y-64463230D01*
X77970581Y-64474266D01*
X77987824Y-64487054D01*
X78003730Y-64501470D01*
X78018146Y-64517376D01*
X78030934Y-64534619D01*
X78041970Y-64553032D01*
X78051149Y-64572438D01*
X78058381Y-64592650D01*
X78063597Y-64613474D01*
X78066747Y-64634709D01*
X78067800Y-64656150D01*
X78067800Y-65168650D01*
X78066747Y-65190091D01*
X78063597Y-65211326D01*
X78058381Y-65232150D01*
X78051149Y-65252362D01*
X78041970Y-65271768D01*
X78030934Y-65290181D01*
X78018146Y-65307424D01*
X78003730Y-65323330D01*
X77987824Y-65337746D01*
X77970581Y-65350534D01*
X77952168Y-65361570D01*
X77932762Y-65370749D01*
X77912550Y-65377981D01*
X77891726Y-65383197D01*
X77870491Y-65386347D01*
X77849050Y-65387400D01*
X77411550Y-65387400D01*
X77390109Y-65386347D01*
X77368874Y-65383197D01*
X77348050Y-65377981D01*
X77327838Y-65370749D01*
X77308432Y-65361570D01*
X77290019Y-65350534D01*
X77272776Y-65337746D01*
X77256870Y-65323330D01*
X77242454Y-65307424D01*
X77229666Y-65290181D01*
X77218630Y-65271768D01*
X77209451Y-65252362D01*
X77202219Y-65232150D01*
X77197003Y-65211326D01*
X77193853Y-65190091D01*
X77192800Y-65168650D01*
X77192800Y-64656150D01*
X77193853Y-64634709D01*
X77197003Y-64613474D01*
X77202219Y-64592650D01*
X77209451Y-64572438D01*
X77218630Y-64553032D01*
X77229666Y-64534619D01*
X77242454Y-64517376D01*
X77256870Y-64501470D01*
X77272776Y-64487054D01*
X77290019Y-64474266D01*
X77308432Y-64463230D01*
X77327838Y-64454051D01*
X77348050Y-64446819D01*
X77368874Y-64441603D01*
X77390109Y-64438453D01*
X77411550Y-64437400D01*
X77849050Y-64437400D01*
X77870491Y-64438453D01*
X77870491Y-64438453D01*
G37*
D12*
X77630300Y-64912400D03*
D11*
G36*
X76295491Y-64438453D02*
G01*
X76316726Y-64441603D01*
X76337550Y-64446819D01*
X76357762Y-64454051D01*
X76377168Y-64463230D01*
X76395581Y-64474266D01*
X76412824Y-64487054D01*
X76428730Y-64501470D01*
X76443146Y-64517376D01*
X76455934Y-64534619D01*
X76466970Y-64553032D01*
X76476149Y-64572438D01*
X76483381Y-64592650D01*
X76488597Y-64613474D01*
X76491747Y-64634709D01*
X76492800Y-64656150D01*
X76492800Y-65168650D01*
X76491747Y-65190091D01*
X76488597Y-65211326D01*
X76483381Y-65232150D01*
X76476149Y-65252362D01*
X76466970Y-65271768D01*
X76455934Y-65290181D01*
X76443146Y-65307424D01*
X76428730Y-65323330D01*
X76412824Y-65337746D01*
X76395581Y-65350534D01*
X76377168Y-65361570D01*
X76357762Y-65370749D01*
X76337550Y-65377981D01*
X76316726Y-65383197D01*
X76295491Y-65386347D01*
X76274050Y-65387400D01*
X75836550Y-65387400D01*
X75815109Y-65386347D01*
X75793874Y-65383197D01*
X75773050Y-65377981D01*
X75752838Y-65370749D01*
X75733432Y-65361570D01*
X75715019Y-65350534D01*
X75697776Y-65337746D01*
X75681870Y-65323330D01*
X75667454Y-65307424D01*
X75654666Y-65290181D01*
X75643630Y-65271768D01*
X75634451Y-65252362D01*
X75627219Y-65232150D01*
X75622003Y-65211326D01*
X75618853Y-65190091D01*
X75617800Y-65168650D01*
X75617800Y-64656150D01*
X75618853Y-64634709D01*
X75622003Y-64613474D01*
X75627219Y-64592650D01*
X75634451Y-64572438D01*
X75643630Y-64553032D01*
X75654666Y-64534619D01*
X75667454Y-64517376D01*
X75681870Y-64501470D01*
X75697776Y-64487054D01*
X75715019Y-64474266D01*
X75733432Y-64463230D01*
X75752838Y-64454051D01*
X75773050Y-64446819D01*
X75793874Y-64441603D01*
X75815109Y-64438453D01*
X75836550Y-64437400D01*
X76274050Y-64437400D01*
X76295491Y-64438453D01*
X76295491Y-64438453D01*
G37*
D12*
X76055300Y-64912400D03*
D17*
X69310400Y-59273600D03*
X74310400Y-59273600D03*
X79310400Y-59273600D03*
D18*
X84310400Y-59273600D03*
D11*
G36*
X76295491Y-71093253D02*
G01*
X76316726Y-71096403D01*
X76337550Y-71101619D01*
X76357762Y-71108851D01*
X76377168Y-71118030D01*
X76395581Y-71129066D01*
X76412824Y-71141854D01*
X76428730Y-71156270D01*
X76443146Y-71172176D01*
X76455934Y-71189419D01*
X76466970Y-71207832D01*
X76476149Y-71227238D01*
X76483381Y-71247450D01*
X76488597Y-71268274D01*
X76491747Y-71289509D01*
X76492800Y-71310950D01*
X76492800Y-71823450D01*
X76491747Y-71844891D01*
X76488597Y-71866126D01*
X76483381Y-71886950D01*
X76476149Y-71907162D01*
X76466970Y-71926568D01*
X76455934Y-71944981D01*
X76443146Y-71962224D01*
X76428730Y-71978130D01*
X76412824Y-71992546D01*
X76395581Y-72005334D01*
X76377168Y-72016370D01*
X76357762Y-72025549D01*
X76337550Y-72032781D01*
X76316726Y-72037997D01*
X76295491Y-72041147D01*
X76274050Y-72042200D01*
X75836550Y-72042200D01*
X75815109Y-72041147D01*
X75793874Y-72037997D01*
X75773050Y-72032781D01*
X75752838Y-72025549D01*
X75733432Y-72016370D01*
X75715019Y-72005334D01*
X75697776Y-71992546D01*
X75681870Y-71978130D01*
X75667454Y-71962224D01*
X75654666Y-71944981D01*
X75643630Y-71926568D01*
X75634451Y-71907162D01*
X75627219Y-71886950D01*
X75622003Y-71866126D01*
X75618853Y-71844891D01*
X75617800Y-71823450D01*
X75617800Y-71310950D01*
X75618853Y-71289509D01*
X75622003Y-71268274D01*
X75627219Y-71247450D01*
X75634451Y-71227238D01*
X75643630Y-71207832D01*
X75654666Y-71189419D01*
X75667454Y-71172176D01*
X75681870Y-71156270D01*
X75697776Y-71141854D01*
X75715019Y-71129066D01*
X75733432Y-71118030D01*
X75752838Y-71108851D01*
X75773050Y-71101619D01*
X75793874Y-71096403D01*
X75815109Y-71093253D01*
X75836550Y-71092200D01*
X76274050Y-71092200D01*
X76295491Y-71093253D01*
X76295491Y-71093253D01*
G37*
D12*
X76055300Y-71567200D03*
D11*
G36*
X77870491Y-71093253D02*
G01*
X77891726Y-71096403D01*
X77912550Y-71101619D01*
X77932762Y-71108851D01*
X77952168Y-71118030D01*
X77970581Y-71129066D01*
X77987824Y-71141854D01*
X78003730Y-71156270D01*
X78018146Y-71172176D01*
X78030934Y-71189419D01*
X78041970Y-71207832D01*
X78051149Y-71227238D01*
X78058381Y-71247450D01*
X78063597Y-71268274D01*
X78066747Y-71289509D01*
X78067800Y-71310950D01*
X78067800Y-71823450D01*
X78066747Y-71844891D01*
X78063597Y-71866126D01*
X78058381Y-71886950D01*
X78051149Y-71907162D01*
X78041970Y-71926568D01*
X78030934Y-71944981D01*
X78018146Y-71962224D01*
X78003730Y-71978130D01*
X77987824Y-71992546D01*
X77970581Y-72005334D01*
X77952168Y-72016370D01*
X77932762Y-72025549D01*
X77912550Y-72032781D01*
X77891726Y-72037997D01*
X77870491Y-72041147D01*
X77849050Y-72042200D01*
X77411550Y-72042200D01*
X77390109Y-72041147D01*
X77368874Y-72037997D01*
X77348050Y-72032781D01*
X77327838Y-72025549D01*
X77308432Y-72016370D01*
X77290019Y-72005334D01*
X77272776Y-71992546D01*
X77256870Y-71978130D01*
X77242454Y-71962224D01*
X77229666Y-71944981D01*
X77218630Y-71926568D01*
X77209451Y-71907162D01*
X77202219Y-71886950D01*
X77197003Y-71866126D01*
X77193853Y-71844891D01*
X77192800Y-71823450D01*
X77192800Y-71310950D01*
X77193853Y-71289509D01*
X77197003Y-71268274D01*
X77202219Y-71247450D01*
X77209451Y-71227238D01*
X77218630Y-71207832D01*
X77229666Y-71189419D01*
X77242454Y-71172176D01*
X77256870Y-71156270D01*
X77272776Y-71141854D01*
X77290019Y-71129066D01*
X77308432Y-71118030D01*
X77327838Y-71108851D01*
X77348050Y-71101619D01*
X77368874Y-71096403D01*
X77390109Y-71093253D01*
X77411550Y-71092200D01*
X77849050Y-71092200D01*
X77870491Y-71093253D01*
X77870491Y-71093253D01*
G37*
D12*
X77630300Y-71567200D03*
D11*
G36*
X83560091Y-75766853D02*
G01*
X83581326Y-75770003D01*
X83602150Y-75775219D01*
X83622362Y-75782451D01*
X83641768Y-75791630D01*
X83660181Y-75802666D01*
X83677424Y-75815454D01*
X83693330Y-75829870D01*
X83707746Y-75845776D01*
X83720534Y-75863019D01*
X83731570Y-75881432D01*
X83740749Y-75900838D01*
X83747981Y-75921050D01*
X83753197Y-75941874D01*
X83756347Y-75963109D01*
X83757400Y-75984550D01*
X83757400Y-76497050D01*
X83756347Y-76518491D01*
X83753197Y-76539726D01*
X83747981Y-76560550D01*
X83740749Y-76580762D01*
X83731570Y-76600168D01*
X83720534Y-76618581D01*
X83707746Y-76635824D01*
X83693330Y-76651730D01*
X83677424Y-76666146D01*
X83660181Y-76678934D01*
X83641768Y-76689970D01*
X83622362Y-76699149D01*
X83602150Y-76706381D01*
X83581326Y-76711597D01*
X83560091Y-76714747D01*
X83538650Y-76715800D01*
X83101150Y-76715800D01*
X83079709Y-76714747D01*
X83058474Y-76711597D01*
X83037650Y-76706381D01*
X83017438Y-76699149D01*
X82998032Y-76689970D01*
X82979619Y-76678934D01*
X82962376Y-76666146D01*
X82946470Y-76651730D01*
X82932054Y-76635824D01*
X82919266Y-76618581D01*
X82908230Y-76600168D01*
X82899051Y-76580762D01*
X82891819Y-76560550D01*
X82886603Y-76539726D01*
X82883453Y-76518491D01*
X82882400Y-76497050D01*
X82882400Y-75984550D01*
X82883453Y-75963109D01*
X82886603Y-75941874D01*
X82891819Y-75921050D01*
X82899051Y-75900838D01*
X82908230Y-75881432D01*
X82919266Y-75863019D01*
X82932054Y-75845776D01*
X82946470Y-75829870D01*
X82962376Y-75815454D01*
X82979619Y-75802666D01*
X82998032Y-75791630D01*
X83017438Y-75782451D01*
X83037650Y-75775219D01*
X83058474Y-75770003D01*
X83079709Y-75766853D01*
X83101150Y-75765800D01*
X83538650Y-75765800D01*
X83560091Y-75766853D01*
X83560091Y-75766853D01*
G37*
D12*
X83319900Y-76240800D03*
D11*
G36*
X81985091Y-75766853D02*
G01*
X82006326Y-75770003D01*
X82027150Y-75775219D01*
X82047362Y-75782451D01*
X82066768Y-75791630D01*
X82085181Y-75802666D01*
X82102424Y-75815454D01*
X82118330Y-75829870D01*
X82132746Y-75845776D01*
X82145534Y-75863019D01*
X82156570Y-75881432D01*
X82165749Y-75900838D01*
X82172981Y-75921050D01*
X82178197Y-75941874D01*
X82181347Y-75963109D01*
X82182400Y-75984550D01*
X82182400Y-76497050D01*
X82181347Y-76518491D01*
X82178197Y-76539726D01*
X82172981Y-76560550D01*
X82165749Y-76580762D01*
X82156570Y-76600168D01*
X82145534Y-76618581D01*
X82132746Y-76635824D01*
X82118330Y-76651730D01*
X82102424Y-76666146D01*
X82085181Y-76678934D01*
X82066768Y-76689970D01*
X82047362Y-76699149D01*
X82027150Y-76706381D01*
X82006326Y-76711597D01*
X81985091Y-76714747D01*
X81963650Y-76715800D01*
X81526150Y-76715800D01*
X81504709Y-76714747D01*
X81483474Y-76711597D01*
X81462650Y-76706381D01*
X81442438Y-76699149D01*
X81423032Y-76689970D01*
X81404619Y-76678934D01*
X81387376Y-76666146D01*
X81371470Y-76651730D01*
X81357054Y-76635824D01*
X81344266Y-76618581D01*
X81333230Y-76600168D01*
X81324051Y-76580762D01*
X81316819Y-76560550D01*
X81311603Y-76539726D01*
X81308453Y-76518491D01*
X81307400Y-76497050D01*
X81307400Y-75984550D01*
X81308453Y-75963109D01*
X81311603Y-75941874D01*
X81316819Y-75921050D01*
X81324051Y-75900838D01*
X81333230Y-75881432D01*
X81344266Y-75863019D01*
X81357054Y-75845776D01*
X81371470Y-75829870D01*
X81387376Y-75815454D01*
X81404619Y-75802666D01*
X81423032Y-75791630D01*
X81442438Y-75782451D01*
X81462650Y-75775219D01*
X81483474Y-75770003D01*
X81504709Y-75766853D01*
X81526150Y-75765800D01*
X81963650Y-75765800D01*
X81985091Y-75766853D01*
X81985091Y-75766853D01*
G37*
D12*
X81744900Y-76240800D03*
D11*
G36*
X83534791Y-74141253D02*
G01*
X83556026Y-74144403D01*
X83576850Y-74149619D01*
X83597062Y-74156851D01*
X83616468Y-74166030D01*
X83634881Y-74177066D01*
X83652124Y-74189854D01*
X83668030Y-74204270D01*
X83682446Y-74220176D01*
X83695234Y-74237419D01*
X83706270Y-74255832D01*
X83715449Y-74275238D01*
X83722681Y-74295450D01*
X83727897Y-74316274D01*
X83731047Y-74337509D01*
X83732100Y-74358950D01*
X83732100Y-74871450D01*
X83731047Y-74892891D01*
X83727897Y-74914126D01*
X83722681Y-74934950D01*
X83715449Y-74955162D01*
X83706270Y-74974568D01*
X83695234Y-74992981D01*
X83682446Y-75010224D01*
X83668030Y-75026130D01*
X83652124Y-75040546D01*
X83634881Y-75053334D01*
X83616468Y-75064370D01*
X83597062Y-75073549D01*
X83576850Y-75080781D01*
X83556026Y-75085997D01*
X83534791Y-75089147D01*
X83513350Y-75090200D01*
X83075850Y-75090200D01*
X83054409Y-75089147D01*
X83033174Y-75085997D01*
X83012350Y-75080781D01*
X82992138Y-75073549D01*
X82972732Y-75064370D01*
X82954319Y-75053334D01*
X82937076Y-75040546D01*
X82921170Y-75026130D01*
X82906754Y-75010224D01*
X82893966Y-74992981D01*
X82882930Y-74974568D01*
X82873751Y-74955162D01*
X82866519Y-74934950D01*
X82861303Y-74914126D01*
X82858153Y-74892891D01*
X82857100Y-74871450D01*
X82857100Y-74358950D01*
X82858153Y-74337509D01*
X82861303Y-74316274D01*
X82866519Y-74295450D01*
X82873751Y-74275238D01*
X82882930Y-74255832D01*
X82893966Y-74237419D01*
X82906754Y-74220176D01*
X82921170Y-74204270D01*
X82937076Y-74189854D01*
X82954319Y-74177066D01*
X82972732Y-74166030D01*
X82992138Y-74156851D01*
X83012350Y-74149619D01*
X83033174Y-74144403D01*
X83054409Y-74141253D01*
X83075850Y-74140200D01*
X83513350Y-74140200D01*
X83534791Y-74141253D01*
X83534791Y-74141253D01*
G37*
D12*
X83294600Y-74615200D03*
D11*
G36*
X81959791Y-74141253D02*
G01*
X81981026Y-74144403D01*
X82001850Y-74149619D01*
X82022062Y-74156851D01*
X82041468Y-74166030D01*
X82059881Y-74177066D01*
X82077124Y-74189854D01*
X82093030Y-74204270D01*
X82107446Y-74220176D01*
X82120234Y-74237419D01*
X82131270Y-74255832D01*
X82140449Y-74275238D01*
X82147681Y-74295450D01*
X82152897Y-74316274D01*
X82156047Y-74337509D01*
X82157100Y-74358950D01*
X82157100Y-74871450D01*
X82156047Y-74892891D01*
X82152897Y-74914126D01*
X82147681Y-74934950D01*
X82140449Y-74955162D01*
X82131270Y-74974568D01*
X82120234Y-74992981D01*
X82107446Y-75010224D01*
X82093030Y-75026130D01*
X82077124Y-75040546D01*
X82059881Y-75053334D01*
X82041468Y-75064370D01*
X82022062Y-75073549D01*
X82001850Y-75080781D01*
X81981026Y-75085997D01*
X81959791Y-75089147D01*
X81938350Y-75090200D01*
X81500850Y-75090200D01*
X81479409Y-75089147D01*
X81458174Y-75085997D01*
X81437350Y-75080781D01*
X81417138Y-75073549D01*
X81397732Y-75064370D01*
X81379319Y-75053334D01*
X81362076Y-75040546D01*
X81346170Y-75026130D01*
X81331754Y-75010224D01*
X81318966Y-74992981D01*
X81307930Y-74974568D01*
X81298751Y-74955162D01*
X81291519Y-74934950D01*
X81286303Y-74914126D01*
X81283153Y-74892891D01*
X81282100Y-74871450D01*
X81282100Y-74358950D01*
X81283153Y-74337509D01*
X81286303Y-74316274D01*
X81291519Y-74295450D01*
X81298751Y-74275238D01*
X81307930Y-74255832D01*
X81318966Y-74237419D01*
X81331754Y-74220176D01*
X81346170Y-74204270D01*
X81362076Y-74189854D01*
X81379319Y-74177066D01*
X81397732Y-74166030D01*
X81417138Y-74156851D01*
X81437350Y-74149619D01*
X81458174Y-74144403D01*
X81479409Y-74141253D01*
X81500850Y-74140200D01*
X81938350Y-74140200D01*
X81959791Y-74141253D01*
X81959791Y-74141253D01*
G37*
D12*
X81719600Y-74615200D03*
D11*
G36*
X124352491Y-78357653D02*
G01*
X124373726Y-78360803D01*
X124394550Y-78366019D01*
X124414762Y-78373251D01*
X124434168Y-78382430D01*
X124452581Y-78393466D01*
X124469824Y-78406254D01*
X124485730Y-78420670D01*
X124500146Y-78436576D01*
X124512934Y-78453819D01*
X124523970Y-78472232D01*
X124533149Y-78491638D01*
X124540381Y-78511850D01*
X124545597Y-78532674D01*
X124548747Y-78553909D01*
X124549800Y-78575350D01*
X124549800Y-79087850D01*
X124548747Y-79109291D01*
X124545597Y-79130526D01*
X124540381Y-79151350D01*
X124533149Y-79171562D01*
X124523970Y-79190968D01*
X124512934Y-79209381D01*
X124500146Y-79226624D01*
X124485730Y-79242530D01*
X124469824Y-79256946D01*
X124452581Y-79269734D01*
X124434168Y-79280770D01*
X124414762Y-79289949D01*
X124394550Y-79297181D01*
X124373726Y-79302397D01*
X124352491Y-79305547D01*
X124331050Y-79306600D01*
X123893550Y-79306600D01*
X123872109Y-79305547D01*
X123850874Y-79302397D01*
X123830050Y-79297181D01*
X123809838Y-79289949D01*
X123790432Y-79280770D01*
X123772019Y-79269734D01*
X123754776Y-79256946D01*
X123738870Y-79242530D01*
X123724454Y-79226624D01*
X123711666Y-79209381D01*
X123700630Y-79190968D01*
X123691451Y-79171562D01*
X123684219Y-79151350D01*
X123679003Y-79130526D01*
X123675853Y-79109291D01*
X123674800Y-79087850D01*
X123674800Y-78575350D01*
X123675853Y-78553909D01*
X123679003Y-78532674D01*
X123684219Y-78511850D01*
X123691451Y-78491638D01*
X123700630Y-78472232D01*
X123711666Y-78453819D01*
X123724454Y-78436576D01*
X123738870Y-78420670D01*
X123754776Y-78406254D01*
X123772019Y-78393466D01*
X123790432Y-78382430D01*
X123809838Y-78373251D01*
X123830050Y-78366019D01*
X123850874Y-78360803D01*
X123872109Y-78357653D01*
X123893550Y-78356600D01*
X124331050Y-78356600D01*
X124352491Y-78357653D01*
X124352491Y-78357653D01*
G37*
D12*
X124112300Y-78831600D03*
D11*
G36*
X122777491Y-78357653D02*
G01*
X122798726Y-78360803D01*
X122819550Y-78366019D01*
X122839762Y-78373251D01*
X122859168Y-78382430D01*
X122877581Y-78393466D01*
X122894824Y-78406254D01*
X122910730Y-78420670D01*
X122925146Y-78436576D01*
X122937934Y-78453819D01*
X122948970Y-78472232D01*
X122958149Y-78491638D01*
X122965381Y-78511850D01*
X122970597Y-78532674D01*
X122973747Y-78553909D01*
X122974800Y-78575350D01*
X122974800Y-79087850D01*
X122973747Y-79109291D01*
X122970597Y-79130526D01*
X122965381Y-79151350D01*
X122958149Y-79171562D01*
X122948970Y-79190968D01*
X122937934Y-79209381D01*
X122925146Y-79226624D01*
X122910730Y-79242530D01*
X122894824Y-79256946D01*
X122877581Y-79269734D01*
X122859168Y-79280770D01*
X122839762Y-79289949D01*
X122819550Y-79297181D01*
X122798726Y-79302397D01*
X122777491Y-79305547D01*
X122756050Y-79306600D01*
X122318550Y-79306600D01*
X122297109Y-79305547D01*
X122275874Y-79302397D01*
X122255050Y-79297181D01*
X122234838Y-79289949D01*
X122215432Y-79280770D01*
X122197019Y-79269734D01*
X122179776Y-79256946D01*
X122163870Y-79242530D01*
X122149454Y-79226624D01*
X122136666Y-79209381D01*
X122125630Y-79190968D01*
X122116451Y-79171562D01*
X122109219Y-79151350D01*
X122104003Y-79130526D01*
X122100853Y-79109291D01*
X122099800Y-79087850D01*
X122099800Y-78575350D01*
X122100853Y-78553909D01*
X122104003Y-78532674D01*
X122109219Y-78511850D01*
X122116451Y-78491638D01*
X122125630Y-78472232D01*
X122136666Y-78453819D01*
X122149454Y-78436576D01*
X122163870Y-78420670D01*
X122179776Y-78406254D01*
X122197019Y-78393466D01*
X122215432Y-78382430D01*
X122234838Y-78373251D01*
X122255050Y-78366019D01*
X122275874Y-78360803D01*
X122297109Y-78357653D01*
X122318550Y-78356600D01*
X122756050Y-78356600D01*
X122777491Y-78357653D01*
X122777491Y-78357653D01*
G37*
D12*
X122537300Y-78831600D03*
D11*
G36*
X124352491Y-79881653D02*
G01*
X124373726Y-79884803D01*
X124394550Y-79890019D01*
X124414762Y-79897251D01*
X124434168Y-79906430D01*
X124452581Y-79917466D01*
X124469824Y-79930254D01*
X124485730Y-79944670D01*
X124500146Y-79960576D01*
X124512934Y-79977819D01*
X124523970Y-79996232D01*
X124533149Y-80015638D01*
X124540381Y-80035850D01*
X124545597Y-80056674D01*
X124548747Y-80077909D01*
X124549800Y-80099350D01*
X124549800Y-80611850D01*
X124548747Y-80633291D01*
X124545597Y-80654526D01*
X124540381Y-80675350D01*
X124533149Y-80695562D01*
X124523970Y-80714968D01*
X124512934Y-80733381D01*
X124500146Y-80750624D01*
X124485730Y-80766530D01*
X124469824Y-80780946D01*
X124452581Y-80793734D01*
X124434168Y-80804770D01*
X124414762Y-80813949D01*
X124394550Y-80821181D01*
X124373726Y-80826397D01*
X124352491Y-80829547D01*
X124331050Y-80830600D01*
X123893550Y-80830600D01*
X123872109Y-80829547D01*
X123850874Y-80826397D01*
X123830050Y-80821181D01*
X123809838Y-80813949D01*
X123790432Y-80804770D01*
X123772019Y-80793734D01*
X123754776Y-80780946D01*
X123738870Y-80766530D01*
X123724454Y-80750624D01*
X123711666Y-80733381D01*
X123700630Y-80714968D01*
X123691451Y-80695562D01*
X123684219Y-80675350D01*
X123679003Y-80654526D01*
X123675853Y-80633291D01*
X123674800Y-80611850D01*
X123674800Y-80099350D01*
X123675853Y-80077909D01*
X123679003Y-80056674D01*
X123684219Y-80035850D01*
X123691451Y-80015638D01*
X123700630Y-79996232D01*
X123711666Y-79977819D01*
X123724454Y-79960576D01*
X123738870Y-79944670D01*
X123754776Y-79930254D01*
X123772019Y-79917466D01*
X123790432Y-79906430D01*
X123809838Y-79897251D01*
X123830050Y-79890019D01*
X123850874Y-79884803D01*
X123872109Y-79881653D01*
X123893550Y-79880600D01*
X124331050Y-79880600D01*
X124352491Y-79881653D01*
X124352491Y-79881653D01*
G37*
D12*
X124112300Y-80355600D03*
D11*
G36*
X122777491Y-79881653D02*
G01*
X122798726Y-79884803D01*
X122819550Y-79890019D01*
X122839762Y-79897251D01*
X122859168Y-79906430D01*
X122877581Y-79917466D01*
X122894824Y-79930254D01*
X122910730Y-79944670D01*
X122925146Y-79960576D01*
X122937934Y-79977819D01*
X122948970Y-79996232D01*
X122958149Y-80015638D01*
X122965381Y-80035850D01*
X122970597Y-80056674D01*
X122973747Y-80077909D01*
X122974800Y-80099350D01*
X122974800Y-80611850D01*
X122973747Y-80633291D01*
X122970597Y-80654526D01*
X122965381Y-80675350D01*
X122958149Y-80695562D01*
X122948970Y-80714968D01*
X122937934Y-80733381D01*
X122925146Y-80750624D01*
X122910730Y-80766530D01*
X122894824Y-80780946D01*
X122877581Y-80793734D01*
X122859168Y-80804770D01*
X122839762Y-80813949D01*
X122819550Y-80821181D01*
X122798726Y-80826397D01*
X122777491Y-80829547D01*
X122756050Y-80830600D01*
X122318550Y-80830600D01*
X122297109Y-80829547D01*
X122275874Y-80826397D01*
X122255050Y-80821181D01*
X122234838Y-80813949D01*
X122215432Y-80804770D01*
X122197019Y-80793734D01*
X122179776Y-80780946D01*
X122163870Y-80766530D01*
X122149454Y-80750624D01*
X122136666Y-80733381D01*
X122125630Y-80714968D01*
X122116451Y-80695562D01*
X122109219Y-80675350D01*
X122104003Y-80654526D01*
X122100853Y-80633291D01*
X122099800Y-80611850D01*
X122099800Y-80099350D01*
X122100853Y-80077909D01*
X122104003Y-80056674D01*
X122109219Y-80035850D01*
X122116451Y-80015638D01*
X122125630Y-79996232D01*
X122136666Y-79977819D01*
X122149454Y-79960576D01*
X122163870Y-79944670D01*
X122179776Y-79930254D01*
X122197019Y-79917466D01*
X122215432Y-79906430D01*
X122234838Y-79897251D01*
X122255050Y-79890019D01*
X122275874Y-79884803D01*
X122297109Y-79881653D01*
X122318550Y-79880600D01*
X122756050Y-79880600D01*
X122777491Y-79881653D01*
X122777491Y-79881653D01*
G37*
D12*
X122537300Y-80355600D03*
D15*
X127541200Y-95595600D03*
X127541200Y-93055600D03*
X127541200Y-90515600D03*
X127541200Y-87975600D03*
X127541200Y-85435600D03*
X127541200Y-82895600D03*
D16*
X127541200Y-80355600D03*
D15*
X117940000Y-115560000D03*
X117940000Y-113020000D03*
X117940000Y-110480000D03*
X117940000Y-107940000D03*
X117940000Y-105400000D03*
X117940000Y-102860000D03*
X117940000Y-100320000D03*
X117940000Y-97780000D03*
X117940000Y-95240000D03*
X117940000Y-92700000D03*
X117940000Y-90160000D03*
X117940000Y-87620000D03*
X117940000Y-85080000D03*
X117940000Y-82540000D03*
D16*
X117940000Y-80000000D03*
D15*
X87460000Y-115560000D03*
X87460000Y-113020000D03*
X87460000Y-110480000D03*
X87460000Y-107940000D03*
X87460000Y-105400000D03*
X87460000Y-102860000D03*
X87460000Y-100320000D03*
X87460000Y-97780000D03*
X87460000Y-95240000D03*
X87460000Y-92700000D03*
X87460000Y-90160000D03*
X87460000Y-87620000D03*
X87460000Y-85080000D03*
X87460000Y-82540000D03*
D16*
X87460000Y-80000000D03*
D15*
X92159000Y-65141000D03*
X94699000Y-65141000D03*
X97239000Y-65141000D03*
D16*
X99779000Y-65141000D03*
D15*
X105367000Y-65141000D03*
X107907000Y-65141000D03*
X110447000Y-65141000D03*
D16*
X112987000Y-65141000D03*
D11*
G36*
X100188691Y-97363053D02*
G01*
X100209926Y-97366203D01*
X100230750Y-97371419D01*
X100250962Y-97378651D01*
X100270368Y-97387830D01*
X100288781Y-97398866D01*
X100306024Y-97411654D01*
X100321930Y-97426070D01*
X100336346Y-97441976D01*
X100349134Y-97459219D01*
X100360170Y-97477632D01*
X100369349Y-97497038D01*
X100376581Y-97517250D01*
X100381797Y-97538074D01*
X100384947Y-97559309D01*
X100386000Y-97580750D01*
X100386000Y-98093250D01*
X100384947Y-98114691D01*
X100381797Y-98135926D01*
X100376581Y-98156750D01*
X100369349Y-98176962D01*
X100360170Y-98196368D01*
X100349134Y-98214781D01*
X100336346Y-98232024D01*
X100321930Y-98247930D01*
X100306024Y-98262346D01*
X100288781Y-98275134D01*
X100270368Y-98286170D01*
X100250962Y-98295349D01*
X100230750Y-98302581D01*
X100209926Y-98307797D01*
X100188691Y-98310947D01*
X100167250Y-98312000D01*
X99729750Y-98312000D01*
X99708309Y-98310947D01*
X99687074Y-98307797D01*
X99666250Y-98302581D01*
X99646038Y-98295349D01*
X99626632Y-98286170D01*
X99608219Y-98275134D01*
X99590976Y-98262346D01*
X99575070Y-98247930D01*
X99560654Y-98232024D01*
X99547866Y-98214781D01*
X99536830Y-98196368D01*
X99527651Y-98176962D01*
X99520419Y-98156750D01*
X99515203Y-98135926D01*
X99512053Y-98114691D01*
X99511000Y-98093250D01*
X99511000Y-97580750D01*
X99512053Y-97559309D01*
X99515203Y-97538074D01*
X99520419Y-97517250D01*
X99527651Y-97497038D01*
X99536830Y-97477632D01*
X99547866Y-97459219D01*
X99560654Y-97441976D01*
X99575070Y-97426070D01*
X99590976Y-97411654D01*
X99608219Y-97398866D01*
X99626632Y-97387830D01*
X99646038Y-97378651D01*
X99666250Y-97371419D01*
X99687074Y-97366203D01*
X99708309Y-97363053D01*
X99729750Y-97362000D01*
X100167250Y-97362000D01*
X100188691Y-97363053D01*
X100188691Y-97363053D01*
G37*
D12*
X99948500Y-97837000D03*
D11*
G36*
X101763691Y-97363053D02*
G01*
X101784926Y-97366203D01*
X101805750Y-97371419D01*
X101825962Y-97378651D01*
X101845368Y-97387830D01*
X101863781Y-97398866D01*
X101881024Y-97411654D01*
X101896930Y-97426070D01*
X101911346Y-97441976D01*
X101924134Y-97459219D01*
X101935170Y-97477632D01*
X101944349Y-97497038D01*
X101951581Y-97517250D01*
X101956797Y-97538074D01*
X101959947Y-97559309D01*
X101961000Y-97580750D01*
X101961000Y-98093250D01*
X101959947Y-98114691D01*
X101956797Y-98135926D01*
X101951581Y-98156750D01*
X101944349Y-98176962D01*
X101935170Y-98196368D01*
X101924134Y-98214781D01*
X101911346Y-98232024D01*
X101896930Y-98247930D01*
X101881024Y-98262346D01*
X101863781Y-98275134D01*
X101845368Y-98286170D01*
X101825962Y-98295349D01*
X101805750Y-98302581D01*
X101784926Y-98307797D01*
X101763691Y-98310947D01*
X101742250Y-98312000D01*
X101304750Y-98312000D01*
X101283309Y-98310947D01*
X101262074Y-98307797D01*
X101241250Y-98302581D01*
X101221038Y-98295349D01*
X101201632Y-98286170D01*
X101183219Y-98275134D01*
X101165976Y-98262346D01*
X101150070Y-98247930D01*
X101135654Y-98232024D01*
X101122866Y-98214781D01*
X101111830Y-98196368D01*
X101102651Y-98176962D01*
X101095419Y-98156750D01*
X101090203Y-98135926D01*
X101087053Y-98114691D01*
X101086000Y-98093250D01*
X101086000Y-97580750D01*
X101087053Y-97559309D01*
X101090203Y-97538074D01*
X101095419Y-97517250D01*
X101102651Y-97497038D01*
X101111830Y-97477632D01*
X101122866Y-97459219D01*
X101135654Y-97441976D01*
X101150070Y-97426070D01*
X101165976Y-97411654D01*
X101183219Y-97398866D01*
X101201632Y-97387830D01*
X101221038Y-97378651D01*
X101241250Y-97371419D01*
X101262074Y-97366203D01*
X101283309Y-97363053D01*
X101304750Y-97362000D01*
X101742250Y-97362000D01*
X101763691Y-97363053D01*
X101763691Y-97363053D01*
G37*
D12*
X101523500Y-97837000D03*
D11*
G36*
X100188691Y-95763053D02*
G01*
X100209926Y-95766203D01*
X100230750Y-95771419D01*
X100250962Y-95778651D01*
X100270368Y-95787830D01*
X100288781Y-95798866D01*
X100306024Y-95811654D01*
X100321930Y-95826070D01*
X100336346Y-95841976D01*
X100349134Y-95859219D01*
X100360170Y-95877632D01*
X100369349Y-95897038D01*
X100376581Y-95917250D01*
X100381797Y-95938074D01*
X100384947Y-95959309D01*
X100386000Y-95980750D01*
X100386000Y-96493250D01*
X100384947Y-96514691D01*
X100381797Y-96535926D01*
X100376581Y-96556750D01*
X100369349Y-96576962D01*
X100360170Y-96596368D01*
X100349134Y-96614781D01*
X100336346Y-96632024D01*
X100321930Y-96647930D01*
X100306024Y-96662346D01*
X100288781Y-96675134D01*
X100270368Y-96686170D01*
X100250962Y-96695349D01*
X100230750Y-96702581D01*
X100209926Y-96707797D01*
X100188691Y-96710947D01*
X100167250Y-96712000D01*
X99729750Y-96712000D01*
X99708309Y-96710947D01*
X99687074Y-96707797D01*
X99666250Y-96702581D01*
X99646038Y-96695349D01*
X99626632Y-96686170D01*
X99608219Y-96675134D01*
X99590976Y-96662346D01*
X99575070Y-96647930D01*
X99560654Y-96632024D01*
X99547866Y-96614781D01*
X99536830Y-96596368D01*
X99527651Y-96576962D01*
X99520419Y-96556750D01*
X99515203Y-96535926D01*
X99512053Y-96514691D01*
X99511000Y-96493250D01*
X99511000Y-95980750D01*
X99512053Y-95959309D01*
X99515203Y-95938074D01*
X99520419Y-95917250D01*
X99527651Y-95897038D01*
X99536830Y-95877632D01*
X99547866Y-95859219D01*
X99560654Y-95841976D01*
X99575070Y-95826070D01*
X99590976Y-95811654D01*
X99608219Y-95798866D01*
X99626632Y-95787830D01*
X99646038Y-95778651D01*
X99666250Y-95771419D01*
X99687074Y-95766203D01*
X99708309Y-95763053D01*
X99729750Y-95762000D01*
X100167250Y-95762000D01*
X100188691Y-95763053D01*
X100188691Y-95763053D01*
G37*
D12*
X99948500Y-96237000D03*
D11*
G36*
X101763691Y-95763053D02*
G01*
X101784926Y-95766203D01*
X101805750Y-95771419D01*
X101825962Y-95778651D01*
X101845368Y-95787830D01*
X101863781Y-95798866D01*
X101881024Y-95811654D01*
X101896930Y-95826070D01*
X101911346Y-95841976D01*
X101924134Y-95859219D01*
X101935170Y-95877632D01*
X101944349Y-95897038D01*
X101951581Y-95917250D01*
X101956797Y-95938074D01*
X101959947Y-95959309D01*
X101961000Y-95980750D01*
X101961000Y-96493250D01*
X101959947Y-96514691D01*
X101956797Y-96535926D01*
X101951581Y-96556750D01*
X101944349Y-96576962D01*
X101935170Y-96596368D01*
X101924134Y-96614781D01*
X101911346Y-96632024D01*
X101896930Y-96647930D01*
X101881024Y-96662346D01*
X101863781Y-96675134D01*
X101845368Y-96686170D01*
X101825962Y-96695349D01*
X101805750Y-96702581D01*
X101784926Y-96707797D01*
X101763691Y-96710947D01*
X101742250Y-96712000D01*
X101304750Y-96712000D01*
X101283309Y-96710947D01*
X101262074Y-96707797D01*
X101241250Y-96702581D01*
X101221038Y-96695349D01*
X101201632Y-96686170D01*
X101183219Y-96675134D01*
X101165976Y-96662346D01*
X101150070Y-96647930D01*
X101135654Y-96632024D01*
X101122866Y-96614781D01*
X101111830Y-96596368D01*
X101102651Y-96576962D01*
X101095419Y-96556750D01*
X101090203Y-96535926D01*
X101087053Y-96514691D01*
X101086000Y-96493250D01*
X101086000Y-95980750D01*
X101087053Y-95959309D01*
X101090203Y-95938074D01*
X101095419Y-95917250D01*
X101102651Y-95897038D01*
X101111830Y-95877632D01*
X101122866Y-95859219D01*
X101135654Y-95841976D01*
X101150070Y-95826070D01*
X101165976Y-95811654D01*
X101183219Y-95798866D01*
X101201632Y-95787830D01*
X101221038Y-95778651D01*
X101241250Y-95771419D01*
X101262074Y-95766203D01*
X101283309Y-95763053D01*
X101304750Y-95762000D01*
X101742250Y-95762000D01*
X101763691Y-95763053D01*
X101763691Y-95763053D01*
G37*
D12*
X101523500Y-96237000D03*
D11*
G36*
X110331691Y-98195053D02*
G01*
X110352926Y-98198203D01*
X110373750Y-98203419D01*
X110393962Y-98210651D01*
X110413368Y-98219830D01*
X110431781Y-98230866D01*
X110449024Y-98243654D01*
X110464930Y-98258070D01*
X110479346Y-98273976D01*
X110492134Y-98291219D01*
X110503170Y-98309632D01*
X110512349Y-98329038D01*
X110519581Y-98349250D01*
X110524797Y-98370074D01*
X110527947Y-98391309D01*
X110529000Y-98412750D01*
X110529000Y-98925250D01*
X110527947Y-98946691D01*
X110524797Y-98967926D01*
X110519581Y-98988750D01*
X110512349Y-99008962D01*
X110503170Y-99028368D01*
X110492134Y-99046781D01*
X110479346Y-99064024D01*
X110464930Y-99079930D01*
X110449024Y-99094346D01*
X110431781Y-99107134D01*
X110413368Y-99118170D01*
X110393962Y-99127349D01*
X110373750Y-99134581D01*
X110352926Y-99139797D01*
X110331691Y-99142947D01*
X110310250Y-99144000D01*
X109872750Y-99144000D01*
X109851309Y-99142947D01*
X109830074Y-99139797D01*
X109809250Y-99134581D01*
X109789038Y-99127349D01*
X109769632Y-99118170D01*
X109751219Y-99107134D01*
X109733976Y-99094346D01*
X109718070Y-99079930D01*
X109703654Y-99064024D01*
X109690866Y-99046781D01*
X109679830Y-99028368D01*
X109670651Y-99008962D01*
X109663419Y-98988750D01*
X109658203Y-98967926D01*
X109655053Y-98946691D01*
X109654000Y-98925250D01*
X109654000Y-98412750D01*
X109655053Y-98391309D01*
X109658203Y-98370074D01*
X109663419Y-98349250D01*
X109670651Y-98329038D01*
X109679830Y-98309632D01*
X109690866Y-98291219D01*
X109703654Y-98273976D01*
X109718070Y-98258070D01*
X109733976Y-98243654D01*
X109751219Y-98230866D01*
X109769632Y-98219830D01*
X109789038Y-98210651D01*
X109809250Y-98203419D01*
X109830074Y-98198203D01*
X109851309Y-98195053D01*
X109872750Y-98194000D01*
X110310250Y-98194000D01*
X110331691Y-98195053D01*
X110331691Y-98195053D01*
G37*
D12*
X110091500Y-98669000D03*
D11*
G36*
X108756691Y-98195053D02*
G01*
X108777926Y-98198203D01*
X108798750Y-98203419D01*
X108818962Y-98210651D01*
X108838368Y-98219830D01*
X108856781Y-98230866D01*
X108874024Y-98243654D01*
X108889930Y-98258070D01*
X108904346Y-98273976D01*
X108917134Y-98291219D01*
X108928170Y-98309632D01*
X108937349Y-98329038D01*
X108944581Y-98349250D01*
X108949797Y-98370074D01*
X108952947Y-98391309D01*
X108954000Y-98412750D01*
X108954000Y-98925250D01*
X108952947Y-98946691D01*
X108949797Y-98967926D01*
X108944581Y-98988750D01*
X108937349Y-99008962D01*
X108928170Y-99028368D01*
X108917134Y-99046781D01*
X108904346Y-99064024D01*
X108889930Y-99079930D01*
X108874024Y-99094346D01*
X108856781Y-99107134D01*
X108838368Y-99118170D01*
X108818962Y-99127349D01*
X108798750Y-99134581D01*
X108777926Y-99139797D01*
X108756691Y-99142947D01*
X108735250Y-99144000D01*
X108297750Y-99144000D01*
X108276309Y-99142947D01*
X108255074Y-99139797D01*
X108234250Y-99134581D01*
X108214038Y-99127349D01*
X108194632Y-99118170D01*
X108176219Y-99107134D01*
X108158976Y-99094346D01*
X108143070Y-99079930D01*
X108128654Y-99064024D01*
X108115866Y-99046781D01*
X108104830Y-99028368D01*
X108095651Y-99008962D01*
X108088419Y-98988750D01*
X108083203Y-98967926D01*
X108080053Y-98946691D01*
X108079000Y-98925250D01*
X108079000Y-98412750D01*
X108080053Y-98391309D01*
X108083203Y-98370074D01*
X108088419Y-98349250D01*
X108095651Y-98329038D01*
X108104830Y-98309632D01*
X108115866Y-98291219D01*
X108128654Y-98273976D01*
X108143070Y-98258070D01*
X108158976Y-98243654D01*
X108176219Y-98230866D01*
X108194632Y-98219830D01*
X108214038Y-98210651D01*
X108234250Y-98203419D01*
X108255074Y-98198203D01*
X108276309Y-98195053D01*
X108297750Y-98194000D01*
X108735250Y-98194000D01*
X108756691Y-98195053D01*
X108756691Y-98195053D01*
G37*
D12*
X108516500Y-98669000D03*
D29*
X91270000Y-135034000D03*
D30*
X88045000Y-135034000D03*
X88989581Y-132753581D03*
X91270000Y-131809000D03*
X93550419Y-132753581D03*
X94495000Y-135034000D03*
X93550419Y-137314419D03*
X91270000Y-138259000D03*
X88989581Y-137314419D03*
D29*
X101420000Y-135034000D03*
D30*
X98195000Y-135034000D03*
X99139581Y-132753581D03*
X101420000Y-131809000D03*
X103700419Y-132753581D03*
X104645000Y-135034000D03*
X103700419Y-137314419D03*
X101420000Y-138259000D03*
X99139581Y-137314419D03*
D11*
G36*
X115233691Y-126262053D02*
G01*
X115254926Y-126265203D01*
X115275750Y-126270419D01*
X115295962Y-126277651D01*
X115315368Y-126286830D01*
X115333781Y-126297866D01*
X115351024Y-126310654D01*
X115366930Y-126325070D01*
X115381346Y-126340976D01*
X115394134Y-126358219D01*
X115405170Y-126376632D01*
X115414349Y-126396038D01*
X115421581Y-126416250D01*
X115426797Y-126437074D01*
X115429947Y-126458309D01*
X115431000Y-126479750D01*
X115431000Y-126992250D01*
X115429947Y-127013691D01*
X115426797Y-127034926D01*
X115421581Y-127055750D01*
X115414349Y-127075962D01*
X115405170Y-127095368D01*
X115394134Y-127113781D01*
X115381346Y-127131024D01*
X115366930Y-127146930D01*
X115351024Y-127161346D01*
X115333781Y-127174134D01*
X115315368Y-127185170D01*
X115295962Y-127194349D01*
X115275750Y-127201581D01*
X115254926Y-127206797D01*
X115233691Y-127209947D01*
X115212250Y-127211000D01*
X114774750Y-127211000D01*
X114753309Y-127209947D01*
X114732074Y-127206797D01*
X114711250Y-127201581D01*
X114691038Y-127194349D01*
X114671632Y-127185170D01*
X114653219Y-127174134D01*
X114635976Y-127161346D01*
X114620070Y-127146930D01*
X114605654Y-127131024D01*
X114592866Y-127113781D01*
X114581830Y-127095368D01*
X114572651Y-127075962D01*
X114565419Y-127055750D01*
X114560203Y-127034926D01*
X114557053Y-127013691D01*
X114556000Y-126992250D01*
X114556000Y-126479750D01*
X114557053Y-126458309D01*
X114560203Y-126437074D01*
X114565419Y-126416250D01*
X114572651Y-126396038D01*
X114581830Y-126376632D01*
X114592866Y-126358219D01*
X114605654Y-126340976D01*
X114620070Y-126325070D01*
X114635976Y-126310654D01*
X114653219Y-126297866D01*
X114671632Y-126286830D01*
X114691038Y-126277651D01*
X114711250Y-126270419D01*
X114732074Y-126265203D01*
X114753309Y-126262053D01*
X114774750Y-126261000D01*
X115212250Y-126261000D01*
X115233691Y-126262053D01*
X115233691Y-126262053D01*
G37*
D12*
X114993500Y-126736000D03*
D11*
G36*
X116808691Y-126262053D02*
G01*
X116829926Y-126265203D01*
X116850750Y-126270419D01*
X116870962Y-126277651D01*
X116890368Y-126286830D01*
X116908781Y-126297866D01*
X116926024Y-126310654D01*
X116941930Y-126325070D01*
X116956346Y-126340976D01*
X116969134Y-126358219D01*
X116980170Y-126376632D01*
X116989349Y-126396038D01*
X116996581Y-126416250D01*
X117001797Y-126437074D01*
X117004947Y-126458309D01*
X117006000Y-126479750D01*
X117006000Y-126992250D01*
X117004947Y-127013691D01*
X117001797Y-127034926D01*
X116996581Y-127055750D01*
X116989349Y-127075962D01*
X116980170Y-127095368D01*
X116969134Y-127113781D01*
X116956346Y-127131024D01*
X116941930Y-127146930D01*
X116926024Y-127161346D01*
X116908781Y-127174134D01*
X116890368Y-127185170D01*
X116870962Y-127194349D01*
X116850750Y-127201581D01*
X116829926Y-127206797D01*
X116808691Y-127209947D01*
X116787250Y-127211000D01*
X116349750Y-127211000D01*
X116328309Y-127209947D01*
X116307074Y-127206797D01*
X116286250Y-127201581D01*
X116266038Y-127194349D01*
X116246632Y-127185170D01*
X116228219Y-127174134D01*
X116210976Y-127161346D01*
X116195070Y-127146930D01*
X116180654Y-127131024D01*
X116167866Y-127113781D01*
X116156830Y-127095368D01*
X116147651Y-127075962D01*
X116140419Y-127055750D01*
X116135203Y-127034926D01*
X116132053Y-127013691D01*
X116131000Y-126992250D01*
X116131000Y-126479750D01*
X116132053Y-126458309D01*
X116135203Y-126437074D01*
X116140419Y-126416250D01*
X116147651Y-126396038D01*
X116156830Y-126376632D01*
X116167866Y-126358219D01*
X116180654Y-126340976D01*
X116195070Y-126325070D01*
X116210976Y-126310654D01*
X116228219Y-126297866D01*
X116246632Y-126286830D01*
X116266038Y-126277651D01*
X116286250Y-126270419D01*
X116307074Y-126265203D01*
X116328309Y-126262053D01*
X116349750Y-126261000D01*
X116787250Y-126261000D01*
X116808691Y-126262053D01*
X116808691Y-126262053D01*
G37*
D12*
X116568500Y-126736000D03*
D11*
G36*
X111677691Y-126262053D02*
G01*
X111698926Y-126265203D01*
X111719750Y-126270419D01*
X111739962Y-126277651D01*
X111759368Y-126286830D01*
X111777781Y-126297866D01*
X111795024Y-126310654D01*
X111810930Y-126325070D01*
X111825346Y-126340976D01*
X111838134Y-126358219D01*
X111849170Y-126376632D01*
X111858349Y-126396038D01*
X111865581Y-126416250D01*
X111870797Y-126437074D01*
X111873947Y-126458309D01*
X111875000Y-126479750D01*
X111875000Y-126992250D01*
X111873947Y-127013691D01*
X111870797Y-127034926D01*
X111865581Y-127055750D01*
X111858349Y-127075962D01*
X111849170Y-127095368D01*
X111838134Y-127113781D01*
X111825346Y-127131024D01*
X111810930Y-127146930D01*
X111795024Y-127161346D01*
X111777781Y-127174134D01*
X111759368Y-127185170D01*
X111739962Y-127194349D01*
X111719750Y-127201581D01*
X111698926Y-127206797D01*
X111677691Y-127209947D01*
X111656250Y-127211000D01*
X111218750Y-127211000D01*
X111197309Y-127209947D01*
X111176074Y-127206797D01*
X111155250Y-127201581D01*
X111135038Y-127194349D01*
X111115632Y-127185170D01*
X111097219Y-127174134D01*
X111079976Y-127161346D01*
X111064070Y-127146930D01*
X111049654Y-127131024D01*
X111036866Y-127113781D01*
X111025830Y-127095368D01*
X111016651Y-127075962D01*
X111009419Y-127055750D01*
X111004203Y-127034926D01*
X111001053Y-127013691D01*
X111000000Y-126992250D01*
X111000000Y-126479750D01*
X111001053Y-126458309D01*
X111004203Y-126437074D01*
X111009419Y-126416250D01*
X111016651Y-126396038D01*
X111025830Y-126376632D01*
X111036866Y-126358219D01*
X111049654Y-126340976D01*
X111064070Y-126325070D01*
X111079976Y-126310654D01*
X111097219Y-126297866D01*
X111115632Y-126286830D01*
X111135038Y-126277651D01*
X111155250Y-126270419D01*
X111176074Y-126265203D01*
X111197309Y-126262053D01*
X111218750Y-126261000D01*
X111656250Y-126261000D01*
X111677691Y-126262053D01*
X111677691Y-126262053D01*
G37*
D12*
X111437500Y-126736000D03*
D11*
G36*
X113252691Y-126262053D02*
G01*
X113273926Y-126265203D01*
X113294750Y-126270419D01*
X113314962Y-126277651D01*
X113334368Y-126286830D01*
X113352781Y-126297866D01*
X113370024Y-126310654D01*
X113385930Y-126325070D01*
X113400346Y-126340976D01*
X113413134Y-126358219D01*
X113424170Y-126376632D01*
X113433349Y-126396038D01*
X113440581Y-126416250D01*
X113445797Y-126437074D01*
X113448947Y-126458309D01*
X113450000Y-126479750D01*
X113450000Y-126992250D01*
X113448947Y-127013691D01*
X113445797Y-127034926D01*
X113440581Y-127055750D01*
X113433349Y-127075962D01*
X113424170Y-127095368D01*
X113413134Y-127113781D01*
X113400346Y-127131024D01*
X113385930Y-127146930D01*
X113370024Y-127161346D01*
X113352781Y-127174134D01*
X113334368Y-127185170D01*
X113314962Y-127194349D01*
X113294750Y-127201581D01*
X113273926Y-127206797D01*
X113252691Y-127209947D01*
X113231250Y-127211000D01*
X112793750Y-127211000D01*
X112772309Y-127209947D01*
X112751074Y-127206797D01*
X112730250Y-127201581D01*
X112710038Y-127194349D01*
X112690632Y-127185170D01*
X112672219Y-127174134D01*
X112654976Y-127161346D01*
X112639070Y-127146930D01*
X112624654Y-127131024D01*
X112611866Y-127113781D01*
X112600830Y-127095368D01*
X112591651Y-127075962D01*
X112584419Y-127055750D01*
X112579203Y-127034926D01*
X112576053Y-127013691D01*
X112575000Y-126992250D01*
X112575000Y-126479750D01*
X112576053Y-126458309D01*
X112579203Y-126437074D01*
X112584419Y-126416250D01*
X112591651Y-126396038D01*
X112600830Y-126376632D01*
X112611866Y-126358219D01*
X112624654Y-126340976D01*
X112639070Y-126325070D01*
X112654976Y-126310654D01*
X112672219Y-126297866D01*
X112690632Y-126286830D01*
X112710038Y-126277651D01*
X112730250Y-126270419D01*
X112751074Y-126265203D01*
X112772309Y-126262053D01*
X112793750Y-126261000D01*
X113231250Y-126261000D01*
X113252691Y-126262053D01*
X113252691Y-126262053D01*
G37*
D12*
X113012500Y-126736000D03*
D15*
X115400000Y-115560000D03*
X115400000Y-113020000D03*
X115400000Y-110480000D03*
X115400000Y-107940000D03*
X115400000Y-105400000D03*
X115400000Y-102860000D03*
X115400000Y-100320000D03*
X115400000Y-97780000D03*
X115400000Y-95240000D03*
X115400000Y-92700000D03*
X115400000Y-90160000D03*
X115400000Y-87620000D03*
X115400000Y-85080000D03*
X115400000Y-82540000D03*
D16*
X115400000Y-80000000D03*
D15*
X90000000Y-115560000D03*
X90000000Y-113020000D03*
X90000000Y-110480000D03*
X90000000Y-107940000D03*
X90000000Y-105400000D03*
X90000000Y-102860000D03*
X90000000Y-100320000D03*
X90000000Y-97780000D03*
X90000000Y-95240000D03*
X90000000Y-92700000D03*
X90000000Y-90160000D03*
X90000000Y-87620000D03*
X90000000Y-85080000D03*
X90000000Y-82540000D03*
D16*
X90000000Y-80000000D03*
M02*
